<svg width="55" height="64" viewBox="0 0 55 64" fill="none" xmlns="http://www.w3.org/2000/svg">
<path d="M2.83252 62C2.83252 55.6348 5.44326 49.5303 10.0904 45.0294C14.7376 40.5286 21.0405 38 27.6125 38C34.1846 38 40.4875 40.5286 45.1346 45.0294C49.7818 49.5303 52.3925 55.6348 52.3925 62H2.83252Z" stroke="#747578" stroke-width="4" stroke-linecap="round" stroke-linejoin="round"/>
<path d="M30.6 38.192L34.4326 27.0533L45.7488 23.4027C45.9932 23.3235 46.2087 23.1776 46.3694 22.9825C46.5301 22.7875 46.6291 22.5515 46.6544 22.3032C46.6797 22.0548 46.6303 21.8047 46.5121 21.5829C46.394 21.3611 46.2121 21.1772 45.9884 21.0533L35.377 15.1867V3.29333C35.3764 3.04912 35.3043 2.81009 35.1692 2.60388C35.0342 2.39767 34.8416 2.23271 34.6137 2.1281C34.3859 2.02348 34.1321 1.98348 33.8818 2.01272C33.6314 2.04197 33.3948 2.13925 33.1992 2.29333L25.0025 8.8L13.3889 5.03733C13.1539 4.96185 12.9018 4.95115 12.6608 5.00644C12.4198 5.06172 12.1995 5.18082 12.0244 5.35041C11.8493 5.52001 11.7263 5.73342 11.6692 5.9668C11.6121 6.20019 11.6232 6.44435 11.7011 6.672L15.5751 17.92L8.86794 25.8667C8.70885 26.0561 8.6084 26.2854 8.57821 26.5278C8.54802 26.7703 8.58932 27.016 8.69734 27.2367C8.80535 27.4574 8.97567 27.6439 9.18858 27.7747C9.40149 27.9056 9.64829 27.9754 9.90044 27.976H22.1748L28.1082 38.032" stroke="#747578" stroke-width="4" stroke-linecap="round" stroke-linejoin="round"/>
</svg>
