<svg width="30" height="30" viewBox="0 0 30 30" fill="none" xmlns="http://www.w3.org/2000/svg">
<rect width="30" height="30" rx="15" fill="#48A380"/>
<path d="M8.78427 15.328H12.5163V14.032H8.78427V11.14H12.7803V9.82H7.10427V19H8.78427V15.328ZM14.3933 19H15.9293V11.572H15.9653C15.9653 11.572 16.1333 12.28 16.4933 13.336L18.4013 19H19.7213L21.6533 13.336C22.0133 12.28 22.1813 11.572 22.1813 11.572H22.2173V19H23.8853V9.82H21.4493L19.5413 15.328C19.2773 16.108 19.1573 16.636 19.1573 16.636H19.1333C19.1333 16.636 19.0013 16.108 18.7373 15.34L16.8413 9.82H14.3933V19Z" fill="white"/>
</svg>
