<svg width="128" height="114" viewBox="0 0 128 114" fill="none" xmlns="http://www.w3.org/2000/svg">
<path d="M1.479 57C1.479 71.8521 7.37899 86.0959 17.881 96.598C28.3831 107.1 42.6269 113 57.479 113C72.3311 113 86.5749 107.1 97.077 96.598C107.579 86.0959 113.479 71.8521 113.479 57C113.479 42.1479 107.579 27.9041 97.077 17.402C86.5749 6.89998 72.3311 1 57.479 1C42.6269 1 28.3831 6.89998 17.881 17.402C7.37899 27.9041 1.479 42.1479 1.479 57V57Z" fill="#D8EBF5" stroke="#D8EBF5" stroke-width="1.4"/>
<path d="M15.9272 23.6406H95.9905V80.8278H15.9272V23.6406Z" fill="white"/>
<path d="M75.0713 69.0782C75.0664 73.1374 75.9515 77.1483 77.6641 80.8284H92.2073C93.2098 80.8284 94.1713 80.4302 94.8802 79.7213C95.5891 79.0124 95.9873 78.051 95.9873 77.0484V42.04C90.0029 43.6015 84.7045 47.1018 80.9203 51.9937C77.136 56.8856 75.0792 62.8935 75.0713 69.0782V69.0782Z" fill="#EFEFF0"/>
<path d="M15.9272 32.0957H95.9905V39.4891H15.9272V32.0957Z" fill="#555658"/>
<path d="M61.3684 32.0957H15.9272V39.4905H53.9736L61.3684 32.0957Z" fill="#747578"/>
<path d="M15.9272 32.0957H95.9905V39.4891H15.9272V32.0957Z" stroke="#212122" stroke-width="1.4" stroke-linecap="round" stroke-linejoin="round"/>
<path d="M15.9272 23.6406H95.9905V80.8278H15.9272V23.6406Z" stroke="#212122" stroke-width="1.4" stroke-linecap="round" stroke-linejoin="round"/>
<path d="M77.0398 57.4532C77.0398 58.6586 75.413 59.6344 73.3998 59.6344C71.3866 59.6344 69.7598 58.6544 69.7598 57.4532C69.7598 56.252 71.3866 55.2734 73.3998 55.2734C75.413 55.2734 77.0398 56.2492 77.0398 57.4532Z" fill="#F7CED8"/>
<path d="M34.8804 57.4532C34.8804 58.6586 36.5086 59.6344 38.5204 59.6344C40.5322 59.6344 42.1604 58.6544 42.1604 57.4532C42.1604 56.252 40.5336 55.2734 38.5204 55.2734C36.5072 55.2734 34.8804 56.2492 34.8804 57.4532Z" fill="#F7CED8"/>
<path d="M43.3433 48.7302C43.3433 49.4449 43.6272 50.1304 44.1326 50.6358C44.638 51.1412 45.3235 51.4252 46.0383 51.4252C46.753 51.4252 47.4385 51.1412 47.9439 50.6358C48.4493 50.1304 48.7333 49.4449 48.7333 48.7302C48.7333 48.0154 48.4493 47.3299 47.9439 46.8245C47.4385 46.3191 46.753 46.0352 46.0383 46.0352C45.3235 46.0352 44.638 46.3191 44.1326 46.8245C43.6272 47.3299 43.3433 48.0154 43.3433 48.7302V48.7302Z" fill="#212122"/>
<path d="M63.3589 48.7302C63.3589 49.4449 63.6428 50.1304 64.1482 50.6358C64.6536 51.1412 65.3391 51.4252 66.0539 51.4252C66.7686 51.4252 67.4541 51.1412 67.9595 50.6358C68.465 50.1304 68.7489 49.4449 68.7489 48.7302C68.7489 48.0154 68.465 47.3299 67.9595 46.8245C67.4541 46.3191 66.7686 46.0352 66.0539 46.0352C65.3391 46.0352 64.6536 46.3191 64.1482 46.8245C63.6428 47.3299 63.3589 48.0154 63.3589 48.7302V48.7302Z" fill="#212122"/>
<path d="M55.9572 74.9018C59.2677 74.9722 62.4919 73.8431 65.0351 71.7226C67.5783 69.6022 69.2688 66.6336 69.7948 63.3644C69.8205 63.1677 69.7977 62.9676 69.7284 62.7817C69.6591 62.5958 69.5454 62.4296 69.3972 62.2976C69.244 62.1603 69.062 62.0591 68.8646 62.0012C68.6672 61.9433 68.4593 61.9302 68.2562 61.963C60.1088 63.2678 51.8057 63.2678 43.6582 61.963C43.4554 61.9302 43.2477 61.9432 43.0505 62.0011C42.8533 62.059 42.6716 62.1603 42.5186 62.2976C42.3705 62.4296 42.2568 62.5958 42.1875 62.7817C42.1182 62.9676 42.0954 63.1677 42.121 63.3644C42.647 66.6333 44.3373 69.6018 46.8802 71.7222C49.4231 73.8426 52.647 74.9719 55.9572 74.9018Z" fill="#EF9CB1" stroke="#212122" stroke-width="1.4" stroke-linecap="round" stroke-linejoin="round"/>
<path d="M45.8003 70.7377C48.9737 69.2415 52.4543 68.5116 55.9615 68.6069C59.4692 68.5114 62.9502 69.2413 66.1241 70.7377C63.4147 73.4057 59.7647 74.9012 55.9622 74.9012C52.1597 74.9012 48.5097 73.4057 45.8003 70.7377Z" fill="#F7CED8" stroke="#212122" stroke-width="1.4" stroke-linecap="round" stroke-linejoin="round"/>
<path d="M32.8223 94.1994C32.8223 95.1741 35.2421 96.1088 39.5496 96.798C43.857 97.4872 49.6991 97.8744 55.7907 97.8744C61.8823 97.8744 67.7244 97.4872 72.0318 96.798C76.3392 96.1088 78.7591 95.1741 78.7591 94.1994C78.7591 93.2247 76.3392 92.29 72.0318 91.6008C67.7244 90.9116 61.8823 90.5244 55.7907 90.5244C49.6991 90.5244 43.857 90.9116 39.5496 91.6008C35.2421 92.29 32.8223 93.2247 32.8223 94.1994V94.1994Z" fill="#B4DBEE"/>
<path d="M79.4814 69.0776C79.4814 75.3155 81.9594 81.2979 86.3703 85.7088C90.7812 90.1196 96.7636 92.5976 103.001 92.5976C109.239 92.5976 115.222 90.1196 119.633 85.7088C124.043 81.2979 126.521 75.3155 126.521 69.0776C126.521 62.8397 124.043 56.8573 119.633 52.4465C115.222 48.0356 109.239 45.5576 103.001 45.5576C96.7636 45.5576 90.7812 48.0356 86.3703 52.4465C81.9594 56.8573 79.4814 62.8397 79.4814 69.0776V69.0776Z" fill="#48A380"/>
<path d="M103.001 54.3779C108.472 54.3805 113.771 56.2902 117.985 59.7781C122.2 63.2661 125.067 68.1142 126.093 73.4879C126.751 70.0838 126.648 66.5763 125.792 63.2165C124.937 59.8567 123.348 56.7276 121.142 54.0534C118.935 51.3792 116.164 49.2259 113.028 47.7477C109.892 46.2695 106.468 45.5029 103 45.5029C99.5333 45.5029 96.1091 46.2695 92.9728 47.7477C89.8366 49.2259 87.066 51.3792 84.8593 54.0534C82.6526 56.7276 81.0644 59.8567 80.2085 63.2165C79.3525 66.5763 79.25 70.0838 79.9082 73.4879C80.934 68.1139 83.8011 63.2657 88.0161 59.7777C92.2311 56.2897 97.5302 54.3802 103.001 54.3779V54.3779Z" fill="#76BAA0"/>
<path d="M79.4814 69.0776C79.4814 75.3155 81.9594 81.2979 86.3703 85.7088C90.7812 90.1196 96.7636 92.5976 103.001 92.5976C109.239 92.5976 115.222 90.1196 119.633 85.7088C124.043 81.2979 126.521 75.3155 126.521 69.0776C126.521 62.8397 124.043 56.8573 119.633 52.4465C115.222 48.0356 109.239 45.5576 103.001 45.5576C96.7636 45.5576 90.7812 48.0356 86.3703 52.4465C81.9594 56.8573 79.4814 62.8397 79.4814 69.0776V69.0776Z" stroke="#212122" stroke-width="1.4" stroke-linecap="round" stroke-linejoin="round"/>
<path d="M98.1113 81.3345C97.663 81.3351 97.219 81.2471 96.8048 81.0756C96.3905 80.9041 96.0143 80.6523 95.6977 80.3349L88.8713 73.5085C88.2312 72.8684 87.8716 72.0002 87.8716 71.0949C87.8716 70.1896 88.2312 69.3214 88.8713 68.6813C89.5115 68.0412 90.3797 67.6815 91.2849 67.6815C92.1902 67.6815 93.0584 68.0412 93.6985 68.6813L98.1113 73.0997L112.009 59.2019C112.649 58.5618 113.517 58.2021 114.423 58.2021C115.328 58.2021 116.196 58.5618 116.836 59.2019C117.476 59.842 117.836 60.7102 117.836 61.6155C117.836 62.5208 117.476 63.389 116.836 64.0291L100.525 80.3349C100.208 80.6523 99.8321 80.9041 99.4179 81.0756C99.0037 81.2471 98.5597 81.3351 98.1113 81.3345V81.3345Z" fill="white" stroke="#388367" stroke-width="1.4" stroke-linecap="round" stroke-linejoin="round"/>
</svg>
