<svg width="122" height="122" viewBox="0 0 122 122" fill="none" xmlns="http://www.w3.org/2000/svg">
<path d="M119.279 104.095C121.156 103.462 121.191 102.346 120.972 100.781C120.791 99.5974 117.022 84.3757 116.511 81.3888C115.999 78.3117 118.423 67.6422 117.185 59.9769C117.039 59.0297 116.693 57.0636 116.184 56.2444C116.111 56.1164 115.838 57.3005 114.584 57.9923C112.177 59.2524 109.602 60.16 106.937 60.6873C101.092 61.2147 99.9816 59.3395 99.9816 59.3395C99.9816 59.3395 99.7992 60.7782 99.7812 60.8691C99.49 62.9081 94.2824 78.0934 94.1736 81.3888C94.0821 83.7197 97.7236 104.349 98.0334 104.767C98.4174 105.295 101.711 105.532 101.912 104.822C102.296 103.493 102.296 85.9225 102.913 83.3734C104.224 78.0934 105.644 75.5808 109.013 69.9731C110.25 69.408 112.144 67.4419 112.271 67.5692C112.399 67.6966 109.959 70.0454 109.959 70.0454C109.373 71.171 108.844 72.3258 108.375 73.5052C108.375 73.6505 107.629 80.5152 108.776 83.5737C110.323 87.7069 116.896 103.875 116.896 103.875C116.896 103.875 117.585 104.664 119.279 104.095Z" fill="#432747"/>
<path d="M78.2765 49.9634C77.8623 50.3614 77.4179 50.7266 76.9472 51.0559C76.8957 51.0851 76.8542 51.129 76.8278 51.1821C76.8015 51.2351 76.7917 51.2948 76.7995 51.3534C76.8073 51.4121 76.8325 51.4671 76.8719 51.5114C76.9112 51.5556 76.9628 51.5871 77.0202 51.6018C77.9751 51.7336 78.4333 50.6213 79.0234 50.3999C79.4348 50.2987 79.8561 50.2438 80.2797 50.236C80.4979 50.1995 80.4435 49.852 80.2247 49.852C79.4784 49.8354 78.9677 49.4335 78.2765 49.9634Z" fill="#432747"/>
<path d="M121.181 103.475C121.067 103.241 120.707 103.366 120.707 103.603C120.689 104.822 121.327 106.006 121.145 107.226C119.787 107.634 118.407 107.963 117.012 108.209C114.926 108.438 111.465 108.346 111.84 108.209C112.15 108.1 112.459 108.1 112.787 107.991C113.668 107.74 114.491 107.316 115.207 106.744C115.922 106.172 116.517 105.463 116.957 104.659C116.979 104.615 116.985 104.565 116.975 104.517C116.964 104.469 116.937 104.426 116.898 104.396C116.859 104.366 116.811 104.35 116.762 104.351C116.713 104.353 116.666 104.371 116.629 104.403C114.935 106.242 114.532 106.426 112.332 107.316C111.913 107.48 111.076 107.608 110.86 108.063C110.66 108.463 110.969 108.773 111.333 108.864C113.13 109.044 114.94 109.068 116.741 108.937C118.311 108.832 119.854 108.476 121.311 107.881C121.719 107.72 122.224 105.627 121.181 103.475Z" fill="#432747"/>
<path d="M101.432 105.533C101.569 106.351 101.63 107.18 101.614 108.009C101.559 108.701 101.486 108.701 100.867 108.738C99.2353 108.83 92.1275 108.702 92.1275 108.574C92.1275 108.483 96.0955 106.553 97.8081 105.497C97.8308 105.483 97.8507 105.466 97.8666 105.445C97.8826 105.424 97.8942 105.4 97.901 105.375C97.9077 105.35 97.9094 105.323 97.9059 105.297C97.9025 105.271 97.8939 105.246 97.8808 105.224C97.8676 105.201 97.8501 105.181 97.8293 105.165C97.8084 105.149 97.7847 105.137 97.7593 105.131C97.734 105.124 97.7076 105.122 97.6816 105.126C97.6556 105.129 97.6305 105.138 97.6078 105.151C95.6782 106.025 93.7844 106.935 91.8907 107.882C91.49 108.082 90.9441 108.246 91.108 108.81C91.236 109.284 91.5995 109.284 92.0001 109.322C93.5297 109.45 95.0952 109.431 96.6248 109.468C98.1358 109.486 99.7019 109.559 101.213 109.431C102.941 109.286 102.415 106.591 102.014 105.463C101.887 105.169 101.398 105.187 101.432 105.533Z" fill="#432747"/>
<path d="M35.5932 97.3215C35.098 97.1336 34.5595 97.0902 34.0406 97.1965C33.5216 97.3028 33.0436 97.5543 32.662 97.9218C31.7699 98.869 31.9516 100.253 32.0976 101.436C32.6334 105.331 32.1637 109.299 30.7331 112.961C30.6966 113.053 30.4963 113.417 31.0972 113.654C33.6099 114.6 36.9603 114.928 38.9264 112.889C41.0204 110.722 40.2012 106.881 39.6003 104.258C39.071 101.946 38.2147 98.1785 35.5932 97.3215ZM39.2528 109.411C39.2878 110.243 39.0557 111.065 38.5905 111.756C38.1254 112.447 37.4514 112.971 36.6672 113.251C34.8464 113.924 32.4432 113.288 31.3507 112.887C32.9523 109.278 33.5014 105.291 32.9347 101.384C32.8438 100.582 32.6787 99.6556 33.0627 98.9074C33.9548 97.1225 36.1763 98.3954 36.9232 99.5628C37.7205 100.954 38.2805 102.468 38.5801 104.043C39.0316 105.796 39.2577 107.6 39.2528 109.411Z" fill="#432747"/>
<path d="M28.6673 103.311C28.5904 103.551 28.5735 103.806 28.6181 104.053C28.6628 104.301 28.7675 104.534 28.9233 104.732C28.9418 104.788 28.9729 104.84 29.0143 104.884C29.0556 104.927 29.1062 104.96 29.1622 104.981C29.2182 105.002 29.2782 105.01 29.3377 105.005C29.3973 105 29.4549 104.981 29.5063 104.95C30.1796 104.604 29.834 103.512 29.3969 103.13C29.3428 103.077 29.2763 103.04 29.2037 103.02C29.1311 103.001 29.0547 103 28.9817 103.019C28.9088 103.037 28.8417 103.073 28.7867 103.124C28.7317 103.176 28.6906 103.24 28.6673 103.311Z" fill="#432747"/>
<path d="M30.4099 110.722C28.8217 111.917 26.8251 112.434 24.8566 112.161C24.1462 111.888 24.5654 111.105 24.6006 110.668C24.6863 108.876 22.7055 109.406 22.1046 108.592C22.7523 107.459 24.095 106.823 24.8566 105.224C26.3158 102.149 24.3983 100.044 25.2022 97.631C26.1129 94.8636 28.9897 93.535 31.4294 92.4054C31.9753 92.1494 31.5023 91.3314 30.9558 91.5862C28.7708 92.6057 26.495 93.7167 25.0934 95.7737C24.4842 96.6519 24.1197 97.6764 24.0374 98.742C23.9644 100.107 24.5289 101.4 24.5103 102.766C24.4841 104.143 23.9226 105.455 22.9449 106.425C22.2524 107.136 21.4153 107.791 21.0889 108.774C20.4879 110.668 22.2537 112.179 23.8927 112.652C25.0615 112.968 26.2908 112.985 27.4678 112.701C28.6447 112.418 29.7318 111.844 30.6294 111.032C30.8105 110.868 30.5948 110.581 30.4099 110.722Z" fill="#432747"/>
<path d="M89.1015 103.439C89.083 102.747 89.4107 100.471 88.9735 100.362C84.5313 99.1417 82.9108 94.4626 83.1291 90.2565C83.4203 84.5029 86.9531 79.4962 88.2273 73.9609C88.9012 70.9932 89.0465 67.861 87.8267 65.0207C87.7537 64.8389 87.4625 64.9477 87.4811 65.1301C87.0427 65.5685 87.0971 72.0357 83.73 76.9285C82.6147 78.6165 81.109 80.0108 79.3404 80.9933C77.5718 81.9758 75.5924 82.5176 73.57 82.5727C71.3686 82.5704 69.1708 82.3939 66.9972 82.0447C60.1497 81.2598 53.2453 81.0953 46.3681 81.5532C42.5448 81.8265 37.7742 83.0098 35.7896 86.6879C35.6801 86.9061 35.9713 87.1615 36.1537 86.9612C39.2148 83.4809 42.6644 82.6623 47.3697 82.4274C66.1479 81.5538 68.276 84.1465 74.8993 83.4105C83.0075 82.501 87.6641 74.6514 87.8811 66.5324C90.2119 77.0015 78.1767 86.6514 83.5291 97.0117C84.0368 98.0123 84.7424 98.8994 85.6032 99.6192C86.4639 100.339 87.4618 100.877 88.5364 101.199C88.3865 101.874 88.3252 102.566 88.354 103.257C88.3013 106.26 88.8002 109.246 89.826 112.069C88.8929 112.705 88.1249 113.554 87.586 114.546C86.2356 114.658 84.875 115.061 84.2727 114.637C83.435 114.072 83.9995 112.925 84.6727 112.525C85.0258 112.326 85.4343 112.248 85.8356 112.304C86.237 112.36 86.6088 112.546 86.8942 112.834C87.2948 113.198 87.8958 112.598 87.4952 112.233C87.4408 112.178 87.3857 112.142 87.3313 112.088C87.6733 112.036 87.9894 111.875 88.2323 111.629C88.4752 111.383 88.6317 111.064 88.6785 110.722C88.8974 109.338 87.6411 107.827 87.0036 106.716C86.2932 105.478 85.6379 104.022 84.4724 103.132C83.3435 102.276 81.9239 102.149 80.5761 101.967C77.426 101.548 74.1121 101.111 71.4363 99.2901C69.051 97.6697 67.3755 95.1391 64.4807 94.3743C61.8407 93.6639 58.818 94.101 57.0158 96.2674C56.9699 96.3133 56.9441 96.3754 56.944 96.4403C56.9439 96.5052 56.9696 96.5674 57.0155 96.6133C57.0613 96.6593 57.1235 96.6851 57.1884 96.6852C57.2532 96.6852 57.3155 96.6595 57.3614 96.6137C59.7294 94.7199 62.7873 94.1554 65.5911 95.6671C67.0478 96.4498 68.1768 97.6697 69.3966 98.7621C73.5387 102.482 77.2859 102.061 82.1057 103.059C84.4647 103.558 84.8884 104.647 85.9841 106.518C86.4391 107.302 86.8942 108.066 87.3281 108.849C87.762 109.632 88.6209 111.179 86.7092 111.729C85.2161 111.128 83.2315 111.766 83.0491 113.623C82.8129 116.209 87.4919 115.188 88.1473 114.788C88.811 114.159 88.8404 113.726 90.5153 112.53C90.588 112.482 90.6443 112.412 90.6768 112.331C90.7092 112.249 90.7163 112.16 90.6971 112.075C89.6547 109.314 89.1144 106.389 89.1015 103.439Z" fill="#432747"/>
<path d="M80.7678 103.694C80.6948 103.53 80.4215 103.494 80.3838 103.694C79.7892 106.309 83.0993 110.793 79.1825 114.364C78.2538 114.346 77.1063 114.728 76.3601 114.291C75.9761 114.054 75.7956 113.18 76.6334 112.616C77.0942 112.405 77.5997 112.312 78.1054 112.343C80.1994 112.398 79.6529 109.393 79.2887 108.209C78.6783 106.154 77.6837 104.232 76.3575 102.547C76.2116 102.365 75.9569 102.602 76.0663 102.783C77.2019 104.803 78.0832 106.956 78.6903 109.192C78.963 110.285 78.8906 111.032 77.9978 111.742C76.8145 110.922 75.3034 112.652 75.2458 113.799C75.2006 114.135 75.2902 114.474 75.495 114.744C75.6997 115.014 76.003 115.191 76.3383 115.238C77.4195 115.405 78.5236 115.342 79.5793 115.055C80.2193 114.799 81.8366 112.288 81.9095 110.849C81.7798 108.431 81.3971 106.033 80.7678 103.694Z" fill="#432747"/>
<path d="M59.2231 99.1436C58.6286 98.4422 57.9428 97.8236 57.184 97.3042C56.1095 96.4665 55.0356 95.6293 53.9431 94.8281C53.7792 94.7001 53.5591 94.974 53.7242 95.1193C55.1962 96.4486 56.8743 97.6319 58.2215 99.0706C59.6935 100.636 59.1687 103.204 59.2231 105.188C59.4612 114.703 61.0279 116.52 58.9671 117.697C58.5279 117.943 58.0431 118.098 57.5423 118.151C57.0415 118.204 56.535 118.155 56.0538 118.006C55.3076 117.715 55.3255 116.932 55.9808 116.513C56.3271 116.295 56.7636 116.222 57.1277 116.022C58.2932 115.348 58.8557 113.418 58.8762 112.162C58.8941 110.395 57.9655 108.757 56.9639 107.355C55.9266 105.902 54.7498 104.555 53.4503 103.331C51.4797 101.463 46.1812 97.5071 43.5636 96.1574C43.2173 95.975 42.9805 96.4306 43.2717 96.6693C44.9472 97.9621 46.841 99.0182 48.5703 100.239C51.6602 102.408 55.7492 106.063 57.4196 109.469C58.4026 111.453 58.53 114.641 56.1268 115.606C55.0343 116.043 53.9597 117.408 55.1252 118.446C56.2176 119.429 58.53 119.065 59.6404 118.3C61.3159 117.153 60.9332 115.223 60.7328 113.494C59.5674 103.57 60.6343 101.064 59.2231 99.1436Z" fill="#432747"/>
<path d="M48.3171 100.945C47.0288 100.571 43.9651 100.699 42.5456 100.999C42.2896 101.054 42.3811 101.4 42.6 101.419C43.6016 101.509 44.6026 101.491 45.6042 101.509C46.513 101.582 47.4262 101.582 48.3351 101.509C48.6269 101.473 48.5719 101.018 48.3171 100.945Z" fill="#432747"/>
<path d="M49.2229 105.496C48.531 105.441 47.8213 105.569 47.1294 105.569C46.4509 105.509 45.7762 105.412 45.1083 105.278C45.0611 105.278 45.0145 105.289 44.9733 105.312C44.9322 105.336 44.8978 105.369 44.8738 105.41C44.8497 105.451 44.8369 105.497 44.8365 105.544C44.8361 105.591 44.8482 105.638 44.8715 105.679C45.6907 106.881 47.6574 106.371 48.8587 106.371C49.7329 106.371 50.9349 106.589 51.1352 107.609C51.4078 108.974 49.5147 108.774 48.7313 108.683C46.8798 108.461 45.0668 107.989 43.3419 107.281C43.1237 107.19 42.1585 106.735 42.0677 106.261C42.0066 105.713 42.1351 105.161 42.4318 104.696C42.8165 103.889 43.2671 103.115 43.779 102.383C43.9249 102.182 43.6152 101.946 43.4334 102.127C42.3768 103.238 40.028 106.095 41.8334 107.48C42.8841 108.126 44.0346 108.593 45.2382 108.863C46.5312 109.254 47.8608 109.511 49.2062 109.631C50.0805 109.704 51.1 109.65 51.6824 108.903C51.9047 108.573 52.0189 108.182 52.0092 107.784C51.9994 107.386 51.8662 107.001 51.628 106.682C51.3474 106.31 50.9837 106.009 50.5661 105.804C50.1484 105.598 49.6884 105.493 49.2229 105.496Z" fill="#432747"/>
<path d="M48.0885 102.274C46.1582 102.415 44.6472 104.022 43.8101 105.642C43.7812 105.693 43.7736 105.753 43.7892 105.81C43.8047 105.866 43.8421 105.914 43.893 105.943C43.9439 105.972 44.0042 105.98 44.0607 105.964C44.1172 105.949 44.1652 105.911 44.1941 105.86C45.1771 104.276 46.6523 103.567 48.2363 102.747C48.2848 102.718 48.3219 102.672 48.3418 102.619C48.3618 102.566 48.3634 102.507 48.3464 102.453C48.3295 102.399 48.2949 102.352 48.2482 102.319C48.2015 102.287 48.1453 102.271 48.0885 102.274Z" fill="#432747"/>
<path d="M41.2027 81.5355C45.9477 78.2293 73.0843 55.2258 75.3058 53.5323C74.6139 55.2437 76.5256 55.7902 77.5086 55.972C78.3285 56.1358 79.4024 56.4456 80.2037 56.0264C80.8653 55.5725 81.3775 54.9326 81.6757 54.1877C81.7062 54.1341 81.7182 54.0719 81.71 54.0108C81.7017 53.9497 81.6736 53.893 81.63 53.8493C81.5864 53.8057 81.5297 53.7776 81.4686 53.7694C81.4074 53.7611 81.3453 53.7732 81.2917 53.8037C80.381 54.2402 80.2536 55.3512 79.1067 55.3877C78.4149 55.4056 74.9915 55.1874 75.7928 53.6392C76.4513 53.606 77.0864 53.3841 77.6223 53C78.1583 52.6159 78.5725 52.0857 78.8155 51.4728C78.8278 51.42 78.8227 51.3646 78.8009 51.315C78.7791 51.2654 78.7418 51.2241 78.6946 51.1975C78.6474 51.1708 78.5928 51.1602 78.539 51.1671C78.4853 51.1741 78.4352 51.1982 78.3963 51.236C77.9066 51.8736 77.2937 52.4062 76.5941 52.8021C76.9947 52.4181 76.539 51.6546 76.0661 52.0187C66.5249 59.1931 43.3832 79.021 40.98 81.2418C40.8206 81.3896 41.0203 81.6623 41.2027 81.5355Z" fill="#432747"/>
<path d="M83.072 58.685C83.1513 60.029 82.7801 61.2155 82.5984 62.5084C82.544 62.909 83.1264 62.9999 83.3088 62.7087C84.0371 61.5074 84.0915 59.741 83.9455 58.3938C83.7856 56.9281 83.2735 55.5228 82.4531 54.2978C82.4059 54.2335 82.3364 54.1891 82.2583 54.1733C82.1801 54.1575 82.0989 54.1715 82.0305 54.2125C81.9621 54.2535 81.9114 54.3186 81.8885 54.395C81.8656 54.4714 81.872 54.5536 81.9065 54.6255C82.5894 55.8762 82.9874 57.2625 83.072 58.685Z" fill="#432747"/>
<path d="M34.4798 87.2524C34.2072 87.2524 33.4059 88.3264 33.0418 88.8364C32.6514 89.3391 32.327 89.8897 32.0766 90.4748C32.0037 90.6937 32.2226 90.7308 32.5138 90.6758C34.6078 90.3296 36.501 93.0604 37.3387 94.6265C38.235 96.4512 38.7022 98.4566 38.7045 100.49C38.7061 100.545 38.7276 100.598 38.7651 100.639C38.8025 100.68 38.8534 100.706 38.9086 100.713C38.9637 100.719 39.0193 100.706 39.0654 100.675C39.1115 100.644 39.1449 100.598 39.1595 100.544C39.5756 98.0441 39.0092 95.4801 37.5787 93.3881C36.9048 92.3507 34.6987 89.5833 33.045 89.9475C33.2267 89.6915 34.4107 88.254 34.773 87.7804C36.1891 88.2252 37.4815 88.9951 38.5468 90.0286C39.6122 91.0621 40.421 92.3305 40.9086 93.7324C42.092 96.864 42.3474 100.597 40.1438 103.328C39.8526 103.692 40.3262 104.202 40.6718 103.856C45.3362 99.3491 41.1378 87.2524 34.4798 87.2524Z" fill="#432747"/>
<path d="M105.543 19.6659C105.405 20.6259 105.604 21.6041 106.108 22.4332C106.139 22.4793 106.185 22.5131 106.238 22.529C106.292 22.5449 106.349 22.5419 106.4 22.5206C106.451 22.4992 106.494 22.4607 106.52 22.4117C106.546 22.3627 106.555 22.3061 106.544 22.2515C106.311 21.4032 106.14 20.539 106.032 19.6659C105.977 19.4291 105.576 19.4291 105.543 19.6659Z" fill="#432747"/>
<path d="M97.5106 17.9547C97.674 17.4753 97.661 16.9534 97.4741 16.4827C97.4463 16.4402 97.4084 16.4052 97.3637 16.3811C97.319 16.3569 97.269 16.3442 97.2181 16.3442C97.1673 16.3442 97.1173 16.3569 97.0726 16.3811C97.0279 16.4052 96.99 16.4402 96.9621 16.4827C96.776 16.9535 96.7631 17.4752 96.9257 17.9547C96.9557 18.0055 96.9985 18.0476 97.0498 18.0768C97.1011 18.1061 97.1591 18.1215 97.2181 18.1215C97.2772 18.1215 97.3352 18.1061 97.3865 18.0768C97.4378 18.0476 97.4806 18.0055 97.5106 17.9547Z" fill="#432747"/>
<path d="M94.3227 13.8957C95.3077 14.4205 96.4526 14.4787 97.4907 14.8064C98.6664 15.1361 99.6704 15.9054 100.295 16.9549C100.461 17.5278 100.51 18.1282 100.44 18.7207C100.409 19.2872 100.198 19.8291 99.8395 20.2688C99.4645 20.7687 99.3608 20.1229 98.0366 20.1229C97.6216 20.1321 97.2176 20.2584 96.8712 20.4871C96.7432 20.56 96.6715 20.2311 96.635 20.1773C96.3573 19.8656 95.572 20.2458 95.5061 19.3216C95.4549 18.0525 95.6616 16.512 95.579 15.0247C95.579 14.8429 95.3057 14.8429 95.2872 15.0247C95.2693 16.4269 94.9416 17.8285 94.9032 19.2307C94.8846 20.2138 95.3403 20.9242 96.4142 20.6874C96.5051 20.9434 96.9973 21.8528 97.0881 22.0896C96.2689 23.0176 95.9957 24.6567 97.0517 25.5309C98.1441 26.441 99.7825 25.9309 100.803 25.1469C102.113 24.1274 102.714 22.5069 103.043 20.9229C103.172 20.3112 103.258 19.6909 103.299 19.0669C103.463 18.1383 104.355 18.3565 104.701 18.6119C105.047 18.8672 105.213 19.1578 105.72 19.0304C106.394 18.8487 106.849 17.865 107.104 17.2826C108.055 15.1706 107.961 11.9706 107.086 10.3271C106.574 9.36193 105.137 6.19393 99.4753 7.41377C95.5605 8.25153 93.0113 6.33985 91.8101 8.39745C90.5352 10.5984 92.3957 12.8679 94.3227 13.8957ZM100.933 15.5507C100.99 15.4169 101.078 15.2983 101.189 15.2046C101.3 15.1108 101.432 15.0444 101.574 15.0108C101.715 14.9772 101.863 14.9773 102.005 15.011C102.146 15.0448 102.278 15.1113 102.389 15.2051C102.488 15.3269 102.557 15.4703 102.59 15.6237C102.753 16.2247 102.444 18.1197 101.733 18.2093C101.26 18.2823 100.752 16.08 100.933 15.5507Z" fill="#432747"/>
<path d="M52.9923 10.8878C53.2291 10.8878 53.2291 10.5236 52.9923 10.5038C52.0457 10.4308 50.5161 10.2305 50.2403 9.08362C50.1966 8.77628 50.2464 8.46291 50.3833 8.18427C50.5201 7.90564 50.7377 7.67466 51.0076 7.52138C51.8457 6.96407 52.7869 6.58021 53.7756 6.39242C55.8876 5.88042 59.8748 5.9009 59.9113 5.70058C60.175 4.49209 60.8562 3.41522 61.8352 2.65929C62.8142 1.90336 64.0284 1.51676 65.2643 1.56746C66.4374 1.66625 67.5449 2.1502 68.4144 2.94394C69.2838 3.73768 69.8664 4.79665 70.0713 5.95594C70.0905 6.02336 70.1249 6.08552 70.1717 6.13767C70.2186 6.18982 70.2767 6.23059 70.3417 6.25688C70.4067 6.28317 70.4768 6.29429 70.5467 6.28938C70.6167 6.28448 70.6846 6.26368 70.7452 6.22858C72.3651 5.42794 74.5321 4.33546 76.3529 5.11818C77.7731 5.71914 78.9564 7.7217 77.4275 8.90506C76.1161 9.92522 73.8947 9.92522 72.3472 10.107C70.326 10.3438 68.3049 10.4347 66.2672 10.5076C66.1803 10.5076 66.0969 10.5421 66.0355 10.6036C65.974 10.665 65.9395 10.7484 65.9395 10.8353C65.9395 10.9222 65.974 11.0056 66.0355 11.067C66.0969 11.1285 66.1803 11.163 66.2672 11.163C69.0532 11.3398 71.8502 11.2054 74.6064 10.7623C76.2812 10.5063 78.5392 10.107 79.0307 8.17674C79.4492 6.53834 78.2115 4.8993 76.7728 4.2625C74.8067 3.38826 72.6396 4.2625 70.8208 5.15466C70.5042 3.86902 69.7654 2.7268 68.7226 1.91093C67.6799 1.09505 66.3934 0.652727 65.0694 0.654792C63.7454 0.656858 62.4604 1.10319 61.4201 1.92232C60.3799 2.74144 59.6446 3.88596 59.3321 5.17258C55.8 5.11818 53.6515 5.62762 52.1398 6.21066C51.1024 6.6113 49.7545 7.30314 49.6092 8.5409C49.3878 10.5076 51.59 10.8718 52.9923 10.8878Z" fill="#432747"/>
<path d="M26.9784 33.1942C28.9836 33.4465 31.0101 33.4832 33.0232 33.3037C33.1291 33.2995 33.2293 33.2545 33.3027 33.178C33.3762 33.1016 33.4172 32.9997 33.4172 32.8937C33.4172 32.7878 33.3762 32.6859 33.3027 32.6095C33.2293 32.533 33.1291 32.488 33.0232 32.4838C31.7489 32.4474 30.4926 32.4659 29.2177 32.4294C28.2168 32.393 25.5768 32.6112 26.396 30.8998C27.3976 28.8064 30.6744 28.5696 32.5681 29.225C32.6816 29.2533 32.8016 29.237 32.9033 29.1793C33.0051 29.1217 33.0807 29.0271 33.1147 28.9152C33.2384 28.103 33.665 27.3677 34.3088 26.8573C34.9526 26.3469 35.7659 26.0992 36.5849 26.1641C37.4039 26.229 38.168 26.6016 38.7234 27.207C39.2788 27.8124 39.5844 28.6056 39.5787 29.4272C39.5814 29.4928 39.5985 29.5571 39.6288 29.6153C39.659 29.6736 39.7018 29.7246 39.7539 29.7645C39.8061 29.8044 39.8664 29.8324 39.9305 29.8465C39.9947 29.8605 40.0612 29.8603 40.1252 29.8457C40.9988 29.5897 42.0369 29.2634 42.947 29.5897C44.1124 29.9904 44.4587 31.392 43.2568 31.975C41.5998 32.7757 39.4168 32.8486 37.6126 32.7942C37.2849 32.7757 37.3028 33.2678 37.6126 33.3062C39.2426 33.4979 40.8935 33.4054 42.492 33.0329C43.4385 32.8141 44.5675 32.4499 44.8408 31.376C44.9191 30.9179 44.8546 30.4467 44.6559 30.0265C44.4573 29.6063 44.1341 29.2574 43.7304 29.0272C42.7288 28.4083 41.5089 28.6086 40.4164 28.8992C40.2715 27.9976 39.8414 27.1663 39.1892 26.5272C38.537 25.8881 37.6971 25.475 36.7928 25.3485C35.8403 25.2708 34.8896 25.5183 34.096 26.0507C33.3024 26.5831 32.7128 27.3689 32.4235 28.2797C31.071 27.8905 29.6298 27.9416 28.3083 28.4256C24.6923 29.7933 24.5521 32.8397 26.9784 33.1942Z" fill="#432747"/>
<path d="M111.956 28.8422C111.267 27.6932 110.32 26.7208 109.189 26.0018C109.717 23.8534 108.661 22.6886 107.186 22.597C106.749 22.5791 106.567 23.237 105.857 23.8898C104.99 24.7052 103.86 25.1831 102.671 25.237C101.67 25.4009 101.071 25.5289 100.759 26.5663C100.659 26.8464 100.637 27.1482 100.695 27.4398C100.753 27.7314 100.888 28.0021 101.087 28.2233C100.121 28.6073 99.3931 29.3887 98.5009 30.062C95.7886 32.1017 95.315 35.7612 94.714 36.8172C93.5672 38.8383 91.1268 45.3202 81.3496 48.6886C81.2766 49.8905 81.8961 52.3846 82.9156 52.7129C84.627 53.2588 91.9102 51.511 95.3694 49.4169C98.8759 47.193 101.63 43.963 103.271 40.149C103.417 39.8214 103.945 40.0582 103.836 40.3858C102.799 43.7906 100.286 46.7404 97.4449 48.9439C97.2452 50.7999 96.899 53.8233 98.41 55.6441C99.3387 57.0457 98.3736 57.8655 99.7208 59.7951C100.468 60.8697 102.015 61.1244 103.308 61.2882C104.619 61.4706 107.459 61.015 108.734 60.6873C114.287 59.3222 116.235 57.1916 116.399 56.1535C116.527 55.2978 116.108 54.4607 115.871 53.6575C115.707 53.0751 116.383 46.775 116.454 45.3183C116.728 39.4895 115.154 33.7231 111.956 28.8422ZM102.907 28.4057C102.725 28.3705 102.779 28.1138 102.944 28.0959C103.353 28.0745 103.761 28.0257 104.164 27.95C103.844 27.635 103.618 27.2382 103.508 26.8031C103.472 26.6214 103.709 26.4191 103.854 26.6028C104.064 26.8505 104.265 27.2223 104.75 27.8412C105.312 27.7152 105.856 27.5194 106.37 27.2582C106.321 26.6389 106.199 26.0277 106.006 25.4374C105.951 25.2556 106.207 25.0732 106.352 25.237C106.728 25.7275 106.919 26.3342 106.894 26.9516C107.203 26.7513 107.494 26.5324 107.822 26.3506C107.914 26.0478 107.94 25.7288 107.9 25.4148C107.859 25.1009 107.752 24.7992 107.586 24.5298C107.476 24.3295 107.731 24.1657 107.895 24.293C108.139 24.5057 108.321 24.7808 108.42 25.0887C108.519 25.3966 108.533 25.7258 108.459 26.0409C108.5 26.0371 108.54 26.0443 108.576 26.0617C108.613 26.079 108.644 26.1059 108.666 26.1395C108.689 26.1731 108.702 26.2121 108.704 26.2524C108.706 26.2927 108.697 26.3329 108.678 26.3686C107.918 27.8348 104.718 28.75 102.907 28.4057ZM112.102 58.2297C112.031 58.4121 111.718 58.4665 111.666 58.2297C111.644 57.4651 111.347 56.7341 110.828 56.1721C110.809 56.1535 110.791 56.1535 110.791 56.1356C109.989 56.5372 109.147 56.8544 108.279 57.0822C108.575 57.4254 108.787 57.8328 108.898 58.2722C109.009 58.7115 109.016 59.1707 108.919 59.6134C108.902 59.6642 108.867 59.7075 108.822 59.7361C108.776 59.7647 108.723 59.7768 108.669 59.7705C108.616 59.7641 108.566 59.7396 108.529 59.7011C108.492 59.6626 108.469 59.6124 108.464 59.559C108.476 58.7184 108.207 57.8978 107.699 57.2281C106.905 57.4021 106.103 57.5359 105.296 57.6287C105.267 58.4461 105.416 59.2599 105.733 60.014C105.747 60.065 105.744 60.1192 105.724 60.1682C105.704 60.2172 105.668 60.2583 105.623 60.2852C105.577 60.3121 105.524 60.3233 105.472 60.3171C105.419 60.3109 105.37 60.2876 105.332 60.2508C105.049 59.8941 104.855 59.4752 104.766 59.0288C104.677 58.5823 104.696 58.121 104.82 57.6831C103.834 57.7984 102.836 57.7861 101.853 57.6466C101.901 58.1586 101.759 57.6031 101.871 59.959C101.889 60.1778 101.543 60.2687 101.434 60.0684C101.234 59.6787 101.124 59.2492 101.111 58.8114C101.098 58.3735 101.184 57.9384 101.361 57.5378C100.832 57.4156 100.328 57.2062 99.868 56.9183C99.817 56.8894 99.7797 56.8414 99.7641 56.7849C99.7486 56.7285 99.7561 56.6681 99.7851 56.6172C99.814 56.5663 99.862 56.5289 99.9185 56.5134C99.9749 56.4978 100.035 56.5054 100.086 56.5343C102.997 58.0844 108.554 56.4025 111.593 55.1686C111.83 55.0777 111.94 55.4246 111.758 55.5526C111.593 55.6614 111.43 55.7708 111.246 55.8802C111.902 56.4454 112.436 57.3759 112.102 58.2297ZM114.797 57.4828C114.781 57.5353 114.748 57.5805 114.702 57.6105C114.656 57.6406 114.601 57.6535 114.547 57.647C114.492 57.6405 114.442 57.615 114.404 57.575C114.367 57.535 114.345 57.4831 114.342 57.4284C114.379 56.9495 114.322 56.4678 114.172 56.0115C114.022 55.5551 113.782 55.133 113.468 54.7698C113.268 54.5695 113.559 54.2969 113.777 54.4607C114.237 54.7984 114.582 55.2697 114.765 55.8105C114.947 56.3514 114.959 56.9353 114.797 57.4828Z" fill="#885F90"/>
<path d="M9.93732 114.44C9.92122 114.378 9.88901 114.322 9.84402 114.277C9.79903 114.232 9.74288 114.2 9.68132 114.184C7.96677 113.851 6.21959 113.716 4.47428 113.783C3.27236 113.838 1.30628 113.783 0.468522 114.876C-0.241238 115.804 0.596522 116.824 1.52452 117.097C3.16625 117.433 4.85308 117.489 6.51332 117.261C7.0778 117.206 9.68132 117.042 10.082 116.805C10.5197 116.585 10.0493 114.782 9.93732 114.44Z" fill="#885F90"/>
<path d="M11.2864 114.146C11.1405 114.162 11.4682 116.057 11.6506 116.312C12.0147 116.804 12.7975 116.549 13.289 116.331C13.4168 116.283 13.5324 116.208 13.6274 116.11C13.7224 116.012 13.7943 115.895 13.838 115.766C13.8817 115.636 13.8959 115.499 13.8798 115.364C13.8636 115.229 13.8175 115.099 13.7447 114.983C13.4535 114.418 12.8135 113.976 11.2864 114.146Z" fill="#885F90"/>
<path d="M31.4894 118.024C30.9973 117.88 30.4761 117.867 29.9778 117.988C29.7051 118.116 29.7416 119.644 29.8325 120.008C29.9963 120.737 30.6882 120.755 31.3045 120.628C31.6074 120.582 31.8889 120.443 32.1104 120.232C32.332 120.02 32.483 119.745 32.5429 119.444C32.5497 119.124 32.4499 118.811 32.2592 118.554C32.0685 118.297 31.7977 118.11 31.4894 118.024Z" fill="#885F90"/>
<path d="M28.527 118.515C28.5084 118.374 28.4505 118.242 28.3599 118.132C28.2694 118.023 28.1498 117.941 28.015 117.896C27.9964 117.878 24.1366 117.113 22.2793 117.35C21.0959 117.495 19.1478 117.878 19.2207 119.444C19.2937 120.955 21.023 121.265 22.2063 121.319C24.2593 121.424 26.3162 121.215 28.3062 120.699C29.0191 120.52 28.598 118.792 28.527 118.515Z" fill="#885F90"/>
</svg>
