<svg width="71" height="69" viewBox="0 0 71 69" fill="none" xmlns="http://www.w3.org/2000/svg">
<path d="M3.5 36.6712C3.5 45.1581 6.87142 53.2974 12.8726 59.2986C18.8737 65.2997 27.0131 68.6712 35.5 68.6712C43.9869 68.6712 52.1263 65.2997 58.1274 59.2986C64.1286 53.2974 67.5 45.1581 67.5 36.6712C67.5 28.1842 64.1286 20.0449 58.1274 14.0437C52.1263 8.04258 43.9869 4.67116 35.5 4.67116C27.0131 4.67116 18.8737 8.04258 12.8726 14.0437C6.87142 20.0449 3.5 28.1842 3.5 36.6712Z" fill="#DAE3EF" fill-opacity="0.5"/>
<path d="M65.8498 46.8352H5.14746C7.27996 53.1965 11.3573 58.727 16.8035 62.6454C22.2497 66.5637 28.7894 68.6718 35.4987 68.6718C42.2079 68.6718 48.7476 66.5637 54.1938 62.6454C59.64 58.727 63.7174 53.1965 65.8498 46.8352Z" fill="#94AED0" fill-opacity="0.5"/>
<path d="M4.30029 46.8352H66.7003" stroke="#295DA1" stroke-width="1.4" stroke-linecap="round" stroke-linejoin="round"/>
<path d="M0.700195 46.8352H2.70019" stroke="#295DA1" stroke-width="1.4" stroke-linecap="round" stroke-linejoin="round"/>
<path d="M68.3003 46.8352H70.3003" stroke="#295DA1" stroke-width="1.4" stroke-linecap="round" stroke-linejoin="round"/>
<path d="M48.3545 56.4048H54.0793" stroke="#295DA1" stroke-width="1.4" stroke-linecap="round" stroke-linejoin="round"/>
<path d="M45.0146 56.4048H46.4458" stroke="#295DA1" stroke-width="1.4" stroke-linecap="round" stroke-linejoin="round"/>
<path d="M42.6289 56.4048H43.1065" stroke="#295DA1" stroke-width="1.4" stroke-linecap="round" stroke-linejoin="round"/>
<path d="M18.7915 53.2048H24.5171" stroke="#295DA1" stroke-width="1.4" stroke-linecap="round" stroke-linejoin="round"/>
<path d="M15.4521 53.2048H16.8833" stroke="#295DA1" stroke-width="1.4" stroke-linecap="round" stroke-linejoin="round"/>
<path d="M13.0664 53.2048H13.5432" stroke="#295DA1" stroke-width="1.4" stroke-linecap="round" stroke-linejoin="round"/>
<path d="M39.7617 60.3928C39.7059 60.3311 39.6674 60.2559 39.6498 60.1747C39.6323 60.0934 39.6364 60.009 39.6618 59.9298C39.6871 59.8507 39.7328 59.7796 39.7943 59.7237C39.8558 59.6677 39.9309 59.6289 40.0121 59.6112C40.5949 59.4653 41.1138 59.1325 41.4895 58.6636C41.8652 58.1948 42.0768 57.6158 42.0921 57.0152C42.1076 56.5725 42.0135 56.1329 41.8181 55.7354C41.6227 55.3379 41.3321 54.9948 40.9721 54.7368C40.6741 54.5201 40.3357 54.3655 39.9769 54.2821C39.6181 54.1986 39.2462 54.1881 38.8833 54.2511C38.5203 54.314 38.1737 54.4492 37.8639 54.6486C37.5542 54.8481 37.2876 55.1076 37.0801 55.412C36.9622 55.6021 36.7856 55.7486 36.5771 55.8295C36.3685 55.9103 36.1393 55.921 35.9241 55.86L27.1241 53.0832C27.2532 52.677 27.2862 52.2463 27.2203 51.8253C27.1544 51.4042 26.9915 51.0042 26.7444 50.6569C26.4974 50.3096 26.1729 50.0245 25.7968 49.8241C25.4206 49.6237 25.003 49.5136 24.5769 49.5024C24.1341 49.4867 23.6943 49.5808 23.2967 49.7762C22.899 49.9716 22.5559 50.2623 22.2977 50.6224C22.042 50.9738 21.8734 51.3808 21.8054 51.8101C21.7375 52.2393 21.7723 52.6786 21.907 53.0918C22.0417 53.505 22.2723 53.8803 22.5801 54.1872C22.8879 54.494 23.2641 54.7234 23.6777 54.8568C23.2715 54.7276 22.8409 54.6947 22.4198 54.7606C21.9987 54.8265 21.5987 54.9894 21.2514 55.2364C20.9041 55.4835 20.619 55.8079 20.4186 56.1841C20.2182 56.5603 20.1081 56.9779 20.0969 57.404C20.0813 57.8467 20.1754 58.2865 20.3708 58.6842C20.5662 59.0818 20.8568 59.425 21.2169 59.6832C21.5684 59.9388 21.9755 60.1075 22.4048 60.1754C22.8341 60.2433 23.2734 60.2085 23.6866 60.0738C24.0999 59.9392 24.4753 59.7085 24.7822 59.4007C25.0891 59.0929 25.3186 58.7168 25.4521 58.3032L34.2521 61.08C34.4626 61.1531 34.6433 61.2932 34.7664 61.4789C34.8895 61.6646 34.9483 61.8856 34.9337 62.108C34.9174 62.8362 35.1905 63.5412 35.6932 64.0683C36.1959 64.5954 36.8871 64.9017 37.6153 64.92C38.058 64.9354 38.4978 64.8413 38.8954 64.6459C39.293 64.4505 39.6362 64.1599 39.8945 63.8C40.2583 63.2997 40.443 62.6914 40.4189 62.0733C40.3948 61.4552 40.1633 60.8632 39.7617 60.3928Z" fill="white" stroke="#295DA1" stroke-width="1.4" stroke-linecap="round" stroke-linejoin="round"/>
<path d="M37.5356 20.7216C37.5356 20.7216 34.3708 17.54 37.3404 11.584C39.9804 6.29358 46.3508 4.65918 48.3964 1.12078C48.4377 1.04965 48.5007 0.99367 48.5763 0.961074C48.6518 0.928478 48.7358 0.920991 48.8159 0.939714C48.8959 0.958438 48.9679 1.00238 49.0211 1.06508C49.0744 1.12778 49.1061 1.20591 49.1116 1.28798C49.8924 13.3008 39.1004 13.4 40.4908 16.404L37.5356 20.7216Z" fill="white" stroke="#295DA1" stroke-width="1.4" stroke-linecap="round" stroke-linejoin="round"/>
<path d="M34.2578 10.2104C34.4768 9.08575 34.9664 8.03138 35.6842 7.13836C36.3096 6.33887 37.098 5.68165 37.997 5.21036" stroke="#295DA1" stroke-width="1.4" stroke-linecap="round" stroke-linejoin="round"/>
<path d="M31.0835 12.1256C31.1143 9.68108 31.974 7.31942 33.5219 5.42719C34.6471 3.98278 36.107 2.83397 37.7755 2.07999" stroke="#295DA1" stroke-width="1.4" stroke-linecap="round" stroke-linejoin="round"/>
<path d="M51.7402 8.28876C51.6919 9.18943 51.4256 10.0649 50.9642 10.84C50.5647 11.5329 50.0223 12.1328 49.373 12.6" stroke="#295DA1" stroke-width="1.4" stroke-linecap="round" stroke-linejoin="round"/>
<path d="M54.002 6.44396C54.2483 8.35413 53.8388 10.2913 52.8404 11.9384C52.122 13.1893 51.1099 14.2466 49.8916 15.0192" stroke="#295DA1" stroke-width="1.4" stroke-linecap="round" stroke-linejoin="round"/>
<path d="M38.0376 40.376C39.8227 39.0106 41.7977 37.9135 43.9 37.1192" stroke="#295DA1" stroke-width="1.4" stroke-linecap="round" stroke-linejoin="round"/>
<path d="M38.2603 43.0448C41.8075 40.5812 45.9318 39.0776 50.2323 38.68" stroke="#295DA1" stroke-width="1.4" stroke-linecap="round" stroke-linejoin="round"/>
<path d="M8.36279 44.876C8.45127 44.9114 8.54787 44.9214 8.64171 44.9048C8.73556 44.8883 8.82293 44.8459 8.89399 44.7824C9.55572 44.1945 10.288 43.6911 11.074 43.284L12.238 46.852H20.6252L20.7572 44.8184C20.8941 44.4822 21.0994 44.1781 21.3601 43.9256C21.6208 43.673 21.9312 43.4774 22.2716 43.3512C25.0892 42.3112 32.8988 38.9936 38.6652 32.5056C39.3901 34.4619 40.3828 36.3083 41.6148 37.992C41.97 39.592 42.7396 42.2256 41.1812 43.8144C40.855 44.1478 40.4629 44.4096 40.03 44.5832C39.6593 44.7322 39.3416 44.9885 39.1176 45.3194C38.8937 45.6502 38.7737 46.0405 38.7732 46.44V46.8496H44.6508L45.9492 42.92C46.0808 42.525 46.0858 42.0988 45.9636 41.7008C44.194 35.96 49.7164 31.696 49.3564 25.8752C49.2654 24.4067 48.8806 22.9713 48.2249 21.6542C47.5691 20.3371 46.6557 19.1649 45.5388 18.2072L45.3868 18.0768C43.2114 16.2125 40.3941 15.2711 37.535 15.4533C34.6758 15.6354 32.0008 16.9267 30.0796 19.052C24.494 26.9184 19.3596 29.132 15.4796 31.772C14.237 32.618 13.1808 33.7095 12.3759 34.9791C11.5711 36.2487 11.0346 37.6696 10.7996 39.1544C9.83423 39.6237 9.04509 40.3906 8.54836 41.3422C8.05163 42.2937 7.87357 43.3796 8.04039 44.44C8.04828 44.5355 8.08263 44.6268 8.13959 44.7038C8.19654 44.7809 8.27383 44.8405 8.36279 44.876Z" fill="white"/>
<path d="M27.0708 46.852L28.4292 40.888L24.2012 40.2832L24.7836 46.852H27.0708Z" fill="white" stroke="#295DA1" stroke-width="1.4" stroke-linecap="round" stroke-linejoin="round"/>
<path d="M20.6256 46.852L20.7568 44.8184C20.8937 44.4822 21.099 44.1781 21.3597 43.9255C21.6204 43.6729 21.9308 43.4773 22.2712 43.3512C25.0888 42.3112 32.8976 38.9936 38.664 32.5056C38.3718 31.6999 38.1515 30.87 38.0056 30.0256C32.188 36.2256 22.9736 41.1456 20.2456 42.1568C19.9052 42.2831 19.5947 42.4787 19.3339 42.7313C19.0731 42.9838 18.8676 43.2878 18.7304 43.624L18.46 46.8512L20.6256 46.852Z" fill="#94AED0" fill-opacity="0.5"/>
<path d="M8.36279 44.876C8.45127 44.9114 8.54787 44.9214 8.64171 44.9048C8.73556 44.8883 8.82293 44.8459 8.89399 44.7824C9.55572 44.1945 10.288 43.6911 11.074 43.284V43.284L12.238 46.852H20.6252L20.7572 44.8184C20.8941 44.4822 21.0994 44.1781 21.3601 43.9256C21.6208 43.673 21.9312 43.4774 22.2716 43.3512C25.0892 42.3112 32.8988 38.9936 38.6652 32.5056C39.3901 34.4619 40.3828 36.3083 41.6148 37.992C41.97 39.592 42.7396 42.2256 41.1812 43.8144C40.855 44.1478 40.4629 44.4096 40.03 44.5832C39.6593 44.7322 39.3416 44.9885 39.1176 45.3194C38.8937 45.6502 38.7737 46.0405 38.7732 46.44V46.8496H44.6508L45.9492 42.92C46.0808 42.525 46.0858 42.0988 45.9636 41.7008C44.194 35.96 49.7164 31.696 49.3564 25.8752C49.2654 24.4067 48.8806 22.9713 48.2249 21.6542C47.5691 20.3371 46.6557 19.1649 45.5388 18.2072L45.3868 18.0768C43.2114 16.2125 40.3941 15.2711 37.535 15.4533C34.6758 15.6354 32.0008 16.9267 30.0796 19.052C24.494 26.9184 19.3596 29.132 15.4796 31.772C14.237 32.618 13.1808 33.7095 12.3759 34.9791C11.5711 36.2487 11.0346 37.6696 10.7996 39.1544C9.83423 39.6237 9.04509 40.3906 8.54836 41.3422C8.05163 42.2937 7.87357 43.3796 8.04039 44.44C8.04828 44.5355 8.08263 44.6268 8.13959 44.7038C8.19654 44.7809 8.27383 44.8405 8.36279 44.876V44.876Z" stroke="#295DA1" stroke-width="1.4" stroke-linecap="round" stroke-linejoin="round"/>
<path d="M64.2722 46.852C64.2743 46.444 64.1726 46.0422 63.9767 45.6844C63.7808 45.3266 63.4971 45.0244 63.1522 44.8064C63.1605 44.7468 63.1648 44.6866 63.165 44.6264C63.1648 44.4294 63.1194 44.2351 63.0325 44.0583C62.9455 43.8816 62.8192 43.7271 62.6633 43.6067C62.5074 43.4863 62.3259 43.4032 62.1329 43.3638C61.9399 43.3243 61.7405 43.3296 61.5498 43.3792C61.468 43.1167 61.3043 42.8873 61.0828 42.7244C60.8613 42.5614 60.5936 42.4736 60.3186 42.4736H60.289C60.3074 42.3836 60.3162 42.2919 60.3154 42.2C60.3154 42.0307 60.2821 41.863 60.2172 41.7066C60.1524 41.5502 60.0574 41.4081 59.9377 41.2884C59.8179 41.1687 59.6757 41.0738 59.5193 41.0091C59.3628 40.9444 59.1951 40.9111 59.0258 40.9112C58.9437 40.9112 58.8617 40.919 58.781 40.9344C58.7185 40.6204 58.5415 40.3409 58.2843 40.1502C58.0271 39.9595 57.7082 39.8713 57.3896 39.9027C57.071 39.9342 56.7755 40.083 56.5605 40.3202C56.3456 40.5575 56.2265 40.8662 56.2266 41.1864C55.8856 41.1872 55.5587 41.3232 55.3177 41.5644C55.0766 41.8056 54.9409 42.1325 54.9402 42.4736C54.9402 42.4968 54.9402 42.5192 54.9402 42.5424C54.6407 42.4404 54.3141 42.4521 54.0226 42.5753C53.7311 42.6984 53.4951 42.9245 53.3594 43.2104C53.2126 43.0165 53.0139 42.868 52.7863 42.7822C52.5587 42.6964 52.3115 42.6767 52.0732 42.7254C51.8349 42.774 51.6152 42.8891 51.4395 43.0573C51.2638 43.2256 51.1392 43.44 51.0802 43.676C50.8844 43.5597 50.6614 43.4974 50.4337 43.4953C50.206 43.4932 49.9818 43.5515 49.7839 43.6641C49.586 43.7767 49.4215 43.9398 49.307 44.1366C49.1925 44.3335 49.1322 44.5571 49.1322 44.7848C49.1324 44.8983 49.1474 45.0112 49.177 45.1208C48.9281 45.3372 48.7264 45.6027 48.5846 45.9005C48.4429 46.1984 48.364 46.5223 48.353 46.852H64.2722Z" fill="#94AED0" fill-opacity="0.5" stroke="#295DA1" stroke-width="1.4" stroke-linecap="round" stroke-linejoin="round"/>
<path d="M38.1749 26.028C37.6508 28.1856 37.8224 30.4538 38.6653 32.508" stroke="#295DA1" stroke-width="1.4" stroke-linecap="round" stroke-linejoin="round"/>
<path d="M11.0747 43.2848C11.8283 42.896 12.621 42.5881 13.4395 42.3664" stroke="#295DA1" stroke-width="1.4" stroke-linecap="round" stroke-linejoin="round"/>
<path d="M34.54 40.6176C34.54 40.8478 34.6315 41.0685 34.7943 41.2313C34.9571 41.3941 35.1778 41.4856 35.408 41.4856C35.6382 41.4856 35.859 41.3941 36.0218 41.2313C36.1846 41.0685 36.276 40.8478 36.276 40.6176C36.276 40.3873 36.1846 40.1666 36.0218 40.0038C35.859 39.841 35.6382 39.7496 35.408 39.7496C35.1778 39.7496 34.9571 39.841 34.7943 40.0038C34.6315 40.1666 34.54 40.3873 34.54 40.6176Z" fill="#94AED0" fill-opacity="0.5" stroke="#295DA1" stroke-width="1.4" stroke-linecap="round" stroke-linejoin="round"/>
<path d="M52.8794 37.8072C52.8794 38.2063 53.0379 38.589 53.3201 38.8712C53.6023 39.1534 53.9851 39.312 54.3842 39.312C54.7833 39.312 55.166 39.1534 55.4482 38.8712C55.7305 38.589 55.889 38.2063 55.889 37.8072C55.889 37.4081 55.7305 37.0253 55.4482 36.7431C55.166 36.4609 54.7833 36.3024 54.3842 36.3024C53.9851 36.3024 53.6023 36.4609 53.3201 36.7431C53.0379 37.0253 52.8794 37.4081 52.8794 37.8072Z" fill="#94AED0" fill-opacity="0.5" stroke="#295DA1" stroke-width="1.4" stroke-linecap="round" stroke-linejoin="round"/>
<path d="M50.5552 33.8024C50.5552 33.928 50.5799 34.0524 50.628 34.1685C50.6761 34.2846 50.7466 34.3901 50.8354 34.4789C50.9243 34.5678 51.0297 34.6383 51.1458 34.6863C51.2619 34.7344 51.3863 34.7592 51.512 34.7592C51.6376 34.7592 51.762 34.7344 51.8781 34.6863C51.9942 34.6383 52.0997 34.5678 52.1885 34.4789C52.2774 34.3901 52.3479 34.2846 52.3959 34.1685C52.444 34.0524 52.4688 33.928 52.4688 33.8024C52.4688 33.6767 52.444 33.5523 52.3959 33.4362C52.3479 33.3201 52.2774 33.2147 52.1885 33.1258C52.0997 33.037 51.9942 32.9665 51.8781 32.9184C51.762 32.8703 51.6376 32.8456 51.512 32.8456C51.3863 32.8456 51.2619 32.8703 51.1458 32.9184C51.0297 32.9665 50.9243 33.037 50.8354 33.1258C50.7466 33.2147 50.6761 33.3201 50.628 33.4362C50.5799 33.5523 50.5552 33.6767 50.5552 33.8024Z" fill="#94AED0" fill-opacity="0.5" stroke="#295DA1" stroke-width="1.4" stroke-linecap="round" stroke-linejoin="round"/>
<path d="M28.0868 33.1024L28.3532 35.6352C28.487 36.9013 28.9875 38.1007 29.7932 39.0864L33.0204 43.0392L34.6156 43.0592C35.1628 43.0659 35.6896 43.2678 36.1011 43.6285C36.5127 43.9891 36.7819 44.4848 36.8604 45.0264L33.2012 45.556C32.9077 45.5987 32.6085 45.5812 32.322 45.5044C32.0355 45.4277 31.7677 45.2933 31.5348 45.1096L27.474 42.4224C27.3756 42.3301 27.2571 42.262 27.1278 42.2234C26.9986 42.1848 26.8621 42.1768 26.7292 42.2L24.0092 42.6648L21.958 39.1272" fill="white"/>
<path d="M28.0868 33.1024L28.3532 35.6352C28.487 36.9013 28.9875 38.1007 29.7932 39.0864L33.0204 43.0392L34.6156 43.0592C35.1628 43.0659 35.6896 43.2678 36.1011 43.6285C36.5127 43.9891 36.7819 44.4848 36.8604 45.0264L33.2012 45.556C32.9077 45.5987 32.6085 45.5812 32.322 45.5044C32.0355 45.4277 31.7677 45.2933 31.5348 45.1096L27.474 42.4224C27.3756 42.3301 27.2571 42.262 27.1278 42.2234C26.9986 42.1848 26.8621 42.1768 26.7292 42.2L24.0092 42.6648L21.958 39.1272" stroke="#295DA1" stroke-width="1.4" stroke-linecap="round" stroke-linejoin="round"/>
<path d="M23.8999 41.9944C23.962 42.0927 24.0037 42.2024 24.0227 42.3171C24.0416 42.4318 24.0374 42.5492 24.0103 42.6622C23.9831 42.7753 23.9336 42.8817 23.8646 42.9753C23.7957 43.0689 23.7086 43.1478 23.6087 43.2072L22.9463 43.5992C22.7507 43.7153 22.5174 43.7499 22.2965 43.6956C22.0756 43.6413 21.8849 43.5024 21.7655 43.3088C19.5068 39.6996 16.8323 36.368 13.7967 33.3824C13.7102 33.2962 13.6428 33.1927 13.599 33.0787C13.5551 32.9647 13.5358 32.8428 13.5422 32.7208C13.5486 32.5988 13.5807 32.4796 13.6362 32.3708C13.6918 32.2621 13.7696 32.1663 13.8647 32.0896L14.4471 31.6208C14.613 31.4875 14.8222 31.4198 15.0348 31.4307C15.2474 31.4416 15.4485 31.5304 15.5999 31.68C18.7452 34.7955 21.5294 38.2554 23.8999 41.9944Z" fill="#94AED0" fill-opacity="0.5" stroke="#295DA1" stroke-width="1.4" stroke-linecap="round" stroke-linejoin="round"/>
</svg>
