<svg width="16" height="16" viewBox="0 0 16 16" fill="none" xmlns="http://www.w3.org/2000/svg">
<path d="M8.90943 1.56115C8.82472 1.39247 8.69478 1.25066 8.53413 1.15157C8.37348 1.05248 8.18844 1 7.99969 1C7.81093 1 7.6259 1.05248 7.46525 1.15157C7.3046 1.25066 7.17466 1.39247 7.08995 1.56115L1.10696 13.5277C1.02963 13.6829 0.993173 13.8551 1.00105 14.0283C1.00893 14.2014 1.06089 14.3697 1.152 14.5171C1.2431 14.6646 1.37034 14.7863 1.52167 14.8708C1.67299 14.9553 1.84338 14.9998 2.0167 15H13.9833C14.1566 14.9998 14.327 14.9553 14.4783 14.8708C14.6297 14.7863 14.7569 14.6646 14.848 14.5171C14.9391 14.3697 14.9911 14.2014 14.9989 14.0283C15.0068 13.8551 14.9704 13.6829 14.893 13.5277L8.90943 1.56115Z" stroke="#747578" stroke-linecap="round" stroke-linejoin="round"/>
<path d="M7.99951 7.0662C7.99951 7.31374 8.09785 7.55115 8.27289 7.7262C8.44794 7.90124 8.68535 7.99958 8.93289 7.99958C9.18044 7.99958 9.41785 7.90124 9.5929 7.7262C9.76794 7.55115 9.86628 7.31374 9.86628 7.0662C9.86628 6.81865 9.76794 6.58124 9.5929 6.40619C9.41785 6.23115 9.18044 6.13281 8.93289 6.13281C8.68535 6.13281 8.44794 6.23115 8.27289 6.40619C8.09785 6.58124 7.99951 6.81865 7.99951 7.0662V7.0662Z" stroke="#747578" stroke-linecap="round" stroke-linejoin="round"/>
<path d="M6.13281 7.06628L6.71462 7.84161C7.23995 8.54187 8.01475 9.01295 8.8782 9.15706C9.33751 9.23345 9.77624 9.40331 10.1672 9.65612C10.5582 9.90894 10.8932 10.2393 11.1513 10.6268L11.2664 10.7998" stroke="#747578" stroke-linecap="round" stroke-linejoin="round"/>
<path d="M8.66239 9.1134L6.59961 12.6665" stroke="#747578" stroke-linecap="round" stroke-linejoin="round"/>
<path d="M7.70729 10.7587C7.22338 10.5099 6.67178 10.4249 6.1354 10.5164C5.59902 10.608 5.10686 10.8712 4.73291 11.2665" stroke="#747578" stroke-linecap="round" stroke-linejoin="round"/>
<path d="M3.33301 13.1332H4.73308" stroke="#747578" stroke-linecap="round" stroke-linejoin="round"/>
</svg>
