<svg width="268" height="268" viewBox="0 0 268 268" fill="none" xmlns="http://www.w3.org/2000/svg">
<path d="M49.3566 229.799C46.2242 229.793 43.238 228.473 41.1268 226.159C38.9766 223.863 37.9081 220.76 38.1899 217.627L40.9258 187.544L167.31 61.2045L206.807 100.69L80.4558 227.018L50.3728 229.754C50.0266 229.788 49.6804 229.799 49.3566 229.799ZM214.69 92.795L175.205 53.3097L198.889 29.6252C200.984 27.5283 203.826 26.3502 206.79 26.3502C209.754 26.3502 212.596 27.5283 214.69 29.6252L238.375 53.3097C240.472 55.4042 241.65 58.2464 241.65 61.2101C241.65 64.1738 240.472 67.016 238.375 69.1105L214.701 92.7839L214.69 92.795Z" fill="white"/>
</svg>
