<svg width="118" height="133" viewBox="0 0 118 133" fill="none" xmlns="http://www.w3.org/2000/svg">
<path d="M4.34668 76.8C4.34668 91.6522 10.2467 105.896 20.7487 116.398C31.2507 126.9 45.4946 132.8 60.3467 132.8C75.1988 132.8 89.4426 126.9 99.9447 116.398C110.447 105.896 116.347 91.6522 116.347 76.8C116.347 61.9479 110.447 47.7041 99.9447 37.2021C89.4426 26.7 75.1988 20.8 60.3467 20.8C45.4946 20.8 31.2507 26.7 20.7487 37.2021C10.2467 47.7041 4.34668 61.9479 4.34668 76.8Z" fill="#FBE6EB"/>
<path d="M45.1414 34.8C45.1414 35.1713 44.9939 35.5274 44.7314 35.79C44.4688 36.0525 44.1127 36.2 43.7414 36.2H35.3414C34.9701 36.2 34.614 36.0525 34.3515 35.79C34.0889 35.5274 33.9414 35.1713 33.9414 34.8V30.6H45.1414V34.8Z" fill="#F7CED8" stroke="#DF3962" stroke-width="1.4" stroke-linecap="round" stroke-linejoin="round"/>
<path d="M24.147 61.4L39.547 50.2L54.947 61.4H24.147Z" stroke="#DF3962" stroke-width="1.4" stroke-linecap="round" stroke-linejoin="round"/>
<path d="M36.7456 47.4C36.7456 48.1426 37.0406 48.8548 37.5657 49.3799C38.0908 49.905 38.803 50.2 39.5456 50.2C40.2882 50.2 41.0004 49.905 41.5255 49.3799C42.0506 48.8548 42.3456 48.1426 42.3456 47.4C42.3456 46.6574 42.0506 45.9452 41.5255 45.4201C41.0004 44.895 40.2882 44.6 39.5456 44.6C38.803 44.6 38.0908 44.895 37.5657 45.4201C37.0406 45.9452 36.7456 46.6574 36.7456 47.4Z" fill="white" stroke="#DF3962" stroke-width="1.4" stroke-linecap="round" stroke-linejoin="round"/>
<path d="M39.5469 36.2V44.6" stroke="#DF3962" stroke-width="1.4" stroke-linecap="round" stroke-linejoin="round"/>
<path d="M82.7461 128.139C85.6716 126.862 88.4819 125.335 91.1461 123.577V30.6H82.7461V128.139Z" fill="white"/>
<path d="M91.1461 123.577V30.6H82.7461V128.139" stroke="#DF3962" stroke-width="1.4" stroke-linecap="round" stroke-linejoin="round"/>
<path d="M82.7461 30.6L91.1461 39L82.7461 47.4L91.1461 55.8L82.7461 64.2L91.1461 72.6L82.7461 81L91.1461 89.4L82.7461 97.8L91.1461 106.2L82.7461 114.6L91.1461 123" stroke="#DF3962" stroke-width="1.4" stroke-linecap="round" stroke-linejoin="round"/>
<path d="M82.9463 11H91.3463V22.2H82.9463V11Z" fill="white" stroke="#DF3962" stroke-width="1.4" stroke-linecap="round" stroke-linejoin="round"/>
<path d="M7.6354 30.6C7.49689 30.6 7.3615 30.5589 7.24637 30.4819C7.13124 30.4049 7.04155 30.2954 6.98863 30.1674C6.93572 30.0394 6.92198 29.8986 6.94913 29.7628C6.97629 29.627 7.04313 29.5023 7.1412 29.4044L14.34 22.2H106.74V30.6H7.6354Z" fill="white" stroke="#DF3962" stroke-width="1.4" stroke-linecap="round" stroke-linejoin="round"/>
<path d="M91.3463 11L87.1463 1.20004L82.9463 11H91.3463Z" fill="white" stroke="#DF3962" stroke-width="1.4" stroke-linecap="round" stroke-linejoin="round"/>
<path d="M116.54 29.2C116.54 29.5714 116.393 29.9274 116.13 30.19C115.868 30.4525 115.512 30.6 115.14 30.6H106.74V22.2C106.74 21.8287 106.888 21.4726 107.15 21.2101C107.413 20.9475 107.769 20.8 108.14 20.8H116.54V29.2Z" fill="#F7CED8" stroke="#DF3962" stroke-width="1.4" stroke-linecap="round" stroke-linejoin="round"/>
<path d="M31.147 22.2L87.147 1.20004L116.547 20.8" stroke="#DF3962" stroke-width="1.4" stroke-linecap="round" stroke-linejoin="round"/>
<path d="M91.3463 11L82.9463 20.6852" stroke="#DF3962" stroke-width="1.4" stroke-linecap="round" stroke-linejoin="round"/>
<path d="M14.3457 22.2L22.7457 30.6L31.1457 22.2L39.5457 30.6L47.9457 22.2L56.3457 30.6L64.7457 22.2L73.1457 30.6L81.5457 22.2L89.9457 30.6L98.3457 22.2L106.746 30.6" stroke="#DF3962" stroke-width="1.4" stroke-linecap="round" stroke-linejoin="round"/>
<path d="M1.45508 61.4001H76.0387V117.186H1.45508V61.4001Z" fill="#F7CED8" stroke="#DF3962" stroke-width="1.4" stroke-linecap="round" stroke-linejoin="round"/>
<path d="M71.698 61.4001H5.79996C4.64892 61.4001 3.54503 61.8573 2.73112 62.6712C1.91721 63.4852 1.45996 64.589 1.45996 65.7401V71.7251H76.038V65.7401C76.038 64.589 75.5807 63.4852 74.7668 62.6712C73.9529 61.8573 72.849 61.4001 71.698 61.4001Z" fill="white" stroke="#DF3962" stroke-width="1.4" stroke-linecap="round" stroke-linejoin="round"/>
<path d="M5.7959 66.5353C5.7959 66.8203 5.85203 67.1024 5.96108 67.3657C6.07013 67.629 6.22997 67.8682 6.43148 68.0697C6.63298 68.2712 6.8722 68.4311 7.13548 68.5401C7.39875 68.6492 7.68093 68.7053 7.9659 68.7053C8.25087 68.7053 8.53304 68.6492 8.79632 68.5401C9.0596 68.4311 9.29882 68.2712 9.50032 68.0697C9.70182 67.8682 9.86166 67.629 9.97072 67.3657C10.0798 67.1024 10.1359 66.8203 10.1359 66.5353C10.1359 66.2503 10.0798 65.9681 9.97072 65.7049C9.86166 65.4416 9.70182 65.2024 9.50032 65.0009C9.29882 64.7994 9.0596 64.6395 8.79632 64.5305C8.53304 64.4214 8.25087 64.3653 7.9659 64.3653C7.68093 64.3653 7.39875 64.4214 7.13548 64.5305C6.8722 64.6395 6.63298 64.7994 6.43148 65.0009C6.22997 65.2024 6.07013 65.4416 5.96108 65.7049C5.85203 65.9681 5.7959 66.2503 5.7959 66.5353Z" fill="#F7CED8" stroke="#DF3962" stroke-width="1.4" stroke-linejoin="round"/>
<path d="M13.2915 66.5353C13.2915 67.1108 13.5201 67.6628 13.9271 68.0697C14.334 68.4767 14.886 68.7053 15.4615 68.7053C16.037 68.7053 16.589 68.4767 16.9959 68.0697C17.4029 67.6628 17.6315 67.1108 17.6315 66.5353C17.6315 65.9598 17.4029 65.4078 16.9959 65.0009C16.589 64.5939 16.037 64.3653 15.4615 64.3653C14.886 64.3653 14.334 64.5939 13.9271 65.0009C13.5201 65.4078 13.2915 65.9598 13.2915 66.5353Z" fill="#F7CED8" stroke="#DF3962" stroke-width="1.4" stroke-linejoin="round"/>
<path d="M20.7852 66.5353C20.7852 66.8203 20.8413 67.1024 20.9503 67.3657C21.0594 67.629 21.2192 67.8682 21.4207 68.0697C21.6222 68.2712 21.8615 68.4311 22.1247 68.5401C22.388 68.6492 22.6702 68.7053 22.9552 68.7053C23.2401 68.7053 23.5223 68.6492 23.7856 68.5401C24.0489 68.4311 24.2881 68.2712 24.4896 68.0697C24.6911 67.8682 24.8509 67.629 24.96 67.3657C25.069 67.1024 25.1252 66.8203 25.1252 66.5353C25.1252 66.2503 25.069 65.9681 24.96 65.7049C24.8509 65.4416 24.6911 65.2024 24.4896 65.0009C24.2881 64.7994 24.0489 64.6395 23.7856 64.5305C23.5223 64.4214 23.2401 64.3653 22.9552 64.3653C22.6702 64.3653 22.388 64.4214 22.1247 64.5305C21.8615 64.6395 21.6222 64.7994 21.4207 65.0009C21.2192 65.2024 21.0594 65.4416 20.9503 65.7049C20.8413 65.9681 20.7852 66.2503 20.7852 66.5353Z" fill="#F7CED8" stroke="#DF3962" stroke-width="1.4" stroke-linejoin="round"/>
<path d="M46.8005 105.115C46.2996 105.116 45.8034 105.017 45.3408 104.825C44.8782 104.633 44.4584 104.351 44.1055 103.995L38.7463 98.64L33.3801 103.998C33.0261 104.352 32.6059 104.632 32.1434 104.824C31.681 105.015 31.1853 105.114 30.6848 105.113C29.674 105.113 28.7047 104.711 27.9901 103.996C27.2755 103.282 26.8742 102.312 26.8745 101.301C26.8748 100.29 27.2766 99.321 27.9915 98.6064L33.3507 93.2486L27.9915 87.8894C27.2766 87.1749 26.8748 86.2056 26.8745 85.1947C26.8742 84.1839 27.2755 83.2144 27.9901 82.4994C28.7047 81.7845 29.674 81.3827 30.6848 81.3824C31.6956 81.3822 32.6652 81.7835 33.3801 82.498L38.7463 87.8601L44.1055 82.4994C44.4576 82.1371 44.8783 81.8483 45.343 81.65C45.8077 81.4516 46.3072 81.3476 46.8124 81.344C47.3177 81.3404 47.8186 81.4373 48.2861 81.6291C48.7536 81.8208 49.1783 82.1035 49.5355 82.4609C49.8928 82.8182 50.1754 83.243 50.367 83.7105C50.5586 84.178 50.6554 84.679 50.6516 85.1842C50.6479 85.6895 50.5438 86.1889 50.3453 86.6536C50.1468 87.1183 49.858 87.5388 49.4955 87.8908L44.1363 93.25L49.4955 98.6079C50.0282 99.1412 50.3909 99.8204 50.5378 100.56C50.6847 101.299 50.6091 102.065 50.3208 102.762C50.0324 103.458 49.5441 104.054 48.9175 104.473C48.291 104.892 47.5543 105.116 46.8005 105.116V105.115Z" fill="white" stroke="#DF3962" stroke-width="1.4" stroke-linecap="round" stroke-linejoin="round"/>
</svg>
