<svg width="280" height="280" viewBox="0 0 280 280" fill="none" xmlns="http://www.w3.org/2000/svg">
<path d="M151.56 87.6133C150.169 88.6073 148.65 89.4079 147.043 89.9933C153.449 89.5338 159.818 88.6542 166.109 87.36C164.102 86.9834 157.454 83.0956 156.075 82.3438C155.686 83.3746 155.088 84.314 154.319 85.1031C153.526 86.0695 152.597 86.9151 151.56 87.6133Z" fill="#FC4040"/>
<path d="M138.641 69.2999L146.16 43.4629C145.076 43.1713 144.083 42.6102 143.275 41.8319C142.36 41.1261 141.52 40.3286 140.767 39.4519C140.226 38.7002 139.841 37.8469 139.637 36.9431C137.381 36.9431 127.355 37.4513 121.701 45.2213C118.152 49.7455 115.005 54.5705 112.294 59.6413C112.294 59.6413 131.235 65.9133 138.132 68.9233C138.264 69.1753 138.389 69.2999 138.641 69.2999ZM133.246 40.8281C132.181 41.1 131.194 41.6152 130.361 42.3331C128.761 43.5102 127.29 44.8533 125.972 46.3399C125.419 47.189 124.789 47.9857 124.09 48.7199C123.97 48.8349 123.815 48.9072 123.649 48.9257C123.484 48.9443 123.317 48.908 123.174 48.8226C123.031 48.7371 122.92 48.6071 122.858 48.4525C122.796 48.298 122.786 48.1273 122.83 47.9667C123.228 46.8735 123.872 45.8863 124.712 45.0813C126.151 43.4066 127.844 41.9677 129.728 40.8169C130.695 40.1505 131.827 39.764 133 39.6997C134 39.6997 134 40.8281 133.246 40.8281Z" fill="#FC4040"/>
<path d="M165.858 45.4691C165.333 45.6933 164.787 45.8618 164.227 45.9717C164.854 47.8519 170.625 64.9109 170.876 65.6641C175.266 63.5319 184.8 59.8933 184.8 59.8933C183.924 56.2172 182.663 52.6437 181.037 49.2323C179.031 45.5703 176.144 42.4662 172.637 40.2009C170.994 42.6325 168.62 44.4777 165.858 45.4691Z" fill="#FC4040"/>
<path d="M86.8378 138.288C87.3722 141.874 88.7702 145.277 90.9115 148.204C93.0527 151.13 95.8731 153.493 99.1298 155.088C110.544 160.983 121.832 171.896 124.215 182.808C124.215 182.808 127.978 174.027 134.124 169.26C140.27 164.493 157.732 154.351 161.343 148.313C165.008 142.184 164.353 137.533 164.353 137.533C164.353 137.533 162.471 133.14 155.574 133.519C148.799 133.893 117.442 133.771 105.777 134.399C99.2908 134.626 92.8888 135.941 86.8378 138.288Z" fill="#FC4040"/>
<path d="M167.112 257.572C167.112 260.331 142.278 262.966 124.466 262.966C106.653 262.966 81.5696 261.085 81.5696 258.325L124.46 225.712L167.112 257.572Z" fill="#FC4040"/>
<path d="M152.688 31.2955C153.678 31.5648 154.683 31.7742 155.698 31.9227C155.887 31.8921 156.062 31.8047 156.199 31.6721C156.247 31.6227 156.283 31.5633 156.305 31.4981C156.327 31.4329 156.334 31.3637 156.325 31.2955C156.347 31.1308 156.308 30.9639 156.216 30.8257C156.124 30.6875 155.984 30.5873 155.824 30.5437C155.071 30.2917 153.065 30.1671 152.813 30.0411C152.674 30.0651 152.544 30.1237 152.435 30.2116C152.326 30.2995 152.24 30.4138 152.187 30.5437C152.19 30.7038 152.239 30.8596 152.328 30.9928C152.417 31.126 152.542 31.231 152.688 31.2955Z" fill="#113362"/>
<path d="M158.708 25.4002C158.346 24.3333 158.053 23.2442 157.83 22.1396C157.792 22.01 157.709 21.898 157.597 21.8232C157.484 21.7484 157.349 21.7156 157.214 21.7304C157.08 21.7453 156.955 21.8068 156.861 21.9044C156.768 22.002 156.711 22.1293 156.702 22.2642C156.679 24.0905 157.203 25.8818 158.207 27.4078C158.458 27.7844 159.211 28.1596 159.587 27.6584C160.11 27.1348 158.935 26.04 158.708 25.4002Z" fill="#113362"/>
<path d="M153.44 19.8799C153.063 19.747 152.658 19.7118 152.263 19.7777C151.868 19.8435 151.497 20.0083 151.183 20.2565C151.081 20.3599 151.014 20.4938 150.994 20.638C150.974 20.7823 151.002 20.9291 151.073 21.0564C151.143 21.1837 151.254 21.2846 151.387 21.3438C151.52 21.4031 151.668 21.4175 151.81 21.3849C152.222 21.2814 152.647 21.2394 153.07 21.2603C153.226 21.2475 153.374 21.1869 153.495 21.0866C153.615 20.9864 153.701 20.8514 153.741 20.7003C153.782 20.5492 153.775 20.3892 153.721 20.2423C153.667 20.0955 153.569 19.9689 153.44 19.8799Z" fill="#113362"/>
<path d="M162.347 19.2542C162.228 19.0615 162.062 18.9026 161.864 18.7928C161.666 18.6829 161.443 18.6258 161.217 18.627C160.955 18.6247 160.696 18.6797 160.458 18.788C160.22 18.8963 160.008 19.0555 159.838 19.2542C159.735 19.3575 159.668 19.4915 159.648 19.6361C159.627 19.7807 159.655 19.928 159.726 20.0556C159.796 20.1833 159.907 20.2844 160.04 20.3436C160.174 20.4029 160.323 20.4171 160.465 20.384C160.969 20.2706 162.722 20.384 162.347 19.2542Z" fill="#113362"/>
<path d="M72.66 255.816V256.318C72.66 257.698 74.2882 258.458 78.4294 259.328C89.3242 261.618 111.034 262.714 122.832 262.714C134.347 262.714 156.246 261.638 167.234 259.328C171.374 258.458 173.004 257.572 173.004 256.318V255.816L122.836 222.828L72.66 255.816ZM122.832 260.833C114.727 260.833 81.9854 259.589 75.1674 256.444L122.956 225.084L170.745 256.444C163.37 259.606 130.883 260.833 122.836 260.833H122.832Z" fill="#113362"/>
<path d="M123.087 202.006C123.254 202.006 123.414 201.94 123.532 201.821C123.65 201.703 123.717 201.543 123.717 201.376C123.717 201.209 123.65 201.049 123.532 200.93C123.414 200.812 123.254 200.746 123.087 200.746C122.333 200.878 122.333 202.006 123.087 202.006Z" fill="#113362"/>
<path d="M123.087 194.856C123.428 194.845 123.752 194.701 123.99 194.456C124.228 194.21 124.361 193.881 124.361 193.539C124.361 193.197 124.228 192.869 123.99 192.623C123.752 192.377 123.428 192.234 123.087 192.223C122.91 192.217 122.734 192.247 122.569 192.31C122.405 192.374 122.254 192.47 122.127 192.593C122.001 192.716 121.9 192.863 121.831 193.025C121.762 193.188 121.726 193.363 121.726 193.539C121.726 193.716 121.762 193.891 121.831 194.053C121.9 194.216 122.001 194.363 122.127 194.486C122.254 194.609 122.405 194.705 122.569 194.769C122.734 194.832 122.91 194.862 123.087 194.856Z" fill="#113362"/>
<path d="M123.087 209.909C123.363 209.899 123.624 209.782 123.816 209.583C124.008 209.385 124.115 209.119 124.115 208.843C124.115 208.567 124.008 208.301 123.816 208.102C123.624 207.903 123.363 207.787 123.087 207.777C122.811 207.787 122.549 207.903 122.357 208.102C122.166 208.301 122.058 208.567 122.058 208.843C122.058 209.119 122.166 209.385 122.357 209.583C122.549 209.782 122.811 209.899 123.087 209.909Z" fill="#113362"/>
<path d="M123.087 213.546C122.855 213.571 122.64 213.682 122.485 213.855C122.329 214.029 122.243 214.254 122.243 214.487C122.243 214.72 122.329 214.945 122.485 215.119C122.64 215.292 122.855 215.402 123.087 215.428C123.318 215.402 123.533 215.292 123.688 215.119C123.844 214.945 123.93 214.72 123.93 214.487C123.93 214.254 123.844 214.029 123.688 213.855C123.533 213.682 123.318 213.571 123.087 213.546Z" fill="#113362"/>
<path d="M184.422 265.349C183.795 227.704 176.722 215.859 164.98 206.647C161.959 204.278 158.442 202.027 154.946 199.749C132.236 184.936 131.225 180.774 154.946 165.631C156.559 164.601 158.081 163.499 159.706 162.497C158.848 163.502 158.169 164.647 157.7 165.883C155.77 170.708 157.049 174.563 162.215 174.913C165.354 174.913 166.82 174.15 169.114 175.039C170.982 175.916 172.713 177.057 174.257 178.426C175.995 179.9 178.136 180.817 180.403 181.059C181.592 181.097 182.768 180.792 183.789 180.181C184.205 179.801 184.532 179.335 184.75 178.815C184.968 178.295 185.07 177.734 185.049 177.171C184.983 176.113 184.705 175.079 184.231 174.131C183.757 173.183 183.097 172.34 182.29 171.653C179.269 168.853 176.235 168.238 172.882 162.371C173.048 162.204 173.008 162.079 173.008 159.11C173.21 156.268 173.168 153.414 172.882 150.58C178.276 143.3 181.787 132.643 183.418 113.954C183.544 114.456 183.795 114.832 183.921 115.335C185.198 120.008 185.996 124.798 186.301 129.633C188.145 146.356 187.881 146.493 188.433 148.698C187.714 149.307 187.154 150.082 186.802 150.956C186.01 152.375 185.803 154.046 186.225 155.615C186.646 157.184 187.664 158.526 189.06 159.356C192.513 161.248 196.013 158.403 198.72 158.096C203.094 157.611 205.411 160.476 213.395 160.476C215.687 160.476 218.543 159.95 219.04 157.717C219.221 157.264 219.282 156.771 219.216 156.288C219.15 155.804 218.959 155.346 218.663 154.958C216.926 152.179 213.251 152.333 204.866 149.439C203.926 149.229 203.053 148.786 202.33 148.149C201.606 147.513 201.055 146.705 200.726 145.799C200.726 145.673 200.726 145.673 200.6 145.547C200.563 138.46 200.103 131.381 199.221 124.349C198.479 118.342 197.925 112.153 195.835 106.413C190.536 91.8666 179.925 91.2366 170.247 87.4734C174.894 87.2942 180.824 85.3496 183.547 81.578C185.916 78.2908 186.056 74.4478 186.056 70.4144C186.019 68.1129 185.638 65.83 184.926 63.6412C184.688 63.0098 183.666 63.014 183.666 63.7672C184.149 67.2228 184.36 70.7112 184.296 74.2C184.258 76.0458 183.755 77.8523 182.834 79.4526C181.914 81.0529 180.604 82.3953 179.028 83.356C176.306 84.8971 173.249 85.7486 170.123 85.8362C166.996 85.9238 163.896 85.2449 161.092 83.8586C160.181 83.3756 159.702 84.6692 160.339 84.987C162.1 86.1013 164.059 86.8678 166.109 87.2452C159.804 88.4588 153.44 89.3378 147.043 89.8786C148.65 89.2931 150.169 88.4925 151.56 87.4986C153.587 86.2319 155.2 84.4009 156.201 82.2304C157.731 79.1686 157.548 75.04 157.58 71.82C157.744 55.4498 156.19 50.7878 156.827 43.3468C156.866 42.0149 157.256 40.7169 157.956 39.5836C160.089 37.0748 164.499 38.724 166.485 36.4476C166.829 36.0086 167.08 35.5042 167.223 34.965C167.365 34.4259 167.396 33.8633 167.314 33.3117C167.232 32.7601 167.038 32.2311 166.745 31.7568C166.451 31.2826 166.064 30.8732 165.607 30.5536C165.833 28.5128 165.875 26.4559 165.733 24.4076C165.593 22.1494 165.533 19.8842 165.231 17.759C165.124 17.0044 163.852 16.8812 163.971 17.759C164.097 20.139 164.221 22.519 164.221 24.9088C164.419 27.3181 164.164 29.7431 163.47 32.0586C162.987 33.3764 162.166 34.5443 161.09 35.4452C159.797 36.3337 158.268 36.814 156.699 36.8242C155.439 36.9362 154.19 36.9502 152.81 36.9502C151.615 37.0387 150.425 36.7301 149.423 36.0724C148.719 35.3546 148.192 34.4811 147.887 33.5224C147.582 32.5637 147.507 31.5467 147.668 30.5536C147.794 30.051 147.041 29.6744 146.664 30.051C143.403 28.791 145.404 25.536 148.672 26.915C149.423 27.2916 148.907 25.2868 148.798 24.535C148.651 23.534 148.17 19.5174 148.798 18.6396C149.423 17.8878 150.933 16.6586 154.441 16.1308C156.821 15.7724 162.483 16.6558 164.977 15.1284C167.902 13.3364 167.654 9.17977 162.845 7.47597C158.365 5.88837 156.012 8.41537 153.185 11.3652C151.919 12.6071 150.484 13.663 148.921 14.5012C147.271 15.3745 145.885 16.6734 144.907 18.263C143.882 20.8894 144.406 22.4028 144.782 25.6634C144.263 25.8504 143.821 26.2032 143.522 26.6672C143.252 27.1791 143.132 27.7571 143.177 28.3344C143.221 28.9116 143.428 29.4645 143.773 29.9292C143.773 29.9292 142.769 31.3082 142.643 31.4342C142.274 32.1379 142.052 32.9098 141.992 33.7023C141.931 34.4949 142.033 35.2914 142.292 36.0431C142.55 36.7948 142.959 37.4857 143.494 38.0736C144.029 38.6615 144.679 39.1339 145.403 39.4618C146.03 39.7124 146.532 38.8346 146.03 38.332C144.766 37.4774 143.87 36.1776 143.522 34.692C143.39 33.2968 143.797 31.9039 144.661 30.8C144.984 31.1215 145.368 31.3768 145.789 31.5518C145.568 32.2526 145.487 32.9902 145.552 33.7222C145.616 34.4543 145.825 35.1663 146.166 35.8176C147.146 37.583 149.04 38.0912 150.556 39.0782C153.296 40.8632 153.936 42.8414 154.444 46.102C155.4 52.2354 155.448 62.8264 155.448 68.3032C155.448 74.2182 155.908 81.0264 151.935 84.735C150.079 86.4948 147.858 87.8233 145.43 88.6255C143.002 89.4278 140.426 89.684 137.887 89.376C132.609 88.5331 127.851 85.7062 124.587 81.473C123.118 79.4985 122.06 77.2483 121.478 74.8566C120.897 72.4648 120.802 69.9804 121.201 67.5514C121.343 66.9333 121.426 66.3034 121.451 65.6698C121.577 65.0426 120.448 64.792 120.191 65.2932C118.595 68.4866 118.479 74.6438 121.948 80.7212C124.774 85.3212 129.124 88.7835 134.24 90.5044C130.164 90.4921 126.096 90.1564 122.073 89.5006V92.386C94.7296 92.386 65.233 94.6092 61.3648 98.658C61.163 98.8199 61.0095 99.0341 60.9211 99.2773C60.8327 99.5205 60.8128 99.7833 60.8636 100.037C62.1236 137.666 68.6826 149.527 80.43 158.739C89.838 166.114 107.899 174.784 107.899 182.696C107.899 190.169 91.6902 198.244 80.43 206.653C68.6098 215.48 61.3648 227.71 60.7376 265.355C60.7124 266.86 62.3602 267.896 66.2564 268.866C88.2448 274.341 156.87 274.351 178.893 268.866C182.799 267.89 184.447 266.854 184.422 265.349ZM122.962 183.568C121.045 178.206 117.861 173.387 113.68 169.52C101.961 158.187 80.0954 151.236 77.3052 137.04C78.0433 137.333 78.7972 137.585 79.5634 137.794C91.0434 140.945 135.752 142.363 158.962 139.054C159.337 142.565 159.839 146.077 160.215 149.589C151.017 157.241 141.159 161 132.369 169.4C128.123 173.283 124.892 178.148 122.961 183.568H122.962ZM192.451 105.049C193.214 106.386 194.368 109.925 194.082 111.069C194.048 111.186 193.98 111.29 193.887 111.368C193.794 111.446 193.68 111.495 193.559 111.508C193.438 111.522 193.316 111.499 193.208 111.443C193.1 111.388 193.011 111.301 192.952 111.195C192.508 109.354 191.921 107.551 191.197 105.801C190.438 104.043 189.377 102.432 188.061 101.041C187.961 100.941 187.905 100.805 187.905 100.664C187.905 100.523 187.961 100.387 188.061 100.288C188.16 100.188 188.296 100.132 188.437 100.132C188.578 100.132 188.714 100.188 188.814 100.288C190.36 101.589 191.601 103.215 192.45 105.049H192.451ZM163.852 118.972C163.486 118.089 163.349 117.09 162.973 116.213C160.794 108.885 156.08 102.571 149.673 98.4004C149.052 98.0112 149.673 97.1474 150.174 97.5226C154.914 100.218 158.819 104.167 161.462 108.937C162.358 110.41 163.114 111.964 163.72 113.578C164.431 115.215 164.897 116.948 165.101 118.721C164.98 119.223 164.109 119.595 163.852 118.972ZM159.586 101.412C163.524 101.512 167.438 102.059 171.252 103.041C169.371 103.293 162.597 104.045 161.592 104.171C161.027 103.18 160.354 102.255 159.586 101.412ZM122.71 95.2658C123.462 98.6468 123.946 102.371 126.724 104.672C127.366 105.137 128.089 105.477 128.856 105.676C113.072 105.883 97.2875 105.255 81.5696 103.795C65.646 102.105 63.2562 100.282 63 99.9068C63.2506 99.5302 65.5046 97.6052 80.9368 96.0176C92.2222 94.857 107.026 94.262 122.58 94.136C122.561 94.5171 122.605 94.8988 122.71 95.2658ZM158.34 135.152C158.456 135.906 158.465 136.532 158.591 137.284C157.461 137.41 156.211 137.528 154.827 137.661C125.756 140.461 83.4512 138.66 77.1862 134.901C84.1694 130.711 132.829 129.36 158.088 132.521C158.111 133.403 158.195 134.282 158.34 135.152ZM165.113 32.424C165.493 32.7853 165.718 33.2803 165.74 33.8044C165.765 34.1439 165.722 34.4849 165.615 34.8078C165.507 35.1307 165.337 35.4291 165.113 35.686C164.657 36.0746 164.081 36.2958 163.482 36.3132C163.106 36.4378 162.855 36.4378 162.478 36.5638C163.719 35.452 164.628 34.0195 165.106 32.424H165.113ZM154.074 164.002C144.694 170.191 135.887 176.042 135.887 182.564C135.887 191.598 153.341 199.682 163.983 208.027C173.481 215.473 181.419 224.71 182.798 265.223C182.673 265.474 181.042 267.487 164.861 269.112C138.74 271.734 102.701 271.501 80.8234 269.112C64.6436 267.345 63.0126 265.472 62.8866 265.223C64.267 224.71 72.107 215.348 81.7012 208.027C93.6348 198.927 109.798 191.442 109.798 182.564C109.798 173.464 91.8778 165.045 81.7012 157.102C72.4612 149.891 64.5176 140.671 63.0126 102.164C64.248 102.751 65.555 103.175 66.9004 103.424C84.6468 107.519 118.748 107.684 137.141 107.187C140.353 107.76 143.447 108.862 146.299 110.447C151.945 114.015 156.404 120.341 157.587 130.392C157.086 130.266 156.458 130.266 155.956 130.14C136.636 127.964 94.6918 127.9 79.3184 131.771C76.1908 132.558 74.928 133.402 74.928 134.656C75.4306 143.562 82.8436 149.94 89.2276 154.475C100.708 162.63 119.06 170.199 121.965 187.337H123.847C125.107 179.936 129.746 174.177 133.507 170.528C140.218 164.025 147.536 160.999 160.475 151.589C160.726 153.721 161.353 158.613 161.353 158.869C161.217 159.109 155.578 163.005 154.067 164.002H154.074ZM178.784 170.775C180.492 171.727 181.919 173.111 182.924 174.789C183.774 176.487 183.702 178.672 181.92 178.927C180.039 179.43 178.032 178.426 176.401 177.422C174.045 175.791 171.801 173.502 168.75 172.781C165.022 171.902 162.431 173.54 160.096 172.154C158.355 171.122 158.732 168.654 159.218 167.012C159.747 165.336 160.697 163.825 161.977 162.621C162.478 162.747 170.506 162.12 171.133 161.994C172.674 165.666 175.355 168.744 178.78 170.775H178.784ZM173.141 147.57C172.379 133.505 170.801 117.657 162.981 105.927C166.522 105.533 172.372 104.852 175.147 104.296C175.774 104.546 176.275 104.923 176.903 105.174C179.155 106.548 181.047 108.441 182.421 110.694C180.785 130.134 177.398 140.797 173.134 147.57H173.141ZM217.291 157.73C216.916 158.481 215.912 158.607 215.285 158.733C211.824 158.649 208.379 158.227 204.999 157.473C202.843 156.648 200.521 156.347 198.226 156.596C196.216 156.951 194.463 158.101 192.457 158.351C191.742 158.396 191.027 158.25 190.386 157.93C189.745 157.611 189.2 157.127 188.806 156.529C188.411 155.931 188.182 155.239 188.14 154.524C188.099 153.809 188.246 153.096 188.569 152.456C189.096 151.288 189.77 150.192 190.575 149.195C193.665 148.88 196.702 148.164 199.606 147.063C200.484 150.324 204.76 151.414 207.634 152.33C209.901 153.054 216.289 155.089 216.916 155.842C217.165 156.08 217.335 156.389 217.4 156.728C217.465 157.066 217.423 157.416 217.28 157.73H217.291Z" fill="#113362"/>
<path d="M134.501 90.3728C132.068 89.5181 129.783 88.29 127.728 86.7328C123.594 83.714 120.768 79.2314 119.826 74.2V88.8678C120.578 88.9938 121.457 89.2359 122.333 89.3703C126.358 90.0082 130.426 90.3433 134.501 90.3728Z" fill="#FC4040"/>
<path d="M152.688 24.8989C152.688 25.5261 153.065 26.1589 153.566 26.1589C154.067 26.1589 154.444 25.6563 154.444 24.8989C154.444 24.2717 154.067 23.6389 153.566 23.6389C153.065 23.6389 152.688 24.1457 152.688 24.8989Z" fill="#113362"/>
<path d="M161.343 22.5161C160.84 22.5161 160.465 23.0173 160.465 23.7761C160.465 24.4033 160.84 25.0291 161.343 25.0291C161.846 25.0291 162.221 24.5279 162.221 23.7761C162.221 23.1433 161.84 22.5161 161.343 22.5161Z" fill="#113362"/>
<path d="M143.156 41.9579C143.795 42.5198 144.513 42.9845 145.288 43.3369C136.562 74.6017 136.756 73.7799 136.64 74.8201C136.615 74.9189 136.61 75.0217 136.625 75.1224C136.64 75.2232 136.675 75.32 136.727 75.4074C136.78 75.4947 136.849 75.5709 136.931 75.6316C137.012 75.6922 137.105 75.7362 137.204 75.7609C137.303 75.7856 137.406 75.7907 137.506 75.7757C137.607 75.7607 137.704 75.7261 137.791 75.6737C137.879 75.6213 137.955 75.5522 138.016 75.4704C138.076 75.3885 138.12 75.2955 138.145 75.1967C138.769 73.4341 146.763 43.4811 146.8 43.3369C146.867 43.255 146.917 43.1606 146.947 43.0592C146.977 42.9577 146.986 42.8513 146.974 42.7462C146.963 42.6411 146.93 42.5394 146.878 42.447C146.827 42.3547 146.757 42.2736 146.674 42.2085C145.77 41.8293 144.926 41.3225 144.166 40.7035C142.131 39.0081 141.238 38.6035 140.904 35.9365C140.884 34.8871 140.8 33.8399 140.654 32.8005C140.626 32.7059 140.568 32.6229 140.489 32.5638C140.41 32.5048 140.314 32.4729 140.215 32.4729C140.116 32.4729 140.02 32.5048 139.941 32.5638C139.862 32.6229 139.804 32.7059 139.776 32.8005C139.394 34.1541 139.394 35.5868 139.776 36.9403C140.294 38.9507 141.487 40.722 143.156 41.9579Z" fill="#113362"/>
<path d="M167.363 43.0864C166.066 43.835 164.726 44.505 163.349 45.0926C162.974 45.0926 162.471 45.3446 162.722 45.8458C164.017 50.1354 170.309 71.1606 173.008 75.0708C173.522 75.8156 174.763 75.3214 174.387 74.4436C173.188 70.2436 175.833 80.4104 164.353 45.9718C166.708 45.3264 168.892 44.1702 170.75 42.5852C171.492 41.8562 172.164 41.0594 172.757 40.2052C173.775 38.7296 174.765 35.189 174.387 34.4358C174.349 34.3059 174.273 34.1902 174.169 34.1036C174.065 34.0171 173.937 33.9636 173.803 33.9501C173.668 33.9365 173.532 33.9635 173.413 34.0276C173.294 34.0917 173.197 34.19 173.134 34.3098C172.243 35.6412 173.636 39.2742 167.363 43.0864Z" fill="#113362"/>
<path d="M167.99 39.8244C169.086 39.2906 170.002 38.4486 170.626 37.4016C171.25 36.3545 171.555 35.1481 171.503 33.9304C171.469 32.5117 170.884 31.162 169.872 30.1672C169.373 29.7864 168.612 30.2918 168.994 30.7944C169.227 31.1565 169.437 31.5334 169.621 31.9228C169.919 32.5076 170.09 33.1489 170.122 33.8044C170.21 34.4673 170.142 35.1415 169.923 35.7734C169.704 36.4053 169.341 36.9774 168.862 37.4444C168.372 37.8728 167.911 38.334 167.483 38.8248C167.112 39.4492 167.492 39.9616 167.99 39.8244Z" fill="#113362"/>
</svg>
