<svg width="32" height="32" viewBox="0 0 32 32" fill="none" xmlns="http://www.w3.org/2000/svg">
<rect opacity="0.5" width="32" height="32" rx="4" fill="#F7CED8"/>
<path d="M25.7649 22.3399C25.1095 21.0363 22.3719 20.1392 18.9339 18.877C18.7561 18.8124 18.6025 18.6948 18.4938 18.5401C18.3851 18.3854 18.3265 18.201 18.3259 18.0119V17.4584C18.3259 17.3798 18.3571 17.3045 18.4127 17.2489C18.4683 17.1934 18.5436 17.1621 18.6222 17.1621C20.1924 17.283 21.7612 16.9101 23.1091 16.0955C23.167 16.0602 23.2163 16.0124 23.2536 15.9557C23.2908 15.899 23.3151 15.8348 23.3246 15.7676C23.3341 15.7005 23.3287 15.632 23.3086 15.5672C23.2886 15.5024 23.2544 15.4428 23.2086 15.3928C22.6232 14.7564 22.219 13.9884 22.046 11.4617C21.7367 6.9334 18.6518 5.3335 16.0019 5.3335C13.352 5.3335 10.2683 6.9334 9.95782 11.4617C9.78479 13.9884 9.38067 14.7564 8.79522 15.3928C8.74927 15.4426 8.71489 15.5019 8.69456 15.5666C8.67423 15.6313 8.66844 15.6996 8.67761 15.7668C8.68679 15.8339 8.71069 15.8982 8.74762 15.9551C8.78455 16.0119 8.83358 16.0599 8.89122 16.0955C10.2372 16.9105 11.8046 17.2835 13.3733 17.1621C13.4126 17.1617 13.4516 17.169 13.488 17.1836C13.5244 17.1983 13.5576 17.22 13.5855 17.2476C13.6135 17.2751 13.6358 17.3079 13.651 17.3441C13.6663 17.3803 13.6742 17.4192 13.6743 17.4584V18.0059C13.6738 18.1951 13.6152 18.3794 13.5065 18.5342C13.3978 18.6889 13.2441 18.8065 13.0664 18.8711C9.63191 20.1332 6.89311 21.0363 6.23893 22.3399C5.74395 23.3529 5.43792 24.4477 5.33587 25.5705C5.32909 25.6348 5.33616 25.6998 5.35661 25.7612C5.37705 25.8225 5.41039 25.8787 5.45438 25.9261C5.49805 25.9737 5.55117 26.0117 5.61035 26.0376C5.66953 26.0635 5.73346 26.0768 5.79806 26.0766H26.2022C26.2668 26.0768 26.3307 26.0635 26.3899 26.0376C26.4491 26.0117 26.5022 25.9737 26.5459 25.9261C26.5896 25.8785 26.6228 25.8223 26.6432 25.761C26.6637 25.6997 26.6709 25.6348 26.6644 25.5705C26.5635 24.4479 26.2587 23.3532 25.7649 22.3399Z" fill="#F7CED8"/>
</svg>
