<svg width="40" height="40" viewBox="0 0 40 40" fill="none" xmlns="http://www.w3.org/2000/svg">
<rect width="40" height="40" rx="4" fill="#F7CED8"/>
<path d="M32.2064 27.925C31.3872 26.2955 27.9652 25.1741 23.6676 23.5964C23.4455 23.5157 23.2534 23.3687 23.1175 23.1752C22.9816 22.9818 22.9083 22.7514 22.9077 22.515V21.8232C22.9077 21.7249 22.9467 21.6307 23.0162 21.5613C23.0856 21.4918 23.1798 21.4528 23.278 21.4528C25.2408 21.6039 27.2018 21.1377 28.8866 20.1195C28.959 20.0753 29.0207 20.0157 29.0672 19.9448C29.1138 19.8739 29.1442 19.7936 29.156 19.7097C29.1679 19.6257 29.1611 19.5401 29.136 19.4591C29.111 19.3781 29.0683 19.3036 29.011 19.2411C28.2792 18.4456 27.7741 17.4856 27.5578 14.3273C27.1711 8.66688 23.3151 6.66699 20.0027 6.66699C16.6903 6.66699 12.8357 8.66688 12.4476 14.3273C12.2313 17.4856 11.7261 18.4456 10.9943 19.2411C10.9369 19.3034 10.8939 19.3776 10.8685 19.4584C10.8431 19.5392 10.8358 19.6246 10.8473 19.7086C10.8588 19.7925 10.8886 19.8729 10.9348 19.944C10.981 20.015 11.0423 20.075 11.1143 20.1195C12.7967 21.1383 14.756 21.6045 16.7169 21.4528C16.766 21.4522 16.8147 21.4614 16.8602 21.4797C16.9058 21.498 16.9472 21.5252 16.9822 21.5596C17.0172 21.594 17.045 21.635 17.0641 21.6803C17.0831 21.7255 17.093 21.7741 17.0932 21.8232V22.5076C17.0925 22.7439 17.0193 22.9744 16.8834 23.1678C16.7475 23.3613 16.5554 23.5083 16.3333 23.589C12.0402 25.1667 8.61666 26.2955 7.79893 27.925C7.18021 29.1913 6.79767 30.5598 6.67011 31.9633C6.66164 32.0437 6.67048 32.1249 6.69603 32.2016C6.72158 32.2782 6.76326 32.3485 6.81825 32.4077C6.87284 32.4672 6.93924 32.5147 7.01321 32.5471C7.08718 32.5795 7.1671 32.5961 7.24785 32.5959H32.753C32.8338 32.5961 32.9137 32.5795 32.9877 32.5471C33.0616 32.5147 33.1281 32.4672 33.1826 32.4077C33.2373 32.3483 33.2788 32.278 33.3043 32.2014C33.3298 32.1248 33.3389 32.0436 33.3308 31.9633C33.2046 30.56 32.8236 29.1916 32.2064 27.925Z" fill="#EF9CB1"/>
</svg>
