<svg width="112" height="112" viewBox="0 0 112 112" fill="none" xmlns="http://www.w3.org/2000/svg">
<path d="M0 56C0 70.8521 5.89998 85.0959 16.402 95.598C26.9041 106.1 41.1479 112 56 112C70.8521 112 85.0959 106.1 95.598 95.598C106.1 85.0959 112 70.8521 112 56C112 41.1479 106.1 26.9041 95.598 16.402C85.0959 5.89998 70.8521 0 56 0C41.1479 0 26.9041 5.89998 16.402 16.402C5.89998 26.9041 0 41.1479 0 56Z" fill="#F7CED8" fill-opacity="0.5"/>
<path d="M40.3886 99.2642C40.3886 99.9047 42.2545 100.519 45.5758 100.972C48.897 101.425 53.4016 101.679 58.0986 101.679C62.7956 101.679 67.3002 101.425 70.6215 100.972C73.9427 100.519 75.8086 99.9047 75.8086 99.2642C75.8086 98.6237 73.9427 98.0094 70.6215 97.5565C67.3002 97.1036 62.7956 96.8492 58.0986 96.8492C53.4016 96.8492 48.897 97.1036 45.5758 97.5565C42.2545 98.0094 40.3886 98.6237 40.3886 99.2642Z" fill="#F7CED8"/>
<path d="M29.7934 84.2282C29.7927 84.4552 29.8367 84.6802 29.9231 84.8902C30.0094 85.1002 30.1363 85.291 30.2965 85.4519C30.4567 85.6128 30.6471 85.7405 30.8567 85.8276C31.0664 85.9148 31.2912 85.9598 31.5182 85.96H81.5304C81.9877 85.9596 82.4262 85.7778 82.7496 85.4544C83.073 85.131 83.2548 84.6925 83.2552 84.2352V28.1792L68.6 13.5212H31.5182C31.0608 13.5212 30.622 13.7029 30.2986 14.0264C29.9751 14.3498 29.7934 14.7885 29.7934 15.246V84.2282Z" fill="white" stroke="#DF3962" stroke-width="1.4" stroke-linecap="round" stroke-linejoin="round"/>
<path d="M36.3272 32.921H76.5772V71.561H36.3272V32.921Z" fill="#F7CED8" stroke="#DF3962" stroke-width="1.4" stroke-linecap="round" stroke-linejoin="round"/>
<path d="M45.066 47.7512C45.066 49.037 45.5768 50.2702 46.486 51.1794C47.3952 52.0886 48.6284 52.5994 49.9142 52.5994C51.2 52.5994 52.4332 52.0886 53.3424 51.1794C54.2516 50.2702 54.7624 49.037 54.7624 47.7512C54.7624 46.4654 54.2516 45.2322 53.3424 44.323C52.4332 43.4138 51.2 42.903 49.9142 42.903C48.6284 42.903 47.3952 43.4138 46.486 44.323C45.5768 45.2322 45.066 46.4654 45.066 47.7512Z" fill="white" stroke="#DF3962" stroke-width="1.4" stroke-linecap="round" stroke-linejoin="round"/>
<path d="M76.58 63.84V68.3354C76.58 69.1894 76.2408 70.0084 75.6369 70.6123C75.033 71.2162 74.214 71.5554 73.36 71.5554H39.5472C38.6932 71.5554 37.8742 71.2162 37.2703 70.6123C36.6665 70.0084 36.3272 69.1894 36.3272 68.3354V65.2988L44.5788 58.0762C45.0395 57.6668 45.64 57.45 46.256 57.4709C46.872 57.4917 47.4564 57.7485 47.8884 58.1882L51.1994 61.5006C51.5013 61.8024 51.9107 61.9719 52.3376 61.9719C52.7645 61.9719 53.1739 61.8024 53.4758 61.5006L63.6958 51.2806C63.9389 51.0343 64.2333 50.8445 64.558 50.7247C64.8827 50.6049 65.2298 50.5581 65.5746 50.5876C65.9222 50.6051 66.2614 50.7007 66.567 50.8672C66.8726 51.0337 67.1368 51.2669 67.34 51.5494L76.58 63.84Z" fill="white" stroke="#DF3962" stroke-width="1.4" stroke-linecap="round" stroke-linejoin="round"/>
<path d="M83.2552 28.1792H70.2058C69.7795 28.1781 69.3711 28.0079 69.07 27.7061C68.769 27.4043 68.6 26.9955 68.6 26.5692V13.5212L83.2552 28.1792Z" fill="#F7CED8" stroke="#DF3962" stroke-width="1.4" stroke-linecap="round" stroke-linejoin="round"/>
</svg>
