<svg width="65" height="64" viewBox="0 0 65 64" fill="none" xmlns="http://www.w3.org/2000/svg">
<path d="M0.5 32C0.5 40.4869 3.87142 48.6263 9.87258 54.6274C15.8737 60.6286 24.0131 64 32.5 64C40.9869 64 49.1263 60.6286 55.1274 54.6274C61.1286 48.6263 64.5 40.4869 64.5 32C64.5 23.5131 61.1286 15.3737 55.1274 9.37258C49.1263 3.37142 40.9869 0 32.5 0C24.0131 0 15.8737 3.37142 9.87258 9.37258C3.87142 15.3737 0.5 23.5131 0.5 32Z" fill="#DAE3EF" fill-opacity="0.5"/>
<path d="M50.3105 15.2H13.4177C12.9984 15.2002 12.5963 15.3669 12.2999 15.6635C12.0034 15.9601 11.8369 16.3622 11.8369 16.7816V30.2215H51.8913V16.7816C51.8913 16.3622 51.7248 15.9601 51.4284 15.6635C51.1319 15.3669 50.7298 15.2002 50.3105 15.2Z" fill="#94AED0" stroke="#295DA1" stroke-width="1.4" stroke-linecap="round" stroke-linejoin="round"/>
<path d="M54.1404 26.716H28.5964C28.2244 26.7163 27.8597 26.6128 27.5433 26.4172C27.2269 26.2216 26.9713 25.9417 26.8052 25.6088L24.9076 21.8152C24.7416 21.4823 24.486 21.2024 24.1696 21.0068C23.8531 20.8112 23.4884 20.7077 23.1164 20.708H12.5412C12.2619 20.7076 11.9855 20.7657 11.73 20.8785C11.4744 20.9914 11.2453 21.1566 11.0575 21.3634C10.8697 21.5702 10.7273 21.8141 10.6395 22.0793C10.5517 22.3445 10.5204 22.6252 10.5476 22.9032L13.1644 49.9432C13.2116 50.4389 13.442 50.8991 13.8106 51.2339C14.1791 51.5688 14.6593 51.7541 15.1572 51.7536H51.6204C52.1105 51.7541 52.5836 51.5746 52.9501 51.2493C53.3165 50.924 53.5508 50.4754 53.6084 49.9888L56.1324 28.9608C56.1672 28.679 56.1416 28.3931 56.0572 28.122C55.9729 27.8509 55.8318 27.6009 55.6434 27.3885C55.455 27.1762 55.2235 27.0064 54.9643 26.8904C54.7052 26.7745 54.4243 26.715 54.1404 26.716Z" fill="#DAE3EF"/>
<path d="M10.8804 24.7136H21.9204C22.3034 24.7102 22.68 24.8114 23.0097 25.0064C23.3393 25.2014 23.6094 25.4827 23.7908 25.82L25.7708 29.6144C25.9522 29.9517 26.2221 30.233 26.5516 30.4281C26.8811 30.6232 27.2575 30.7247 27.6404 30.7216H54.3068C54.5927 30.7204 54.8759 30.777 55.1393 30.8881C55.4027 30.9992 55.641 31.1624 55.8396 31.368L56.1292 28.9576C56.1632 28.6765 56.1371 28.3913 56.0526 28.121C55.9682 27.8507 55.8273 27.6015 55.6393 27.3897C55.4513 27.178 55.2204 27.0086 54.962 26.8927C54.7037 26.7768 54.4236 26.7171 54.1404 26.7176H28.5964C28.2244 26.7179 27.8597 26.6144 27.5433 26.4188C27.2269 26.2232 26.9713 25.9433 26.8052 25.6104L24.9076 21.816C24.7415 21.4833 24.4858 21.2035 24.1694 21.008C23.853 20.8126 23.4883 20.7092 23.1164 20.7096H12.5412C12.2619 20.7092 11.9855 20.7673 11.73 20.8801C11.4744 20.993 11.2453 21.1582 11.0575 21.365C10.8697 21.5718 10.7273 21.8157 10.6395 22.0809C10.5517 22.3461 10.5204 22.6268 10.5476 22.9048L10.7244 24.7312C10.7772 24.7256 10.8268 24.7136 10.8804 24.7136Z" fill="white" fill-opacity="0.5"/>
<path d="M54.1404 26.716H28.5964C28.2244 26.7163 27.8597 26.6128 27.5433 26.4172C27.2269 26.2216 26.9713 25.9417 26.8052 25.6088L24.9076 21.8152C24.7416 21.4823 24.486 21.2024 24.1696 21.0068C23.8531 20.8112 23.4884 20.7077 23.1164 20.708H12.5412C12.2619 20.7076 11.9855 20.7657 11.73 20.8785C11.4744 20.9914 11.2453 21.1566 11.0575 21.3634C10.8697 21.5702 10.7273 21.8141 10.6395 22.0793C10.5517 22.3445 10.5204 22.6252 10.5476 22.9032L13.1644 49.9432C13.2116 50.4389 13.442 50.8991 13.8106 51.2339C14.1791 51.5688 14.6593 51.7541 15.1572 51.7536H51.6204C52.1105 51.7541 52.5836 51.5746 52.9501 51.2493C53.3165 50.924 53.5508 50.4754 53.6084 49.9888L56.1324 28.9608C56.1672 28.679 56.1416 28.3931 56.0572 28.122C55.9729 27.8509 55.8318 27.6009 55.6434 27.3885C55.455 27.1762 55.2235 27.0064 54.9643 26.8904C54.7052 26.7745 54.4243 26.715 54.1404 26.716V26.716Z" stroke="#295DA1" stroke-width="1.4" stroke-linecap="round" stroke-linejoin="round"/>
</svg>
