<svg width="110" height="110" viewBox="0 0 110 110" fill="none" xmlns="http://www.w3.org/2000/svg">
<path d="M1.4 55C1.4 69.2156 7.04713 82.849 17.0991 92.9009C27.151 102.953 40.7844 108.6 55 108.6C69.2156 108.6 82.849 102.953 92.9009 92.9009C102.953 82.849 108.6 69.2156 108.6 55C108.6 40.7844 102.953 27.151 92.9009 17.0991C82.849 7.04712 69.2156 1.39999 55 1.39999C40.7844 1.39999 27.151 7.04712 17.0991 17.0991C7.04713 27.151 1.4 40.7844 1.4 55V55Z" fill="#D8EBF5" stroke="#D8EBF5" stroke-width="1.34"/>
<path d="M102.315 40.2144C102.064 39.7874 101.728 39.4158 101.329 39.1221C100.929 38.8284 100.475 38.6188 99.9918 38.5059L61.6759 33.158L26.265 17.5858C25.795 17.4286 25.2979 17.3682 24.8038 17.4085C24.3098 17.4488 23.829 17.5888 23.3907 17.8202C22.9523 18.0515 22.5654 18.3694 22.2533 18.7545C21.9412 19.1396 21.7105 19.584 21.575 20.0608L8.68558 65.113C8.55397 65.576 8.51492 66.0605 8.57066 66.5387C8.62639 67.0168 8.77583 67.4793 9.01041 67.8997C9.24499 68.3201 9.56013 68.6901 9.9378 68.9887C10.3155 69.2872 10.7483 69.5083 11.2115 69.6395L21.2695 69.4894C21.8636 69.4796 22.4554 69.4872 23.045 69.5122C29.8485 69.8927 36.3444 72.472 41.5558 76.8621L44.9058 79.6158C45.71 80.2753 46.6384 80.7667 47.6359 81.0608C48.6335 81.355 49.68 81.446 50.7133 81.3283L56.5557 80.665C60.6273 80.1486 64.7612 80.4548 68.7122 81.5655C71.5603 82.4068 74.2758 83.6446 76.779 85.2424L85.2612 90.6534C86.1964 90.9184 87.1986 90.8012 88.0474 90.3276C88.8963 89.8539 89.5222 89.0625 89.7877 88.1275L102.683 43.074C102.818 42.5972 102.855 42.0981 102.792 41.6066C102.729 41.1152 102.567 40.6416 102.315 40.2144V40.2144Z" fill="#FC4040" stroke="#555658" stroke-width="1.34" stroke-linecap="round" stroke-linejoin="round"/>
<path d="M90.1991 73.6434L88.0792 81.1126C87.9248 81.6562 87.6469 82.1567 87.2671 82.5752C86.8873 82.9937 86.4159 83.3187 85.8898 83.525C85.3637 83.7312 84.797 83.8131 84.234 83.7642C83.671 83.7153 83.1269 83.537 82.6442 83.2432C76.1372 79.2794 62.7077 72.8836 49.1683 77.2426L51.1703 70.1902L90.1991 73.6434Z" fill="#D8EBF5" stroke="#555658" stroke-width="1.34" stroke-linecap="round" stroke-linejoin="round"/>
<path d="M49.1683 77.244C59.7606 75.238 70.6744 75.7257 81.0456 78.6684L84.6636 79.6975C85.599 79.9626 86.6013 79.8454 87.4504 79.3718C88.2994 78.8982 88.9256 78.1068 89.1914 77.1716L100.205 38.384C100.47 37.4486 100.353 36.4462 99.8792 35.5972C99.4055 34.7482 98.6142 34.1219 97.679 33.8561L94.053 32.8283C83.6823 29.8857 72.7689 29.398 62.177 31.4039L49.1683 77.244Z" fill="white"/>
<path d="M49.1683 77.244C59.7606 75.238 70.6744 75.7257 81.0456 78.6684L84.6636 79.6975C85.599 79.9626 86.6013 79.8454 87.4504 79.3718C88.2994 78.8982 88.9256 78.1068 89.1914 77.1716L100.205 38.384C100.47 37.4486 100.353 36.4462 99.8792 35.5972C99.4055 34.7482 98.6142 34.1219 97.679 33.8561L94.053 32.8283C83.6823 29.8857 72.7689 29.398 62.177 31.4039L49.1683 77.244Z" stroke="#555658" stroke-width="1.34" stroke-linecap="round" stroke-linejoin="round"/>
<path d="M16.14 52.6308L14.0201 60.1C13.8661 60.6437 13.8398 61.2157 13.9433 61.7713C14.0467 62.3269 14.2772 62.851 14.6167 63.3028C14.9561 63.7546 15.3954 64.1219 15.9003 64.3759C16.4051 64.6299 16.9618 64.7638 17.5269 64.7672C25.1461 64.8128 39.933 66.4221 49.1643 77.2426L51.1663 70.1902L16.14 52.6308Z" fill="#D8EBF5" stroke="#555658" stroke-width="1.34" stroke-linecap="round" stroke-linejoin="round"/>
<path d="M49.1683 77.244C41.2088 69.9745 31.6663 64.6577 21.2963 61.7147L17.6703 60.6856C16.7352 60.4201 15.9438 59.7941 15.4702 58.9453C14.9965 58.0964 14.8793 57.0943 15.1444 56.1591L26.1498 17.3674C26.281 16.9042 26.5021 16.4714 26.8006 16.0937C27.0992 15.716 27.4692 15.4009 27.8896 15.1663C28.31 14.9317 28.7724 14.7823 29.2506 14.7266C29.7288 14.6708 30.2133 14.7099 30.6763 14.8415L34.3024 15.8693C44.6726 18.8124 54.2152 24.1297 62.1744 31.3999L49.1683 77.244Z" fill="white"/>
<path d="M49.1683 77.244C41.2088 69.9745 31.6663 64.6577 21.2963 61.7147L17.6703 60.6856C16.7352 60.4201 15.9438 59.7941 15.4702 58.9453C14.9965 58.0964 14.8793 57.0943 15.1444 56.1591L26.1498 17.3674C26.281 16.9042 26.5021 16.4714 26.8006 16.0937C27.0992 15.716 27.4692 15.4009 27.8896 15.1663C28.31 14.9317 28.7724 14.7823 29.2506 14.7266C29.7288 14.6708 30.2133 14.7099 30.6763 14.8415L34.3024 15.8693C44.6726 18.8124 54.2152 24.1297 62.1744 31.3999L49.1683 77.244Z" stroke="#555658" stroke-width="1.34" stroke-linecap="round" stroke-linejoin="round"/>
<path d="M32.4465 28.6207C40.5007 30.0203 48.0466 33.5094 54.33 38.7391" stroke="#555658" stroke-width="1.34" stroke-linecap="round" stroke-linejoin="round"/>
<path d="M30.336 35.9465C38.3891 37.3469 45.9336 40.8364 52.2155 46.0662" stroke="#555658" stroke-width="1.34" stroke-linecap="round" stroke-linejoin="round"/>
<path d="M28.2241 43.2736C36.2777 44.673 43.8228 48.162 50.105 53.392" stroke="#555658" stroke-width="1.34" stroke-linecap="round" stroke-linejoin="round"/>
<path d="M26.1136 50.5994C34.1668 51.9995 41.7114 55.489 47.9931 60.7191" stroke="#555658" stroke-width="1.34" stroke-linecap="round" stroke-linejoin="round"/>
<path d="M88.8042 44.8588C81.2406 41.7596 72.9961 40.6997 64.8946 41.7849" stroke="#555658" stroke-width="1.34" stroke-linecap="round" stroke-linejoin="round"/>
<path d="M86.6923 52.186C79.1296 49.0836 70.885 48.0209 62.7827 49.104" stroke="#555658" stroke-width="1.34" stroke-linecap="round" stroke-linejoin="round"/>
<path d="M84.5818 59.5118C77.0183 56.4126 68.7738 55.3526 60.6722 56.4378" stroke="#555658" stroke-width="1.34" stroke-linecap="round" stroke-linejoin="round"/>
<path d="M82.47 66.8389C74.9068 63.7365 66.6617 62.6737 58.559 63.7569" stroke="#555658" stroke-width="1.34" stroke-linecap="round" stroke-linejoin="round"/>
<path d="M30.541 94.869C30.541 95.2143 31.2006 95.5561 32.4821 95.8751C33.7636 96.1941 35.6419 96.4839 38.0098 96.728C40.3777 96.9722 43.1888 97.1658 46.2827 97.298C49.3765 97.4301 52.6924 97.4981 56.0412 97.4981C59.3899 97.4981 62.7059 97.4301 65.7997 97.298C68.8935 97.1658 71.7046 96.9722 74.0725 96.728C76.4405 96.4839 78.3188 96.1941 79.6003 95.8751C80.8818 95.5561 81.5414 95.2143 81.5414 94.869C81.5414 94.5238 80.8818 94.1819 79.6003 93.8629C78.3188 93.5439 76.4405 93.2541 74.0725 93.01C71.7046 92.7658 68.8935 92.5722 65.7997 92.4401C62.7059 92.3079 59.3899 92.2399 56.0412 92.2399C52.6924 92.2399 49.3765 92.3079 46.2827 92.4401C43.1888 92.5722 40.3777 92.7658 38.0098 93.01C35.6419 93.2541 33.7636 93.5439 32.4821 93.8629C31.2006 94.1819 30.541 94.5238 30.541 94.869V94.869Z" fill="#B4DBEE"/>
<path d="M71.691 53.9615C71.6394 54.1224 71.5384 54.2629 71.4024 54.3632C71.2664 54.4634 71.1022 54.5182 70.9332 54.5199C70.7643 54.5215 70.5991 54.4698 70.4611 54.3723C70.3232 54.2747 70.2195 54.1361 70.1648 53.9762L68.3719 48.2651L64.1656 52.0386C64.0366 52.1539 63.8735 52.224 63.7011 52.2385C63.5287 52.253 63.3563 52.211 63.2098 52.1189C63.0634 52.0267 62.9509 51.8895 62.8893 51.7278C62.8277 51.5661 62.8204 51.3887 62.8685 51.2225L68.542 31.7577C68.677 31.2949 68.9487 30.8837 69.3215 30.5781C69.6943 30.2725 70.1508 30.0867 70.6311 30.0452L75.3921 29.6311C75.7793 29.5975 76.1689 29.6587 76.527 29.8096C76.8852 29.9605 77.2012 30.1964 77.4476 30.497C77.6941 30.7975 77.8635 31.1536 77.9413 31.5344C78.019 31.9152 78.0028 32.3092 77.8939 32.6823L71.691 53.9615Z" fill="#FC4040"/>
<path d="M77.8939 32.6796L75.8839 39.5658C75.9876 39.1937 76.0002 38.8021 75.9206 38.4241C75.841 38.0461 75.6715 37.6929 75.4265 37.3942C75.1815 37.0956 74.8682 36.8604 74.513 36.7084C74.1579 36.5565 73.7713 36.4923 73.3861 36.5214L68.6117 36.9234C68.1352 36.969 67.6834 37.1566 67.3148 37.462C66.9462 37.7673 66.6777 38.1762 66.5441 38.6359L68.5541 31.751C68.6877 31.2913 68.9562 30.8824 69.3248 30.577C69.6934 30.2717 70.1452 30.0841 70.6217 30.0384L75.3961 29.6364C75.7812 29.6075 76.1676 29.6716 76.5226 29.8235C76.8776 29.9754 77.1908 30.2105 77.4358 30.5089C77.6808 30.8074 77.8503 31.1605 77.9301 31.5383C78.0098 31.9161 77.9974 32.3076 77.8939 32.6796Z" fill="#FC4040"/>
<path d="M71.691 53.9615C71.6394 54.1224 71.5384 54.2629 71.4024 54.3632C71.2664 54.4634 71.1022 54.5182 70.9332 54.5199C70.7643 54.5215 70.5991 54.4698 70.4611 54.3723C70.3232 54.2747 70.2195 54.1361 70.1648 53.9762L68.3719 48.2651L64.1656 52.0386C64.0366 52.1539 63.8735 52.224 63.7011 52.2385C63.5287 52.253 63.3563 52.211 63.2098 52.1189C63.0634 52.0267 62.9509 51.8895 62.8893 51.7278C62.8277 51.5661 62.8204 51.3887 62.8685 51.2225L68.542 31.7577C68.677 31.2949 68.9487 30.8837 69.3215 30.5781C69.6943 30.2725 70.1508 30.0867 70.6311 30.0452L75.3921 29.6311C75.7793 29.5975 76.1689 29.6587 76.527 29.8096C76.8852 29.9605 77.2012 30.1964 77.4476 30.497C77.6941 30.7975 77.8635 31.1536 77.9413 31.5344C78.019 31.9152 78.0028 32.3092 77.8939 32.6823L71.691 53.9615Z" stroke="#555658" stroke-width="1.34" stroke-linecap="round" stroke-linejoin="round"/>
</svg>
