<svg width="245" height="245" viewBox="0 0 245 245" fill="none" xmlns="http://www.w3.org/2000/svg">
<path d="M120.974 89.9444C113.389 89.9444 107.24 83.5676 107.24 75.7014C107.24 67.8352 113.389 61.4583 120.974 61.4583C128.56 61.4583 134.709 67.8352 134.709 75.7014C134.709 83.5676 128.56 89.9444 120.974 89.9444Z" fill="white"/>
<path d="M207.959 146.917H98.0837L125.552 108.935L134.709 118.431L162.177 80.4491L207.959 146.917Z" fill="white"/>
<path fill-rule="evenodd" clip-rule="evenodd" d="M220.167 195.75H73.667C60.182 195.75 49.2503 184.818 49.2503 171.333V24.8333C49.2503 11.3484 60.182 0.416656 73.667 0.416656H220.167C233.652 0.416656 244.584 11.3484 244.584 24.8333V171.333C244.584 184.818 233.652 195.75 220.167 195.75ZM73.667 24.8333V171.333H220.167V24.8333H73.667Z" fill="white"/>
<path d="M24.8337 73.6667H0.416992V220.167C0.416992 233.652 11.3487 244.583 24.8337 244.583H171.334V220.167H24.8337V73.6667Z" fill="white"/>
</svg>
