<svg width="204" height="204" viewBox="0 0 204 204" fill="none" xmlns="http://www.w3.org/2000/svg">
<path d="M11.3566 203.799C8.22415 203.793 5.23802 202.473 3.12676 200.159C0.976568 197.863 -0.0918713 194.76 0.189927 191.627L2.92576 161.544L129.31 35.2045L168.807 74.6899L42.4558 201.018L12.3728 203.754C12.0266 203.788 11.6804 203.799 11.3566 203.799ZM176.69 66.795L137.205 27.3097L160.889 3.62519C162.984 1.52835 165.826 0.350159 168.79 0.350159C171.754 0.350159 174.596 1.52835 176.69 3.62519L200.375 27.3097C202.472 29.4042 203.65 32.2464 203.65 35.2101C203.65 38.1738 202.472 41.016 200.375 43.1105L176.701 66.7839L176.69 66.795Z" fill="white"/>
</svg>
