<svg width="293" height="293" viewBox="0 0 293 293" fill="none" xmlns="http://www.w3.org/2000/svg">
<path d="M144.974 113.944C137.389 113.944 131.24 107.568 131.24 99.7014C131.24 91.8352 137.389 85.4583 144.974 85.4583C152.56 85.4583 158.709 91.8352 158.709 99.7014C158.709 107.568 152.56 113.944 144.974 113.944Z" fill="white"/>
<path d="M231.959 170.917H122.084L149.552 132.935L158.709 142.431L186.177 104.449L231.959 170.917Z" fill="white"/>
<path fill-rule="evenodd" clip-rule="evenodd" d="M244.167 219.75H97.667C84.182 219.75 73.2503 208.818 73.2503 195.333V48.8333C73.2503 35.3484 84.182 24.4167 97.667 24.4167H244.167C257.652 24.4167 268.584 35.3484 268.584 48.8333V195.333C268.584 208.818 257.652 219.75 244.167 219.75ZM97.667 48.8333V195.333H244.167V48.8333H97.667Z" fill="white"/>
<path d="M48.8337 97.6667H24.417V244.167C24.417 257.652 35.3487 268.583 48.8337 268.583H195.334V244.167H48.8337V97.6667Z" fill="white"/>
</svg>
