<svg width="16" height="16" viewBox="0 0 16 16" fill="none" xmlns="http://www.w3.org/2000/svg">
<path d="M15 6.13338V3.42677C15 3.2402 14.9441 3.05791 14.8396 2.90341C14.735 2.74892 14.5865 2.62931 14.4132 2.56003L10.6799 1.06673C10.4574 0.977756 10.2092 0.977756 9.98676 1.06673L6.01325 2.65648C5.79076 2.74545 5.54258 2.74545 5.32009 2.65648L1.64027 1.18433C1.56927 1.15587 1.49237 1.14531 1.41632 1.15356C1.34028 1.16181 1.26743 1.18863 1.20418 1.23165C1.14094 1.27467 1.08924 1.33258 1.05364 1.40028C1.01803 1.46798 0.999616 1.54339 1.00001 1.61988V10.5629C0.999975 10.7494 1.05586 10.9317 1.16045 11.0862C1.26504 11.2407 1.41353 11.3603 1.58676 11.4296L5.32009 12.9229C5.54258 13.0119 5.79076 13.0119 6.01325 12.9229L7.80587 12.2055" stroke="#747578" stroke-linecap="round" stroke-linejoin="round"/>
<path d="M5.6665 2.72302V12.9895" stroke="#747578" stroke-linecap="round" stroke-linejoin="round"/>
<path d="M10.3335 1.00012V5.66669" stroke="#747578" stroke-linecap="round" stroke-linejoin="round"/>
<path d="M12.2002 10.146C12.2621 10.146 12.3214 10.1706 12.3652 10.2143C12.4089 10.2581 12.4335 10.3174 12.4335 10.3793" stroke="#747578" stroke-linecap="round" stroke-linejoin="round"/>
<path d="M11.9668 10.3793C11.9668 10.3174 11.9914 10.2581 12.0351 10.2143C12.0789 10.1706 12.1382 10.146 12.2001 10.146" stroke="#747578" stroke-linecap="round" stroke-linejoin="round"/>
<path d="M12.2001 10.6133C12.1382 10.6133 12.0789 10.5887 12.0351 10.545C11.9914 10.5012 11.9668 10.4419 11.9668 10.38" stroke="#747578" stroke-linecap="round" stroke-linejoin="round"/>
<path d="M12.4335 10.3793C12.4335 10.4412 12.4089 10.5005 12.3652 10.5443C12.3214 10.588 12.2621 10.6126 12.2002 10.6126" stroke="#747578" stroke-linecap="round" stroke-linejoin="round"/>
<path d="M12.1999 7.57935C12.9425 7.57935 13.6547 7.87434 14.1798 8.39943C14.7049 8.92452 14.9999 9.63669 14.9999 10.3793C14.9999 11.5745 13.3274 13.8487 12.5676 14.8206C12.524 14.8765 12.4682 14.9217 12.4045 14.9527C12.3408 14.9838 12.2708 15 12.1999 15C12.129 15 12.059 14.9838 11.9953 14.9527C11.9316 14.9217 11.8758 14.8765 11.8322 14.8206C11.0724 13.8493 9.3999 11.5745 9.3999 10.3793C9.3999 9.63669 9.6949 8.92452 10.22 8.39943C10.7451 7.87434 11.4573 7.57935 12.1999 7.57935Z" stroke="#747578" stroke-linecap="round" stroke-linejoin="round"/>
</svg>
