<svg width="16" height="15" viewBox="0 0 16 15" fill="none" xmlns="http://www.w3.org/2000/svg">
<path d="M5.20068 7.5354H15" stroke="#555658" stroke-width="1.25" stroke-linecap="round" stroke-linejoin="round"/>
<path d="M12.6669 9.86858L15 7.5354L12.6669 5.20222" stroke="#555658" stroke-width="1.25" stroke-linecap="round" stroke-linejoin="round"/>
<path d="M10.3336 10.3327V13.1325C10.3443 13.3687 10.261 13.5994 10.102 13.7743C9.94292 13.9492 9.72109 14.054 9.48499 14.0658H1.84897C1.61298 14.0539 1.39131 13.949 1.2324 13.7741C1.0735 13.5992 0.990278 13.3686 1.00094 13.1325V1.93327C0.990112 1.69718 1.07327 1.46641 1.23221 1.2915C1.39115 1.11658 1.61292 1.01177 1.84897 1H9.48499C9.72109 1.01177 9.94292 1.11656 10.102 1.29146C10.261 1.46635 10.3443 1.69712 10.3336 1.93327V4.73308" stroke="#555658" stroke-width="1.25" stroke-linecap="round" stroke-linejoin="round"/>
</svg>
