<svg width="32" height="32" viewBox="0 0 32 32" fill="none" xmlns="http://www.w3.org/2000/svg">
<rect opacity="0.5" width="32" height="32" rx="4" fill="#D8EBF5"/>
<path d="M26.4166 24.4608C26.0991 22.447 25.8695 20.9915 24.2748 20.3077L19.3363 18.1911C19.2798 18.1668 19.2317 18.1266 19.1978 18.0753C19.1639 18.024 19.1457 17.9639 19.1456 17.9025V16.4784C19.1455 16.437 19.1536 16.3961 19.1696 16.358C19.1855 16.3198 19.2089 16.2853 19.2384 16.2563C19.8978 15.4759 20.2458 14.4795 20.2158 13.4583C20.2183 13.4158 20.2293 13.3741 20.2483 13.3359C20.2672 13.2978 20.2938 13.2639 20.3263 13.2362C20.5537 13.0057 20.7311 12.7307 20.8473 12.4285C20.9634 12.1262 21.0159 11.8032 21.0013 11.4797C21.0198 11.0219 20.8793 10.5719 20.6035 10.2061C20.5657 10.1604 20.5416 10.1049 20.5341 10.0461C20.5265 9.9872 20.5358 9.92741 20.5609 9.87363C20.8793 9.19737 20.9486 8.4304 20.7566 7.70801C20.3288 5.96523 18.1933 5.34792 16.4906 5.34792C15.7444 5.28936 14.995 5.40965 14.3045 5.69878C13.6141 5.98792 13.0026 6.43756 12.5208 7.0104C12.4923 7.05565 12.4529 7.09296 12.4062 7.11885C12.3595 7.14474 12.3069 7.15837 12.2535 7.15845C12.0415 7.14213 11.8286 7.17626 11.6324 7.25804C11.4361 7.33983 11.262 7.46694 11.1243 7.62897C10.6588 8.24754 10.9925 9.09822 11.3451 9.80211C11.3745 9.86073 11.3848 9.92705 11.3747 9.99183C11.3646 10.0566 11.3345 10.1166 11.2886 10.1635C11.2124 10.2399 11.1443 10.324 11.0854 10.4144C10.8606 10.7759 10.7447 11.1945 10.7516 11.6202C10.7328 11.9437 10.7965 12.2666 10.9368 12.5588C11.077 12.8509 11.2892 13.1026 11.5534 13.2902C11.5954 13.3163 11.6305 13.3519 11.6561 13.3942C11.6816 13.4365 11.6967 13.4843 11.7002 13.5336C11.6941 14.5466 12.0751 15.5237 12.7654 16.2651C12.797 16.2944 12.8223 16.3299 12.8395 16.3694C12.8568 16.4089 12.8657 16.4516 12.8658 16.4947V17.9025C12.8656 17.9639 12.8475 18.024 12.8136 18.0753C12.7797 18.1266 12.7316 18.1668 12.6751 18.1911L7.73657 20.3077C6.14059 20.9928 5.91098 22.4407 5.59479 24.4583C5.52453 24.9087 5.44799 25.4006 5.34385 25.9376C5.32703 26.0285 5.3305 26.1219 5.35399 26.2113C5.37749 26.3007 5.42044 26.3838 5.47978 26.4546C5.53912 26.5254 5.61338 26.5823 5.69725 26.6211C5.78111 26.6599 5.87252 26.6797 5.96493 26.6791H26.0402C26.1322 26.679 26.223 26.6586 26.3062 26.6195C26.3895 26.5804 26.4631 26.5234 26.5219 26.4527C26.5807 26.3819 26.6232 26.2991 26.6464 26.2101C26.6696 26.1211 26.673 26.028 26.6562 25.9376C26.5584 25.4018 26.4806 24.91 26.4166 24.4608Z" fill="#D8EBF5"/>
</svg>
