<svg width="40" height="40" viewBox="0 0 40 40" fill="none" xmlns="http://www.w3.org/2000/svg">
<rect width="40" height="40" rx="4" fill="#D8EBF5"/>
<path d="M33.021 30.5761C32.6242 28.0589 32.3372 26.2396 30.3438 25.3848L24.1706 22.7389C24.1 22.7086 24.0398 22.6583 23.9975 22.5942C23.9551 22.5301 23.9325 22.455 23.9323 22.3782V20.5981C23.9321 20.5464 23.9423 20.4952 23.9622 20.4476C23.9822 20.3999 24.0114 20.3567 24.0483 20.3205C24.8725 19.345 25.3076 18.0995 25.2701 16.823C25.2731 16.7698 25.2869 16.7178 25.3106 16.6701C25.3343 16.6223 25.3675 16.5799 25.4081 16.5454C25.6924 16.2573 25.9142 15.9135 26.0594 15.5357C26.2046 15.1578 26.2701 14.7541 26.2519 14.3497C26.2751 13.7775 26.0994 13.215 25.7547 12.7578C25.7074 12.7006 25.6773 12.6313 25.6679 12.5577C25.6584 12.4841 25.67 12.4094 25.7014 12.3422C26.0993 11.4968 26.186 10.5381 25.946 9.63514C25.4112 7.45666 22.7419 6.68502 20.6136 6.68502C19.6808 6.61183 18.744 6.76218 17.8809 7.1236C17.0179 7.48502 16.2535 8.04708 15.6512 8.76312C15.6157 8.81968 15.5664 8.86632 15.508 8.89868C15.4496 8.93105 15.3839 8.94808 15.3172 8.94819C15.0521 8.92779 14.7861 8.97045 14.5407 9.07268C14.2954 9.17491 14.0777 9.33379 13.9056 9.53633C13.3237 10.3095 13.7409 11.3729 14.1816 12.2528C14.2184 12.326 14.2313 12.4089 14.2186 12.4899C14.206 12.5709 14.1684 12.6459 14.1111 12.7045C14.0158 12.8 13.9306 12.9051 13.857 13.0181C13.576 13.47 13.4312 13.9933 13.4398 14.5253C13.4163 14.9297 13.4959 15.3334 13.6712 15.6986C13.8465 16.0637 14.1118 16.3783 14.442 16.6129C14.4945 16.6454 14.5385 16.69 14.5704 16.7429C14.6023 16.7958 14.6212 16.8555 14.6255 16.9171C14.6179 18.1834 15.0942 19.4047 15.957 20.3315C15.9966 20.3681 16.0281 20.4125 16.0497 20.4619C16.0713 20.5113 16.0825 20.5646 16.0825 20.6185V22.3782C16.0823 22.455 16.0596 22.5301 16.0173 22.5942C15.9749 22.6583 15.9147 22.7086 15.8441 22.7389L9.67099 25.3848C7.67601 26.2411 7.389 28.051 6.99377 30.573C6.90594 31.136 6.81027 31.7508 6.68009 32.4221C6.65907 32.5357 6.66339 32.6525 6.69277 32.7642C6.72214 32.876 6.77583 32.9798 6.85 33.0684C6.92418 33.1569 7.017 33.228 7.12183 33.2765C7.22667 33.325 7.34093 33.3498 7.45644 33.349H32.5505C32.6655 33.3489 32.779 33.3234 32.8831 33.2745C32.9871 33.2256 33.0792 33.1544 33.1527 33.0659C33.2261 32.9775 33.2793 32.874 33.3083 32.7627C33.3373 32.6515 33.3415 32.5352 33.3206 32.4221C33.1982 31.7524 33.101 31.1376 33.021 30.5761Z" fill="#B4DBEE"/>
</svg>
