<svg width="266" height="262" viewBox="0 0 266 262" fill="none" xmlns="http://www.w3.org/2000/svg">
<path d="M58.7704 21.1151C56.0852 22.8273 49.0516 24.7047 41.6218 19.4253C33.0566 13.3381 24.9058 13.9009 16.8516 18.1135C10.9898 21.1781 2.93418 18.2185 0.898578 16.9935C-1.13702 15.7685 0.198578 20.2891 5.82098 25.0127C11.4434 29.7363 16.7578 32.3585 19.2862 32.3585C23.4862 32.3585 28.0082 27.5607 34.1584 25.8933C43.4992 23.3621 49.9658 29.7265 58.7074 23.6365C61.3744 21.7871 60.8088 19.8145 58.7704 21.1151Z" fill="#FC4040"/>
<path d="M149.642 81.3587C154.521 85.4425 163.202 91.6865 169.278 94.4991C170.874 87.7413 173.656 80.5831 178.032 76.4055C171.367 72.5331 156.359 58.5625 143.396 55.4139C138.873 57.6329 134.922 60.8653 131.852 64.8597C129.283 62.3177 127.396 59.1706 126.362 55.7079C116.968 54.4591 108.321 57.1079 94.4032 53.7241C91.7264 57.3137 88.4728 69.5441 88.9432 74.7885C95.6345 76.7641 102.608 77.612 109.578 77.2973C110.02 74.3541 110.672 71.4464 111.529 68.5963C111.762 67.8207 112.738 68.0937 112.495 68.8763C111.299 73.8796 110.627 78.9938 110.491 84.1363C111.361 97.0555 118.361 110.123 123.179 114.992C133.679 116.913 158.718 113.702 165.802 107.712C162.302 100.544 157.133 93.2181 155.6 87.6923C153.124 86.1835 150.888 84.3119 148.967 82.1399C148.376 81.4469 148.95 80.7805 149.642 81.3587Z" fill="#FC4040"/>
<path d="M127.349 44.7598C128.227 44.6335 129.019 44.1652 129.553 43.4571C130.087 42.749 130.32 41.8585 130.2 40.9798C130.116 40.3596 129.151 40.2042 129.067 41.4208C129.024 42.036 128.779 42.6199 128.371 43.0826C127.964 43.5453 127.415 43.8611 126.81 43.9814C126.14 44.1732 126.397 44.89 127.349 44.7598Z" fill="#113362"/>
<path d="M127.077 37.0597C127.414 36.869 127.805 36.7952 128.188 36.8497C128.766 36.8497 128.755 36.2519 128.335 36.0321C128.184 35.9367 128.016 35.8731 127.839 35.8452C127.663 35.8173 127.483 35.8257 127.31 35.8699C127.137 35.9141 126.975 35.9931 126.834 36.1021C126.693 36.2111 126.575 36.3479 126.489 36.5039C126.2 37.0079 126.517 37.3775 127.077 37.0597Z" fill="#113362"/>
<path d="M121.178 33.0699C120.299 33.3188 119.549 33.893 119.078 34.6757C118.847 35.1265 118.965 36.3039 119.844 35.4415C120.332 34.9511 120.934 34.5902 121.597 34.3915C122.479 34.0877 121.965 32.9649 121.178 33.0699Z" fill="#113362"/>
<path d="M124.358 38.7046C124.253 37.488 123.683 37.9906 123.539 38.7046C123.035 41.212 122.815 42.0856 124.808 41.9246C125.858 41.8406 126.299 41.2834 125.711 41.0216C125.354 40.8634 124.4 41.1266 124.274 41.0216C124.258 40.2483 124.286 39.4748 124.358 38.7046Z" fill="#113362"/>
<path d="M120.968 38.3703C121.363 38.2084 121.796 38.1599 122.217 38.2303C122.876 38.3339 122.927 37.6311 122.374 37.2741C122.075 37.0852 121.715 37.0191 121.369 37.0895C121.023 37.16 120.717 37.3615 120.516 37.6521C120.237 38.0511 120.225 38.6797 120.968 38.3703Z" fill="#113362"/>
<path d="M126.267 32.3977C125.308 32.6189 125.354 33.7977 126.477 33.8145C127.358 33.7332 128.245 33.8853 129.049 34.2555C131.294 35.2817 129.444 31.6669 126.267 32.3977Z" fill="#113362"/>
<path d="M56.5149 14.8906C56.9685 14.654 56.8089 13.8406 56.3469 13.8406C53.4826 14.0175 50.6075 13.8236 47.7929 13.2638C46.7415 13.051 46.4937 14.0884 47.4877 14.5546C49.4561 15.4786 55.2913 15.5318 56.5149 14.8906Z" fill="#113362"/>
<path d="M64.9948 17.3465C63.2952 16.2629 55.3138 17.9611 52.8624 20.8003C52.4536 21.2735 52.8624 22.0253 53.4504 21.6403C56.822 19.4402 60.781 18.3132 64.8058 18.4077C65.3308 18.3867 65.3798 17.5915 64.9948 17.3465Z" fill="#113362"/>
<path d="M59.9197 16.5803C60.3285 16.3801 60.5371 15.6717 59.9939 15.4603C58.5827 14.9003 53.4447 16.6139 51.0507 16.8883C50.0035 16.9742 48.9525 17.0055 47.9021 16.9821C46.8605 16.9919 46.4041 19.2907 53.8633 17.6821C57.9289 16.7931 59.4325 16.8211 59.9197 16.5803Z" fill="#113362"/>
<path d="M67.0418 21.2622C65.905 20.4362 63.9492 23.911 63.2618 24.7622C62.8054 25.3222 60.1132 24.7622 59.1374 24.5424C58.4374 24.4262 57.4784 25.7702 61.425 26.3372C64.5736 26.788 64.1648 25.801 66.4426 23.1886C66.8528 22.658 67.76 21.7788 67.0418 21.2622Z" fill="#113362"/>
<path d="M53.827 12.5824C60.3762 13.7822 66.4158 13.0808 70.242 17.1576C73.7644 20.9096 76.4762 29.4062 79.09 35.7244C88.9544 59.5706 90.2522 54.2758 89.702 53.7032C85.6868 49.541 78.362 29.8276 75.8154 23.9588C70.6228 11.9874 66.0448 12.63 55.045 11.2706C52.9155 10.964 50.8103 10.5079 48.745 9.90558C48.066 9.71658 46.869 11.3 53.827 12.5824Z" fill="#113362"/>
<path d="M85.8913 69.7611C86.0044 69.7359 86.1069 69.6762 86.1846 69.5903C86.2623 69.5043 86.3115 69.3964 86.3253 69.2814C86.3391 69.1664 86.3169 69.0499 86.2618 68.948C86.2066 68.8461 86.1212 68.7639 86.0174 68.7125C84.6713 68.4196 83.4091 67.8253 82.3257 66.9745C81.2423 66.1236 80.3658 65.0382 79.7621 63.7999C73.7421 51.4169 69.2621 33.4899 66.9577 26.0167C66.7379 25.3027 65.9007 25.5659 65.9917 26.2967C66.6735 31.7931 76.0717 60.2215 78.7443 65.1299C79.4487 66.4417 80.4733 67.5541 81.7228 68.3638C82.9723 69.1735 84.4063 69.6541 85.8913 69.7611Z" fill="#113362"/>
<path d="M204.46 104.271C204.887 105.321 209.732 103.228 210.589 99.7152C210.729 99.1398 210.715 98.5602 210.043 98.2984C198.111 93.6784 187.238 95.9856 172.678 90.7636C172.06 90.541 171.57 91.5014 172.176 91.8122C182.526 97.1448 196.816 95.2128 209.088 99.3904C207.954 103.127 203.995 103.128 204.46 104.271Z" fill="#113362"/>
<path d="M179.69 79.1131C178.966 78.8205 178.513 79.8313 179.092 80.1631C182.699 82.2253 203.538 88.8809 207.871 90.2179C215.316 92.5139 222.054 96.5809 231.251 95.0241C231.811 94.8981 231.827 94.1378 231.197 94.1532C219.976 94.4332 216.531 91.811 208.915 89.242C200.322 86.3398 186.739 81.9593 179.69 79.1131Z" fill="#113362"/>
<path d="M217.673 100.06C212.835 98.4847 213.255 100.354 213.906 100.552C215.162 100.776 216.403 101.078 217.622 101.455C221.171 102.594 224.967 105.235 228.505 104.815C229.009 104.815 229.019 103.903 228.505 103.765C222.575 102.759 222.281 101.562 217.673 100.06Z" fill="#113362"/>
<path d="M230.898 102.077C231.019 102.064 231.13 102.007 231.212 101.917C231.293 101.826 231.338 101.709 231.338 101.587C231.338 101.466 231.293 101.348 231.212 101.258C231.13 101.167 231.019 101.11 230.898 101.097C227.43 100.792 224.024 99.9964 220.78 98.7355C220.171 98.5367 218.009 99.7603 225.492 101.527C227.26 101.957 229.079 102.142 230.898 102.077Z" fill="#113362"/>
<path d="M226.028 98.3798C228.047 98.545 230.076 98.545 232.095 98.3798C232.21 98.3798 232.321 98.3339 232.402 98.2522C232.484 98.1706 232.53 98.0598 232.53 97.9444C232.53 97.8289 232.484 97.7181 232.402 97.6365C232.321 97.5548 232.21 97.509 232.095 97.509C229.103 97.3452 224.049 97.3774 221.389 96.2182C220.748 95.941 218.68 97.8198 226.028 98.3798Z" fill="#113362"/>
<path d="M192.064 226.974C194.843 224.791 198.811 212.922 199.58 209.132C199.848 208.386 199.942 207.589 199.855 206.801C199.768 206.013 199.501 205.256 199.076 204.587C198.135 203.404 196.78 202.623 195.286 202.4C194.387 202.267 194.058 203.146 194.856 203.649C197.142 205.089 198.657 204.799 197.869 208.549C196.672 214.292 194.543 219.801 191.569 224.859C190.849 226.075 190.522 225.907 189.994 224.607C188.576 221.119 189.28 215.739 189.364 212.007C189.349 211.857 189.282 211.718 189.176 211.611C189.07 211.505 188.93 211.439 188.78 211.424C188.631 211.41 188.481 211.447 188.356 211.53C188.231 211.613 188.138 211.737 188.094 211.881C186.154 220.591 188.403 229.85 192.064 226.974Z" fill="#113362"/>
<path d="M138.947 236.42C140.357 240.333 140.735 241.953 134.937 243.904C129.373 245.832 123.539 246.871 117.651 246.984C117.021 246.984 117.125 246.564 117.472 246.112C120.34 242.819 123.749 240.04 127.552 237.894C128.112 237.554 127.552 236.581 126.933 236.783C124.086 237.708 116.293 243.759 115.483 246.039C115.364 246.367 115.332 246.719 115.388 247.063C115.444 247.406 115.588 247.73 115.804 248.002C116.021 248.275 116.304 248.487 116.626 248.62C116.948 248.752 117.299 248.8 117.644 248.758C124.32 248.558 132.578 247.087 138.132 244.506C141.912 242.752 142.349 239.405 140.232 235.88C139.759 235.105 138.608 235.483 138.947 236.42Z" fill="#113362"/>
<path d="M66.2644 6.77761C70.3778 7.0325 74.238 8.85066 77.0542 11.8596C77.9488 12.7276 78.5354 12.078 77.967 11.0714C76.1876 7.92001 69.896 5.67721 66.3694 5.82421C65.6344 5.81161 65.4986 6.68661 66.2644 6.77761Z" fill="#113362"/>
<path d="M69.791 1.21977C72.586 2.10169 75.0865 3.73128 77.022 5.93217C78.7748 8.12597 79.2704 6.69377 77.988 5.09217C75.9903 2.65088 73.2285 0.953805 70.148 0.27477C68.8362 0.0717698 69.1596 1.02517 69.791 1.21977Z" fill="#113362"/>
<path d="M26.2344 40.6369C30.7368 38.6321 30.601 36.2969 36.4684 35.8405C37.0032 35.8405 36.9626 34.8801 36.4684 34.7905C31.9002 33.9659 28.1972 38.1267 25.6688 39.2411C22.2668 40.7391 17.4466 36.7617 14.5738 40.0069C14.1944 40.4353 14.7642 41.2039 15.257 40.8259C18.3048 38.4809 21.9 42.5675 26.2344 40.6369Z" fill="#113362"/>
<path d="M37.5702 39.5869C33.5284 40.2645 32.4462 43.2829 30.223 44.9503C28.2784 46.4091 24.924 46.3853 22.656 45.7903C21.732 45.5481 21.865 46.6163 22.404 46.8389C23.8074 47.4258 25.3332 47.6601 26.848 47.5212C28.3628 47.3823 29.8205 46.8746 31.0938 46.0423C34.2508 43.6707 33.9498 42.0845 38.042 40.5627C38.987 40.1539 38.5768 39.4175 37.5702 39.5869Z" fill="#113362"/>
<path d="M118.081 224.465C99.523 231.503 72.1838 242.195 54.163 248.521C53.4938 248.757 53.68 250.106 54.499 249.844C69.997 244.89 101.631 232.955 118.759 226.184C118.987 226.094 119.17 225.917 119.268 225.691C119.365 225.466 119.369 225.211 119.279 224.983C119.189 224.754 119.011 224.571 118.786 224.474C118.56 224.376 118.306 224.372 118.077 224.462L118.081 224.465Z" fill="#113362"/>
<path d="M264.484 206.235C238.467 225.231 212.457 242.535 185.483 260.329C184.749 260.814 185.545 262.132 186.302 261.652C212.265 245.19 240.567 225.762 265.66 207.695C266.581 207.03 265.44 205.536 264.484 206.235Z" fill="#113362"/>
<path d="M171.378 204.934C163.58 207.799 151.565 212.578 143.386 215.912C142.566 216.246 142.987 217.802 143.89 217.465C154.791 213.39 162.043 210.314 171.703 206.78C172.845 206.363 172.519 204.514 171.378 204.934Z" fill="#113362"/>
<path d="M140.952 138.959C141.995 147.828 145.359 169.271 152.496 181.213C154.379 184.365 180.53 207.158 186.691 210.538C188.979 208.848 192.914 202.838 194.1 199.748C191.613 197.648 174.557 175.147 173.173 171.861C171.788 168.576 175.061 124.432 166.707 109.718C151.2 117.568 130.319 117.768 123.748 116.58C118.679 136.258 117.986 175.354 118.081 183.267C118.176 191.18 122.561 219.582 126.037 234.801C129.117 235 137.173 234.402 139.86 232.911C139.461 229.889 139.566 190.656 140.259 186.186C140.835 182.459 143.407 173.098 145.002 166.674C142.902 158.477 140.481 147.255 140.121 139.176C140.085 138.359 140.856 138.151 140.952 138.959Z" fill="#113362"/>
<path d="M130.235 28.2833C130.523 31.3705 131.738 34.2985 133.72 36.6833C134.17 37.2181 134.649 37.2587 134.821 36.5433C135.089 35.4401 137.378 34.6323 137.823 37.5933C138.089 39.3559 138.004 41.7289 135.883 42.0537C135.316 42.1405 135.408 42.8195 135.694 44.4883C136.374 48.2787 137.898 51.8674 140.154 54.9883C141.079 56.0355 142.254 55.7653 141.119 53.8683C156.659 57.1107 171.779 69.9921 176.205 73.2527C183.099 78.3263 203.42 82.4997 215.953 63.3351C228.486 44.1705 209.447 21.0145 190.053 25.8235C177.453 28.9497 167.619 26.6411 161.977 18.6555C152.894 5.80071 135.57 3.89811 129.077 11.2565C121.157 1.92971 103.32 9.59051 104.72 20.6953C106.21 32.5239 120.4 35.7033 130.235 28.2833ZM209.14 38.0553C213.71 40.5025 215.526 50.3501 212.037 55.1199C210.85 56.7453 209.675 55.8647 210.106 54.9519C212.516 49.8503 213.794 44.3805 208.365 38.9779C207.743 38.3605 208.383 37.6493 209.14 38.0553ZM143.291 12.7153C149.4 11.8655 154.22 16.5667 157.912 20.7863C165.147 29.0547 167.731 29.8023 173.11 30.7053C173.835 30.8271 173.897 31.5131 173.11 31.6853C158.451 32.3349 155.721 13.9557 143.387 14.0635C143.225 14.0489 143.074 13.9773 142.96 13.8614C142.847 13.7456 142.778 13.5931 142.767 13.4313C142.755 13.2695 142.802 13.1089 142.898 12.9782C142.994 12.8475 143.133 12.7553 143.291 12.7181V12.7153ZM110.41 14.0061C111.574 13.3061 112.377 14.3365 111.458 15.2871C110.826 15.7948 110.312 16.4328 109.949 17.1577C109.587 17.8826 109.385 18.6771 109.358 19.4871C109.218 20.7051 108.308 20.3887 108.077 19.2981C107.958 18.2885 108.112 17.2655 108.522 16.3353C108.932 15.4052 109.584 14.6019 110.41 14.0089V14.0061Z" fill="#113362"/>
<path d="M116.948 34.9065C117.081 40.0585 119.718 53.5265 127.569 51.6253C127.759 52.8646 127.833 54.1188 127.791 55.3717C127.73 57.0825 128.988 57.0937 129.06 54.6899C129.095 53.5121 129.042 52.3333 128.902 51.1633C130.384 50.5745 131.59 49.4508 132.282 48.0147C132.562 47.3427 131.862 46.7785 131.421 47.3427C130.489 48.5223 129.267 49.439 127.873 50.0027C120.963 52.8139 118.658 39.1611 118.04 34.8687C118.035 34.7239 117.972 34.587 117.866 34.4882C117.76 34.3893 117.62 34.3366 117.475 34.3416C117.33 34.3466 117.193 34.409 117.094 34.5149C116.995 34.6209 116.943 34.7617 116.948 34.9065Z" fill="#113362"/>
</svg>
