<svg width="108" height="114" viewBox="0 0 108 114" fill="none" xmlns="http://www.w3.org/2000/svg">
        <path d="M3.96045 62.2459C3.96045 75.9311 9.39686 89.0557 19.0737 98.7326C28.7506 108.409 41.8753 113.846 55.5604 113.846C69.2456 113.846 82.3703 108.409 92.0472 98.7326C101.724 89.0557 107.16 75.9311 107.16 62.2459C107.16 48.5607 101.724 35.4361 92.0472 25.7592C82.3703 16.0823 69.2456 10.6459 55.5604 10.6459C41.8753 10.6459 28.7506 16.0823 19.0737 25.7592C9.39686 35.4361 3.96045 48.5607 3.96045 62.2459V62.2459Z" fill="#D8EBF5" />
        <path d="M77.6867 92.1662C77.6869 92.9241 77.5377 93.6747 77.2478 94.375C76.9578 95.0753 76.5327 95.7116 75.9967 96.2476C75.4607 96.7836 74.8244 97.2087 74.1241 97.4987C73.4238 97.7886 72.6732 97.9378 71.9153 97.9376H41.9873C41.2293 97.9378 40.4787 97.7886 39.7784 97.4987C39.0781 97.2087 38.4418 96.7836 37.9059 96.2476C37.3699 95.7116 36.9448 95.0753 36.6548 94.375C36.3648 93.6747 36.2157 92.9241 36.2158 92.1662V27.9745C36.2162 26.444 36.8244 24.9764 37.9067 23.8943C38.989 22.8122 40.4568 22.2043 41.9873 22.2043H71.9153C73.446 22.2043 74.914 22.8124 75.9963 23.8947C77.0787 24.9771 77.6867 26.4451 77.6867 27.9758V92.1662Z" fill="white" />
        <path d="M77.6867 92.1662C77.6869 92.9241 77.5377 93.6747 77.2478 94.375C76.9578 95.0753 76.5327 95.7116 75.9967 96.2476C75.4607 96.7836 74.8244 97.2087 74.1241 97.4987C73.4238 97.7886 72.6732 97.9378 71.9153 97.9376H41.9873C41.2293 97.9378 40.4787 97.7886 39.7784 97.4987C39.0781 97.2087 38.4418 96.7836 37.9059 96.2476C37.3699 95.7116 36.9448 95.0753 36.6548 94.375C36.3648 93.6747 36.2157 92.9241 36.2158 92.1662V27.9745C36.2162 26.444 36.8244 24.9764 37.9067 23.8943C38.989 22.8122 40.4568 22.2043 41.9873 22.2043H71.9153C73.446 22.2043 74.914 22.8124 75.9963 23.8947C77.0787 24.9771 77.6867 26.4451 77.6867 27.9758V92.1662Z" stroke="#1E4C5C" strokeWidth="1.29" strokeLinecap="round" strokeLinejoin="round" />
        <path d="M39.8203 33.0235H74.0814V86.218H39.8203V33.0235Z" fill="#8FCDE8" />
        <path d="M39.8203 33.0235H74.0814V86.218H39.8203V33.0235Z" stroke="#1E4C5C" strokeWidth="1.29" strokeLinecap="round" strokeLinejoin="round" />
        <path d="M55.147 27.6133H65.0645" stroke="#1E4C5C" strokeWidth="1.29" strokeLinecap="round" strokeLinejoin="round" />
        <path d="M49.7427 26.4922C49.4521 26.5021 49.1767 26.6245 48.9747 26.8335C48.7726 27.0425 48.6597 27.3219 48.6597 27.6126C48.6597 27.9033 48.7726 28.1827 48.9747 28.3917C49.1767 28.6008 49.4521 28.7231 49.7427 28.733C50.0332 28.7231 50.3086 28.6008 50.5106 28.3917C50.7127 28.1827 50.8256 27.9033 50.8256 27.6126C50.8256 27.3219 50.7127 27.0425 50.5106 26.8335C50.3086 26.6245 50.0332 26.5021 49.7427 26.4922Z" fill="#1E4C5C" />
        <path d="M53.7949 92.0784C53.7949 92.9153 54.1274 93.7179 54.7191 94.3096C55.3108 94.9013 56.1134 95.2338 56.9503 95.2338C57.7871 95.2338 58.5897 94.9013 59.1814 94.3096C59.7732 93.7179 60.1056 92.9153 60.1056 92.0784C60.1056 91.2416 59.7732 90.439 59.1814 89.8473C58.5897 89.2555 57.7871 88.9231 56.9503 88.9231C56.1134 88.9231 55.3108 89.2555 54.7191 89.8473C54.1274 90.439 53.7949 91.2416 53.7949 92.0784Z" fill="white" stroke="#1E4C5C" strokeWidth="1.29" strokeLinecap="round" strokeLinejoin="round" />
        <path
            d="M91.5997 39.3342H65.4372C64.1982 39.3346 63.0101 39.827 62.1342 40.7032C61.2582 41.5794 60.7661 42.7676 60.7661 44.0066V60.8243C60.7658 61.438 60.8863 62.0457 61.1209 62.6127C61.3555 63.1797 61.6995 63.6949 62.1333 64.129C62.5671 64.563 63.0822 64.9073 63.6491 65.1422C64.2159 65.3771 64.8236 65.498 65.4372 65.498H67.5231L66.3879 71.7416C66.3554 71.9219 66.3766 72.1079 66.4488 72.2763C66.5211 72.4447 66.6412 72.5882 66.7943 72.6889C66.9473 72.7896 67.1266 72.8431 67.3099 72.8428C67.4931 72.8425 67.6722 72.7884 67.825 72.6872L78.6081 65.498H91.5997C92.2131 65.498 92.8205 65.3772 93.3872 65.1424C93.954 64.9077 94.4689 64.5636 94.9027 64.1299C95.3364 63.6961 95.6805 63.1812 95.9152 62.6145C96.15 62.0477 96.2708 61.4403 96.2708 60.8269V44.0066C96.2708 42.7676 95.7787 41.5794 94.9027 40.7032C94.0268 39.827 92.8387 39.3346 91.5997 39.3342V39.3342Z"
            fill="white"
        />
        <path
            d="M91.5997 39.3342H65.4372C64.1982 39.3346 63.0101 39.827 62.1342 40.7032C61.2582 41.5794 60.7661 42.7676 60.7661 44.0066V60.8243C60.7658 61.438 60.8863 62.0457 61.1209 62.6127C61.3555 63.1797 61.6995 63.6949 62.1333 64.129C62.5671 64.563 63.0822 64.9073 63.6491 65.1422C64.2159 65.3771 64.8236 65.498 65.4372 65.498H67.5231L66.3879 71.7416C66.3554 71.9219 66.3766 72.1079 66.4488 72.2763C66.5211 72.4447 66.6412 72.5882 66.7943 72.6889C66.9473 72.7896 67.1266 72.8431 67.3099 72.8428C67.4931 72.8425 67.6722 72.7884 67.825 72.6872L78.6081 65.498H91.5997C92.2131 65.498 92.8205 65.3772 93.3872 65.1424C93.954 64.9077 94.4689 64.5636 94.9027 64.1299C95.3364 63.6961 95.6805 63.1812 95.9152 62.6145C96.15 62.0477 96.2708 61.4403 96.2708 60.8269V44.0066C96.2708 42.7676 95.7787 41.5794 94.9027 40.7032C94.0268 39.827 92.8387 39.3346 91.5997 39.3342V39.3342Z"
            stroke="#1E4C5C"
            strokeWidth="1.29"
            strokeLinecap="round"
            strokeLinejoin="round"
        />
        <path d="M85.3379 52.5554C85.3379 53.176 85.5844 53.7712 86.0233 54.2101C86.4621 54.6489 87.0573 54.8955 87.678 54.8955C88.2986 54.8955 88.8938 54.6489 89.3326 54.2101C89.7715 53.7712 90.018 53.176 90.018 52.5554C90.018 51.9348 89.7715 51.3396 89.3326 50.9007C88.8938 50.4619 88.2986 50.2154 87.678 50.2154C87.0573 50.2154 86.4621 50.4619 86.0233 50.9007C85.5844 51.3396 85.3379 51.9348 85.3379 52.5554V52.5554Z" fill="#8FCDE8" stroke="#1E4C5C" strokeWidth="1.29" strokeLinecap="round" strokeLinejoin="round" />
        <path d="M76.4189 52.5554C76.4189 53.176 76.6655 53.7712 77.1043 54.2101C77.5432 54.6489 78.1384 54.8955 78.759 54.8955C79.3796 54.8955 79.9748 54.6489 80.4137 54.2101C80.8525 53.7712 81.0991 53.176 81.0991 52.5554C81.0991 51.9348 80.8525 51.3396 80.4137 50.9007C79.9748 50.4619 79.3796 50.2154 78.759 50.2154C78.1384 50.2154 77.5432 50.4619 77.1043 50.9007C76.6655 51.3396 76.4189 51.9348 76.4189 52.5554V52.5554Z" fill="#8FCDE8" stroke="#1E4C5C" strokeWidth="1.29" strokeLinecap="round" strokeLinejoin="round" />
        <path d="M67.4995 52.5554C67.4995 53.176 67.7461 53.7712 68.1849 54.2101C68.6237 54.6489 69.2189 54.8955 69.8396 54.8955C70.4602 54.8955 71.0554 54.6489 71.4942 54.2101C71.9331 53.7712 72.1796 53.176 72.1796 52.5554C72.1796 51.9348 71.9331 51.3396 71.4942 50.9007C71.0554 50.4619 70.4602 50.2154 69.8396 50.2154C69.2189 50.2154 68.6237 50.4619 68.1849 50.9007C67.7461 51.3396 67.4995 51.9348 67.4995 52.5554V52.5554Z" fill="#8FCDE8" stroke="#1E4C5C" strokeWidth="1.29" strokeLinecap="round" strokeLinejoin="round" />
        <path
            d="M7.55977 1.15408H45.1865C46.9686 1.15408 48.6778 1.86204 49.938 3.12221C51.1981 4.38238 51.9061 6.09154 51.9061 7.87369V32.0638C51.9058 33.8457 51.1976 35.5545 49.9375 36.8144C48.6774 38.0743 46.9684 38.7821 45.1865 38.7821H42.1872L43.8204 47.7631C43.8667 48.022 43.8361 48.2888 43.7322 48.5305C43.6284 48.7722 43.4559 48.9781 43.2362 49.1227C43.0165 49.2673 42.7591 49.3442 42.4961 49.344C42.2331 49.3438 41.9759 49.2664 41.7564 49.1214L26.2441 38.7821H7.55977C6.67734 38.7823 5.80351 38.6086 4.98819 38.2711C4.17286 37.9336 3.432 37.4387 2.80791 36.8149C2.18381 36.191 1.68871 35.4504 1.35086 34.6352C1.01301 33.82 0.839037 32.9462 0.838867 32.0638V7.87369C0.838867 6.99115 1.01272 6.11726 1.35049 5.30191C1.68826 4.48657 2.18334 3.74575 2.80745 3.12176C3.43156 2.49777 4.17248 2.00283 4.98789 1.66521C5.8033 1.3276 6.67723 1.15391 7.55977 1.15408V1.15408Z"
            fill="white"
        />
        <path
            d="M7.55977 1.15408H45.1865C46.9686 1.15408 48.6778 1.86204 49.938 3.12221C51.1981 4.38238 51.9061 6.09154 51.9061 7.87369V32.0638C51.9058 33.8457 51.1976 35.5545 49.9375 36.8144C48.6774 38.0743 46.9684 38.7821 45.1865 38.7821H42.1872L43.8204 47.7631C43.8667 48.022 43.8361 48.2888 43.7322 48.5305C43.6284 48.7722 43.4559 48.9781 43.2362 49.1227C43.0165 49.2673 42.7591 49.3442 42.4961 49.344C42.2331 49.3438 41.9759 49.2664 41.7564 49.1214L26.2441 38.7821H7.55977C6.67734 38.7823 5.80351 38.6086 4.98819 38.2711C4.17286 37.9336 3.432 37.4387 2.80791 36.8149C2.18381 36.191 1.68871 35.4504 1.35086 34.6352C1.01301 33.82 0.839037 32.9462 0.838867 32.0638V7.87369C0.838867 6.99115 1.01272 6.11726 1.35049 5.30191C1.68826 4.48657 2.18334 3.74575 2.80745 3.12176C3.43156 2.49777 4.17248 2.00283 4.98789 1.66521C5.8033 1.3276 6.67723 1.15391 7.55977 1.15408V1.15408Z"
            stroke="#1E4C5C"
            strokeWidth="1.29"
            strokeLinecap="round"
            strokeLinejoin="round"
        />
        <path d="M35.7783 19.9687C35.7783 20.6817 36.0616 21.3655 36.5657 21.8697C37.0699 22.3738 37.7537 22.6571 38.4667 22.6571C39.1797 22.6571 39.8635 22.3738 40.3676 21.8697C40.8718 21.3655 41.155 20.6817 41.155 19.9687C41.155 19.2557 40.8718 18.5719 40.3676 18.0678C39.8635 17.5636 39.1797 17.2804 38.4667 17.2804C37.7537 17.2804 37.0699 17.5636 36.5657 18.0678C36.0616 18.5719 35.7783 19.2557 35.7783 19.9687V19.9687Z" fill="#8FCDE8" stroke="#1E4C5C" strokeWidth="1.29" strokeLinecap="round" strokeLinejoin="round" />
        <path d="M23.6846 19.9687C23.6846 20.6817 23.9678 21.3655 24.472 21.8697C24.9761 22.3738 25.6599 22.6571 26.3729 22.6571C27.0859 22.6571 27.7697 22.3738 28.2739 21.8697C28.7781 21.3655 29.0613 20.6817 29.0613 19.9687C29.0613 19.2557 28.7781 18.5719 28.2739 18.0678C27.7697 17.5636 27.0859 17.2804 26.3729 17.2804C25.6599 17.2804 24.9761 17.5636 24.472 18.0678C23.9678 18.5719 23.6846 19.2557 23.6846 19.9687V19.9687Z" fill="#8FCDE8" stroke="#1E4C5C" strokeWidth="1.29" strokeLinecap="round" strokeLinejoin="round" />
        <path d="M11.5898 19.9687C11.5898 20.6817 11.8731 21.3655 12.3772 21.8697C12.8814 22.3738 13.5652 22.6571 14.2782 22.6571C14.9912 22.6571 15.675 22.3738 16.1792 21.8697C16.6833 21.3655 16.9666 20.6817 16.9666 19.9687C16.9666 19.2557 16.6833 18.5719 16.1792 18.0678C15.675 17.5636 14.9912 17.2804 14.2782 17.2804C13.5652 17.2804 12.8814 17.5636 12.3772 18.0678C11.8731 18.5719 11.5898 19.2557 11.5898 19.9687V19.9687Z" fill="#8FCDE8" stroke="#1E4C5C" strokeWidth="1.29" strokeLinecap="round" strokeLinejoin="round" />
    </svg>