<svg width="12" height="16" viewBox="0 0 12 16" fill="none" xmlns="http://www.w3.org/2000/svg">
  <path d="M5.86186 1.1665C5.8873 1.1164 5.92611 1.07433 5.974 1.04494C6.02188 1.01556 6.07697 1 6.13315 1C6.18934 1 6.24442 1.01556 6.29231 1.04494C6.34019 1.07433 6.379 1.1164 6.40444 1.1665L7.03413 2.43708C7.05596 2.48068 7.08802 2.51833 7.12757 2.54683C7.16712 2.57533 7.21299 2.59382 7.26125 2.60073L8.67557 2.80482C8.73077 2.81275 8.78269 2.83585 8.82554 2.87156C8.86839 2.90727 8.90048 2.95417 8.91823 3.00704C8.93555 3.05971 8.93767 3.11619 8.92436 3.17C8.91104 3.22382 8.88282 3.2728 8.84294 3.31131L7.81627 4.30687C7.78179 4.3403 7.75596 4.38161 7.741 4.42725C7.72605 4.47288 7.72241 4.52147 7.73041 4.56883L7.97245 5.97195C7.98186 6.02693 7.97552 6.08345 7.95416 6.13498C7.9328 6.18651 7.89729 6.23095 7.85174 6.26315C7.80585 6.29565 7.75186 6.31484 7.69574 6.31857C7.63963 6.3223 7.58358 6.31044 7.53378 6.2843L6.2744 5.62599C6.23087 5.60299 6.18238 5.59098 6.13315 5.59098C6.08392 5.59098 6.03544 5.60299 5.99191 5.62599L4.73252 6.2843C4.68273 6.31044 4.62667 6.3223 4.57056 6.31857C4.51445 6.31484 4.46046 6.29565 4.41457 6.26315C4.36901 6.23095 4.33351 6.18651 4.31215 6.13498C4.29078 6.08345 4.28444 6.02693 4.29385 5.97195L4.5359 4.56883C4.54429 4.52173 4.54114 4.47329 4.52673 4.42767C4.51232 4.38205 4.48707 4.3406 4.45314 4.30687L3.42647 3.31131C3.38659 3.2728 3.35838 3.22382 3.34506 3.17C3.33174 3.11619 3.33387 3.05971 3.35118 3.00704C3.36894 2.95417 3.40103 2.90727 3.44387 2.87156C3.48672 2.83585 3.53864 2.81275 3.59385 2.80482L5.00817 2.60073C5.05643 2.59382 5.10229 2.57533 5.14185 2.54683C5.1814 2.51833 5.21346 2.48068 5.23528 2.43708L5.86186 1.1665Z" stroke="#747578" stroke-linecap="round" stroke-linejoin="round" />
  <path d="M1 8.78186L5.37383 11.9639C5.58273 12.1159 5.8526 12.1999 6.13221 12.1999C6.41182 12.1999 6.68169 12.1159 6.89059 11.9639L11.2667 8.78186" stroke="#747578" stroke-linecap="round" stroke-linejoin="round" />
  <path d="M10.886 11.8575L6.89483 14.764C6.68593 14.916 6.41605 15 6.13645 15C5.85684 15 5.58697 14.916 5.37806 14.764L1.38229 11.8575C1.26235 11.7698 1.16646 11.6623 1.10091 11.5421C1.03536 11.4219 1.00164 11.2917 1.00196 11.16V7.02098C1.0022 6.9312 1.03411 6.84338 1.09384 6.76805C1.15358 6.69273 1.23861 6.6331 1.33874 6.59632C1.43887 6.55954 1.54984 6.54716 1.65835 6.56068C1.76686 6.5742 1.8683 6.61304 1.95051 6.67254L5.3773 9.16144C5.58621 9.31346 5.85608 9.39744 6.13569 9.39744C6.41529 9.39744 6.68517 9.31346 6.89407 9.16144L10.3171 6.67254C10.3992 6.61284 10.5008 6.57383 10.6094 6.5602C10.718 6.54657 10.8292 6.5589 10.9294 6.59571C11.0297 6.63252 11.1149 6.69223 11.1746 6.76767C11.2344 6.84312 11.2663 6.93108 11.2664 7.02098V11.1625C11.2663 11.2937 11.2323 11.4234 11.1668 11.5432C11.1013 11.663 11.0056 11.7701 10.886 11.8575Z" stroke="#747578" stroke-linecap="round" stroke-linejoin="round" />
</svg>