<svg width="109" height="109" viewBox="0 0 109 109" fill="none" xmlns="http://www.w3.org/2000/svg">
<path d="M1.01245 54.6C1.01245 68.8156 6.65958 82.449 16.7115 92.5009C26.7635 102.553 40.3968 108.2 54.6124 108.2C68.828 108.2 82.4614 102.553 92.5134 92.5009C102.565 82.449 108.212 68.8156 108.212 54.6C108.212 40.3844 102.565 26.751 92.5134 16.6991C82.4614 6.64713 68.828 1 54.6124 1C40.3968 1 26.7635 6.64713 16.7115 16.6991C6.65958 26.751 1.01245 40.3844 1.01245 54.6Z" fill="#D8EBF5" stroke="#D8EBF5" stroke-width="1.34"/>
<path d="M42.7131 88.1885C42.7131 89.0627 45.5119 89.9012 50.4936 90.5194C55.4753 91.1376 62.232 91.4849 69.2773 91.4849C76.3225 91.4849 83.0792 91.1376 88.061 90.5194C93.0427 89.9012 95.8414 89.0627 95.8414 88.1885C95.8414 87.3142 93.0427 86.4758 88.061 85.8576C83.0792 85.2394 76.3225 84.8921 69.2773 84.8921C62.232 84.8921 55.4753 85.2394 50.4936 85.8576C45.5119 86.4758 42.7131 87.3142 42.7131 88.1885Z" fill="#B4DBEE"/>
<path d="M1.21753 86.8311C1.21753 87.1366 1.72409 87.4391 2.70828 87.7213C3.69247 88.0036 5.13503 88.26 6.95358 88.476C8.77213 88.692 10.9311 88.8634 13.3071 88.9803C15.6832 89.0972 18.2298 89.1574 20.8016 89.1574C23.3735 89.1574 25.9201 89.0972 28.2961 88.9803C30.6722 88.8634 32.8311 88.692 34.6497 88.476C36.4682 88.26 37.9108 88.0036 38.895 87.7213C39.8792 87.4391 40.3857 87.1366 40.3857 86.8311C40.3857 86.5256 39.8792 86.2231 38.895 85.9409C37.9108 85.6587 36.4682 85.4022 34.6497 85.1862C32.8311 84.9702 30.6722 84.7989 28.2961 84.682C25.9201 84.565 23.3735 84.5049 20.8016 84.5049C18.2298 84.5049 15.6832 84.565 13.3071 84.682C10.9311 84.7989 8.77213 84.9702 6.95358 85.1862C5.13503 85.4022 3.69247 85.6587 2.70828 85.9409C1.72409 86.2231 1.21753 86.5256 1.21753 86.8311Z" fill="#B4DBEE"/>
<path d="M61.2213 59.2795C59.9174 59.2795 58.6669 59.7974 57.7448 60.7195C56.8228 61.6415 56.3048 62.892 56.3048 64.1959C56.3048 65.4998 56.8228 66.7504 57.7448 67.6724C58.6669 68.5944 59.9174 69.1124 61.2213 69.1124H95.6405C96.1623 69.1124 96.6626 69.3196 97.0315 69.6885C97.4004 70.0574 97.6077 70.5578 97.6077 71.0795C97.6077 71.6012 97.4004 72.1016 97.0315 72.4705C96.6626 72.8394 96.1623 73.0466 95.6405 73.0466H61.2213C58.874 73.0466 56.6227 72.1141 54.9629 70.4543C53.3031 68.7945 52.3706 66.5433 52.3706 64.1959C52.3706 61.8486 53.3031 59.5974 54.9629 57.9375C56.6227 56.2777 58.874 55.3452 61.2213 55.3452H95.6405C96.1623 55.3452 96.6626 55.5525 97.0315 55.9214C97.4004 56.2903 97.6077 56.7906 97.6077 57.3123C97.6077 57.834 97.4004 58.3344 97.0315 58.7033C96.6626 59.0722 96.1623 59.2795 95.6405 59.2795H61.2213Z" fill="#885F90"/>
<path d="M52.3721 64.1959C52.3712 63.0339 52.5993 61.8832 53.0434 60.8094C53.4874 59.7356 54.1387 58.7599 54.9601 57.9379C55.7814 57.116 56.7566 56.4639 57.8301 56.0191C58.9035 55.5742 60.0541 55.3452 61.2161 55.3452H95.6407C96.1624 55.3452 96.6627 55.5525 97.0316 55.9214C97.4006 56.2903 97.6078 56.7906 97.6078 57.3123C97.6078 57.834 97.4006 58.3344 97.0316 58.7033C96.6627 59.0722 96.1624 59.2795 95.6407 59.2795H61.2214C59.9175 59.2795 58.667 59.7974 57.745 60.7194C56.823 61.6415 56.305 62.892 56.305 64.1959H52.3721Z" fill="#C09AC8"/>
<path d="M61.2213 59.2795C59.9174 59.2795 58.6669 59.7974 57.7448 60.7195C56.8228 61.6415 56.3048 62.892 56.3048 64.1959C56.3048 65.4998 56.8228 66.7504 57.7448 67.6724C58.6669 68.5944 59.9174 69.1124 61.2213 69.1124H95.6405C96.1623 69.1124 96.6626 69.3196 97.0315 69.6885C97.4004 70.0574 97.6077 70.5578 97.6077 71.0795C97.6077 71.6012 97.4004 72.1016 97.0315 72.4705C96.6626 72.8394 96.1623 73.0466 95.6405 73.0466H61.2213C58.874 73.0466 56.6227 72.1141 54.9629 70.4543C53.3031 68.7945 52.3706 66.5433 52.3706 64.1959C52.3706 61.8486 53.3031 59.5974 54.9629 57.9375C56.6227 56.2777 58.874 55.3452 61.2213 55.3452H95.6405C96.1623 55.3452 96.6626 55.5525 97.0315 55.9214C97.4004 56.2903 97.6077 56.7906 97.6077 57.3123C97.6077 57.834 97.4004 58.3344 97.0315 58.7033C96.6626 59.0722 96.1623 59.2795 95.6405 59.2795H61.2213Z" stroke="#555658" stroke-width="1.34" stroke-linecap="round" stroke-linejoin="round"/>
<path d="M95.6406 69.1122V59.2793H61.2214C59.9175 59.2793 58.6669 59.7973 57.7449 60.7193C56.8229 61.6413 56.3049 62.8918 56.3049 64.1958C56.3049 65.4997 56.8229 66.7502 57.7449 67.6722C58.6669 68.5942 59.9175 69.1122 61.2214 69.1122H95.6406Z" fill="white" stroke="#555658" stroke-width="1.34" stroke-linecap="round" stroke-linejoin="round"/>
<path d="M58.272 43.5464C56.7071 43.5464 55.2062 44.1681 54.0996 45.2747C52.993 46.3813 52.3713 47.8821 52.3713 49.4471C52.3713 51.012 52.993 52.5129 54.0996 53.6195C55.2062 54.7261 56.7071 55.3478 58.272 55.3478H85.8063C86.3281 55.3478 86.8284 55.1405 87.1973 54.7716C87.5662 54.4027 87.7735 53.9024 87.7735 53.3806V51.4135H58.272C58.0095 51.4204 57.7482 51.3746 57.5036 51.2788C57.2591 51.1831 57.0361 51.0394 56.848 50.8561C56.6599 50.6728 56.5104 50.4537 56.4083 50.2117C56.3062 49.9697 56.2536 49.7097 56.2536 49.4471C56.2536 49.1844 56.3062 48.9244 56.4083 48.6824C56.5104 48.4405 56.6599 48.2214 56.848 48.0381C57.0361 47.8548 57.2591 47.7111 57.5036 47.6153C57.7482 47.5196 58.0095 47.4738 58.272 47.4806H87.7735V45.5135C87.7735 44.9918 87.5662 44.4914 87.1973 44.1225C86.8284 43.7536 86.3281 43.5464 85.8063 43.5464H58.272Z" fill="#E76B89"/>
<path d="M56.3049 49.4464C56.3049 49.1881 56.3557 48.9324 56.4546 48.6938C56.5535 48.4552 56.6984 48.2385 56.8811 48.0559C57.0638 47.8734 57.2806 47.7286 57.5193 47.6299C57.7579 47.5312 58.0137 47.4805 58.272 47.4806H87.7734V45.5135C87.7734 44.9918 87.5662 44.4914 87.1973 44.1225C86.8284 43.7536 86.328 43.5464 85.8063 43.5464H58.272C56.7083 43.5464 55.2086 44.1676 54.1029 45.2733C52.9972 46.379 52.376 47.8787 52.376 49.4424L56.3049 49.4464Z" fill="#EF9CB1"/>
<path d="M58.272 43.5464C56.7071 43.5464 55.2062 44.1681 54.0996 45.2747C52.993 46.3813 52.3713 47.8821 52.3713 49.4471C52.3713 51.012 52.993 52.5129 54.0996 53.6195C55.2062 54.7261 56.7071 55.3478 58.272 55.3478H85.8063C86.3281 55.3478 86.8284 55.1405 87.1973 54.7716C87.5662 54.4027 87.7735 53.9024 87.7735 53.3806V51.4135H58.272C58.0095 51.4204 57.7482 51.3746 57.5036 51.2788C57.2591 51.1831 57.0361 51.0393 56.848 50.8561C56.6599 50.6728 56.5104 50.4537 56.4083 50.2117C56.3062 49.9697 56.2536 49.7097 56.2536 49.4471C56.2536 49.1844 56.3062 48.9244 56.4083 48.6824C56.5104 48.4405 56.6599 48.2214 56.848 48.0381C57.0361 47.8548 57.2591 47.7111 57.5036 47.6153C57.7482 47.5196 58.0095 47.4738 58.272 47.4806H87.7735V45.5135C87.7735 44.9918 87.5662 44.4914 87.1973 44.1225C86.8284 43.7536 86.3281 43.5464 85.8063 43.5464H58.272Z" stroke="#555658" stroke-width="1.34" stroke-linecap="round" stroke-linejoin="round"/>
<path d="M85.8062 51.4136V47.4807H58.2719C58.0093 47.4738 57.748 47.5196 57.5035 47.6153C57.2589 47.7111 57.036 47.8548 56.8478 48.0381C56.6597 48.2214 56.5102 48.4405 56.4081 48.6825C56.306 48.9245 56.2534 49.1845 56.2534 49.4471C56.2534 49.7097 56.306 49.9697 56.4081 50.2117C56.5102 50.4537 56.6597 50.6728 56.8478 50.8561C57.036 51.0394 57.2589 51.1831 57.5035 51.2789C57.748 51.3746 58.0093 51.4204 58.2719 51.4136H85.8062Z" fill="white" stroke="#555658" stroke-width="1.34" stroke-linecap="round" stroke-linejoin="round"/>
<path d="M22.7593 81.9556L46.1931 27.8058L58.8279 33.2736L35.3941 87.4234L22.7593 81.9556Z" fill="#295DA1"/>
<path d="M28.0348 84.2409L24.5629 82.74C24.0843 82.5328 23.7075 82.1439 23.5155 81.6589C23.3236 81.1739 23.332 80.6326 23.5391 80.1538L45.4106 29.6117C45.6179 29.1331 46.0068 28.7563 46.4917 28.5644C46.9767 28.3724 47.5181 28.3809 47.9968 28.588L51.4688 30.0901L28.0348 84.2409Z" fill="#5F85B9"/>
<path d="M22.7593 81.9556L46.1931 27.8058L58.8279 33.2736L35.3941 87.4234L22.7593 81.9556Z" stroke="#555658" stroke-width="1.34" stroke-linecap="round" stroke-linejoin="round"/>
<path d="M39.1621 44.0522L42.2865 36.8321L54.9214 42.2997L51.797 49.5198L39.1621 44.0522Z" fill="#94AED0" stroke="#555658" stroke-width="1.34" stroke-linecap="round" stroke-linejoin="round"/>
<path d="M2.38623 81.4434L30.91 34.3376L41.0037 40.4497L12.48 87.5554L2.38623 81.4434Z" fill="#F2B053"/>
<path d="M6.40054 83.8749L4.06894 82.4626C3.84734 82.3294 3.65418 82.1538 3.50054 81.9459C3.34689 81.738 3.23576 81.5018 3.17353 81.2508C3.11129 80.9999 3.09917 80.7391 3.13785 80.4835C3.17653 80.2279 3.26525 79.9824 3.39894 79.7611L29.8921 36.0195C30.0258 35.7986 30.2017 35.6063 30.4098 35.4534C30.6179 35.3005 30.854 35.1901 31.1047 35.1285C31.3555 35.0669 31.6159 35.0553 31.8711 35.0944C32.1263 35.1335 32.3714 35.2224 32.5922 35.3562L34.9238 36.7686L6.40054 83.8749Z" fill="#F5C47E"/>
<path d="M2.38623 81.4434L30.91 34.3376L41.0037 40.4497L12.48 87.5554L2.38623 81.4434Z" stroke="#555658" stroke-width="1.34" stroke-linecap="round" stroke-linejoin="round"/>
<path d="M21.7422 49.4795L25.8171 42.7499L35.9109 48.862L31.836 55.5915L21.7422 49.4795Z" fill="#F9D8A9" stroke="#555658" stroke-width="1.34" stroke-linecap="round" stroke-linejoin="round"/>
<path d="M42.5376 73.0464H101.54V86.8135H42.5376V73.0464Z" fill="#48A380"/>
<path d="M101.54 77.9641V75.0161C101.54 74.7578 101.49 74.5021 101.391 74.2635C101.292 74.0249 101.147 73.8081 100.964 73.6256C100.782 73.443 100.565 73.2983 100.326 73.1995C100.087 73.1008 99.8316 73.0501 99.5733 73.0503H44.4993C44.2411 73.0501 43.9853 73.1008 43.7467 73.1995C43.508 73.2983 43.2911 73.443 43.1085 73.6256C42.9258 73.8081 42.7809 74.0249 42.682 74.2635C42.5831 74.5021 42.5322 74.7578 42.5322 75.0161V77.9641H101.54Z" fill="#76BAA0"/>
<path d="M42.5376 73.0464H101.54V86.8135H42.5376V73.0464Z" stroke="#555658" stroke-width="1.34" stroke-linecap="round" stroke-linejoin="round"/>
<path d="M81.8735 73.0464H89.7407V86.8135H81.8735V73.0464Z" fill="#A3D1C0" stroke="#555658" stroke-width="1.34" stroke-linecap="round" stroke-linejoin="round"/>
<path d="M71.0556 20.8318C80.8898 15.9154 83.8392 23.6056 83.8392 30.6661C83.8392 37.7266 77.9432 47.6546 71.0556 41.7546C64.172 47.6506 58.272 37.7266 58.272 30.6661C58.272 23.6056 61.2213 15.9114 71.0556 20.8318Z" fill="#FC4040"/>
<path d="M71.0556 24.8626C75.5937 24.7783 80.041 26.1392 83.7548 28.7486C83.2429 22.3166 80.0028 16.3495 71.0556 20.8238C62.1058 16.3495 58.8683 22.3179 58.3564 28.7486C62.0702 26.1392 66.5176 24.7783 71.0556 24.8626Z" fill="#FF5E5E"/>
<path d="M71.0556 20.8318C80.8898 15.9154 83.8392 23.6056 83.8392 30.6661C83.8392 37.7266 77.9432 47.6546 71.0556 41.7546C64.172 47.6506 58.272 37.7266 58.272 30.6661C58.272 23.6056 61.2213 15.9114 71.0556 20.8318Z" stroke="#555658" stroke-width="1.34" stroke-linecap="round" stroke-linejoin="round"/>
<path d="M77.9366 7.40804C77.9366 7.40804 79.7603 9.92724 76.8927 13.9218C74.0251 17.9163 71.0557 16.9957 71.0557 16.9957C71.0557 16.9957 69.2333 14.4765 72.0995 10.482C74.9658 6.48746 77.9366 7.40804 77.9366 7.40804Z" fill="#A3D1C0" stroke="#555658" stroke-width="1.34" stroke-linecap="round" stroke-linejoin="round"/>
</svg>
