<svg width="228" height="214" viewBox="0 0 228 214" fill="none" xmlns="http://www.w3.org/2000/svg">
<path d="M173.41 66.3968C173.812 66.758 174.323 66.9747 174.862 67.0124C175.111 67.0936 175.376 67.1192 175.637 67.0873C175.898 67.0553 176.148 66.9667 176.371 66.8276C176.443 66.7846 176.496 66.7149 176.517 66.6336C176.538 66.5523 176.526 66.4659 176.484 66.3932C176.326 66.1804 176.121 66.0061 175.886 65.8833C175.651 65.7605 175.391 65.6924 175.126 65.684C174.583 65.5293 174.004 65.5666 173.485 65.7896C173.435 65.8206 173.393 65.8623 173.362 65.9117C173.33 65.9611 173.31 66.017 173.303 66.0752C173.295 66.1334 173.301 66.1925 173.32 66.2481C173.338 66.3038 173.369 66.3546 173.41 66.3968Z" fill="#204A82"/>
<path d="M174.492 70.022C174.173 69.9332 174.107 69.902 174.401 70.022C174.041 69.83 174.544 70.2356 175.081 70.064C175.267 70.0109 175.431 69.8986 175.548 69.7441C175.664 69.5896 175.727 69.4013 175.727 69.2078C175.727 69.0143 175.664 68.826 175.548 68.6715C175.431 68.517 175.267 68.4047 175.081 68.3516C174.835 68.2824 174.571 68.3112 174.345 68.432C174.12 68.5527 173.949 68.7562 173.87 68.9996C173.957 68.8076 173.95 68.8268 173.851 69.0572C173.828 69.1535 173.818 69.2523 173.821 69.3512C173.822 69.5287 173.894 69.6986 174.019 69.8241C174.145 69.9497 174.314 70.0207 174.492 70.022Z" fill="#204A82"/>
<path d="M168.064 70.7348C168.313 70.7348 168.552 70.6357 168.729 70.4592C168.905 70.2828 169.004 70.0435 169.004 69.794C169.004 69.5445 168.905 69.3052 168.729 69.1288C168.552 68.9523 168.313 68.8532 168.064 68.8532C167.814 68.8532 167.575 68.9523 167.398 69.1288C167.222 69.3052 167.123 69.5445 167.123 69.794C167.123 70.0435 167.222 70.2828 167.398 70.4592C167.575 70.6357 167.814 70.7348 168.064 70.7348Z" fill="#204A82"/>
<path d="M170.972 71.12C170.544 71.7147 170.298 72.4208 170.263 73.1528C170.08 74.0243 170.002 74.9147 170.033 75.8048C170.113 76.6988 171.025 77.8724 171.919 77.012C171.966 76.9639 172.002 76.9057 172.023 76.8418C172.045 76.778 172.051 76.7101 172.042 76.6434C172.034 76.5766 172.01 76.5127 171.973 76.4564C171.936 76.4001 171.887 76.3529 171.829 76.3184C170.485 75.554 171.98 72.824 171.53 71.2628C171.513 71.2077 171.482 71.1579 171.44 71.1181C171.398 71.0784 171.347 71.05 171.291 71.0357C171.235 71.0214 171.177 71.0216 171.121 71.0364C171.065 71.0511 171.014 71.0799 170.972 71.12Z" fill="#204A82"/>
<path d="M171.09 80.69C171.969 81.0908 172.942 81.2365 173.9 81.1104C174.858 80.9844 175.76 80.5917 176.506 79.9772C177.92 78.8828 179.192 76.6988 178.531 74.8844C178.507 74.8042 178.457 74.7341 178.389 74.6843C178.322 74.6344 178.24 74.6075 178.156 74.6075C178.072 74.6075 177.991 74.6344 177.923 74.6843C177.856 74.7341 177.806 74.8042 177.781 74.8844C177.283 76.4444 177.144 77.8952 175.748 78.9968C174.438 79.8872 172.839 80.2482 171.274 80.0072C171.194 80.0098 171.118 80.0378 171.056 80.087C170.994 80.1363 170.95 80.2041 170.929 80.2806C170.908 80.3571 170.913 80.4381 170.942 80.5119C170.971 80.5856 171.023 80.648 171.09 80.69Z" fill="#204A82"/>
<path d="M188.076 91.694C187.994 91.6949 187.914 91.7253 187.852 91.7797C187.79 91.8341 187.75 91.9088 187.739 91.9904C187.727 92.072 187.745 92.155 187.79 92.2244C187.834 92.2937 187.902 92.3448 187.981 92.3684C198.594 94.6424 204.94 105.129 201.421 113.349C200.86 111.486 198.746 110.301 197.032 109.683C194.479 108.776 191.702 108.714 189.112 109.508C191.022 105.988 190.523 101.287 186.457 99.2912C186.097 99.1136 185.67 99.5768 186.001 99.8912C187.868 101.66 189.361 103.932 188.761 106.636C188.439 107.769 187.891 108.826 187.151 109.742C186.411 110.659 185.493 111.417 184.453 111.97C181.134 113.917 177.241 114.448 173.646 115.64C173.502 115.685 173.379 115.78 173.298 115.907C173.217 116.035 173.184 116.186 173.204 116.336C173.225 116.485 173.297 116.623 173.409 116.724C173.521 116.825 173.664 116.884 173.815 116.889C176.341 116.686 178.821 116.099 181.171 115.15C183.924 114.385 186.402 112.85 188.314 110.726C194.434 109.81 196.882 109.94 200.881 114.432C199.34 117.044 196.921 119.024 194.057 120.02C189.11 121.846 184.381 120.727 179.407 119.91C179.466 119.686 179.024 119.631 178.914 119.766C178.166 120.675 178.042 122.623 174.989 125.92C172.914 128.076 170.202 129.51 167.252 130.009C167.169 130.035 167.098 130.089 167.051 130.163C167.004 130.236 166.985 130.324 166.997 130.41C167.008 130.496 167.05 130.576 167.115 130.634C167.179 130.692 167.263 130.726 167.35 130.729C170.417 130.586 173.308 129.256 175.411 127.02C177.057 125.288 178.388 123.283 179.345 121.094C188.268 125.264 202.116 122.247 203.884 111.254C205.432 101.634 197.567 92.4704 188.076 91.694Z" fill="#204A82"/>
<path d="M162.013 126.31C165.058 126.717 168.781 125.677 170.636 123.07C170.876 122.727 170.396 122.24 170.048 122.482C167.472 124.282 165.269 125.613 162.008 125.722C161.938 125.734 161.875 125.77 161.829 125.824C161.783 125.879 161.759 125.948 161.759 126.018C161.76 126.089 161.786 126.158 161.832 126.211C161.879 126.265 161.943 126.3 162.013 126.31Z" fill="#204A82"/>
<path d="M163.224 128.989C166.268 129.397 169.992 128.355 171.847 125.749C172.093 125.406 171.607 124.918 171.259 125.16C168.683 126.967 166.48 128.29 163.219 128.4C163.148 128.41 163.084 128.446 163.037 128.501C162.991 128.555 162.965 128.625 162.966 128.696C162.967 128.768 162.993 128.837 163.04 128.891C163.088 128.944 163.153 128.979 163.224 128.989Z" fill="#204A82"/>
<path d="M160.56 122.96C164.353 123.7 169.043 122.337 170.801 118.618C170.833 118.561 170.843 118.494 170.83 118.43C170.816 118.366 170.78 118.308 170.729 118.268C170.677 118.228 170.612 118.208 170.547 118.211C170.481 118.214 170.419 118.241 170.371 118.286C167.564 120.885 164.611 122.74 160.628 122.473C160.57 122.475 160.513 122.497 160.469 122.536C160.426 122.576 160.397 122.629 160.389 122.688C160.381 122.746 160.393 122.805 160.425 122.855C160.456 122.905 160.504 122.942 160.56 122.96Z" fill="#204A82"/>
<path d="M167.8 112.671C171.335 114.618 171.11 115.966 172.206 117.582C172.255 117.66 172.328 117.721 172.415 117.755C172.501 117.789 172.596 117.795 172.686 117.771C172.775 117.746 172.855 117.694 172.913 117.622C172.97 117.549 173.003 117.46 173.006 117.367C172.952 114.753 170.177 113.089 168.128 112.116C167.76 111.939 167.43 112.467 167.8 112.671Z" fill="#204A82"/>
<path d="M123.499 109.822C122.683 105.622 123.118 104.859 125.092 101.34C125.139 101.254 125.157 101.156 125.143 101.059C125.13 100.963 125.085 100.873 125.016 100.804C124.947 100.735 124.858 100.69 124.761 100.676C124.665 100.663 124.566 100.681 124.481 100.728C121.301 102.294 120.312 107.487 122.364 110.298C122.442 110.424 122.562 110.519 122.704 110.564C122.845 110.61 122.998 110.603 123.135 110.546C123.272 110.488 123.384 110.384 123.451 110.251C123.518 110.119 123.535 109.967 123.499 109.822Z" fill="#204A82"/>
<path d="M120.738 108.846C119.705 105.592 120.961 102.708 122.584 99.9476C122.631 99.8611 122.649 99.7615 122.635 99.6638C122.621 99.566 122.576 99.4755 122.506 99.4057C122.437 99.3359 122.346 99.2906 122.248 99.2767C122.151 99.2627 122.051 99.2809 121.964 99.3284C118.66 101.456 118.475 105.928 119.95 109.168C120.157 109.62 120.884 109.306 120.738 108.846Z" fill="#204A82"/>
<path d="M117.706 107.098C117.89 105.764 117.397 104.448 117.611 103.074C117.964 101.613 118.55 100.22 119.347 98.9468C119.397 98.8546 119.416 98.7487 119.4 98.645C119.385 98.5413 119.337 98.4453 119.263 98.3712C119.189 98.2971 119.093 98.2489 118.989 98.2337C118.885 98.2185 118.779 98.2371 118.687 98.2868C116.254 99.7616 114.661 105.292 117.313 107.258C117.349 107.279 117.388 107.291 117.429 107.294C117.47 107.297 117.511 107.29 117.549 107.275C117.587 107.259 117.62 107.235 117.648 107.205C117.675 107.174 117.695 107.138 117.706 107.098Z" fill="#204A82"/>
<path d="M167.242 101.169C165.953 104.045 165.662 107.268 166.416 110.328C166.525 110.694 167.162 110.762 167.227 110.328C167.435 108.918 167.426 107.496 167.498 106.074C167.578 104.492 167.842 102.931 167.928 101.354C167.944 101 167.392 100.833 167.242 101.169Z" fill="#204A82"/>
<path d="M211.61 197.638C213.212 198.915 214.304 200.251 212.975 201.326C211.849 202.237 208.604 199.166 206.762 197.246C196.903 196.942 182.818 196.561 171.229 196.806C171.726 198.855 172.252 202.312 170.462 203.246C167.87 204.596 160.096 204.596 158.782 202.886C157.654 201.412 159.944 198.889 163.181 197.119C160.908 197.256 158.855 197.434 157.098 197.664C120.721 202.413 165.888 214.846 190.95 210.334C199.856 208.731 200.742 212.398 208.012 213.312C215.125 214.206 221.705 213.597 225.518 210.78C232.474 205.633 223.843 199.286 211.61 197.638Z" fill="#FF9393"/>
<path d="M23.6508 56.2088C24.378 38.4152 27.7956 18.1772 43.6236 7.3688C47.0677 4.96588 50.9738 3.30538 55.0939 2.49276C59.214 1.68014 63.4581 1.73316 67.5566 2.64844C71.6551 3.56372 75.5185 5.32127 78.9015 7.80948C82.2844 10.2977 85.113 13.4622 87.2076 17.102C91.3872 24.3824 92.4 32.96 92.5116 41.2148C92.5116 41.4249 92.5951 41.6263 92.7436 41.7748C92.8921 41.9234 93.0936 42.0068 93.3036 42.0068C93.5137 42.0068 93.7151 41.9234 93.8636 41.7748C94.0122 41.6263 94.0956 41.4249 94.0956 41.2148C94.1412 33.1568 93.0888 24.8168 89.3052 17.5964C87.3844 13.8664 84.7461 10.5523 81.5417 7.84409C78.3373 5.13593 74.6297 3.08701 70.6317 1.81484C66.6337 0.542666 62.4239 0.072276 58.2437 0.430646C54.0635 0.789016 49.9951 1.9691 46.272 3.9032C38.4536 8.12002 32.1601 14.6898 28.2828 22.682C24.282 30.8588 20.8932 45.6764 21.6552 56.2124C21.6646 56.471 21.7741 56.7159 21.9606 56.8954C22.147 57.0749 22.3959 57.1749 22.6547 57.1744C22.9135 57.174 23.1621 57.073 23.3479 56.8929C23.5337 56.7127 23.6423 56.4675 23.6508 56.2088Z" fill="#204A82"/>
<path d="M36.2988 52.4816C37.8684 40.2272 38.4588 26.228 48.3732 17.4944C59.5692 7.63879 72.2772 10.0604 79.0788 19.0076C84.6384 26.318 83.9904 30.4484 84.6696 39.7928C84.7104 40.3544 85.68 40.3352 85.77 39.7928C86.868 33.1832 84.054 23.4848 82.1568 20.5196C79.0896 15.7328 73.9452 11.324 68.4072 9.92839C57.0588 7.06639 44.43 13.2356 38.5356 28.6988C35.771 36.3089 34.5818 44.4015 35.04 52.4852C35.0557 52.6415 35.129 52.7863 35.2457 52.8915C35.3623 52.9967 35.5139 53.0547 35.671 53.0543C35.8281 53.0538 35.9794 52.995 36.0954 52.8891C36.2115 52.7832 36.284 52.638 36.2988 52.4816Z" fill="#204A82"/>
<path d="M39.618 47.8196C43.284 47.24 53.0964 44.4884 62.3748 42.236C72.2628 39.836 81.5568 37.9436 82.4016 37.5284C82.854 37.3064 82.5948 36.6764 82.1616 36.6464C80.34 36.5264 46.6584 44.5664 39.3816 46.9664C39.2685 46.9978 39.1724 47.0728 39.1146 47.1749C39.0567 47.2771 39.0419 47.3981 39.0732 47.5112C39.1046 47.6243 39.1796 47.7204 39.2817 47.7782C39.3839 47.8361 39.5049 47.851 39.618 47.8196Z" fill="#204A82"/>
<path d="M84.72 155.36C90.1932 154.52 104.21 158.84 102.51 162.727C101.378 165.319 55.7652 182.859 47.8392 186.273C43.4148 188.178 38.628 189.706 33.8484 189.121C30.7512 188.744 7.36803 184.734 10.1484 179.744C10.9884 178.231 12.7392 177.514 14.3616 176.902C25.1316 172.852 28.7112 172.429 39.5856 168.597C49.2444 165.187 78.7092 156.28 84.72 155.36Z" fill="#FF9393"/>
<path d="M92.6892 87.0392L88.6092 83.8064C88.3251 83.3551 88.1697 82.8348 88.1597 82.3017C88.1498 81.7685 88.2857 81.2427 88.5528 80.7812C88.8708 80.2787 89.3613 79.9094 89.9321 79.7426C90.5029 79.5758 91.115 79.6229 91.6536 79.8752L116.425 97.046C116.468 97.0752 116.503 97.114 116.527 97.1594C116.552 97.2048 116.565 97.2553 116.567 97.3069C116.568 97.3585 116.557 97.4096 116.534 97.4561C116.512 97.5025 116.478 97.5429 116.437 97.574C115.731 98.0023 115.153 98.6138 114.767 99.3438C114.38 100.074 114.198 100.895 114.24 101.72C114.236 101.777 114.218 101.833 114.186 101.881C114.154 101.929 114.11 101.967 114.058 101.992C114.006 102.018 113.949 102.029 113.892 102.025C113.834 102.021 113.779 102.002 113.731 101.97L104.482 95.7032C104.445 95.679 104.405 95.6623 104.362 95.6539C104.319 95.6456 104.275 95.6459 104.232 95.6547C104.189 95.6635 104.149 95.6807 104.113 95.7053C104.077 95.7299 104.046 95.7614 104.022 95.798L100.662 101.06C100.638 101.097 100.608 101.128 100.572 101.153C100.536 101.177 100.496 101.194 100.453 101.203C100.411 101.212 100.367 101.212 100.324 101.204C100.282 101.196 100.241 101.179 100.205 101.155L97.1268 99.0908C97.0549 99.0427 97.0051 98.9681 96.9882 98.8832C96.9713 98.7984 96.9888 98.7104 97.0368 98.6384L100.118 94.0064C100.143 93.9701 100.159 93.9293 100.167 93.8865C100.175 93.8437 100.175 93.7997 100.166 93.757C100.156 93.7144 100.139 93.6741 100.114 93.6384C100.089 93.6027 100.057 93.5724 100.02 93.5492L96.4032 91.298C96.3321 91.2537 96.2466 91.2383 96.1645 91.255C96.0823 91.2717 96.0097 91.3193 95.9616 91.388L92.8008 95.9792C92.7532 96.0485 92.6809 96.0968 92.5987 96.1142C92.5165 96.1316 92.4308 96.1168 92.3592 96.0728L88.7676 93.8588C88.73 93.8353 88.6976 93.8045 88.6722 93.7681C88.6468 93.7318 88.6291 93.6907 88.62 93.6473C88.6109 93.6039 88.6107 93.5592 88.6194 93.5157C88.628 93.4723 88.6454 93.431 88.6704 93.3944L92.7504 87.4844C92.7995 87.4166 92.8205 87.3325 92.8091 87.2495C92.7977 87.1666 92.7547 87.0913 92.6892 87.0392Z" fill="#FF9393"/>
<path d="M148.483 139.623C143.066 137.364 142.771 128.128 145.888 120.663C149.004 113.198 154.919 109.992 159.502 111.765C162.33 112.86 163.115 114.688 163.822 118.027C164.052 119.119 167.569 117.895 167.357 116.254C166.688 111.214 164.749 108.182 160.687 106.491C155.287 104.239 148.747 106.903 144.127 112.611C143.262 111.412 141.962 110.598 140.505 110.342C139.049 110.086 137.55 110.409 136.327 111.242L127.272 105.224C127.081 105.096 126.849 105.043 126.622 105.077C126.395 105.11 126.188 105.227 126.042 105.405C125.037 106.868 124.649 108.668 124.962 110.415C124.98 110.548 125.027 110.675 125.1 110.788C125.172 110.9 125.268 110.996 125.381 111.068L133.864 116.499C134.002 117.888 134.646 119.177 135.674 120.121C136.702 121.066 138.041 121.598 139.436 121.618C136.811 130.546 138.493 141.178 144.913 143.938C152.488 147.201 161.329 142.992 164.815 133.258C165.568 131.162 162.535 129.115 161.602 131.109C158.872 136.888 152.806 141.426 148.483 139.623Z" fill="#FF9393"/>
<path d="M84.0276 110.204C79.7784 103.632 77.28 96.2 74.6892 88.8632C76.553 87.5188 77.8912 85.568 78.4745 83.3452C79.0577 81.1224 78.8497 78.7659 77.886 76.6796C76.8847 74.4895 75.1463 72.7204 72.9741 71.6809C70.8019 70.6414 68.3337 70.3974 66 70.9916C57.456 73.1516 53.3352 87.0356 63.8508 90.9848C61.2228 99.6344 60.1968 108.69 57.4596 117.314C57.423 117.454 57.4236 117.601 57.4615 117.74C57.4994 117.88 57.5732 118.007 57.6755 118.109C57.7778 118.212 57.9051 118.285 58.0447 118.323C58.1843 118.361 58.3313 118.361 58.4712 118.324C66.804 116.005 75.0312 113.134 83.5224 111.445C83.6465 111.409 83.761 111.346 83.8571 111.26C83.9532 111.174 84.0285 111.067 84.0771 110.947C84.1258 110.828 84.1467 110.699 84.1381 110.57C84.1295 110.441 84.0917 110.316 84.0276 110.204ZM59.4744 116.324C61.92 107.865 63.12 99.0872 65.7216 90.668C65.7774 90.4519 65.7472 90.2225 65.6373 90.0282C65.5274 89.8339 65.3464 89.6899 65.1324 89.6264C61.3308 88.5404 58.7352 85.4048 59.2668 81.3392C59.5696 79.0638 60.5487 76.9317 62.0772 75.2192C63.21 74.678 68.9652 72.2528 71.8812 77.3168C74.0412 81.062 71.2812 86.7848 70.1196 87.746C69.8495 87.8957 69.6437 88.1392 69.5409 88.4304C69.4381 88.7215 69.4454 89.0403 69.5616 89.3264L75.1356 107.086C74.9304 107.126 64.5864 109.938 62.424 111.039C62.3452 111.088 62.2843 111.162 62.2503 111.248C62.2163 111.335 62.211 111.43 62.2353 111.519C62.2595 111.609 62.3119 111.689 62.3848 111.746C62.4576 111.804 62.5471 111.837 62.64 111.84C65.04 111.792 75.3672 108.59 76.2984 108.194L81.9264 110.053C74.3316 111.669 66.9204 114.14 59.4744 116.323V116.324Z" fill="#204A82"/>
<path d="M111.72 105.481C111.69 105.103 111.109 105.097 111.12 105.481C111.222 111.046 111.6 119.726 109.283 124.334C108.098 126.696 105.967 127.694 103.693 128.774C101.222 129.955 98.7024 131.076 96.1332 132.033C70.6548 141.552 52.0368 148.628 33.1332 151.087C29.0532 151.617 27.1992 152.019 22.8504 150.715C15.8904 147.621 17.274 114.642 17.1384 105.292C16.7604 79.634 14.9424 67.19 20.5068 64.772C30.2388 60.5432 94.1352 46.1936 100.907 45.0776C107.158 44.048 108.1 48.6308 108.347 49.5704C109.079 52.3052 110.546 83.1044 110.596 87.314C110.596 87.531 110.682 87.7392 110.835 87.8927C110.989 88.0462 111.197 88.1324 111.414 88.1324C111.631 88.1324 111.839 88.0462 111.993 87.8927C112.146 87.7392 112.232 87.531 112.232 87.314C112.33 79.514 111.172 55.73 110.444 51.7088C110.215 49.5734 109.468 47.5264 108.266 45.746C107.448 43.5121 106.103 41.5086 104.345 39.9056C102.201 37.9576 99.5482 36.6587 96.6948 36.1604C95.8416 35.9828 95.484 37.3028 96.3348 37.4648C102.312 38.5808 104.222 41.3708 105.87 43.97C103.057 42.8108 100.195 43.598 97.3872 44.1116C93.7176 44.7836 37.5384 57.8312 28.2672 60.446C21.2112 62.4356 18.228 63.0704 16.2672 66.5288C13.9056 62.0564 7.41721 60.6236 3.80041 62.798C6.85921 57.7976 13.1496 55.7828 18.3864 53.9456C18.4401 53.9197 18.4829 53.8758 18.5074 53.8215C18.5318 53.7672 18.5364 53.706 18.5202 53.6487C18.504 53.5913 18.4681 53.5416 18.4188 53.5081C18.3696 53.4746 18.3101 53.4596 18.2508 53.4656C13.4007 54.146 8.85475 56.2276 5.17081 59.4548C1.20001 63.08 0.141607 68.6156 0.134407 73.76C0.127207 78.7268 -0.993593 122.161 3.36361 136.294C4.16885 139.57 5.86313 142.56 8.25961 144.934C12.4476 148.808 18.0072 151.227 23.4684 152.744C27.5484 154.346 32.6904 153.472 36.9696 152.572C54.5328 148.887 71.4096 142.972 88.218 136.767C94.4351 134.674 100.491 132.13 106.338 129.156C113.678 125.146 112.357 114.4 111.72 105.481Z" fill="#204A82"/>
<path d="M215.022 201.609C213.73 197.148 206.599 193.512 202.757 193.754C204.706 185.85 203.797 161.275 195.854 137.398C197.395 136.908 198.9 136.312 200.358 135.613C200.493 135.532 200.599 135.409 200.659 135.262C200.718 135.116 200.729 134.954 200.689 134.802C199.751 130.796 198.732 126.831 198.158 122.754C198.102 122.328 197.365 122.421 197.405 122.856C197.843 126.747 198.584 130.599 199.621 134.376C192.209 137.332 184.206 138.506 176.257 137.803C173.108 137.376 169.983 136.78 166.897 136.018C166.188 135.879 165.653 136.887 166.376 137.257C166.524 137.331 166.673 137.403 166.823 137.475C166.038 143.024 165.869 160.548 165.894 166.178C165.922 173.572 166.504 191.258 167.471 195.646C164.985 195.415 162.498 196.068 160.446 197.491C158.712 198.781 156.048 201.504 156.743 203.764C156.983 204.567 159.874 205.428 164.122 205.54C168.002 205.642 172.937 204.397 175.114 202.556L175.132 202.545L175.147 202.526C176.506 201.436 175.838 197.386 175.033 196.515C176.522 184.836 177.358 173.274 178.384 160.776C178.687 157.042 179.104 153.62 181.674 150.838C187.996 154.94 189.403 160.358 191.243 167.518C192.328 171.882 193.195 176.297 193.838 180.747C195.194 189.607 195.166 192.856 196.152 195.416C196.058 196.07 196.07 196.735 196.188 197.385C196.205 197.922 196.331 198.449 196.558 198.935C196.785 199.422 197.108 199.857 197.508 200.215C197.557 200.245 202.969 202.975 205.648 203.433C208.994 204.001 215.963 204.859 215.022 201.609ZM166.8 197.922C166.054 198.852 165.17 198.427 163.168 199.664C162.517 200.07 161.923 200.561 161.402 201.124C160.942 201.626 160.664 202.248 160.044 202.554C159.146 202.999 158.815 200.754 162.187 198.363C163.349 197.536 165.503 196.311 166.8 197.39C166.869 197.461 166.908 197.557 166.908 197.656C166.908 197.755 166.869 197.85 166.8 197.922ZM192.12 164.652C190.969 160.657 189.744 156.586 186.9 153.436C184.345 150.493 180.771 148.624 176.896 148.204C176.635 148.174 176.591 148.581 176.832 148.646C178.182 149.014 179.48 149.552 180.695 150.247C177.161 152.702 177.31 159.141 176.368 170.053C175.624 178.586 174.808 187.761 174.406 196.356C170.195 196.696 170.057 196.263 168.791 195.898C168.876 193.659 166.759 183.193 167.398 151.55C167.49 147.001 167.872 142.382 167.618 137.829C175.122 140.949 187.688 139.869 195.218 137.598C204.121 173.217 201.179 185.642 201.73 193.408C201.237 194.019 200.584 194.48 199.843 194.738C199.317 194.84 198.775 194.834 198.252 194.719C197.728 194.604 197.234 194.383 196.799 194.07C196.822 191.82 196.626 189.574 196.214 187.363C195.536 179.685 194.165 172.083 192.12 164.652ZM212.347 200.532C211.25 200.019 211.736 199.74 207.73 196.812C207.379 196.555 207.571 195.918 208.039 196.069C209.797 196.632 212.612 198.349 213.158 199.909C213.33 200.4 212.742 200.713 212.346 200.528L212.347 200.532Z" fill="#204A82"/>
<path d="M184.933 81.9956C184.453 79.4756 184.537 76.9136 184.196 74.4008C184.744 74.1658 185.218 73.7854 185.565 73.3008C185.913 72.8161 186.121 72.2457 186.167 71.6512C186.214 71.0567 186.097 70.4609 185.829 69.9281C185.561 69.3954 185.153 68.9461 184.648 68.6288C187.087 65.7488 190.554 62.3108 190.561 58.3856C190.561 55.4696 188.233 52.976 185.443 53.4656C184.741 49.658 180.301 47.1332 175.159 49.9424C174.816 48.2568 173.93 46.7299 172.638 45.5951C171.345 44.4602 169.716 43.7799 168 43.658C164.507 43.5224 160.358 46.538 160.343 50.258C155.168 52.6856 156.655 64.2188 165.676 63.272C164.476 69.272 163.714 76.1816 167.171 81.578C169.144 84.6608 171.971 86.3048 175.591 85.298C175.652 86.5429 175.596 87.7907 175.424 89.0252C175.231 89.9264 174.76 90.758 174.529 91.634C169.206 93.8948 164.929 97.1048 154.097 100.524C150.497 101.659 139.645 105.627 130.448 104.805C129.848 104.751 129.641 105.8 130.297 105.918C137.206 107.132 148.988 103.708 155.602 101.34C155.624 101.982 155.794 102.611 156.098 103.178C156.403 103.745 156.833 104.234 157.356 104.608C157.413 104.64 157.478 104.655 157.543 104.65C157.608 104.645 157.67 104.621 157.722 104.582C157.774 104.542 157.812 104.488 157.834 104.426C157.855 104.365 157.858 104.298 157.842 104.235C157.363 103.171 156.996 102.06 156.748 100.92C162.89 98.6158 168.844 95.8399 174.558 92.6168C174.364 94.73 175.336 97.2668 177.77 97.4C179.239 97.3242 180.666 96.8911 181.929 96.1382C183.192 95.3854 184.252 94.3356 185.017 93.08C185.052 93.0166 185.065 92.9437 185.055 92.8723C185.045 92.8008 185.011 92.7346 184.96 92.6836C184.909 92.6326 184.843 92.5995 184.771 92.5894C184.7 92.5793 184.627 92.5927 184.564 92.6276C182.035 94.0568 178.136 97.8044 176.134 95.0384C175.688 94.2273 175.379 93.3483 175.218 92.4368C176.84 90.8888 177.152 87.1208 176.395 85.0388C178.121 84.3733 179.662 83.3034 180.889 81.9188C180.977 81.8249 181.028 81.7031 181.034 81.575C181.04 81.4469 181 81.3208 180.922 81.2191C180.844 81.1173 180.732 81.0466 180.607 81.0194C180.482 80.9922 180.351 81.0102 180.238 81.0704C177.79 82.1936 175.537 84.3668 172.618 83.8304C169.946 83.3372 168.204 80.8052 167.218 78.4712C166.015 75.2642 165.587 71.8188 165.968 68.4152C166.54 68.2754 167.077 68.024 167.551 67.6756C168.025 67.3271 168.425 66.8885 168.728 66.3848C168.745 66.3233 168.747 66.2588 168.735 66.1964C168.723 66.1339 168.696 66.0751 168.657 66.0244C168.619 65.9738 168.569 65.9326 168.512 65.9042C168.455 65.8758 168.393 65.8608 168.329 65.8604C167.458 66.0236 166.667 66.4725 166.08 67.136C166.2 65.804 166.349 64.4756 166.483 63.1604C168.566 62.7115 170.565 61.9402 172.41 60.8744C173.398 61.7824 174.588 62.4427 175.882 62.8009C177.175 63.1591 178.535 63.205 179.85 62.9348C179.533 63.964 179.468 65.0544 179.661 66.114C179.854 67.1735 180.299 68.1711 180.959 69.0224C180.769 69.2104 180.616 69.4332 180.51 69.6788C180.45 69.8192 180.586 70.0232 180.75 69.9128C181.384 69.3822 182.2 69.1196 183.024 69.1808C183.431 69.2495 183.81 69.4334 184.116 69.7108C184.422 69.9882 184.642 70.3474 184.75 70.7459C184.858 71.1444 184.849 71.5655 184.725 71.9593C184.601 72.3532 184.367 72.7032 184.05 72.968C183.314 73.5008 182.572 73.3196 181.753 73.4252C181.672 73.4277 181.594 73.4536 181.527 73.4996C181.46 73.5457 181.408 73.61 181.377 73.6849C181.346 73.7598 181.337 73.842 181.352 73.9217C181.367 74.0014 181.404 74.0753 181.459 74.1344C181.71 74.3831 182.022 74.5613 182.364 74.6508C182.706 74.7404 183.065 74.7382 183.406 74.6444C183.185 77.1792 183.285 79.7318 183.703 82.2416C183.95 85.1536 184.722 87.9967 185.983 90.6332C186.364 91.3124 187.292 90.8252 187.171 90.1316C186.676 87.386 185.47 84.7604 184.933 81.9956ZM161.858 59.84C161.109 59.6477 160.439 59.2256 159.942 58.6328C159.444 58.0401 159.145 57.3066 159.086 56.5352C158.898 55.064 159.446 52.9028 161.149 52.6796C161.466 52.6388 161.647 53.0048 161.594 53.2616C161.354 54.4112 160.441 55.1468 160.531 56.4224C160.739 57.5292 161.335 58.5257 162.211 59.2328C162.265 59.2905 162.298 59.3638 162.307 59.4419C162.316 59.52 162.299 59.5989 162.259 59.6669C162.22 59.7349 162.16 59.7884 162.087 59.8195C162.015 59.8507 161.935 59.8579 161.858 59.84ZM169.856 47.1728C168.269 47.1848 166.799 45.7196 164.456 48.8708C164.298 49.082 163.913 49.0364 163.921 48.7304C164.014 45.2396 169.176 44.3384 170.243 46.5092C170.279 46.5766 170.298 46.6524 170.297 46.7292C170.295 46.8059 170.274 46.881 170.235 46.9472C170.197 47.0133 170.141 47.0683 170.075 47.1068C170.008 47.1453 169.933 47.166 169.856 47.1668V47.1728Z" fill="#204A82"/>
</svg>
