<svg width="256" height="267" viewBox="0 0 256 267" fill="none" xmlns="http://www.w3.org/2000/svg">
<path d="M13.9772 161.991C12.8572 159.853 14.0682 158.363 13.6972 156.685C13.4997 155.988 13.1287 155.353 12.619 154.839C12.1092 154.325 11.4773 153.948 10.7824 153.745C10.651 153.713 10.5124 153.729 10.3915 153.789C10.2707 153.85 10.1754 153.952 10.1227 154.076C10.0699 154.201 10.0633 154.34 10.1039 154.469C10.1445 154.598 10.2297 154.709 10.3442 154.781C11.0145 155.083 11.619 155.514 12.1236 156.049C12.3734 156.425 12.5401 156.849 12.6125 157.294C12.685 157.739 12.6615 158.194 12.5436 158.629C12.3729 159.293 12.355 159.987 12.4912 160.659C12.6275 161.331 12.9145 161.963 13.3304 162.507C13.4045 162.573 13.4993 162.611 13.5983 162.613C13.6973 162.616 13.794 162.583 13.8714 162.522C13.9488 162.46 14.0018 162.373 14.0212 162.275C14.0405 162.178 14.025 162.078 13.9772 161.991Z" fill="#113362"/>
<path d="M9.76463 157.078C10.0264 157.284 10.5248 157.018 10.2896 156.671C8.29463 153.721 3.96303 152.331 2.95643 152.996C2.91681 153.02 2.8832 153.053 2.85809 153.093C2.83298 153.132 2.81702 153.176 2.81137 153.222C2.80573 153.269 2.81055 153.316 2.82548 153.36C2.84041 153.404 2.86506 153.444 2.89763 153.477C3.63683 154.372 5.29863 153.567 9.76463 157.078Z" fill="#113362"/>
<path d="M7.60719 157.983C7.66466 157.981 7.7208 157.965 7.77032 157.936C7.81984 157.906 7.8611 157.865 7.89023 157.816C7.91935 157.766 7.93539 157.71 7.93681 157.652C7.93824 157.595 7.92502 157.538 7.89839 157.487C7.36639 156.507 5.71299 155.982 4.73439 155.562C3.52581 154.952 2.20717 154.59 0.856387 154.498C0.787618 154.501 0.72169 154.526 0.668121 154.57C0.614552 154.613 0.576115 154.672 0.558355 154.739C0.540595 154.805 0.544433 154.876 0.569315 154.94C0.594197 155.004 0.638837 155.059 0.696788 155.096C1.82659 155.734 3.16079 155.983 4.33679 156.524C6.29539 157.42 6.78819 157.992 7.60719 157.983Z" fill="#113362"/>
<path d="M4.41401 157.778C3.66445 157.331 2.83932 157.024 1.97941 156.874C1.69941 156.843 1.68541 157.213 1.84781 157.341C2.60813 157.839 3.39673 158.291 4.20961 158.697C4.80046 159.178 5.49405 159.517 6.23681 159.688C6.41181 159.703 6.46921 159.513 6.41181 159.381C5.93881 158.643 5.23714 158.08 4.41401 157.778Z" fill="#113362"/>
<path d="M6.57132 161.904C4.91232 161.113 3.77132 159.563 1.96532 159.061C1.89663 159.043 1.82398 159.051 1.76038 159.082C1.69679 159.113 1.64641 159.166 1.61827 159.231C1.59013 159.296 1.58607 159.369 1.60682 159.437C1.62758 159.505 1.67178 159.563 1.73152 159.601C3.17072 160.381 4.25152 161.653 5.63892 162.502C6.31883 162.891 7.05739 163.166 7.82572 163.318C9.68632 163.76 9.42592 164.138 10.1287 164.425C10.2687 164.486 10.5081 164.455 10.5221 164.266C10.7993 162.443 7.63672 162.412 6.57132 161.904Z" fill="#113362"/>
<path d="M8.992 158.74C8.2808 160 9.19079 161.606 9.95379 161.525C10.6048 161.455 9.85579 160.545 9.70599 160.199C9.55407 159.789 9.50597 159.348 9.566 158.915C9.57395 158.844 9.55687 158.773 9.51773 158.713C9.4786 158.654 9.41986 158.61 9.3517 158.589C9.28355 158.568 9.21028 158.572 9.14458 158.6C9.07888 158.627 9.0249 158.677 8.992 158.74Z" fill="#113362"/>
<path d="M42.4351 199.794C43.7343 193.284 45.4157 190.208 46.1969 186.659C46.2865 186.25 45.6901 185.959 45.4969 186.366C44.6425 188.239 43.9165 190.168 43.3241 192.14C41.279 198.095 40.2764 204.359 40.3603 210.655C40.1419 221.085 41.2003 231.492 45.7111 240.847C46.4972 242.861 47.6598 244.706 49.1369 246.285C49.3679 246.491 49.8369 246.299 49.7053 245.949C48.5853 243.044 41.1485 234.844 41.4243 212.273C41.3771 208.091 41.7155 203.914 42.4351 199.794Z" fill="#113362"/>
<path d="M24.2993 215.32C28.6293 211.668 33.9687 209.422 39.6069 208.88C39.7034 208.88 39.796 208.841 39.8643 208.773C39.9326 208.705 39.9709 208.612 39.9709 208.516C39.9709 208.419 39.9326 208.326 39.8643 208.258C39.796 208.19 39.7034 208.152 39.6069 208.152C32.7623 207.732 26.7199 211.75 21.5581 216.097C20.9015 216.657 20.0433 217.156 19.7507 217.992C19.6737 218.209 19.9117 218.373 20.1007 218.342C20.9589 218.197 21.0695 217.751 24.2993 215.32Z" fill="#113362"/>
<path d="M60.5861 185.76C60.5464 185.72 60.4968 185.69 60.4423 185.675C60.3877 185.66 60.3302 185.659 60.2754 185.674C60.2206 185.688 60.1705 185.716 60.1301 185.756C60.0898 185.796 60.0607 185.845 60.0457 185.9C59.8749 186.45 59.8259 187.037 59.6677 187.591C59.5207 188.101 59.3303 188.596 59.2295 189.107C59.1216 190.308 59.3808 191.513 59.9729 192.563C60.9159 195.084 61.3088 197.778 61.1251 200.464C61.1272 200.522 61.1501 200.578 61.1895 200.621C61.2289 200.664 61.2823 200.691 61.3401 200.698C61.3979 200.705 61.4563 200.691 61.5049 200.659C61.5535 200.627 61.5891 200.579 61.6053 200.523C62.2609 197.223 61.8423 193.8 60.4111 190.755C59.8329 188.724 61.7313 187.198 60.5861 185.76Z" fill="#113362"/>
<path d="M34.4311 204.065C34.397 204.037 34.3574 204.017 34.3149 204.006C34.3149 203.866 35.2094 201.02 33.367 199.526C32.7506 199.087 32.0427 198.792 31.2965 198.665C25.8499 197.207 20.1811 196.767 14.5749 197.367C13.2197 197.57 11.5243 198.126 11.7749 199.847C12.0185 201.509 13.8847 202.594 15.1867 203.375C18.7569 205.488 22.6615 206.976 26.7325 207.776C27.4063 207.927 28.1045 207.932 28.7805 207.791C29.4564 207.65 30.0946 207.367 30.6525 206.96C30.9744 206.68 31.3076 205.994 31.7598 205.912C32.2554 205.819 32.8393 206.173 33.3503 206.173C34.8105 206.179 35.2809 204.723 34.4311 204.065ZM33.6737 204.59C33.9621 205.15 32.0553 204.696 31.7921 204.706C29.7887 204.785 30.6021 207.396 26.2382 206.456C23.1161 205.762 20.1021 204.649 17.2783 203.147C15.8393 202.526 14.5328 201.636 13.4297 200.523C11.9541 198.731 14.8003 198.541 15.9651 198.423C19.3972 198.138 22.8516 198.295 26.2438 198.889C28.0449 199.124 29.8314 199.46 31.5947 199.896C34.2295 200.624 33.3586 203.61 33.766 204.153C33.7309 204.175 33.7006 204.205 33.6769 204.239C33.6532 204.273 33.6365 204.311 33.6279 204.352C33.6193 204.393 33.6189 204.435 33.6268 204.476C33.6346 204.517 33.6506 204.555 33.6737 204.59Z" fill="#113362"/>
<path d="M50.5549 140.327C50.1055 140.165 49.1941 140.677 48.9659 141.538C48.9544 141.584 48.9596 141.633 48.9806 141.676C49.0016 141.719 49.037 141.752 49.0806 141.772C49.1242 141.791 49.1731 141.794 49.2188 141.78C49.2644 141.767 49.3038 141.738 49.3299 141.698C49.7835 141.02 50.3351 141.029 50.6137 140.823C50.6567 140.794 50.6909 140.754 50.7125 140.707C50.7341 140.66 50.7424 140.608 50.7363 140.557C50.7302 140.506 50.71 140.457 50.678 140.416C50.646 140.376 50.6034 140.345 50.5549 140.327Z" fill="#113362"/>
<path d="M55.4535 139.365C55.2102 139.178 54.917 139.067 54.6108 139.047C54.3046 139.026 53.9991 139.096 53.7329 139.249C53.4711 139.379 53.6601 139.785 53.9373 139.715C54.3126 139.653 54.6981 139.719 55.0307 139.904C55.3667 140.065 55.7853 139.617 55.4535 139.365Z" fill="#113362"/>
<path d="M54.6235 142.587C54.5591 143.444 55.3235 143.686 55.4831 143.346C55.5611 143.229 55.6097 143.095 55.6248 142.955C55.6399 142.815 55.6211 142.674 55.5699 142.543C55.3039 142.052 54.6585 142.105 54.6235 142.587Z" fill="#113362"/>
<path d="M51.3573 143.112C51.2615 143.212 51.2048 143.343 51.1976 143.481C51.1903 143.62 51.233 143.756 51.3177 143.865C51.4025 143.975 51.5238 144.05 51.6595 144.078C51.7952 144.106 51.9364 144.084 52.0573 144.016C52.128 143.977 52.1895 143.924 52.2376 143.859C52.2857 143.794 52.3192 143.72 52.3358 143.641C52.3524 143.562 52.3518 143.48 52.3339 143.401C52.316 143.323 52.2814 143.249 52.2323 143.185C52.1847 143.115 52.1223 143.058 52.0496 143.015C51.9769 142.973 51.8958 142.948 51.812 142.941C51.7283 142.934 51.644 142.946 51.5654 142.975C51.4867 143.005 51.4157 143.051 51.3573 143.112Z" fill="#113362"/>
<path d="M55.7741 145.867C54.9055 144.747 54.1899 143.517 53.6461 142.209C53.5845 142.069 53.3241 142.136 53.3395 142.296C53.6041 145.019 55.3079 145.593 54.9873 146.333C54.7969 146.771 54.2761 146.773 54.0073 147.151C53.9773 147.205 53.9697 147.269 53.9861 147.329C54.0026 147.389 54.0419 147.44 54.0955 147.471C54.8641 147.891 55.9547 146.613 55.7741 145.867Z" fill="#113362"/>
<path d="M55.1624 148.899C55.1256 148.861 55.077 148.836 55.0242 148.828C54.9715 148.82 54.9176 148.83 54.8712 148.856C54.545 149.083 54.433 149.731 54.2146 150.211C54.0158 150.42 53.7903 150.602 53.544 150.752C52.5892 150.752 51.885 149.032 51.584 148.127C51.507 147.894 51.0996 147.908 51.1318 148.185C51.1444 148.302 51.1612 148.433 51.1752 148.579C51.1351 148.596 51.1011 148.624 51.0776 148.661C51.0541 148.697 51.0422 148.74 51.0436 148.783C51.0436 149.891 51.3796 151.554 52.5752 152.003C52.8647 152.075 53.166 152.088 53.4605 152.039C53.755 151.991 54.0365 151.883 54.2877 151.722C54.5389 151.561 54.7545 151.35 54.9213 151.102C55.0881 150.855 55.2025 150.576 55.2576 150.283C55.2646 149.994 55.5838 149.343 55.1624 148.899Z" fill="#FC4040"/>
<path d="M51.7503 147.151C51.7425 147.15 51.7346 147.151 51.7271 147.153C51.7196 147.155 51.7127 147.159 51.7069 147.165C51.4423 146.902 51.1609 147.165 51.2981 147.383C51.6854 148 52.2684 148.469 52.9537 148.715C53.6391 148.961 54.3872 148.969 55.0781 148.74C55.3035 148.589 55.2769 148.18 54.8163 148.18C54.7872 148.103 54.7295 148.04 54.6553 148.005C53.7424 147.558 52.76 147.269 51.7503 147.151Z" fill="#FC4040"/>
<path d="M213.733 188.116C213.749 188.116 213.749 188.102 213.733 188.102C213.718 188.102 213.719 188.116 213.733 188.116Z" fill="#FC4040"/>
<path d="M239.334 153.375C239.332 153.318 239.317 153.261 239.287 153.211C239.258 153.162 239.217 153.12 239.167 153.091C239.117 153.062 239.061 153.046 239.003 153.045C238.946 153.043 238.889 153.057 238.838 153.084C238.117 153.435 237.774 154.411 237.467 155.125C236.556 157.246 237.187 158.61 237.395 160.344C237.404 161.298 237.497 162.249 237.675 163.186C237.694 163.24 237.73 163.286 237.777 163.319C237.824 163.351 237.88 163.369 237.937 163.369C237.994 163.369 238.05 163.351 238.097 163.319C238.144 163.286 238.18 163.24 238.2 163.186C239.279 160.647 237.166 158.176 238.461 155.373C238.765 154.709 239.334 154.12 239.334 153.375Z" fill="#113362"/>
<path d="M241.564 148.127C241.473 149.525 241.473 150.928 241.564 152.327C241.461 153.867 241.242 155.397 240.908 156.905C240.849 157.211 241.304 157.474 241.468 157.138C242.137 155.674 242.523 154.096 242.604 152.488C242.691 151.131 242.856 149.171 241.993 148.041C241.964 148.007 241.926 147.981 241.884 147.966C241.842 147.952 241.797 147.948 241.753 147.957C241.709 147.966 241.669 147.986 241.635 148.016C241.602 148.046 241.578 148.084 241.564 148.127Z" fill="#113362"/>
<path d="M243.839 157.092C244.529 156.65 244.722 155.624 244.932 154.877C245.799 151.913 245.859 148.772 245.106 145.777C244.994 145.426 244.423 145.471 244.451 145.864C244.847 148.733 244.705 151.65 244.031 154.466C243.674 155.247 243.505 156.101 243.535 156.959C243.543 156.991 243.557 157.02 243.578 157.044C243.598 157.069 243.624 157.089 243.654 157.102C243.683 157.115 243.715 157.12 243.748 157.119C243.78 157.117 243.811 157.108 243.839 157.092Z" fill="#113362"/>
<path d="M245.544 158.069C246.054 158.069 246.288 157.719 246.477 157.297C246.815 156.487 247.092 155.654 247.308 154.805C247.815 153.128 247.984 151.367 247.804 149.625C247.748 149.157 247.047 149.129 247.061 149.625C247.054 151.914 246.624 154.183 245.792 156.317C245.6 156.871 244.961 158.069 245.544 158.069Z" fill="#113362"/>
<path d="M249.029 153.448C247.161 161.246 242.326 162.905 243.051 164.805C243.066 164.855 243.093 164.902 243.129 164.941C243.164 164.98 243.208 165.01 243.257 165.03C243.307 165.049 243.359 165.058 243.412 165.054C243.465 165.05 243.516 165.035 243.562 165.009C244.018 164.785 244.13 164.339 244.392 163.916C245.484 162.153 249.089 159.306 249.611 153.521C249.641 153.2 249.1 153.129 249.029 153.448Z" fill="#113362"/>
<path d="M29.2275 179.69C29.3003 179.631 29.3871 179.558 29.4599 179.501C29.2015 178.78 29.1478 178.002 29.3047 177.253C29.4616 176.504 29.8231 175.813 30.3489 175.257C30.1991 174.388 30.3985 173.494 30.9036 172.771C31.4088 172.048 32.1789 171.553 33.0467 171.395H33.0607C33.0563 170.503 33.3239 169.632 33.8277 168.897C34.3315 168.162 35.0475 167.598 35.8803 167.28C35.7681 166.412 35.8785 165.529 36.2009 164.715C36.4375 164.222 36.8262 163.818 37.3097 163.563C37.2565 163.353 37.2222 163.138 37.2075 162.922C37.1568 162.129 37.3379 161.339 37.7287 160.648C38.1195 159.956 38.7031 159.394 39.4083 159.028C39.2873 158.142 39.4302 157.239 39.8191 156.433C40.208 155.626 40.8257 154.953 41.5951 154.495C41.5834 154.374 41.5787 154.253 41.5811 154.131C40.8464 154.425 40.143 154.791 39.4811 155.225C39.2721 155.647 38.9796 156.022 38.6212 156.328C38.2629 156.633 37.8462 156.863 37.3965 157.003C37.2106 157.605 36.893 158.158 36.4668 158.622C36.0406 159.085 35.5165 159.449 34.9325 159.685C33.8566 161.227 32.9475 162.879 32.2207 164.613C31.3975 166.555 30.3699 168.491 29.6699 170.503C27.8947 168.246 24.3877 166.429 21.1999 164.763C21.0576 165.635 20.6112 166.428 19.9399 167.003C19.9528 167.417 19.9284 167.832 19.8671 168.242C19.7725 168.581 19.548 168.869 19.2424 169.043C18.9368 169.218 18.5747 169.265 18.2347 169.174C17.3601 168.9 16.4856 168.623 15.6111 168.344C15.3588 168.269 15.1337 168.123 14.9629 167.923C14.7922 167.723 14.6831 167.478 14.649 167.217C14.615 166.956 14.6573 166.691 14.7709 166.453C14.8845 166.216 15.0645 166.017 15.2891 165.88C15.7707 165.646 16.2369 165.412 16.7185 165.18C16.7109 164.415 16.9511 163.669 17.4031 163.052C13.1499 161.469 15.3031 162.519 11.2809 165.223C11.1976 165.273 11.1287 165.343 11.0808 165.428C11.033 165.512 11.0078 165.607 11.0078 165.704C11.0078 165.801 11.033 165.897 11.0808 165.981C11.1287 166.065 11.1976 166.136 11.2809 166.185C11.9725 166.621 15.0497 172.587 23.0409 177.367C24.9217 178.558 27.0277 179.348 29.2275 179.69Z" fill="#113362"/>
<path d="M81.4179 26.9062C84.6915 28.5104 88.1146 29.7896 91.6379 30.7254C92.7758 31.1473 93.9819 31.3552 95.1953 31.3386C95.2678 31.336 95.3376 31.3105 95.3946 31.2656C95.4516 31.2207 95.4928 31.1589 95.5123 31.089C95.5318 31.0192 95.5285 30.9449 95.503 30.877C95.4775 30.8091 95.431 30.7511 95.3703 30.7114C94.2265 29.9302 93.0631 30.0114 88.5901 28.6114C86.2717 27.8848 83.9855 27.0616 81.6951 26.265C81.6138 26.245 81.5281 26.2545 81.453 26.2917C81.378 26.3289 81.3187 26.3915 81.2854 26.4684C81.2522 26.5453 81.2473 26.6314 81.2715 26.7116C81.2958 26.7917 81.3477 26.8607 81.4179 26.9062Z" fill="#FC4040"/>
<path d="M110.035 21.2936C103.954 9.83878 103.275 5.75359 102.222 4.45439C102.172 4.40258 102.107 4.36643 102.037 4.35029C101.967 4.33415 101.893 4.33872 101.825 4.36344C101.758 4.38816 101.698 4.43198 101.655 4.48961C101.612 4.54723 101.586 4.6162 101.581 4.68819C101.76 6.13127 102.189 7.53211 102.849 8.82799C104.597 13.3013 106.795 17.5853 109.409 21.6142C109.66 21.9922 110.254 21.7024 110.035 21.2936Z" fill="#FC4040"/>
<path d="M126.029 15.681C126.709 10.6475 126.973 5.56642 126.816 0.489592C126.774 -0.151608 126.042 -0.0704081 125.986 0.576392C125.728 3.48419 125.825 7.78639 125.27 15.7538C125.227 16.3796 125.969 16.2634 126.029 15.681Z" fill="#FC4040"/>
<path d="M140.418 21.0304C150.267 13.1736 150.599 12.9202 151.702 11.5258C151.755 11.4689 151.785 11.3953 151.788 11.3181C151.792 11.2409 151.768 11.165 151.72 11.1039C151.673 11.0428 151.606 11.0003 151.53 10.984C151.455 10.9677 151.376 10.9786 151.308 11.0148C149.231 12.3124 147.306 13.8381 145.568 15.5634C143.658 17.1977 141.762 18.8403 139.881 20.4914C139.514 20.812 140.053 21.3216 140.418 21.0304Z" fill="#FC4040"/>
<path d="M149.88 37.78C156.367 33.7368 158.33 33.4918 161.92 31.6578C162.239 31.494 162.006 31.0418 161.687 31.0978C157.883 31.8258 152.713 34.8932 149.469 37.0898C149.052 37.3796 149.43 38.06 149.88 37.78Z" fill="#FC4040"/>
<path d="M133.333 36.0034C132.393 36.5949 131.604 37.3985 131.03 38.3498C127.177 43.4861 123.847 48.995 121.09 54.7942C118.931 59.1678 118.29 63.421 116.599 67.9738C116.595 67.9906 116.587 68.0062 116.576 68.0188C116.564 68.0313 116.549 68.0404 116.532 68.0449C116.516 68.0494 116.498 68.0492 116.482 68.0443C116.465 68.0394 116.451 68.03 116.439 68.0172C117.543 60.9976 119.47 54.1324 122.179 47.5632C125.199 40.5128 128.199 33.4358 128.943 25.7694C129.062 25.1605 128.958 24.5291 128.651 23.99C127.914 22.9372 126.364 23.2648 125.387 23.7422C123.1 24.8622 121.17 28.0346 119.306 31.1188C111.552 43.9582 110.608 52.5108 107.294 62.3178C106.9 63.484 105.501 68.6178 105.238 68.9356C105.267 54.139 114.034 38.9112 112.658 31.6004C112.435 30.4202 112.001 28.8606 110.806 28.3202C109.522 27.7392 108.169 28.848 107.22 29.5886C103.397 32.572 100.994 37.3432 99.1142 41.7756C92.2262 58.0142 93.6024 69.6188 93.2272 78.8H93.1978C92.2429 74.4048 90.8354 70.1204 88.9978 66.0152C87.4788 62.7504 85.236 57.7552 80.98 57.6614C80.0589 57.6824 79.1544 57.911 78.3339 58.3301C77.5134 58.7492 76.798 59.3481 76.241 60.082C73.4732 63.4658 74.3048 68.566 75.2946 72.8374C77.9546 84.3482 84.2784 94.5892 85.9654 106.121C86.1404 107.317 86.3938 112.522 86.3294 113.002C85.7568 117.28 88.5456 117.243 88.8662 117.317C89.9862 117.576 95.6604 118.892 96.8126 119.137C96.7104 119.557 96.6082 120.026 96.4906 120.521C97.5344 120.346 98.6039 120.401 99.6241 120.683C100.644 120.965 101.59 121.467 102.396 122.154C102.536 121.556 102.676 120.944 102.803 120.334C105.953 120.946 109.072 121.513 110.37 121.646C110.79 121.689 113.417 122.374 114.671 120.916C115.239 120.45 115.779 119.983 116.289 119.516C110.886 111.573 106.583 102.935 103.5 93.836C102.554 91.036 101.503 87.683 103.282 84.9866C104.084 83.8887 105.202 83.0618 106.486 82.6165C107.771 82.1712 109.16 82.1286 110.47 82.4946C116.096 83.784 117.432 89.6024 122.802 95.6448C119.593 85.0906 119.052 73.9051 121.229 63.0906C122.304 57.716 125.051 49.0626 127.964 44.955C130.197 41.8036 133.516 41.5166 135.545 42.869C135.914 41.6083 136.115 40.3044 136.143 38.991C136.147 37.4608 135.28 35.1312 133.333 36.0034Z" fill="#FC4040"/>
<path d="M98.6353 123.985C99.1091 123.923 99.5871 123.898 100.065 123.912C98.7207 122.904 96.0747 123.044 96.7551 124.597C97.0823 125.228 97.3085 125.907 97.4257 126.609C97.4733 127.631 97.1585 128.638 96.5367 129.452C96.3679 129.772 96.0874 130.018 95.7487 130.144C95.41 130.27 95.0367 130.268 94.6999 130.137C94.6313 131.842 95.4083 133.029 98.1551 133.198C99.0735 133.256 99.6139 133.068 99.9191 132.164C99.9331 132.12 99.9471 132.062 99.9765 131.989C99.2765 131.735 98.3637 131.219 98.2419 130.487C98.1691 130.05 98.5219 129.525 98.9559 129.568C98.7923 129.478 98.6615 129.339 98.5824 129.17C98.5032 129.001 98.4797 128.811 98.5154 128.628C98.5511 128.445 98.644 128.278 98.7808 128.151C98.9176 128.024 99.0912 127.944 99.2765 127.922C99.0288 127.831 98.8153 127.666 98.6649 127.449C98.5146 127.232 98.4348 126.975 98.4365 126.711C98.4449 126.124 98.8565 125.903 99.1365 126.04C98.7881 125.905 98.496 125.655 98.308 125.332C98.12 125.009 98.0474 124.632 98.1019 124.262C98.161 124.176 98.2407 124.105 98.3338 124.057C98.4268 124.008 98.5304 123.984 98.6353 123.985Z" fill="#FC4040"/>
<path d="M100.808 122.978C101.23 123.278 101.679 123.537 102.149 123.751C102.413 123.838 102.746 123.548 102.63 123.271C102.161 122.151 100.619 121.636 99.5496 121.273C96.0132 120.072 93.6696 121.727 93.3826 123.737C93.2118 124.926 93.7074 124.919 93.6752 128.723C93.6768 128.792 93.7032 128.858 93.7496 128.91C93.796 128.961 93.8593 128.995 93.9281 129.003C93.9969 129.012 94.0665 128.996 94.1244 128.958C94.1823 128.92 94.2246 128.862 94.2436 128.795C95.3258 125.504 93.4036 123.582 95.5848 122.308C97.1024 121.426 99.2752 122.13 100.808 122.978Z" fill="#113362"/>
<path d="M98.8397 125.253C100.588 126.534 104.71 126.744 105.239 124.67C105.299 124.306 105.251 123.934 105.102 123.597C104.953 123.261 104.708 122.975 104.399 122.775C104.097 122.509 103.572 122.847 103.817 123.226C104.022 123.547 104.377 124.042 104.196 124.451C103.859 125.19 101.652 125.011 100.886 124.845C100.273 124.714 98.7249 123.578 98.5681 124.758C98.5653 124.857 98.5891 124.955 98.6368 125.042C98.6845 125.129 98.7545 125.202 98.8397 125.253Z" fill="#113362"/>
<path d="M104.511 126.011C104.423 126.653 102.529 126.74 102.09 126.754C101.275 126.719 100.467 126.583 99.6852 126.347C99.5467 126.321 99.4033 126.348 99.2839 126.423C99.1644 126.498 99.0776 126.615 99.0409 126.751C99.0041 126.887 99.02 127.032 99.0855 127.157C99.151 127.282 99.2612 127.378 99.394 127.425C100.709 127.908 102.134 128.009 103.504 127.717C104.379 127.513 105.628 127.178 105.313 126.026C105.208 125.647 104.568 125.588 104.511 126.011Z" fill="#113362"/>
<path d="M104.76 127.8C103.677 128.539 102.35 128.831 101.057 128.616C100.546 128.578 99.1615 127.975 99.1475 128.896C99.147 128.988 99.171 129.078 99.217 129.158C99.263 129.237 99.3294 129.303 99.4093 129.348C100.489 129.828 101.688 129.971 102.85 129.757C103.346 129.735 103.831 129.604 104.27 129.372C104.708 129.14 105.09 128.813 105.387 128.416C105.625 128.056 105.111 127.531 104.76 127.8Z" fill="#113362"/>
<path d="M104.263 130.123C101.652 131.556 100.269 129.6 98.9431 129.962C98.3089 130.135 98.8157 131.45 101.771 131.726C102.312 131.806 102.864 131.761 103.385 131.595C103.905 131.428 104.381 131.144 104.774 130.764C104.834 130.689 104.867 130.597 104.867 130.501C104.867 130.406 104.835 130.313 104.776 130.238C104.716 130.164 104.633 130.111 104.54 130.09C104.447 130.069 104.349 130.081 104.263 130.123Z" fill="#113362"/>
<path d="M163.043 80.4674C164.318 76.556 165.015 72.4798 165.114 68.3672C165.085 66.7348 164.749 64.947 162.81 64.7664C162.026 64.7587 161.257 64.9758 160.593 65.3919C159.929 65.808 159.398 66.4057 159.063 67.1142C157.284 70.043 155.273 82.027 154.821 85.4976C155.157 78.2666 157.833 63.295 158.772 56.5008C158.964 55.1162 159.458 53.1184 158.772 51.7912C158.117 50.5228 156.672 50.7286 155.594 51.2662C152.636 52.7418 151.321 56.1354 150.214 59.0376C149.162 61.7956 140.694 112.201 149.048 57.7104C150.344 49.26 150.89 47.58 149.879 45.9742C149.681 45.6877 149.427 45.4443 149.132 45.2588C148.838 45.0733 148.508 44.9496 148.164 44.8951C147.82 44.8407 147.469 44.8566 147.131 44.942C146.794 45.0274 146.477 45.1804 146.2 45.3918C144.648 46.5634 143.353 48.0404 142.395 49.7318C140.05 53.1482 138.144 56.8462 136.723 60.7386C135.476 64.1518 134.975 74.5006 134.507 78.0986C134.027 72.122 135.487 59.3498 136.082 53.418C136.254 51.8103 136.297 50.1915 136.214 48.5768C136.307 47.1623 135.939 45.7556 135.164 44.5686C134.793 44.1912 134.331 43.9162 133.823 43.7704C133.315 43.6247 132.777 43.6132 132.263 43.737C129.582 44.2494 128.26 47.3966 127.131 49.904C123.501 58.0265 121.589 66.8119 121.517 75.7083C121.445 84.6047 123.213 93.42 126.711 101.6C120.296 96.1138 118.69 93.0184 115.763 88.6546C114.556 86.4932 112.585 84.8605 110.237 84.0766C109.259 83.7672 108.212 83.756 107.228 84.0442C106.244 84.3324 105.368 84.9071 104.712 85.695C103.147 87.921 104.183 90.8568 104.96 93.1738C113.184 117.726 125.437 126.967 129.495 135.233C129.539 135.321 130.138 136.819 130.53 136.88C136.352 137.962 142.36 137.412 147.89 135.291C148.181 135.933 148.502 136.574 148.822 137.215C148.869 137.234 148.913 137.258 148.954 137.288C149.335 136.477 149.88 135.754 150.555 135.164C151.23 134.575 152.019 134.131 152.874 133.862C152.714 133.582 152.567 133.302 152.422 133.046C155.45 131.234 159.626 127.744 161.102 125.158C161.841 123.859 161.407 122.588 161.015 119.443C158.461 98.96 159.86 91.82 163.043 80.4674Z" fill="#FC4040"/>
<path d="M156.949 141.989C156.339 141.583 155.857 141.012 155.558 140.343C155.259 139.674 155.155 138.934 155.258 138.209C154.181 136.201 154.328 136.402 154.194 136.402C153.756 136.456 153.333 136.598 152.95 136.818C152.567 137.038 152.232 137.333 151.964 137.684C152.416 137.535 152.879 137.423 153.348 137.349C153.887 137.268 154.011 137.443 154.092 137.769C154.148 138.08 154.119 138.399 154.009 138.695C153.899 138.991 153.711 139.251 153.466 139.449C153.542 139.389 153.634 139.353 153.731 139.348C153.828 139.343 153.924 139.369 154.005 139.421C154.134 139.545 154.234 139.696 154.298 139.863C154.362 140.03 154.388 140.209 154.374 140.387C154.361 140.565 154.308 140.738 154.22 140.893C154.132 141.049 154.011 141.183 153.865 141.286C154.05 141.252 154.241 141.278 154.41 141.36C154.579 141.441 154.717 141.575 154.805 141.741C154.893 141.907 154.925 142.097 154.898 142.283C154.87 142.469 154.784 142.641 154.652 142.774C155.219 142.539 156.192 143.357 155.133 144.669C154.654 145.236 154.051 145.685 153.369 145.982C153.571 146.127 153.802 146.228 154.045 146.278C154.289 146.329 154.541 146.327 154.783 146.273C155.753 146.098 156.642 145.618 157.32 144.902C157.573 144.493 157.702 144.019 157.692 143.538C157.681 143.057 157.532 142.589 157.261 142.191C157.147 142.14 157.042 142.072 156.949 141.989Z" fill="#FC4040"/>
<path d="M151.002 137.04C150.686 137.453 150.329 137.834 149.938 138.177C149.88 138.212 149.813 138.231 149.744 138.233C149.676 138.235 149.608 138.219 149.548 138.186C149.488 138.154 149.437 138.107 149.401 138.049C149.364 137.991 149.343 137.925 149.34 137.856C149.458 136.647 150.796 135.711 151.72 135.056C154.809 132.858 157.516 133.862 158.324 135.654C158.837 136.791 158.373 137.092 159.476 140.508C159.494 140.575 159.487 140.645 159.457 140.708C159.427 140.77 159.376 140.82 159.313 140.848C159.25 140.876 159.179 140.88 159.113 140.861C159.046 140.842 158.989 140.799 158.951 140.742C156.956 137.908 158.285 135.501 155.803 134.895C154.116 134.478 152.153 135.815 151.002 137.04Z" fill="#113362"/>
<path d="M147.241 139.904C147.082 139.573 147.022 139.203 147.069 138.838C147.116 138.473 147.267 138.13 147.504 137.849C147.718 137.496 148.312 137.687 148.188 138.111C148.079 138.489 147.871 139.056 148.174 139.395C148.734 140.014 150.736 139.238 151.469 138.826C152.009 138.521 153.172 136.995 153.655 138.083C154.138 139.171 148.691 142.284 147.241 139.904Z" fill="#113362"/>
<path d="M148.32 140.984C148.6 141.568 150.433 141.111 150.857 140.998C151.626 140.728 152.361 140.366 153.044 139.92C153.168 139.862 153.309 139.852 153.441 139.891C153.572 139.931 153.685 140.018 153.757 140.135C153.828 140.251 153.855 140.391 153.831 140.526C153.807 140.661 153.734 140.783 153.626 140.868C152.5 141.695 151.169 142.199 149.777 142.325C148.888 142.374 147.599 142.427 147.561 141.216C147.55 140.838 148.142 140.606 148.32 140.984Z" fill="#113362"/>
<path d="M148.597 142.78C149.847 143.171 151.198 143.071 152.377 142.5C152.86 142.315 153.994 141.348 154.286 142.22C154.312 142.308 154.314 142.401 154.294 142.49C154.273 142.579 154.23 142.662 154.169 142.73C153.281 143.513 152.169 143.998 150.991 144.116C150.509 144.233 150.007 144.243 149.521 144.145C149.035 144.046 148.577 143.842 148.178 143.547C147.837 143.274 148.173 142.618 148.597 142.78Z" fill="#113362"/>
<path d="M149.718 144.862C150.713 145.085 151.754 144.923 152.635 144.41C153.335 144.02 153.96 143.2 154.792 143.185C155.447 143.173 155.33 144.585 152.591 145.692C152.098 145.927 151.557 146.045 151.01 146.035C150.464 146.025 149.927 145.888 149.443 145.635C149.361 145.584 149.3 145.507 149.268 145.416C149.237 145.326 149.237 145.227 149.27 145.137C149.302 145.047 149.364 144.971 149.445 144.92C149.527 144.87 149.623 144.85 149.718 144.862Z" fill="#113362"/>
<path d="M241.477 169.572C241.637 168.669 241.75 167.752 241.885 166.832C241.887 166.78 241.875 166.728 241.85 166.681C241.826 166.635 241.789 166.596 241.745 166.569C240.671 166.047 239.587 165.417 238.464 164.966C239.298 166.606 240.308 168.151 241.477 169.572Z" fill="#FC4040"/>
<path d="M234.435 189.137C230.965 186.669 228.233 183.303 226.534 179.398C225.887 180.611 225.392 181.899 225.061 183.233C224.977 184.219 224.802 185.195 224.536 186.148C224.396 186.484 223.921 186.338 223.822 186.061C223.622 185.021 223.713 183.947 224.085 182.956C224.215 182.46 224.365 181.92 224.551 181.416C221.331 177.429 217.814 173.35 212.976 170.686C209.417 168.726 204.856 167.55 201.692 170.016C200.512 170.934 199.623 172.295 198.192 172.844C197.546 173.079 196.855 173.162 196.172 173.086C195.489 173.01 194.833 172.777 194.255 172.405C193.358 171.718 192.519 170.958 191.748 170.132C185.098 164.04 178.133 162.828 170.23 154.49C159.03 142.669 160.028 143.521 159.777 143.409C159.507 143.311 159.211 143.306 158.937 143.395C158.018 143.649 157.627 144.859 154.607 145.713C154.564 145.726 154.524 145.749 154.491 145.78C154.458 145.81 154.432 145.848 154.415 145.89C154.398 145.931 154.391 145.977 154.394 146.022C154.397 146.067 154.41 146.11 154.432 146.15C154.652 146.444 158.023 152.133 158.106 152.273C162.36 159.436 163.251 161.561 171.416 168.732C176.358 173.051 181.643 176.961 187.219 180.425C187.263 179.935 187.278 179.443 187.264 178.952C187.195 178.42 187.165 177.885 187.175 177.349C187.177 177.276 187.202 177.205 187.247 177.148C187.292 177.09 187.354 177.048 187.424 177.029C187.494 177.009 187.569 177.013 187.637 177.039C187.705 177.065 187.763 177.112 187.803 177.174C189.177 179.414 187.129 184.772 187.307 187.247C187.661 192.192 193.447 195.116 192.978 200.267C192.979 200.309 192.99 200.35 193.009 200.387C193.029 200.425 193.056 200.457 193.09 200.483C193.124 200.508 193.162 200.525 193.204 200.534C193.245 200.542 193.288 200.541 193.328 200.53C199.188 198.789 205.377 198.459 211.388 199.567C211.621 199.612 211.855 199.319 211.636 199.147C211.594 199.117 211.554 199.083 211.519 199.046C211.745 195.586 212.422 192.169 213.53 188.883C212.425 187.584 211.417 186.206 210.513 184.759C210.484 184.71 210.473 184.653 210.484 184.597C210.494 184.541 210.525 184.491 210.57 184.456C210.615 184.421 210.671 184.404 210.728 184.409C210.785 184.413 210.838 184.438 210.877 184.479C211.857 185.466 212.8 186.478 213.735 187.511C214.186 188.008 214.844 188.546 215.31 189.158C219.275 192.518 223.928 195.738 229.013 193.838C231.302 192.905 233.258 191.305 234.626 189.246C234.558 189.217 234.494 189.18 234.435 189.137Z" fill="#FC4040"/>
<path d="M203.222 159.265C203.004 159.294 203.018 159.661 203.222 159.702C204.24 159.906 204.235 161.618 203.704 162.222C203.459 162.502 203.221 162.797 202.843 162.747C202.465 162.696 202.349 162.352 202.115 162.09C202.048 162.026 201.962 161.986 201.87 161.974C201.778 161.963 201.685 161.982 201.605 162.028C201.524 162.074 201.461 162.144 201.424 162.229C201.387 162.314 201.378 162.409 201.4 162.499C201.464 162.743 201.579 162.971 201.736 163.17C201.66 163.169 201.585 163.185 201.517 163.218C201.448 163.251 201.389 163.299 201.342 163.359C200.501 164.902 199.419 166.3 198.135 167.5C197.763 167.784 197.335 167.986 196.879 168.093C196.424 168.2 195.951 168.21 195.491 168.122C195.032 168.034 194.596 167.85 194.212 167.582C193.829 167.313 193.506 166.967 193.266 166.566C192.332 164.96 191.996 163.076 192.318 161.246C192.676 157.637 193.446 156.854 193.222 155.779C193.208 155.732 193.182 155.69 193.147 155.657C193.112 155.623 193.069 155.599 193.021 155.588C192.974 155.576 192.925 155.577 192.878 155.59C192.831 155.603 192.789 155.628 192.755 155.663C192.146 156.599 191.799 157.682 191.749 158.797C191.072 162.488 190.813 166.703 194.052 168.579C194.185 169.473 194.14 170.385 193.921 171.262C193.854 171.743 194.481 172.102 194.761 171.612C194.977 171.207 195.104 170.761 195.132 170.303C195.159 169.845 195.088 169.386 194.922 168.959C195.475 169.147 196.064 169.208 196.645 169.137C197.226 169.067 197.783 168.866 198.275 168.55C200.491 167.094 198.944 167.064 199.923 169.177C200.126 169.615 200.462 170.329 201.03 170.314C201.059 170.314 201.087 170.309 201.114 170.298C201.141 170.288 201.165 170.271 201.186 170.251C201.206 170.231 201.222 170.206 201.233 170.18C201.244 170.153 201.249 170.124 201.248 170.095C201.296 169.645 200.845 169.247 200.651 168.856C200.415 168.334 200.263 167.778 200.2 167.209C200.193 167.167 200.178 167.128 200.156 167.093C200.133 167.058 200.103 167.028 200.068 167.006C200.967 166.048 201.671 164.924 202.139 163.696C202.155 163.654 202.164 163.609 202.167 163.564C203.046 164.15 203.938 163.458 204.529 162.584C205.244 161.54 204.827 159.049 203.222 159.265Z" fill="#113362"/>
<path d="M193.731 160.315C194.15 160.783 194.69 161.126 195.291 161.306C195.511 161.334 195.761 161.114 195.612 160.897C195.342 160.566 195.017 160.285 194.65 160.067C195.132 159.737 195.538 159.307 195.84 158.807C196.142 158.307 196.333 157.747 196.4 157.166C196.425 156.917 196.076 156.917 195.991 157.108C195.574 158.2 194.803 159.12 193.8 159.72C193.751 159.75 193.709 159.791 193.678 159.84C193.646 159.888 193.627 159.943 193.62 160.001C193.614 160.058 193.62 160.116 193.639 160.171C193.659 160.225 193.69 160.275 193.731 160.315Z" fill="#113362"/>
<path d="M194.08 156.991C194.136 156.83 194.299 156.626 194.489 156.685C194.679 156.744 194.709 156.973 194.853 157.092C194.899 157.138 194.958 157.168 195.021 157.181C195.085 157.193 195.15 157.187 195.21 157.162C195.27 157.137 195.321 157.095 195.357 157.041C195.393 156.988 195.413 156.925 195.413 156.86C195.383 156.618 195.259 156.399 195.068 156.248C194.877 156.098 194.634 156.03 194.392 156.058C194.283 156.066 194.176 156.098 194.08 156.151C193.983 156.204 193.9 156.278 193.835 156.367C193.769 156.455 193.724 156.557 193.702 156.665C193.68 156.773 193.681 156.884 193.706 156.991C193.72 157.03 193.745 157.064 193.778 157.088C193.812 157.112 193.852 157.125 193.893 157.125C193.935 157.125 193.975 157.112 194.008 157.088C194.042 157.064 194.067 157.03 194.08 156.991Z" fill="#113362"/>
<path d="M198.994 158.04C199.029 158.331 199.414 158.578 199.635 158.303C199.735 158.156 199.798 157.987 199.821 157.81C199.843 157.634 199.824 157.454 199.765 157.287C199.706 157.119 199.608 156.967 199.479 156.844C199.351 156.721 199.195 156.629 199.025 156.577C198.855 156.525 198.675 156.513 198.5 156.543C198.324 156.572 198.158 156.643 198.015 156.748C197.872 156.854 197.755 156.991 197.674 157.15C197.594 157.309 197.551 157.484 197.551 157.662C197.553 157.725 197.577 157.786 197.619 157.833C197.662 157.881 197.72 157.911 197.783 157.92C197.845 157.929 197.909 157.915 197.963 157.881C198.017 157.847 198.057 157.795 198.076 157.735C198.153 157.516 198.483 157.271 198.717 157.399C198.951 157.526 198.969 157.822 198.994 158.04Z" fill="#113362"/>
<path d="M194.548 164.718C194.287 164.235 194.241 163.683 193.979 163.202C193.934 163.127 193.866 163.069 193.785 163.037C193.704 163.004 193.615 162.999 193.531 163.022C193.447 163.045 193.372 163.095 193.319 163.164C193.266 163.233 193.237 163.318 193.236 163.405C193.111 164.952 194.576 166.987 196.282 166.336C197.989 165.685 198.618 163.116 198.732 161.525C198.736 161.43 198.707 161.338 198.651 161.262C198.595 161.186 198.516 161.131 198.425 161.106C198.334 161.08 198.237 161.087 198.15 161.123C198.064 161.159 197.991 161.224 197.946 161.306C197.282 162.723 194.931 162.167 193.761 161.845C193.705 161.832 193.647 161.839 193.596 161.864C193.545 161.89 193.505 161.932 193.482 161.985C193.46 162.037 193.456 162.096 193.473 162.15C193.489 162.205 193.524 162.252 193.572 162.283C194.178 162.666 194.866 162.901 195.579 162.972C196.292 163.043 197.013 162.946 197.682 162.691C197.481 163.578 197.055 164.398 196.443 165.071C196.315 165.217 196.151 165.328 195.967 165.392C195.784 165.456 195.586 165.471 195.395 165.435C195.204 165.399 195.025 165.315 194.876 165.189C194.728 165.063 194.614 164.901 194.548 164.718Z" fill="#113362"/>
<path d="M192.988 153.507C193 152.447 193.315 151.412 193.896 150.526C194.477 149.64 195.301 148.939 196.268 148.506C200.23 146.284 201.16 147.616 202.363 147.427C202.396 147.472 202.441 147.507 202.493 147.529C203.207 147.928 203.889 148.382 204.534 148.885C204.916 149.188 205.455 148.649 205.074 148.346C204.422 147.83 203.485 146.99 202.61 147.063C202.61 147.049 202.595 147.033 202.595 147.019C201.983 146.057 200.321 146.088 199.315 146.246C197.968 146.51 196.682 147.025 195.525 147.763C193.517 148.979 191.822 151.116 192.551 153.58C192.566 153.633 192.6 153.678 192.646 153.708C192.693 153.738 192.748 153.749 192.803 153.74C192.857 153.731 192.906 153.702 192.94 153.659C192.975 153.616 192.992 153.562 192.988 153.507Z" fill="#113362"/>
<path d="M207.698 151.029C206.018 147.964 204.696 149 205.045 149.527C205.49 150.201 206.01 149.986 206.882 151.655C207.411 152.684 207.69 153.823 207.698 154.98C207.558 157.19 206.789 159.314 205.482 161.102C205.445 161.168 205.433 161.246 205.447 161.32C205.462 161.395 205.503 161.462 205.562 161.509C205.622 161.556 205.696 161.581 205.772 161.578C205.848 161.576 205.921 161.546 205.977 161.495C207.344 160.163 208.248 158.428 208.557 156.545C208.867 154.661 208.566 152.729 207.698 151.029Z" fill="#113362"/>
<path d="M202.741 146.29C203.281 145.328 204.477 146.581 204.957 146.976C205.255 147.166 205.529 147.391 205.773 147.646C206.028 147.998 205.833 148.64 206.168 148.695C206.274 148.746 206.394 148.756 206.507 148.723C206.62 148.691 206.717 148.619 206.78 148.52C207.548 147.288 205.511 146.13 204.695 145.546C203.879 144.963 202.315 144.803 202.245 146.16C202.246 146.218 202.266 146.274 202.302 146.32C202.338 146.365 202.387 146.398 202.444 146.413C202.5 146.428 202.559 146.424 202.613 146.401C202.666 146.379 202.711 146.34 202.741 146.29Z" fill="#113362"/>
<path d="M196.064 153.084C196.125 152.345 196.371 151.633 196.778 151.013C197.084 150.547 197.618 150.211 197.653 149.629C197.668 149.497 197.537 149.41 197.42 149.395C196.677 149.352 196.17 150.301 195.889 150.882C195.521 151.576 195.432 152.385 195.641 153.143C195.657 153.191 195.689 153.232 195.732 153.259C195.776 153.286 195.827 153.297 195.877 153.29C195.927 153.283 195.973 153.258 196.008 153.221C196.042 153.183 196.062 153.135 196.064 153.084Z" fill="#113362"/>
<path d="M200.54 150.882C200.515 150.838 200.473 150.805 200.424 150.792C200.375 150.778 200.323 150.784 200.278 150.809C199.969 151.143 199.748 151.549 199.636 151.991C199.407 152.467 199.134 152.921 198.819 153.346C198.657 153.577 198.999 153.804 199.199 153.638C199.646 153.263 200.013 152.802 200.278 152.282C200.43 152.086 200.533 151.857 200.579 151.614C200.624 151.37 200.611 151.119 200.54 150.882Z" fill="#113362"/>
<path d="M203.981 153.025C203.503 153.253 203.233 153.865 202.861 154.235C202.412 154.627 201.929 154.979 201.417 155.285C201.227 155.415 201.277 155.813 201.549 155.78C202.244 155.677 202.891 155.362 203.4 154.877C204.86 153.609 204.44 152.807 203.981 153.025Z" fill="#113362"/>
<path d="M205.234 156.378C204.534 156.391 204.114 157.453 203.091 157.808C202.843 157.893 202.857 158.342 203.164 158.303C203.675 158.252 204.163 158.066 204.579 157.764C204.94 157.484 205.453 157.078 205.419 156.553C205.415 156.506 205.394 156.463 205.36 156.43C205.326 156.398 205.281 156.379 205.234 156.378Z" fill="#113362"/>
<path d="M250.472 178.596C246.422 177.093 243.472 175.068 239.757 169.164C232.216 157.169 233.697 147.343 227.584 139.657C226.224 137.781 224.392 136.299 222.275 135.36C220.158 134.42 217.83 134.057 215.527 134.307C210.38 134.96 204.537 138.128 204.054 143.871C204.026 144.205 204.544 144.263 204.622 143.943C205.882 138.72 210.876 135.833 215.993 135.356C220.876 134.901 224.932 137.614 227.584 141.552C230.487 145.866 231.459 151.102 232.817 156.028C235.113 164.361 241.754 178.501 250.341 179.501C250.894 179.565 250.909 178.76 250.472 178.596Z" fill="#113362"/>
<path d="M243.678 190.667C240.672 189.484 237.722 188.977 233.598 185.157C222.758 175.099 223.358 158.277 218.451 150.227C216.424 146.903 212.178 144.09 208.371 146.447C208.333 146.469 208.3 146.498 208.273 146.533C208.246 146.568 208.226 146.608 208.215 146.651C208.203 146.693 208.2 146.738 208.206 146.782C208.212 146.825 208.226 146.868 208.248 146.906C208.27 146.944 208.3 146.978 208.335 147.004C208.37 147.031 208.41 147.051 208.452 147.063C208.495 147.074 208.539 147.077 208.583 147.071C208.627 147.065 208.669 147.051 208.707 147.029C209.647 146.635 210.669 146.478 211.683 146.572C212.698 146.667 213.673 147.009 214.524 147.569C219.235 150.493 220.669 159.376 222.084 164.859C224.665 174.811 228.713 184.787 237.858 189.585C239.586 190.651 241.568 191.235 243.598 191.276C243.668 191.268 243.734 191.237 243.784 191.187C243.835 191.138 243.867 191.073 243.876 191.003C243.885 190.933 243.871 190.862 243.835 190.801C243.799 190.74 243.744 190.693 243.678 190.667Z" fill="#113362"/>
<path d="M226.98 166.642C228.403 171.324 231.086 175.525 234.736 178.785C235.919 179.957 237.282 180.932 238.774 181.672C238.978 181.76 239.227 181.51 239.037 181.337C237.091 179.578 231.218 176.339 227.432 166.497C227.32 166.248 226.899 166.35 226.98 166.642Z" fill="#113362"/>
<path d="M230.819 163.23C233.231 169.328 236.971 174.812 241.769 179.282C243.126 180.732 244.907 181.716 246.856 182.095C247.136 182.126 247.249 181.675 246.996 181.556C244.211 180.243 241.752 178.707 237.783 173.77C235.145 170.494 232.922 166.905 231.164 163.084C231.077 162.883 230.738 163.024 230.819 163.23Z" fill="#113362"/>
<path d="M198.717 205.975C198.717 205.901 198.691 205.83 198.643 205.775C198.595 205.719 198.528 205.683 198.456 205.673C198.383 205.662 198.309 205.678 198.247 205.717C198.185 205.757 198.14 205.817 198.119 205.888C196.616 213.815 195.62 214.919 195.787 216.356C196.032 218.456 197.565 218.639 197.449 217.87C197.328 217.061 196.523 216.89 196.939 215.203C197.907 212.212 198.505 209.112 198.717 205.975Z" fill="#113362"/>
<path d="M220.251 214.867C220.812 214.008 221.166 213.03 221.285 212.01C222.199 212.03 224.137 212.114 225.047 212.23C225.309 212.262 225.397 212.389 225.309 212.608C225.34 213.046 225.321 213.486 225.251 213.92C225.236 215.064 225.339 216.208 225.557 217.331C225.592 217.44 225.657 217.536 225.745 217.609C225.832 217.682 225.939 217.729 226.052 217.743C226.165 217.758 226.28 217.74 226.383 217.692C226.487 217.644 226.574 217.567 226.636 217.471C227.386 216.351 228.354 216.736 228.876 216.568C228.949 216.547 229.015 216.507 229.068 216.453C229.121 216.398 229.158 216.331 229.178 216.258C229.197 216.184 229.197 216.107 229.177 216.034C229.158 215.96 229.119 215.893 229.066 215.839C228.693 215.573 228.24 215.442 227.782 215.467C227.324 215.492 226.888 215.673 226.546 215.979C226.156 212.906 226.833 212.184 226.126 211.474C225.631 210.978 224.714 211.047 224.087 211.008C223.007 210.942 221.928 210.957 220.85 210.964C220.715 210.967 220.587 211.022 220.492 211.117C220.397 211.211 220.342 211.339 220.339 211.474C220.233 212.548 220.038 213.611 219.756 214.653C219.748 214.714 219.76 214.775 219.79 214.828C219.82 214.881 219.867 214.923 219.923 214.947C219.978 214.971 220.041 214.976 220.1 214.962C220.159 214.948 220.212 214.915 220.251 214.867Z" fill="#113362"/>
<path d="M255.428 226.195C254.976 224.722 254.061 223.434 252.819 222.521C250.461 220.312 247.706 218.571 244.699 217.39C242.662 216.592 239.477 215.38 237.788 216.763C237.575 216.957 237.393 217.184 237.249 217.434C237.234 216.314 237.158 215.175 237.074 214.051C237.073 213.922 237.029 213.796 236.95 213.694C236.871 213.591 236.761 213.517 236.636 213.483C234.714 213.082 232.755 212.886 230.791 212.899C230.664 212.897 230.541 212.937 230.439 213.013C230.338 213.089 230.265 213.197 230.231 213.319C229.363 219.403 226.706 225.698 225.741 228.439C225.628 228.761 226.107 228.95 226.28 228.673C228.684 224.833 230.444 218.629 231.266 214.065C232.832 214.074 234.394 214.23 235.932 214.531C236.033 216.004 236.072 217.471 236.062 218.962C236.064 219.066 236.092 219.167 236.144 219.256C236.197 219.345 236.272 219.419 236.361 219.471C236.451 219.522 236.552 219.55 236.656 219.55C236.759 219.551 236.861 219.524 236.951 219.473C238.088 218.888 238.133 217.406 239.59 217.316C241.015 217.363 242.417 217.689 243.716 218.278C246.601 219.336 249.256 220.939 251.536 223C252.453 223.832 254.448 225.39 254.16 226.805C253.866 228.247 251.64 228.001 250.602 227.81C247.644 227.27 244.683 225.824 241.623 226.615C238.882 227.325 236.884 230.078 236.079 232.719C234.961 231.834 233.686 231.169 232.321 230.759C230.249 229.992 228.059 229.592 225.849 229.577C225.793 229.58 225.74 229.603 225.699 229.641C225.657 229.679 225.631 229.731 225.624 229.786C225.617 229.842 225.63 229.899 225.66 229.946C225.691 229.993 225.737 230.028 225.79 230.045C226.009 230.104 226.227 230.147 226.445 230.204C226.305 230.336 226.227 230.54 226.097 230.671C221.504 234.79 217.198 239.218 213.208 243.923C212.47 248.045 211.031 252.009 208.952 255.644C208.628 256.064 207.929 255.6 208.077 255.134C208.437 253.996 209.127 252.933 209.594 251.839C210.961 248.607 212.019 245.255 212.756 241.824C213.155 239.149 213.384 236.452 213.442 233.748C216.343 233.732 219.231 233.718 222.131 233.616C222.285 233.614 222.432 233.551 222.541 233.442C222.65 233.333 222.712 233.186 222.714 233.032C222.67 217.144 214.874 203.715 213.806 203.715C213.886 203.669 213.952 203.603 213.998 203.524C214.044 203.445 214.069 203.355 214.069 203.263C214.064 202.338 213.803 201.433 213.317 200.646C212.832 199.859 212.138 199.222 211.314 198.802C207.477 196.645 199.274 197.534 194.766 199.137C192.27 200.027 190.411 200.916 190.946 203.607C190.889 203.599 190.831 203.603 190.776 203.619C190.721 203.635 190.67 203.663 190.626 203.701C183.332 209.692 176.206 217.366 173.803 226.749C173.78 226.839 173.777 226.932 173.796 227.022C173.814 227.113 173.853 227.198 173.91 227.271C173.966 227.344 174.038 227.403 174.121 227.445C174.203 227.486 174.294 227.507 174.386 227.508C175.45 227.549 176.514 227.638 177.578 227.74C174.514 230.898 171.845 234.418 169.633 238.222C167.644 241.782 165.398 247.095 166.937 250.877C170.017 258.444 183.916 253.386 190.772 248.967C191.097 246.286 191.556 243.279 192.129 240.352C191.03 241.533 189.72 242.497 188.265 243.194C188.159 243.22 188.048 243.212 187.948 243.17C187.849 243.128 187.765 243.054 187.711 242.96C187.656 242.866 187.634 242.757 187.647 242.649C187.661 242.542 187.709 242.441 187.784 242.363C188.515 241.739 189.413 241.308 190.174 240.716C190.871 240.091 191.616 239.521 192.4 239.01C192.703 237.127 193.186 235.276 193.842 233.485C193.875 233.437 193.921 233.4 193.975 233.379C194.029 233.359 194.088 233.356 194.144 233.37C194.2 233.384 194.25 233.416 194.288 233.46C194.325 233.504 194.348 233.559 194.353 233.616C194.227 235.9 192.525 241.057 191.569 250.976C191.361 253.12 191.16 255.291 191.116 257.448C191.496 260.612 192.647 263.608 195.694 265.102C200.942 267.685 206.831 264.446 211.309 261.721C222.005 255.207 229.185 244.265 233.934 232.782C235.366 233.504 235.435 234.017 236.034 234.123C236.097 234.137 236.162 234.137 236.225 234.123C236.288 234.108 236.347 234.08 236.397 234.039C236.448 233.999 236.488 233.948 236.516 233.89C236.544 233.831 236.558 233.768 236.558 233.703C237.841 233.545 238.254 227.451 243.908 227.683C247.2 227.816 250.838 229.923 253.601 228.951C254.185 228.787 254.691 228.418 255.026 227.912C255.362 227.406 255.504 226.797 255.428 226.195ZM193.548 232.289C193.664 231.869 193.781 231.459 193.912 231.036C194.005 230.967 194.074 230.871 194.108 230.761C194.142 230.65 194.139 230.532 194.101 230.423C196.341 223.08 197.003 222.828 198.315 218.891C198.345 218.769 198.33 218.64 198.274 218.528C198.217 218.416 198.123 218.328 198.007 218.279C197.892 218.23 197.763 218.223 197.643 218.261C197.523 218.299 197.42 218.377 197.353 218.484C195.614 222.111 194.176 225.875 193.053 229.738C191.818 229.274 190.551 228.899 189.261 228.618C184.653 227.382 179.929 226.625 175.165 226.359C178.005 216.419 185.466 210.399 191.171 204.239C191.195 204.213 191.215 204.185 191.233 204.155C191.318 204.196 191.414 204.213 191.509 204.203C191.604 204.194 191.694 204.158 191.769 204.1C191.845 204.041 191.903 203.963 191.936 203.874C191.97 203.785 191.978 203.688 191.959 203.595C191.853 202.703 191.967 201.8 192.291 200.963C193.831 200.761 197.369 198.815 203.68 198.637C206.844 198.549 213.127 198.741 212.996 203.274C212.994 203.356 213.011 203.438 213.047 203.512C213.082 203.586 213.135 203.651 213.201 203.7C213.266 203.75 213.342 203.784 213.423 203.798C213.504 203.813 213.588 203.808 213.666 203.784C213.604 203.829 213.558 203.894 213.537 203.968C213.516 204.042 213.521 204.121 213.55 204.192C215.803 208.849 221.317 217.704 221.538 232.472C212.205 232.695 202.873 232.634 193.543 232.289H193.548Z" fill="#113362"/>
<path d="M96.7802 131.332C93.5784 130.632 93.6862 130.468 93.2522 130.618C92.9344 130.727 92.9022 130.799 90.8722 133.359C86.7461 138.392 83.2658 143.921 80.5122 149.818C74.7821 149.754 69.0622 150.317 63.4546 151.498C60.8705 152.109 58.3693 153.029 56.0052 154.238C55.8416 153.996 55.7503 153.713 55.742 153.421C55.7413 153.368 55.7213 153.317 55.6858 153.277C55.6502 153.237 55.6015 153.211 55.5485 153.204C55.4954 153.197 55.4417 153.209 55.397 153.239C55.3523 153.268 55.3198 153.313 55.3052 153.364C55.1938 153.76 55.2245 154.183 55.392 154.56C54.3596 155.029 53.2393 155.275 52.105 155.279C50.9708 155.284 49.8484 155.048 48.812 154.588C49.1465 153.786 49.2815 152.916 49.2054 152.051C51.2606 153.815 53.9654 154.631 55.9702 152.331C57.2812 150.516 57.8336 148.263 57.5102 146.048C57.4613 143.554 57.0186 141.085 56.1984 138.73C56.1775 138.695 56.1461 138.669 56.1089 138.653C56.0717 138.638 56.0306 138.635 55.9916 138.645C55.9525 138.654 55.9176 138.676 55.8919 138.707C55.8661 138.738 55.8509 138.776 55.8484 138.817C55.8708 140.357 57.8504 147.749 55.8484 150.997C55.6271 151.392 55.327 151.738 54.9668 152.013C54.6065 152.288 54.1937 152.487 53.7538 152.596C53.3139 152.705 52.8563 152.723 52.4092 152.649C51.962 152.574 51.535 152.409 51.1542 152.163C49.5513 151.005 48.2016 149.532 47.188 147.834C47.2594 147.774 47.3276 147.711 47.3924 147.644C47.4568 147.577 47.4951 147.489 47.5004 147.396C47.5057 147.303 47.4777 147.212 47.4214 147.138C47.3651 147.064 47.2843 147.013 47.1935 146.993C47.1027 146.974 47.0079 146.988 46.9262 147.032C46.6615 147.242 46.4172 147.476 46.1968 147.732C45.2644 148.198 44.4944 147.467 43.9372 146.741C43.0524 145.584 44.2172 143.918 45.3372 144.233C45.5542 144.293 45.7572 143.985 45.5696 143.838C45.3876 143.683 45.1741 143.569 44.9438 143.504C45.2647 143.09 45.4589 142.592 45.5028 142.07C45.5468 141.549 45.4387 141.025 45.1916 140.564C45.4543 140.225 45.6384 139.832 45.7306 139.413C45.7501 139.809 45.9188 140.182 46.2028 140.458C46.4868 140.734 46.8649 140.892 47.2608 140.9C48.749 140.852 48.588 139.15 48.0196 138.159C48.4177 137.702 48.689 137.15 48.8064 136.556C48.8358 136.57 48.8498 136.57 48.8792 136.585C48.763 137.692 49.3174 138.994 50.6586 138.742C52.0292 138.483 51.7366 137.153 51.2186 136.235C51.6404 135.894 51.9629 135.446 52.1524 134.937L52.3274 135.069C51.367 137.485 53.74 139.284 54.4848 137.561C54.4008 136.665 55.3542 135.024 53.726 134.076C53.3256 133.876 53.964 133.441 53.6532 132.08C53.5145 131.757 53.2957 131.476 53.0176 131.261C52.7396 131.047 52.4114 130.907 52.0642 130.855C52.2265 130.445 52.2303 129.99 52.075 129.577C51.9197 129.165 51.6164 128.825 51.2242 128.625C53.3578 125.374 50.1336 123.753 48.644 125.242C48.5572 125.33 48.5124 125.417 48.4256 125.504C48.2646 125.694 48.3388 125.682 48.1456 125.694C47.8656 125.713 47.5632 125.567 47.2566 125.592C46.6465 125.633 46.0763 125.91 45.6676 126.365C45.3612 126.696 45.1677 127.116 45.1151 127.564C45.0626 128.012 45.1536 128.465 45.375 128.858C45.1593 129.165 45.0423 129.531 45.0398 129.906C45.0373 130.281 45.1494 130.649 45.361 130.958C44.9295 131.164 44.5693 131.494 44.3264 131.906C44.3264 131.92 44.1514 132.197 44.1948 132.197C43.6746 132.348 43.2154 132.659 42.883 133.086C41.8876 134.317 42.631 135.081 42.2418 135.755C41.9721 136.107 41.7421 136.489 41.5558 136.892C40.3854 134.727 38.1524 135.093 37.6358 136.542C37.2695 136.444 36.8866 136.426 36.5127 136.488C36.1388 136.551 35.7825 136.692 35.4678 136.903C35.1531 137.115 34.8872 137.391 34.6879 137.713C34.4886 138.036 34.3605 138.397 34.3122 138.773C34.28 139.02 34.3556 139.253 34.0784 139.37C33.4296 139.341 32.7823 139.456 32.1828 139.706C31.5349 139.988 30.976 140.442 30.5658 141.017C30.1164 140.683 29.5966 140.455 29.0459 140.351C28.4952 140.248 27.9281 140.271 27.3878 140.42C27.121 139.795 26.6617 139.271 26.0768 138.925C25.4919 138.579 24.8119 138.429 24.1356 138.496C22.9988 137.548 21.3958 136.746 20.2156 137.767C19.7092 137.535 19.1428 137.468 18.5962 137.575C18.0496 137.682 17.5505 137.958 17.1692 138.364C16.8892 138.67 17.0292 138.7 16.6092 138.671C16.2464 138.623 15.8787 138.623 15.5158 138.671C15.1793 138.702 14.8567 138.82 14.5797 139.014C14.3027 139.208 14.081 139.47 13.9363 139.776C13.7916 140.081 13.729 140.419 13.7546 140.756C13.7802 141.093 13.8931 141.418 14.0823 141.698C14.2714 141.978 14.5302 142.204 14.8333 142.354C15.1363 142.503 15.4731 142.571 15.8105 142.551C16.1479 142.531 16.4742 142.424 16.7574 142.239C17.0406 142.055 17.2708 141.8 17.4254 141.499C18.0061 141.738 18.6559 141.747 19.2433 141.525C19.8307 141.303 20.3119 140.867 20.5894 140.303C20.9656 140.523 21.3861 140.655 21.82 140.69C22.2539 140.725 22.6902 140.663 23.0968 140.508C23.339 141.14 23.8138 141.655 24.4238 141.947C25.0338 142.24 25.7328 142.288 26.377 142.081C26.5279 142.445 26.755 142.771 27.043 143.039C27.331 143.307 27.6731 143.51 28.0462 143.635C28.4194 143.759 28.8149 143.802 29.2061 143.761C29.5973 143.719 29.9751 143.595 30.3138 143.395C31.452 144.943 34.287 144.515 34.8624 141.222C36.3044 141.295 37.2816 139.881 37.7478 138.496C38.1686 138.68 38.6281 138.757 39.0859 138.722C39.5436 138.686 39.9856 138.538 40.3728 138.292C40.6635 138.615 41.0443 138.844 41.4662 138.948C41.5002 139.119 41.5537 139.285 41.6258 139.444C40.1936 138.727 38.2896 139.577 37.9676 141.995C37.1982 142.194 36.515 142.639 36.0226 143.263C35.5301 143.887 35.2554 144.655 35.2404 145.45C34.6494 145.566 34.0996 145.836 33.6465 146.233C33.1934 146.629 32.8532 147.139 32.6602 147.709C31.9734 147.357 31.1841 147.259 30.4319 147.432C29.6797 147.606 29.0131 148.04 28.5498 148.657C27.8622 148.045 27.0204 147.631 26.1152 147.462C25.8222 147.438 25.5277 147.483 25.2546 147.591C24.9814 147.7 24.737 147.87 24.5402 148.089C24.2014 147.809 23.809 147.6 23.387 147.477C22.9649 147.353 22.5221 147.317 22.0856 147.37C21.6491 147.423 21.228 147.565 20.848 147.786C20.468 148.007 20.1371 148.304 19.8754 148.657C19.4439 148.46 18.9583 148.414 18.4976 148.528C18.0369 148.642 17.6284 148.909 17.3386 149.284C17.0908 149.648 17.046 149.984 16.6092 150.187C16.1234 150.417 15.0272 150.285 14.3062 151.149C12.9888 152.727 15.6656 154.81 17.2658 152.433C17.8474 152.678 18.5011 152.689 19.0904 152.463C19.6797 152.237 20.1591 151.793 20.4284 151.222C22.4668 152.223 24.1034 151.657 24.8608 150.479C25.3847 150.709 25.955 150.815 26.5268 150.787C27.0985 150.759 27.6559 150.599 28.155 150.319C28.4714 150.556 28.8323 150.727 29.2162 150.822C29.6001 150.917 29.9991 150.934 30.3896 150.871C30.78 150.809 31.1539 150.668 31.4889 150.458C31.824 150.248 32.1133 149.973 32.3396 149.648C34.1176 151.033 36.8196 148.919 37.0772 146.762C37.4884 146.492 37.8376 146.138 38.1017 145.724C38.3657 145.309 38.5386 144.843 38.6088 144.356C39.9094 144.578 41.4018 143.726 41.7434 141.513H41.9618C41.9414 141.925 41.9805 142.337 42.078 142.738C42.2264 143.516 42.1788 144.436 42.9964 144.618C42.7626 145.043 42.6376 145.519 42.6324 146.004C42.5954 145.987 42.5555 145.977 42.5148 145.975C41.7374 145.964 40.9862 146.256 40.4204 146.789C39.8546 147.323 39.5187 148.055 39.4838 148.832C38.7346 148.96 38.064 149.373 37.6127 149.985C37.1614 150.596 36.9645 151.359 37.0632 152.112C36.4981 152.403 36.0198 152.838 35.6768 153.373C35.3338 153.908 35.1384 154.524 35.1102 155.159C34.4845 155.215 33.8917 155.464 33.4137 155.871C32.9356 156.279 32.596 156.825 32.4418 157.434C31.9513 157.31 31.4358 157.326 30.9539 157.48C30.4721 157.635 30.0432 157.921 29.716 158.307C29.156 158.036 28.5229 157.955 27.9126 158.076C27.3023 158.197 26.748 158.514 26.3336 158.978C25.2248 158.818 24.1734 158.289 23.0534 158.76C22.7805 158.862 22.5327 159.022 22.3265 159.228C22.1203 159.434 21.9605 159.682 21.8578 159.955C21.5447 159.955 21.2349 160.018 20.9464 160.14C20.6579 160.262 20.3966 160.44 20.1779 160.664C19.9592 160.888 19.7875 161.153 19.6728 161.445C19.5581 161.736 19.5028 162.047 19.51 162.36C18.8259 162.546 18.2334 162.976 17.8447 163.569C17.4559 164.161 17.2978 164.876 17.4002 165.578C16.8024 165.869 16.192 166.164 15.5928 166.453C15.4814 166.522 15.3923 166.623 15.3361 166.742C15.28 166.861 15.2591 166.993 15.2761 167.124C15.293 167.254 15.3471 167.377 15.4317 167.478C15.5164 167.578 15.6282 167.653 15.7538 167.692C16.6246 167.972 17.5052 168.252 18.3774 168.532C18.5475 168.578 18.7288 168.554 18.8817 168.467C19.0347 168.38 19.1468 168.235 19.1936 168.065C19.2635 167.612 19.2781 167.152 19.237 166.695C19.6748 166.384 20.0317 165.973 20.2779 165.496C20.5242 165.019 20.6526 164.49 20.6524 163.954C21.1536 163.985 21.6487 163.83 22.0419 163.518C22.435 163.205 22.6982 162.758 22.7804 162.262C23.3164 162.285 23.8496 162.173 24.331 161.936C24.8124 161.7 25.2266 161.346 25.5356 160.907C25.8518 161.047 26.1798 161.159 26.5156 161.242C27.076 161.339 27.6508 161.312 28.1997 161.163C28.7487 161.015 29.2585 160.748 29.6936 160.382C30.0422 160.591 30.4291 160.727 30.8314 160.782C31.2337 160.838 31.6431 160.812 32.0351 160.706C32.4271 160.6 32.7938 160.416 33.1131 160.165C33.4324 159.914 33.6979 159.601 33.8936 159.245C34.601 159.124 35.2536 158.787 35.7622 158.28C36.2709 157.774 36.6108 157.123 36.7356 156.416C37.4394 156.298 38.0695 155.911 38.4916 155.335C38.9137 154.76 39.0944 154.043 38.9952 153.336C39.6017 153.016 40.1086 152.535 40.4608 151.947C40.8131 151.358 40.9972 150.684 40.993 149.998C41.6157 149.983 42.2107 149.738 42.6631 149.31C43.1156 148.881 43.3934 148.301 43.443 147.68C43.6197 147.889 43.8198 148.077 44.0394 148.24C43.9038 148.262 43.7775 148.323 43.6764 148.416C43.5754 148.509 43.5039 148.63 43.471 148.764C43.2462 149.179 43.1308 149.644 43.136 150.116C43.1411 150.588 43.2666 151.051 43.5004 151.461C42.9822 151.839 42.5812 152.356 42.3439 152.951C42.1066 153.547 42.0426 154.198 42.1592 154.828C41.328 155.224 40.6583 155.893 40.2628 156.725C39.8673 157.556 39.7702 158.498 39.9878 159.392C39.2844 159.665 38.687 160.156 38.2838 160.794C37.8805 161.432 37.6926 162.182 37.7478 162.934C37.7926 163.416 38.0544 163.737 37.6316 164.054C37.2088 164.372 36.9162 164.491 36.6684 165.002C36.4103 165.675 36.335 166.405 36.45 167.116C36.4668 167.48 36.5396 167.615 36.261 167.801C35.862 167.985 35.4727 168.19 35.0948 168.414C34.3753 168.976 33.8915 169.787 33.7382 170.688C33.6374 171.315 33.8698 171.651 33.2426 171.956C32.369 172.376 31.5024 172.697 31.0852 173.661C30.962 173.936 30.8982 174.235 30.8982 174.536C30.8982 174.838 30.962 175.136 31.0852 175.411C30.5534 175.867 30.1705 176.472 29.9861 177.147C29.8016 177.823 29.8241 178.538 30.0506 179.201C30.094 179.319 30.1906 179.481 30.1808 179.596C30.1668 179.844 30.0632 179.825 29.8462 179.974C27.8582 181.343 28.7696 184.371 30.5028 183.663C30.9928 183.4 31.3707 182.969 31.5665 182.449C31.7622 181.929 31.7623 181.355 31.5668 180.835C33.1068 179.995 33.0242 177.977 32.5874 176.355C33.3166 176.021 33.9325 175.482 34.3597 174.804C34.787 174.126 35.0069 173.337 34.9926 172.536C35.6809 172.453 36.313 172.115 36.7639 171.588C37.2147 171.062 37.4515 170.385 37.4272 169.692C37.804 169.645 38.1656 169.514 38.4856 169.31C38.8057 169.105 39.0764 168.832 39.278 168.511C39.8131 167.541 39.9444 166.399 39.6434 165.333C40.8558 165.018 42.106 162.986 41.553 160.741C42.27 160.215 42.8268 159.5 43.1615 158.677C43.4962 157.853 43.5956 156.953 43.4486 156.076C43.974 155.763 44.3894 155.295 44.6374 154.736C44.8854 154.177 44.9538 153.555 44.8332 152.955C46.2766 152.373 46.4656 150.536 46.306 149.035C46.2951 148.945 46.27 148.856 46.2318 148.773C46.3843 148.728 46.5268 148.653 46.6518 148.555C47.118 149.578 47.7542 150.514 48.5334 151.324C48.5601 152.304 48.3965 153.28 48.0518 154.197C47.7172 154.057 47.3812 153.876 47.0466 153.701C46.5445 153.557 46.0281 153.469 45.5066 153.438C45.522 154.001 45.4029 154.559 45.1595 155.066C44.916 155.573 44.5551 156.015 44.1066 156.354C44.1864 157.221 44.0574 158.094 43.7302 158.901C43.4031 159.707 42.8874 160.424 42.2264 160.99C42.399 161.877 42.3104 162.796 41.9715 163.635C41.6326 164.473 41.0578 165.195 40.3168 165.713C40.5358 166.78 40.3518 167.89 39.8002 168.828C39.3784 169.478 38.7448 169.963 38.0068 170.199C37.9209 170.864 37.6417 171.489 37.204 171.997C36.7663 172.505 36.1892 172.873 35.5442 173.056C35.4737 173.791 35.2326 174.499 34.8401 175.125C34.4476 175.75 33.9144 176.274 33.2832 176.657C33.5972 177.566 33.6178 178.55 33.342 179.471C35.1914 179.075 36.94 178.305 38.4797 177.206C40.0194 176.108 41.3174 174.706 42.2936 173.086C43.0004 171.674 43.6139 170.218 44.1304 168.726C44.2634 168.26 44.2704 167.836 44.6694 167.517C44.704 167.484 44.7454 167.459 44.7906 167.444C44.8358 167.429 44.8837 167.424 44.931 167.43C44.9783 167.436 45.0238 167.451 45.0642 167.477C45.1047 167.502 45.1391 167.535 45.165 167.575C45.613 168.429 44.8276 169.906 44.4804 170.724C44.1197 171.72 43.5755 172.64 42.876 173.436C43.464 174.904 44.5182 179.389 45.0782 181.416C45.1176 181.55 45.2085 181.664 45.3311 181.732C45.4538 181.8 45.5983 181.817 45.7334 181.78C46.0666 181.64 46.39 181.518 46.726 181.4C46.7834 182.116 46.9038 182.814 46.929 183.53C46.8873 184.042 46.8873 184.557 46.929 185.07C46.74 185.171 46.565 185.288 46.39 185.404C46.1002 185.596 46.2738 186.12 46.6378 186.002C52.179 184.205 55.5152 182.994 61.566 183.407C64.387 183.6 66.2868 184.286 66.6396 183.815C67.5254 185.43 68.0058 187.236 68.0396 189.078C68.0571 189.143 68.0885 189.204 68.1316 189.256C68.1748 189.308 68.2287 189.35 68.2896 189.379C68.3506 189.408 68.4171 189.424 68.4846 189.425C68.5522 189.426 68.6191 189.412 68.6808 189.385C68.1488 190.715 87.2084 211.554 90.0378 237.115C91.603 251.248 83.5978 256.302 75.7578 253.734C72.3754 252.627 69.8106 250.265 66.8216 248.472C66.8076 248.472 66.8076 248.472 66.7922 248.456C68.3911 243.592 69.0598 238.471 68.7634 233.36C68.544 223.797 66.5931 214.353 63.0052 205.486C62.6986 204.729 61.4484 205.066 61.7662 205.836C64.8288 213.319 66.6936 221.237 67.292 229.3C67.852 236.765 67.887 245.26 63.7192 251.811C59.7992 257.971 53.3942 260.457 45.9042 257.846C39.1842 255.501 34.2212 249.866 30.7576 243.846C26.5086 236.474 24.4156 228.226 21.1508 220.432C21.1422 220.403 21.1278 220.375 21.1084 220.351C21.0891 220.327 21.0652 220.307 21.0381 220.292C21.011 220.277 20.9812 220.268 20.9505 220.264C20.9197 220.261 20.8886 220.263 20.8589 220.272C20.8292 220.281 20.8015 220.295 20.7774 220.315C20.7533 220.334 20.7332 220.358 20.7183 220.385C20.7034 220.412 20.6941 220.442 20.6907 220.472C20.6873 220.503 20.69 220.534 20.6986 220.564C24.4002 234.437 30.5938 252.308 43.6894 258.235C53.642 262.74 62.3514 258.778 66.417 249.4C70.652 253.439 77.4532 257.037 83.1246 255.159C88.6168 253.339 91.1774 247.49 91.463 242.096C91.5459 238.884 91.2474 235.674 90.574 232.533C87.9224 218.38 80.7838 205.08 72.4202 193.349C72.1906 193.027 69.4606 189.116 68.9202 189.224C68.9476 189.186 68.9628 189.14 68.9636 189.093C69.0568 188.078 68.9377 187.055 68.614 186.089C68.2904 185.122 67.7691 184.234 67.0834 183.479C67.0593 183.45 67.0286 183.426 66.9938 183.411C66.959 183.395 66.921 183.387 66.8829 183.389C66.8448 183.39 66.8075 183.401 66.774 183.419C66.7405 183.438 66.7118 183.463 66.69 183.495C66.6172 183.278 66.4968 183.234 66.1496 183.043C66.505 182.468 66.6985 181.808 66.7096 181.133C66.8712 180.3 66.8665 179.444 66.6956 178.613C66.9632 178.613 67.2305 178.628 67.4964 178.658C67.635 178.656 67.7673 178.6 67.8653 178.502C67.9633 178.404 68.0193 178.271 68.0214 178.133C68.0368 175.275 69.966 172.841 70.0332 169.997C70.0962 167.403 68.1236 165.61 67.3508 163.305C66.4193 162.378 65.7287 161.237 65.339 159.982C65.2662 159.749 65.6274 159.59 65.7324 159.807C66.283 160.896 67.0296 161.875 67.9346 162.694C69.1919 162.519 70.4343 162.251 71.6516 161.891C73.403 161.462 75.1516 160.99 76.8862 160.491C80.0485 159.786 83.0629 158.533 85.793 156.788C91.0136 152.985 92.975 146.848 94.8608 140.968C95.9074 138.013 96.6783 134.966 97.1638 131.868C97.168 131.749 97.1327 131.632 97.0633 131.535C96.9939 131.438 96.8944 131.367 96.7802 131.332ZM45.725 132.703C45.9588 132.659 46.166 132.998 45.9588 133.155C45.0222 133.869 45.34 134.695 45.9588 135.501C46.002 135.551 46.0282 135.614 46.0335 135.679C46.0388 135.745 46.0229 135.811 45.9882 135.867C45.7904 136.186 45.6993 136.56 45.7279 136.935C45.7566 137.31 45.9037 137.666 46.1478 137.951C45.6102 138.968 46.0176 139.041 45.711 137.936C45.4247 137.635 45.2541 137.243 45.2294 136.829C45.2435 136.531 45.2729 136.234 45.3176 135.94C45.3006 135.699 45.2085 135.469 45.0544 135.283C44.5602 134.451 44.535 132.924 45.7292 132.7L45.725 132.703ZM43.205 139.351C42.8579 139.05 42.6291 138.636 42.5596 138.181C42.4901 137.727 42.5844 137.263 42.8256 136.872C42.911 136.754 43.1742 136.77 43.1462 136.96C43.0492 137.331 43.0578 137.721 43.1711 138.086C43.2845 138.452 43.498 138.779 43.7874 139.029C43.8282 139.055 43.8627 139.089 43.8885 139.129C43.9142 139.17 43.9305 139.215 43.9362 139.263C43.9418 139.311 43.9367 139.359 43.9211 139.404C43.9055 139.45 43.8799 139.491 43.8462 139.525C43.6377 139.768 43.4907 140.058 43.4176 140.37C43.3445 140.683 43.3475 141.008 43.4262 141.318C43.5742 141.693 43.7449 142.058 43.9372 142.412C44.0072 142.588 43.7972 142.692 43.6446 142.632C42.3818 142.1 42.6002 140.357 43.2078 139.351H43.205ZM65.962 178.655C65.8024 179.456 65.822 180.273 65.682 181.074C65.4875 181.643 65.3748 182.237 65.3474 182.838C59.4701 181.664 53.3758 182.273 47.8474 184.588C47.8234 183.447 47.6067 182.318 47.2062 181.249C52.1957 179.679 57.3897 178.854 62.6202 178.801C63.7402 178.76 64.8602 178.655 65.9648 178.655H65.962Z" fill="#113362"/>
<path d="M54.9718 137.265C55.1118 137.405 55.1664 137.608 55.5318 137.545C55.7222 137.852 56.2836 138.068 56.4208 137.72C56.8408 136.677 57.4274 135.024 55.7068 134.397C55.7926 133.944 55.7054 133.476 55.4625 133.084C55.2196 132.693 54.8386 132.407 54.395 132.283C54.423 132.743 54.3838 133.205 54.2788 133.653C55.585 134.569 55.3512 135.92 54.9718 137.265Z" fill="#113362"/>
</svg>
