<svg width="40" height="40" viewBox="0 0 40 40" fill="none" xmlns="http://www.w3.org/2000/svg">
<rect width="40" height="40" rx="4" fill="#EFEFF0"/>
<path d="M13.6787 13.3337C13.6787 15.1018 14.3811 16.7975 15.6313 18.0477C16.8816 19.2979 18.5773 20.0003 20.3454 20.0003C22.1135 20.0003 23.8092 19.2979 25.0594 18.0477C26.3097 16.7975 27.012 15.1018 27.012 13.3337C27.012 11.5655 26.3097 9.86986 25.0594 8.61961C23.8092 7.36937 22.1135 6.66699 20.3454 6.66699C18.5773 6.66699 16.8816 7.36937 15.6313 8.61961C14.3811 9.86986 13.6787 11.5655 13.6787 13.3337Z" fill="#9D9FA2"/>
<path d="M32.3039 32.0634C31.4294 29.5907 29.81 27.4498 27.6684 25.9356C25.5269 24.4215 22.9686 23.6084 20.3458 23.6084C17.723 23.6084 15.1647 24.4215 13.0232 25.9356C10.8816 27.4498 9.26214 29.5907 8.3877 32.0634C8.33681 32.207 8.32112 32.3607 8.34195 32.5117C8.36278 32.6626 8.41953 32.8064 8.50742 32.9308C8.59531 33.0553 8.71179 33.1569 8.84707 33.227C8.98234 33.2971 9.13247 33.3338 9.28484 33.3339H31.4067C31.5591 33.3338 31.7092 33.2971 31.8445 33.227C31.9798 33.1569 32.0963 33.0553 32.1842 32.9308C32.2721 32.8064 32.3288 32.6626 32.3496 32.5117C32.3705 32.3607 32.3548 32.207 32.3039 32.0634Z" fill="#9D9FA2"/>
</svg>
