<svg width="280" height="280" viewBox="0 0 280 280" fill="none" xmlns="http://www.w3.org/2000/svg">
<path d="M122.905 168.546C119.634 164.185 119.35 158.648 119.619 152.977C119.747 149.968 120.102 146.972 120.68 144.017C118.375 142.971 116.369 141.365 114.845 139.345C110.6 133.627 111.413 124.902 115.744 119.294C120.378 113.292 129.07 112.294 135.981 117.845C138.305 119.99 140.293 122.473 141.877 125.21C143.685 127.838 143.353 128.57 146.997 129.55C149.211 129.946 151.197 131.153 152.566 132.937C153.591 134.473 154.151 136.271 154.179 138.117C154.335 141.561 152.855 144.48 152.709 147.196C157.269 151.47 154.389 159.796 148.649 161.336C147.934 164.771 147.877 168.311 148.481 171.767C148.495 171.842 148.529 171.912 148.581 171.967C148.633 172.023 148.699 172.063 148.773 172.082C148.846 172.102 148.924 172.099 148.996 172.076C149.069 172.053 149.133 172.009 149.181 171.951C149.633 171.373 150.276 170.671 150.765 170.15C153.727 166.828 157.328 164.136 161.353 162.235C171.266 157.826 182.655 160.486 187.936 170.293C190.792 175.596 191.318 181.532 191.547 186.673C191.656 189.141 191.73 191.631 191.73 194.093C197.098 184.86 199.115 180.888 201.93 181.343C205.485 173.79 205.562 166.943 217.374 159.289C217.215 152.378 215.769 145.556 213.111 139.174C211.222 139.997 209.262 140.645 207.256 141.112C195.005 144.354 182.476 147.318 169.84 146.478C167.983 146.355 167.679 145.691 167.698 144.315C167.798 136.571 167.59 123.347 165.878 115.815C164.594 110.151 160.664 101.395 158.024 96.229C145.106 93.8266 127.705 94.556 111.544 99.2488C111.129 101.861 110.911 104.5 110.891 107.145C110.341 118.917 106.11 130.22 98.7938 139.46C97.9398 140.511 97.5604 140.587 96.509 140.357C86.2871 137.996 76.2395 134.935 66.437 131.197C70.476 144.253 69.3994 159.121 75.271 171.612C77.1013 175.244 79.1874 178.741 81.5136 182.077C78.6106 183.736 75.5978 185.195 72.4962 186.444C73.4414 187.242 74.3342 188.101 75.1688 189.014C79.3415 193.362 83.1792 198.02 86.6488 202.948C87.6288 195.766 90.657 184.188 94.402 177.262C98.2184 170.204 103.922 166.328 112.211 166.328C115.766 166.258 119.271 167.175 122.336 168.976C122.697 169.196 123.138 168.858 122.905 168.546Z" fill="#FC4040"/>
<path d="M51.4388 192.003C45.8164 194.872 39.9742 198.118 34.6486 201.551C33.4358 202.228 32.2823 203.006 31.2004 203.876C28.081 199.46 25.7291 194.55 24.2438 189.351C23.6104 189.488 22.9701 189.59 22.3258 189.658C22.3874 189.841 22.428 190.046 22.5106 190.249C24.0087 195.427 26.367 200.317 29.4868 204.714C29.5743 204.833 29.6874 204.932 29.818 205.003C29.9485 205.073 30.0932 205.114 30.2414 205.121C30.2475 205.183 30.2666 205.242 30.2974 205.296C30.3282 205.35 30.37 205.397 30.42 205.433C30.4701 205.47 30.5273 205.496 30.588 205.509C30.6486 205.522 30.7113 205.522 30.772 205.509C32.348 205.01 33.8302 204.253 35.1582 203.269C39.8748 200.469 47.4404 196.104 52.2382 193.742C51.9484 193.166 51.6838 192.595 51.4388 192.003Z" fill="#113362"/>
<path d="M13.9818 146.16C15.7848 152.423 17.0748 158.823 17.8388 165.295C18.4702 165.276 19.0988 165.255 19.7358 165.255C18.4842 156.143 16.9512 146.668 12.9416 138.407C11.955 135.967 10.2287 133.898 8.00519 132.49C7.98419 132.49 7.98419 132.471 7.96459 132.471C15.7556 129.213 26.0344 123.371 47.2766 116.252C51.2848 114.908 51.2876 114.659 52.5812 116.028C57.6261 121.485 61.4083 127.985 63.6594 135.068C68.5916 150.35 65.8896 165.374 75.7162 181.481C73.538 182.154 71.3992 182.948 69.3098 183.861C69.3504 183.922 69.3714 183.984 69.412 184.044C69.8418 183.99 70.2783 184.042 70.6835 184.195C71.0888 184.348 71.4506 184.597 71.7374 184.922C74.9574 183.602 75.8786 183.494 76.6542 182.718C77.3682 183.044 78.3874 182.27 77.8582 181.433C63.9044 159.331 74.3708 138.438 54.9682 115.945C53.7684 114.555 52.5392 113.039 50.5008 113.355C47.9808 113.746 19.0932 124.127 7.25059 131.614C7.17041 131.672 7.10584 131.749 7.06263 131.838C7.01942 131.927 6.99892 132.026 7.00294 132.125C7.00695 132.224 7.03538 132.32 7.08567 132.405C7.13596 132.491 7.20656 132.562 7.29119 132.614C7.22555 132.666 7.17215 132.731 7.13479 132.806C7.09742 132.881 7.07702 132.963 7.07501 133.047C7.07301 133.131 7.08945 133.214 7.12319 133.29C7.15692 133.367 7.20711 133.435 7.27019 133.49C10.92 136.734 12.5608 141.631 13.9818 146.16Z" fill="#113362"/>
<path d="M99.8703 210.63C99.9529 210.63 99.9529 210.528 99.8703 210.528C99.7891 210.507 99.7891 210.63 99.8703 210.63Z" fill="#113362"/>
<path d="M97.0354 89.8352C96.4484 89.3618 95.743 89.0582 94.9956 88.9574C93.7888 88.6858 90.0172 87.9256 87.9368 87.57C84.8175 86.8867 81.642 86.4907 78.4504 86.387C78.3269 86.3906 78.2086 86.4379 78.1166 86.5204C78.0247 86.603 77.965 86.7156 77.9482 86.838C77.9314 86.9605 77.9586 87.0849 78.0249 87.1892C78.0912 87.2935 78.1924 87.3709 78.3104 87.4076C81.3356 88.3502 84.4232 89.0795 87.5504 89.5902C87.8052 89.6406 94.2228 90.8978 94.4664 90.937C95.2108 91.1539 95.9996 91.1679 96.7512 90.9776C96.8589 90.9359 96.9549 90.869 97.0313 90.7824C97.1076 90.6959 97.162 90.5922 97.1899 90.4802C97.2178 90.3682 97.2183 90.2511 97.1914 90.1388C97.1645 90.0266 97.111 89.9224 97.0354 89.8352Z" fill="#113362"/>
<path d="M95.9126 99.505C94.7478 98.6398 93.3016 99.0654 81.9994 96.9542C80.4861 96.537 78.917 96.3584 77.3486 96.425C76.8796 96.5062 76.8992 97.1586 77.2254 97.3826C78.9922 98.5796 88.9098 100.11 90.9972 100.443C92.4252 100.647 94.3572 101.24 95.7502 100.688C95.8683 100.649 95.973 100.578 96.0526 100.482C96.1321 100.386 96.1832 100.27 96.2001 100.147C96.217 100.024 96.1991 99.8984 96.1482 99.7849C96.0974 99.6714 96.0158 99.5744 95.9126 99.505Z" fill="#113362"/>
<path d="M94.5266 110.583C93.9485 110.14 93.2673 109.851 92.547 109.743C91.2212 109.396 81.536 107.765 79.8784 107.52C78.1798 107.133 76.4402 106.955 74.6984 106.989C74.2084 107.041 73.8822 107.724 74.3932 107.948C75.9467 108.545 77.5614 108.967 79.2078 109.208C80.7408 109.523 90.5394 111.339 91.8358 111.493C92.6492 111.684 93.4973 111.671 94.304 111.453C94.3876 111.423 94.4626 111.373 94.5224 111.308C94.5823 111.242 94.6251 111.163 94.6471 111.077C94.6691 110.991 94.6696 110.901 94.6486 110.815C94.6276 110.729 94.5857 110.649 94.5266 110.583Z" fill="#113362"/>
<path d="M54.3564 136.78C53.394 136.615 52.404 136.773 51.541 137.229C36.6296 142.493 33.4698 143.161 31.1402 145.145C30.7314 145.512 31.1808 146.328 31.7114 146.104C36.302 144.232 44.6446 141.847 52.2144 139.066C53.0908 138.76 54.2136 138.495 54.7022 137.658C54.7469 137.579 54.7734 137.491 54.7797 137.401C54.7861 137.311 54.7722 137.22 54.7391 137.136C54.7059 137.052 54.6543 136.976 54.5881 136.915C54.5219 136.853 54.4427 136.807 54.3564 136.78Z" fill="#113362"/>
<path d="M54.6616 147.508C52.969 147.325 51.1938 148.243 49.602 148.733C39.081 152.036 36.841 151.416 35.8526 153.71C35.6692 154.181 36.26 154.486 36.6072 154.302C37.892 153.754 39.2434 153.378 40.6266 153.182C42.735 152.751 46.564 151.782 50.5666 150.511C52.2075 150.209 53.749 149.508 55.055 148.47C55.1312 148.391 55.1827 148.291 55.2033 148.183C55.2239 148.075 55.2127 147.963 55.171 147.861C55.1294 147.759 55.0591 147.672 54.9686 147.609C54.8782 147.546 54.7715 147.511 54.6616 147.508Z" fill="#113362"/>
<path d="M252.7 94.8542C252.257 94.3346 251.626 94.0115 250.946 93.9554C247.164 93.0451 243.491 91.7309 239.989 90.0354C238.806 89.5062 237.399 88.4856 236.053 88.7502C235.705 88.8118 235.617 89.3284 235.869 89.5902C236.949 90.5099 238.168 91.2536 239.48 91.7938C242.919 93.5368 246.547 94.8784 250.292 95.7922C250.632 95.9418 251 96.0206 251.371 96.024C251.743 96.0274 252.112 95.9552 252.455 95.8118C252.614 95.7171 252.729 95.5631 252.775 95.3836C252.821 95.2041 252.794 95.0137 252.7 94.8542Z" fill="#113362"/>
<path d="M247.208 101.973C246.453 101.014 244.828 100.954 243.699 100.79C236.183 99.575 233.479 97.3504 232.091 97.5702C232.02 97.58 231.952 97.6073 231.895 97.6497C231.837 97.6922 231.791 97.7484 231.76 97.8132C231.73 97.878 231.716 97.9494 231.72 98.0209C231.724 98.0924 231.746 98.1617 231.784 98.2226C232.141 98.7406 232.646 99.1388 233.233 99.365C236.266 100.941 239.53 102.028 242.903 102.585C244.205 102.972 245.565 103.131 246.922 103.055C247.031 103.025 247.13 102.966 247.209 102.886C247.288 102.805 247.345 102.705 247.374 102.596C247.403 102.487 247.403 102.372 247.374 102.262C247.344 102.153 247.287 102.054 247.208 101.973Z" fill="#113362"/>
<path d="M243.148 107.156C241.447 106.036 239.814 107.016 231.479 104.238C230.24 103.695 228.948 103.284 227.623 103.013C227.195 102.964 226.705 103.524 227.133 103.912C229.384 105.893 235.662 107.545 238.843 108.112C240.192 108.535 241.631 108.584 243.005 108.252C243.115 108.216 243.213 108.15 243.287 108.061C243.361 107.972 243.408 107.864 243.423 107.749C243.438 107.634 243.42 107.518 243.371 107.413C243.323 107.308 243.245 107.219 243.148 107.156Z" fill="#113362"/>
<path d="M218.585 132.555C218.504 131.324 214.451 110.307 214.096 108.543C211.48 95.48 209.756 87.6442 203.141 77.819C202.402 76.72 201.533 75.7512 200.754 74.697C200.71 74.6366 200.651 74.5882 200.584 74.5562C200.516 74.5242 200.441 74.5095 200.367 74.5136C200.308 74.4901 200.246 74.4764 200.183 74.473C197.028 74.3524 193.869 74.5645 190.758 75.1058C182.141 76.1614 172.838 78.0626 164.998 81.9392C162.273 83.1965 159.722 84.8012 157.409 86.7132C157.283 86.6694 157.147 86.6647 157.018 86.6998C156.89 86.7349 156.775 86.8082 156.689 86.9099C156.603 87.0116 156.55 87.137 156.536 87.2696C156.523 87.4022 156.55 87.5357 156.614 87.6526C158.327 91.0798 160.073 94.5126 161.591 98.0364C166.966 110.518 169.673 123.985 169.54 137.574C169.371 139.748 169.406 141.934 169.642 144.102C169.751 144.753 170.642 144.633 170.845 144.122C171.42 144.292 172.006 144.422 172.599 144.509C178.3 144.955 184.035 144.591 189.634 143.429C197.76 141.674 205.693 139.125 213.321 135.82C215.062 135.185 216.748 134.407 218.361 133.493C218.503 133.388 218.604 133.237 218.645 133.065C218.686 132.893 218.664 132.712 218.585 132.555ZM173.193 142.979C172.493 142.954 171.805 143.041 171.132 143.081C171.416 141.541 171.546 139.976 171.52 138.41C171.827 124.751 169.226 111.184 163.89 98.6076C162.338 94.7931 160.433 91.132 158.2 87.6722C160.44 86.4486 162.627 85.1606 164.933 84.0616C180.306 76.7312 195.7 77.1386 200.267 75.9822C200.665 76.8278 201.108 77.6517 201.593 78.4504C205.316 83.8013 207.968 89.8217 209.405 96.18C212.736 108.702 215.718 128.4 217.095 132.35C212.169 133.734 193.392 143.725 173.193 142.979Z" fill="#113362"/>
<path d="M211.322 23.5102C211.308 23.4432 211.282 23.3794 211.244 23.3226C211.206 23.2658 211.157 23.2171 211.1 23.1792C211.044 23.1413 210.98 23.1151 210.913 23.102C210.846 23.0889 210.777 23.0891 210.71 23.1028C210.647 22.9749 210.552 22.8659 210.434 22.7869C210.316 22.7079 210.178 22.6619 210.036 22.6534C208.828 22.589 207.589 22.9922 204.12 23.94C199.979 25.0712 197.84 25.711 192.431 27.3252C190.803 27.6741 189.227 28.2302 187.74 28.98C186.361 28.5446 186.808 30.562 186.374 33.8352C186.308 34.3238 186.21 34.8152 186.129 35.3038C186.084 35.2086 186.018 35.1246 185.937 35.0575C185.856 34.9905 185.761 34.9422 185.66 34.916C181.16 33.6308 177.832 33.9934 172.316 28.8162C166.631 23.4808 163.793 18.8888 162.708 17.9424C162.677 17.8381 162.625 17.7416 162.554 17.659C162.484 17.5765 162.396 17.51 162.298 17.4638C162.2 17.4176 162.093 17.3928 161.984 17.3911C161.875 17.3894 161.768 17.4107 161.668 17.4538C160.921 17.7019 160.219 18.0667 159.586 18.5346C139.187 32.6914 129.535 35.098 128.841 36.4854C128.453 36.4448 128.026 36.8116 128.167 37.2204C129.032 39.4949 130.126 41.6757 131.432 43.729C140.995 59.8766 155.644 66.1458 173.376 63.7826C179.626 63.1172 185.638 61.0156 190.942 57.6422C199.892 51.5634 212.691 33.663 211.322 23.5102ZM201.347 44.0552C199.335 46.9325 197.068 49.6225 194.573 52.0926C183.142 63.2072 163.317 64.9726 150.181 58.8658C140.466 54.3536 136.563 48.5156 131.104 39.5458C130.658 38.8108 130.207 38.1458 129.718 37.4654C136.195 35.6314 156.555 23.3086 161.972 19.2472C164.738 23.3233 167.917 27.1037 171.458 30.5284C175.257 34.1326 180.227 36.2474 185.458 36.4854C185.611 36.4947 185.762 36.4517 185.886 36.3636C182.781 47.8954 171.357 57.8172 162.646 58.7846C160.79 58.8174 158.938 58.9534 157.097 59.192C156.817 59.2564 156.71 59.7436 156.996 59.8654C158.614 60.4253 160.329 60.6473 162.036 60.5178C167.289 60.424 171.336 58.0076 175.542 54.7036C180.573 50.7591 184.478 45.5599 186.864 39.6284C188.201 36.6564 188.709 33.3779 188.334 30.1406C190.294 30.1154 191.423 29.5036 204.491 25.8776C206.365 25.4767 208.211 24.9586 210.02 24.3264C208.75 31.5021 205.775 38.268 201.347 44.0552Z" fill="#113362"/>
<path d="M93.3226 36.7304C92.4095 36.062 91.3356 35.6476 90.2103 35.5293C89.0849 35.411 87.9483 35.5931 86.9162 36.057C85.8931 36.45 85.0559 37.2146 84.5718 38.198C84.0878 39.1813 83.9926 40.3111 84.3052 41.3616C84.3421 41.4878 84.4229 41.5966 84.5329 41.6685C84.643 41.7404 84.7751 41.7706 84.9055 41.7537C85.0358 41.7368 85.1559 41.6739 85.244 41.5764C85.3321 41.4788 85.3824 41.353 85.386 41.2216C85.456 40.344 85.8141 39.5142 86.4046 38.8612C86.995 38.2083 87.7847 37.7687 88.6508 37.611C89.7756 37.4144 90.9333 37.6472 91.8946 38.2634C93.5074 39.4436 92.6996 41.4722 91.833 43.099C90.9524 44.7524 90.2748 46.2252 91.4858 47.7708C91.7784 48.1432 92.3118 48.5086 92.6058 48.9132C93.4934 50.127 94.7394 49.5782 94.7268 48.6472C94.7067 48.3325 94.6109 48.0272 94.4476 47.7574C94.2843 47.4876 94.0583 47.2612 93.7888 47.0974C92.4896 46.011 92.8494 45.8584 93.6656 44.1574C94.9438 41.5058 95.774 38.668 93.3226 36.7304Z" fill="#FC4040"/>
<path d="M97.2999 52.297C96.7468 52.4359 96.2619 52.7687 95.9335 53.235C95.8794 53.3954 95.8698 53.5675 95.9058 53.733C95.9418 53.8984 96.022 54.051 96.1379 54.1744C96.4078 54.4091 96.7319 54.573 97.0809 54.6512C97.4299 54.7294 97.7929 54.7195 98.1372 54.6224C99.1564 54.0078 98.4844 52.22 97.2999 52.297Z" fill="#FC4040"/>
<path d="M142.754 66.374C141.695 66.1192 138.09 65.4612 136.594 67.6186C136.248 68.117 136.948 68.6322 137.41 68.25C138.162 67.8557 139.029 67.7402 139.859 67.9238C141.001 67.9208 142.132 68.1499 143.184 68.5972C145.166 69.6626 144.914 71.8382 143.409 73.4972C141.191 75.936 140.165 75.7218 138.509 76.5772C137.684 77.0196 137.027 77.7194 136.636 78.5702C136.246 79.4209 136.145 80.3759 136.347 81.2896C136.368 81.4117 136.414 81.5282 136.481 81.6321C136.549 81.7359 136.637 81.825 136.74 81.8938C136.842 81.9625 136.958 82.0096 137.08 82.0321C137.202 82.0546 137.327 82.052 137.448 82.0246C137.738 81.9715 137.996 81.8077 138.167 81.5679C138.339 81.328 138.41 81.0309 138.366 80.7394C138.285 80.2536 138.37 79.7546 138.607 79.3229C138.844 78.8911 139.219 78.5517 139.672 78.3594C140.769 77.9488 141.821 77.4291 142.814 76.8082C145.334 74.8916 146.618 73.0282 146.71 70.973C146.69 69.8654 146.284 68.7997 145.561 67.9599C144.839 67.1202 143.846 66.5592 142.754 66.374Z" fill="#FC4040"/>
<path d="M136.695 85.5092C136.518 85.5396 136.348 85.6054 136.197 85.7027C136.046 85.7999 135.917 85.9267 135.816 86.0753C135.715 86.2239 135.645 86.3913 135.61 86.5676C135.576 86.7438 135.577 86.9252 135.614 87.101C135.7 87.4107 135.904 87.6741 136.183 87.8344C136.462 87.9947 136.792 88.039 137.103 87.9578C138.32 87.6722 138.688 85.351 136.695 85.5092Z" fill="#FC4040"/>
<path d="M119.619 74.921C118.742 73.9014 117.618 73.1231 116.355 72.66C111.926 70.5222 89.3256 63.42 78.96 62.174C78.043 62.0634 77.14 62.0928 76.2468 62.0718C76.2046 62.0678 76.1621 62.075 76.1236 62.0928C76.0951 62.0227 76.0507 61.9602 75.9941 61.91C75.9374 61.8599 75.8699 61.8235 75.7969 61.8037C75.7239 61.7839 75.6473 61.7813 75.573 61.796C75.4988 61.8107 75.429 61.8423 75.369 61.8884C73.5527 63.0565 71.9745 64.5587 70.7182 66.3152C67.0684 71.1214 65.2582 77.7378 64.4546 83.7172C63 94.6092 64.0052 107.041 58.1714 116.805C58.6404 117.335 59.0688 117.907 59.5182 118.478C69.265 102.882 61.8436 83.8782 71.5134 68.3732C72.8177 66.4235 74.2925 64.5935 75.9206 62.9048C75.9712 62.955 76.0346 62.9904 76.104 63.007C76.7788 63.1834 77.4508 63.4536 78.1438 63.6188C78.2838 63.6524 103.59 69.1152 114.621 74.0236C117.125 75.1436 117.526 75.607 118.212 75.88C115.154 78.3328 112.697 81.4521 111.03 84.9996C104.565 97.7172 109.319 109.381 103.013 123.599C101.21 127.686 98.7574 131.455 95.7502 134.758C85.224 131.865 74.69 129.023 64.148 126.231C64.4952 126.986 64.8214 127.761 65.107 128.535C66.8416 129.004 93.0202 136.059 95.8118 136.86C95.9823 136.908 96.1624 136.91 96.3342 136.867C96.5061 136.824 96.6637 136.737 96.7918 136.615C114.001 118.601 105.781 102.606 111.72 88.1006C113.919 82.7302 116.9 79.7832 119.431 76.7984C119.541 76.6645 119.604 76.4986 119.611 76.3257C119.619 76.1527 119.57 75.9821 119.472 75.8394C119.61 75.7346 119.702 75.5807 119.729 75.4097C119.757 75.2386 119.717 75.0636 119.619 74.921Z" fill="#113362"/>
<path d="M272.749 77.5334C272.722 77.4377 272.675 77.3486 272.612 77.2714C272.549 77.1942 272.471 77.1304 272.383 77.084C272.389 76.8729 272.326 76.6656 272.205 76.4928C272.084 76.32 271.91 76.191 271.709 76.125C270.46 75.733 270.528 75.8296 262.489 74.1062C242.448 69.8068 235.445 67.7166 234.335 68.271C234.252 68.26 234.167 68.2655 234.086 68.2873C234.006 68.309 233.93 68.3465 233.863 68.3976C233.797 68.4488 233.741 68.5125 233.7 68.5852C233.658 68.6579 233.631 68.7381 233.621 68.8212C233.016 74.9812 232.119 79.5676 221.91 88.081C218.772 90.6962 215.545 93.282 212.607 96.1184C212.747 96.894 212.913 97.6486 213.056 98.4242C216.658 94.822 219.471 92.6716 223.542 89.264C229.422 84.3458 236.223 77.0182 234.947 69.4344C236.258 69.9492 237.609 70.3583 238.986 70.658C245.706 72.324 257.313 74.9462 261.999 75.9626C265.041 76.622 268.118 77.4928 271.219 77.8792C271.077 78.7219 271.009 79.5754 271.016 80.43C270.551 91.5446 265.66 104.038 257.306 111.338C254.123 113.791 251.407 116.797 249.288 120.212C247.061 123.642 245.845 127.63 245.78 131.719C242.882 128.82 222.002 122.216 218.116 120.946C218.299 121.702 218.504 122.476 218.708 123.252C242.983 130.837 243.068 132.828 245.228 133.207C245.381 133.239 245.54 133.225 245.686 133.167C245.831 133.109 245.956 133.01 246.044 132.881C246.095 132.921 246.154 132.947 246.217 132.958C246.28 132.97 246.345 132.965 246.406 132.944C246.467 132.924 246.522 132.889 246.566 132.842C246.61 132.796 246.641 132.739 246.658 132.677C247.488 128.865 248.805 125.177 250.578 121.702C253.061 117.362 255.349 115.559 258.636 112.664C267.431 104.919 272.378 92.0276 272.958 80.9802C273.089 79.8279 273.018 78.6616 272.749 77.5334Z" fill="#113362"/>
<path d="M127.372 148.835C127.185 148.78 126.984 148.798 126.81 148.885C126.636 148.972 126.501 149.122 126.433 149.304C126.305 149.392 126.194 149.503 126.106 149.631C125.951 149.825 125.854 150.06 125.825 150.307C125.796 150.554 125.837 150.805 125.944 151.03C126.05 151.255 126.217 151.446 126.426 151.581C126.635 151.716 126.878 151.79 127.127 151.794C128.388 151.74 128.857 149.421 127.372 148.835Z" fill="#113362"/>
<path d="M134.695 149.855C134.503 150 134.348 150.188 134.241 150.404C134.135 150.62 134.081 150.858 134.084 151.099C134.1 151.434 134.245 151.751 134.488 151.982C134.731 152.214 135.054 152.343 135.39 152.344C136.144 152.313 136.501 151.568 136.552 150.895C136.596 150.581 136.531 150.262 136.367 149.991C136.204 149.72 135.952 149.514 135.654 149.407C135.467 149.348 135.265 149.361 135.088 149.444C134.91 149.527 134.77 149.673 134.695 149.855Z" fill="#113362"/>
<path d="M130.76 154.384C131.09 152.622 131.838 150.916 132.005 149.141C132.044 148.712 131.474 148.672 131.25 148.936C130.143 150.423 129.377 154.045 129.107 155.873C128.981 156.73 128.78 157.833 129.963 157.973C130.523 158.014 131.086 157.943 131.618 157.765C132.151 157.586 132.642 157.303 133.064 156.933C133.137 156.858 133.186 156.763 133.205 156.66C133.224 156.557 133.212 156.451 133.17 156.355C133.129 156.259 133.06 156.178 132.973 156.121C132.885 156.064 132.782 156.034 132.678 156.036C131.907 156.154 131.144 156.317 130.392 156.524C130.39 156.38 130.731 154.531 130.76 154.384Z" fill="#113362"/>
<path d="M127.96 163.442C128.201 163.049 128.527 162.717 128.916 162.47C129.304 162.222 129.743 162.066 130.2 162.014C130.487 161.968 130.781 162.01 131.043 162.135C131.306 162.26 131.524 162.462 131.669 162.714C131.883 163.148 131.853 163.59 132.199 163.958C132.256 164.014 132.324 164.056 132.399 164.081C132.474 164.107 132.554 164.115 132.632 164.105C132.711 164.095 132.786 164.068 132.852 164.025C132.919 163.981 132.974 163.924 133.015 163.856C133.158 163.492 133.197 163.095 133.129 162.71C133.06 162.325 132.887 161.966 132.628 161.673C132.355 161.354 132.013 161.101 131.628 160.935C131.242 160.768 130.824 160.693 130.404 160.714C129.119 160.714 127.201 161.673 127.344 163.183C127.392 163.442 127.758 163.687 127.96 163.442Z" fill="#113362"/>
<path d="M148.242 176.519C147.703 176.75 147.201 177.06 146.752 177.437C143.598 179.256 140.119 180.441 136.511 180.926C134.169 181.051 131.827 180.661 129.651 179.784C129.262 179.598 128.892 179.372 128.549 179.11C129.756 176.528 130.343 173.7 130.263 170.85C131.126 171.004 132.007 171.017 132.874 170.891C135.368 170.48 137.683 169.337 139.525 167.607C139.746 167.31 139.944 166.996 140.116 166.669C140.444 166.179 139.794 165.491 139.301 165.852C137.553 167.367 135.49 168.475 133.262 169.096C132.184 169.349 131.061 169.343 129.987 169.077C128.912 168.811 127.916 168.293 127.081 167.566C123.042 164.056 123.067 158.059 123.161 153.163C123.225 149.898 123.525 146.614 123.773 143.35C123.77 143.238 123.728 143.131 123.653 143.048C123.579 142.965 123.477 142.911 123.366 142.896C123.255 142.881 123.143 142.906 123.049 142.967C122.955 143.028 122.886 143.12 122.854 143.227C121.666 148.729 120.964 156.68 122.154 162.037C122.494 163.871 123.272 165.595 124.423 167.062C125.574 168.53 127.064 169.696 128.764 170.463C128.54 171.85 128.465 173.279 128.152 174.644C127.872 175.818 127.531 176.976 127.131 178.114C127.047 178.086 126.958 178.079 126.871 178.093C126.784 178.106 126.701 178.141 126.629 178.192C126.558 178.244 126.5 178.312 126.459 178.39C126.419 178.469 126.398 178.556 126.398 178.644C126.671 181.559 132.336 182.741 135.72 182.785C139.819 182.429 143.789 181.175 147.35 179.113C148.025 178.668 148.778 178.195 148.961 177.359C149.002 177.253 149.013 177.139 148.993 177.027C148.974 176.916 148.924 176.811 148.851 176.725C148.777 176.639 148.682 176.575 148.575 176.539C148.467 176.502 148.352 176.496 148.242 176.519Z" fill="#113362"/>
<path d="M225.4 164.462C228.697 163.447 235.052 159.069 247.087 158.831C248.142 158.943 249.208 158.854 250.229 158.567C250.323 158.511 250.4 158.432 250.454 158.337C250.508 158.242 250.536 158.135 250.536 158.026C250.536 157.917 250.508 157.809 250.454 157.715C250.4 157.62 250.323 157.54 250.229 157.485C249.232 157.088 248.15 156.954 247.087 157.097C241.478 157.173 235.937 158.33 230.766 160.504C228.662 161.25 226.717 162.385 225.033 163.85C224.977 163.909 224.942 163.984 224.932 164.065C224.923 164.146 224.941 164.227 224.983 164.297C225.024 164.366 225.088 164.42 225.163 164.45C225.239 164.48 225.322 164.484 225.4 164.462Z" fill="#113362"/>
<path d="M254.348 161.994C253.433 161.697 252.458 161.634 251.513 161.811C246.479 162.242 241.491 163.095 236.6 164.36C234.614 164.759 232.697 165.447 230.909 166.4C230.83 166.451 230.769 166.526 230.735 166.614C230.702 166.702 230.697 166.799 230.722 166.89C230.747 166.981 230.8 167.062 230.874 167.12C230.948 167.179 231.039 167.212 231.133 167.216C233.582 167.086 235.871 166.044 242.68 164.809C251.516 163.206 253.032 163.853 254.349 163.054C254.692 162.845 254.776 162.177 254.348 161.994Z" fill="#113362"/>
<path d="M251.58 169.298C250.434 168.675 249.111 168.459 247.827 168.685C244.292 168.763 238.265 169.189 234.975 170.562C234.876 170.592 234.791 170.655 234.735 170.742C234.679 170.828 234.655 170.931 234.667 171.033C234.679 171.135 234.727 171.23 234.802 171.301C234.877 171.371 234.974 171.413 235.077 171.419C238.896 171.51 240.206 170.737 247.521 170.562C248.766 170.533 250.418 170.807 251.479 170.031C251.542 169.996 251.596 169.947 251.636 169.888C251.677 169.829 251.703 169.761 251.713 169.69C251.722 169.619 251.716 169.546 251.693 169.478C251.669 169.41 251.631 169.348 251.58 169.298Z" fill="#113362"/>
<path d="M247.983 175.805C243.523 174.248 236.415 175.63 231.417 176.581C226.299 177.554 221.85 178.472 218.442 182.578C217.664 183.509 217 184.529 216.464 185.618C216.075 186.323 215.78 187.076 215.586 187.858C211.926 186.241 208.172 184.845 204.345 183.676C206.608 181.595 207.935 174.987 210.445 170.946C214.263 164.794 220.822 161.118 227.317 157.868C228.026 157.631 228.645 157.183 229.092 156.583C229.144 156.488 229.171 156.382 229.17 156.274C229.17 156.166 229.142 156.06 229.088 155.966C229.035 155.872 228.959 155.793 228.867 155.737C228.774 155.681 228.669 155.649 228.561 155.645C227.937 155.646 227.327 155.83 226.807 156.176C225.026 157.081 224.391 157.296 221.319 159.032C208.547 166.253 207.563 172.952 205.038 179.411C204.366 180.731 203.8 182.102 203.346 183.512C203 183.475 202.651 183.468 202.304 183.492C202.205 183.311 202.038 183.175 201.84 183.114C201.643 183.053 201.429 183.072 201.244 183.166C199.527 184.206 193.312 195.276 192.329 197.039C191.327 198.833 190.368 200.648 189.452 202.486C189.85 197.15 189.897 191.793 189.592 186.451C189.342 181.146 188.786 175.693 186.232 170.946C181.366 161.921 171.003 159.907 162.301 163.806C157.912 165.928 154.051 169.001 150.998 172.802C150.576 173.346 150.213 173.934 149.918 174.556C149.878 174.627 149.866 174.71 149.882 174.789C149.899 174.868 149.943 174.939 150.007 174.988C150.071 175.038 150.151 175.063 150.232 175.058C150.313 175.054 150.39 175.021 150.448 174.965C150.853 174.594 151.346 174.265 151.733 173.863C152.909 172.545 154.163 171.298 155.487 170.129C157.253 168.555 159.182 167.173 161.241 166.008C169.261 161.598 179.449 162.788 184.233 170.884C186.799 175.232 187.471 180.37 187.762 185.349C188.348 195.392 187.655 199.331 187.965 203.934C187.979 204.078 188.038 204.215 188.133 204.324C188.228 204.434 188.355 204.511 188.496 204.546C186.677 208.352 185.269 212.341 184.296 216.446C183.887 217.919 183.708 219.447 183.765 220.975C183.769 221.071 183.807 221.162 183.872 221.233C183.937 221.304 184.025 221.349 184.121 221.362C184.216 221.374 184.313 221.352 184.393 221.3C184.474 221.248 184.534 221.169 184.562 221.077C185.511 218.809 185.926 214.295 189.742 205.957C193.316 198.511 197.456 191.35 202.125 184.537C203.826 185.492 204.044 185.038 210 187.477C215.663 189.795 216.609 190.243 217.161 190.354C215.78 203.306 213.716 216.177 210.98 228.913C209.063 237.628 207.143 247.127 200.166 253.047C199.18 254.009 198.001 254.751 196.707 255.226C195.413 255.701 194.034 255.897 192.66 255.801C186.764 255.018 182.105 248.506 180.215 242.621C180.172 242.455 180.078 242.307 179.946 242.197C179.814 242.087 179.651 242.022 179.48 242.01C179.603 240.929 179.718 239.847 179.806 238.766C180.617 228.921 180.471 209.192 178.501 204.41C178.468 204.301 178.398 204.207 178.302 204.146C178.207 204.084 178.092 204.058 177.979 204.073C177.867 204.088 177.763 204.142 177.686 204.227C177.61 204.311 177.566 204.419 177.562 204.533C177.274 206.998 178.672 213.478 178.583 226.423C178.475 236.803 177.313 247.146 175.115 257.291C174.881 258.328 174.835 259.351 174.706 260.411C174.611 261.187 175.745 261.226 175.966 260.595C176.323 259.724 176.623 258.831 176.863 257.922C177.799 253.669 178.574 249.302 179.127 244.987C181.087 249.925 184.563 254.72 189.487 256.841C190.784 257.428 192.19 257.735 193.613 257.742C195.036 257.749 196.445 257.456 197.747 256.882C205.958 253.229 209.647 242.742 211.701 234.032C213.31 227.198 214.684 220.283 215.823 213.367C216.719 207.924 218.593 195.615 218.638 189.904C218.636 189.752 218.583 189.604 218.486 189.486C218.39 189.367 218.256 189.285 218.107 189.252C217.867 188.959 217.548 188.74 217.189 188.619C217.694 187.055 218.46 185.588 219.454 184.279C222.601 180.312 226.398 179.54 231.245 178.606C241.903 176.555 240.594 177.269 247.913 176.812C248.025 176.788 248.125 176.728 248.2 176.642C248.275 176.556 248.319 176.448 248.327 176.335C248.335 176.221 248.306 176.108 248.244 176.012C248.182 175.917 248.09 175.844 247.983 175.805Z" fill="#113362"/>
<path d="M105.727 169.215C101.579 170.844 98.1988 173.976 96.2598 177.988C91.2464 187.216 87.9172 204.351 88.263 208.631C84.0991 202.18 79.3528 196.124 74.0838 190.54C73.0149 189.28 71.7952 188.156 70.4522 187.194C70.4288 187.031 70.344 186.883 70.2151 186.781C70.0863 186.679 69.9231 186.63 69.7592 186.644C69.2516 186.703 68.7562 186.841 68.2906 187.051C67.0946 184.305 65.5887 181.704 63.8022 179.299C54.5916 165.609 51.5466 166.547 36.281 162.816C35.3755 162.529 34.4309 162.384 33.481 162.387C33.3277 162.389 33.1791 162.441 33.0581 162.535C32.937 162.629 32.8502 162.76 32.8109 162.908C32.7717 163.056 32.7821 163.213 32.8407 163.355C32.8993 163.497 33.0027 163.615 33.1352 163.692C34.6009 164.383 36.162 164.851 37.7664 165.08C45.0898 166.911 48.0312 167.261 51.1084 168.752C58.4108 172.323 62.3084 180.879 67.368 187.522C63.5223 189.784 60.0416 192.616 57.0444 195.922C55.9426 193.229 54.719 190.576 53.536 187.904C52.4748 185.538 51.4752 183.004 48.6192 182.498C47.3518 182.325 46.0655 182.346 44.8042 182.559C41.0354 183.068 23.3702 185.8 20.65 187.232C20.5532 187.294 20.4787 187.385 20.4371 187.492C20.3954 187.599 20.3888 187.717 20.4182 187.828C20.4476 187.939 20.5115 188.038 20.6007 188.11C20.6899 188.183 20.7998 188.225 20.9146 188.231C22.3745 188.206 23.8262 188.007 25.2392 187.639C28.4746 187.039 43.3804 184.297 46.6592 184.15C47.7822 184.005 48.9187 184.289 49.8414 184.946C50.6547 185.82 51.2748 186.856 51.6614 187.986C51.8714 188.448 55.6234 196.885 56.0014 197.268C55.9412 197.371 55.8796 197.452 55.818 197.548C55.7984 197.569 55.7984 197.589 55.7774 197.61C55.6903 197.605 55.6032 197.62 55.5225 197.653C55.4418 197.686 55.3694 197.736 55.3108 197.801C55.2522 197.865 55.2087 197.942 55.1836 198.026C55.1584 198.109 55.1523 198.197 55.1656 198.283C55.6346 199.874 56.1232 201.425 56.4914 203.043C58.2008 210.826 60.1314 224.375 66.5714 237.114C71.8494 247.632 82.0694 260.529 93.5004 257.515C99.6212 255.882 103.741 250.72 106.8 245.417C107.78 249.494 108.955 253.765 110.106 257.677C110.441 259.373 111.099 260.989 112.043 262.437C112.41 262.865 113.023 262.478 113.064 262.009C113.018 260.48 112.693 258.972 112.105 257.561C105.447 235.465 104.485 221.47 102.659 215.561C102.634 215.475 102.578 215.4 102.503 215.352C102.427 215.303 102.337 215.283 102.248 215.295C102.159 215.308 102.077 215.352 102.018 215.419C101.958 215.487 101.925 215.573 101.924 215.663C101.605 221.851 104.775 236.916 106.189 242.963C103.312 247.941 99.9866 253.266 94.3558 255.388C83.5492 259.512 73.6358 247.022 68.3648 236.803C61.656 223.761 59.7002 209.205 58.0426 202.488C57.7281 200.975 57.1601 199.527 56.3626 198.204C56.3822 198.183 56.4032 198.183 56.4228 198.163C58.7328 196.714 63.3822 191.463 68.3984 188.88C68.8534 188.646 69.2958 188.451 69.7242 188.206C70.5159 189.266 71.3819 190.269 72.3156 191.206C88.2966 208.697 93.3058 221.887 96.7974 227.643C97.1432 228.214 98.1232 227.846 97.8992 227.172C96.3774 222.148 91.4592 213.468 88.8818 209.587C88.9952 209.571 89.1029 209.527 89.1954 209.459C89.2879 209.392 89.3624 209.302 89.4124 209.199C90.2636 206.935 90.8698 193.948 96.6336 181.087C100.435 172.584 106.424 168.347 115.913 170.111C120.618 170.971 122.716 173.246 125.461 176.721C125.766 177.089 126.399 176.68 126.256 176.252C123.784 169.408 114.066 166.32 105.727 169.215Z" fill="#113362"/>
<path d="M40.18 169.95C38.2028 169.137 36.0951 168.688 33.9584 168.624C28.032 167.966 22.0614 167.795 16.107 168.113C15.5988 168.175 15.1108 168.349 14.679 168.624C14.21 168.808 14.3906 169.448 14.8008 169.604C15.3034 169.821 15.8452 169.932 16.3926 169.931C22.205 169.69 28.0272 169.861 33.8156 170.442C35.8809 170.814 37.985 170.923 40.0778 170.768C40.1622 170.744 40.2376 170.695 40.2946 170.628C40.3517 170.562 40.3879 170.48 40.3988 170.393C40.4097 170.306 40.3948 170.217 40.3559 170.139C40.317 170.06 40.2558 169.994 40.18 169.95Z" fill="#113362"/>
<path d="M31.528 174.44C26.8674 173.484 18.5864 174.482 13.888 175.154C13.0112 175.177 12.1547 175.423 11.3988 175.868C11.2894 175.936 11.202 176.033 11.147 176.15C11.0921 176.266 11.072 176.395 11.0892 176.523C11.1063 176.65 11.1601 176.77 11.2439 176.867C11.3276 176.965 11.4379 177.036 11.5612 177.072C12.9528 177.454 13.5506 176.77 21.5376 176.113C24.8626 175.833 28.2492 175.888 31.535 175.337C31.6318 175.308 31.7165 175.248 31.7764 175.167C31.8364 175.086 31.8683 174.987 31.8675 174.886C31.8668 174.785 31.8333 174.687 31.772 174.607C31.7108 174.526 31.6252 174.468 31.528 174.44Z" fill="#113362"/>
<path d="M32.445 179.375C31.0108 178.984 29.5 178.97 28.0588 179.334C24.1764 179.723 20.3252 180.378 16.5326 181.294C15.8027 181.406 15.1177 181.716 14.553 182.192C14.5106 182.238 14.4807 182.295 14.4658 182.356C14.451 182.417 14.4517 182.481 14.468 182.542C14.4843 182.603 14.5156 182.659 14.5591 182.705C14.6026 182.75 14.6568 182.784 14.7168 182.804C15.3571 182.982 16.0329 182.989 16.6768 182.825C17.2886 182.742 23.5956 181.649 28.0602 181.173C30.6446 180.893 31.6134 180.993 32.4464 180.438C32.5379 180.382 32.6136 180.304 32.6661 180.211C32.7186 180.118 32.7461 180.013 32.746 179.906C32.7458 179.799 32.718 179.694 32.6653 179.601C32.6126 179.508 32.5367 179.43 32.445 179.375Z" fill="#113362"/>
<path d="M152.46 149.997C152.096 149.147 151.466 148.439 150.664 147.979C150.752 147.435 152.138 138.523 152.113 137.941C152.192 136.483 151.758 135.044 150.886 133.873C150.013 132.703 148.758 131.875 147.339 131.534C144.221 130.591 143.01 130.704 140.444 126.517C138.985 123.758 137.051 121.278 134.73 119.192C132.17 117.03 128.901 115.889 125.551 115.989C115.371 116.549 111.033 130.395 116.512 137.879C119.89 142.499 125.892 143.878 131.569 143.49C133.706 143.387 135.825 143.059 137.893 142.51C138.266 146.588 140.031 150.413 142.891 153.343C143.008 153.454 143.151 153.532 143.306 153.572C143.461 153.611 143.624 153.611 143.78 153.57C143.935 153.529 144.077 153.45 144.193 153.339C144.309 153.228 144.395 153.089 144.442 152.936C145.107 150.107 146.496 148.756 149.502 148.855C152.559 150.522 151.193 156.517 147.482 157.363C145.478 157.819 144.917 156.745 143.85 156.689C143.74 156.688 143.631 156.712 143.532 156.76C143.432 156.808 143.346 156.878 143.278 156.965C143.21 157.052 143.163 157.153 143.141 157.261C143.119 157.369 143.122 157.48 143.15 157.587C143.43 158.595 144.815 159.064 145.842 159.179C145.032 161.712 144.608 164.352 144.582 167.012C144.534 170.037 144.954 173.051 145.827 175.948C145.89 176.143 146.027 176.306 146.208 176.403C146.388 176.5 146.6 176.523 146.797 176.468C146.995 176.412 147.164 176.283 147.268 176.106C147.372 175.929 147.404 175.719 147.357 175.519C145.88 170.211 145.726 164.621 146.908 159.239C151.64 158.991 154.008 153.266 152.46 149.997ZM120.415 137.41C118.679 137.983 116.798 134.238 116.416 132.188C115.996 129.948 116.054 125.903 117.641 124.333C117.689 124.286 117.749 124.254 117.813 124.238C117.878 124.222 117.946 124.224 118.01 124.243C118.074 124.261 118.132 124.297 118.179 124.345C118.225 124.393 118.258 124.453 118.273 124.517C118.553 126.444 117.534 128.212 118.212 131.596C119.007 135.57 120.817 135.205 120.945 136.717C120.941 136.874 120.888 137.025 120.793 137.149C120.697 137.274 120.565 137.365 120.415 137.41Z" fill="#113362"/>
</svg>
