<svg width="597" height="291" viewBox="0 0 597 291" fill="none" xmlns="http://www.w3.org/2000/svg">
<g clip-path="url(#clip0_7151_8294)">
<path d="M4.00001 43.5733L4.00001 42.5733L3.00001 42.5733L3.00001 43.5733L4.00001 43.5733ZM591 43.573L591 44.573L592 44.573L592 43.573L591 43.573ZM5.00001 287.013C5.00001 286.461 4.5523 286.013 4.00001 286.013C3.44773 286.013 3.00001 286.461 3.00001 287.013L5.00001 287.013ZM3.00001 278.749C3.00001 279.301 3.44773 279.749 4.00001 279.749C4.5523 279.749 5.00001 279.301 5.00001 278.749L3.00001 278.749ZM5.00001 270.444C5.00001 269.892 4.5523 269.444 4.00001 269.444C3.44773 269.444 3.00001 269.892 3.00001 270.444L5.00001 270.444ZM3.00001 262.138C3.00001 262.69 3.44773 263.138 4.00001 263.138C4.5523 263.138 5.00001 262.69 5.00001 262.138L3.00001 262.138ZM5.00001 253.893C5.00001 253.34 4.5523 252.893 4.00001 252.893C3.44773 252.893 3.00001 253.34 3.00001 253.893L5.00001 253.893ZM3.00001 245.647C3.00001 246.199 3.44773 246.647 4.00001 246.647C4.5523 246.647 5.00001 246.199 5.00001 245.647L3.00001 245.647ZM5.00001 237.424C5.00001 236.871 4.5523 236.424 4.00001 236.424C3.44773 236.424 3.00001 236.871 3.00001 237.424L5.00001 237.424ZM3.00001 229.192C3.00001 229.744 3.44773 230.192 4.00001 230.192C4.5523 230.192 5.00001 229.744 5.00001 229.192L3.00001 229.192ZM5.00001 220.946C5.00001 220.393 4.5523 219.946 4.00001 219.946C3.44773 219.946 3.00001 220.393 3.00001 220.946L5.00001 220.946ZM3.00001 212.684C3.00001 213.236 3.44773 213.684 4.00001 213.684C4.5523 213.684 5.00001 213.236 5.00001 212.684L3.00001 212.684ZM5.00001 204.412C5.00001 203.859 4.5523 203.412 4.00001 203.412C3.44773 203.412 3.00001 203.859 3.00001 204.412L5.00001 204.412ZM3.00001 196.167C3.00001 196.719 3.44773 197.167 4.00001 197.167C4.5523 197.167 5.00001 196.719 5.00001 196.167L3.00001 196.167ZM5.00001 187.924C5.00001 187.372 4.5523 186.924 4.00001 186.924C3.44773 186.924 3.00001 187.372 3.00001 187.924L5.00001 187.924ZM3.00001 179.667C3.00001 180.219 3.44773 180.667 4.00001 180.667C4.5523 180.667 5.00001 180.219 5.00001 179.667L3.00001 179.667ZM5.00001 171.411C5.00001 170.858 4.5523 170.411 4.00001 170.411C3.44773 170.411 3.00001 170.858 3.00001 171.411L5.00001 171.411ZM3.00001 163.162C3.00001 163.714 3.44773 164.162 4.00001 164.162C4.5523 164.162 5.00001 163.714 5.00001 163.162L3.00001 163.162ZM5.00001 154.904C5.00001 154.352 4.5523 153.904 4.00001 153.904C3.44773 153.904 3.00001 154.352 3.00001 154.904L5.00001 154.904ZM3.00001 146.651C3.00001 147.203 3.44773 147.651 4.00001 147.651C4.5523 147.651 5.00001 147.203 5.00001 146.651L3.00001 146.651ZM5.00001 138.415C5.00001 137.863 4.5523 137.415 4.00001 137.415C3.44773 137.415 3.00001 137.863 3.00001 138.415L5.00001 138.415ZM3.00001 130.152C3.00001 130.704 3.44773 131.152 4.00001 131.152C4.5523 131.152 5.00001 130.704 5.00001 130.152L3.00001 130.152ZM5.00001 121.884C5.00001 121.332 4.5523 120.884 4.00001 120.884C3.44773 120.884 3.00001 121.332 3.00001 121.884L5.00001 121.884ZM3.00001 113.629C3.00001 114.181 3.44773 114.629 4.00001 114.629C4.5523 114.629 5.00001 114.181 5.00001 113.629L3.00001 113.629ZM5.00001 105.391C5.00001 104.839 4.5523 104.391 4.00001 104.391C3.44773 104.391 3.00001 104.839 3.00001 105.391L5.00001 105.391ZM3.00001 97.1689C3.00001 97.7212 3.44773 98.1689 4.00001 98.1689C4.5523 98.1689 5.00001 97.7212 5.00001 97.1689L3.00001 97.1689ZM5.00001 88.9207C5.00001 88.3684 4.5523 87.9207 4.00001 87.9207C3.44773 87.9207 3.00001 88.3684 3.00001 88.9207L5.00001 88.9207ZM3.00001 80.6599C3.00001 81.2122 3.44773 81.6599 4.00001 81.6599C4.5523 81.6599 5.00001 81.2122 5.00001 80.6599L3.00001 80.6599ZM5.00001 72.4227C5.00001 71.8704 4.5523 71.4227 4.00001 71.4227C3.44773 71.4227 3.00001 71.8704 3.00001 72.4227L5.00001 72.4227ZM3.00001 64.1417C3.00001 64.694 3.44773 65.1417 4.00001 65.1417C4.5523 65.1417 5.00001 64.694 5.00001 64.1417L3.00001 64.1417ZM5.00001 55.822C5.00001 55.2697 4.5523 54.822 4.00001 54.822C3.44773 54.822 3.00001 55.2697 3.00001 55.822L5.00001 55.822ZM3.00001 47.5534C3.00001 48.1057 3.44773 48.5534 4.00001 48.5534C4.5523 48.5534 5.00001 48.1057 5.00001 47.5534L3.00001 47.5534ZM7.96623 44.5733C8.51851 44.5733 8.96623 44.1256 8.96623 43.5733C8.96623 43.021 8.51851 42.5733 7.96623 42.5733L7.96623 44.5733ZM15.8987 42.5733C15.3464 42.5733 14.8987 43.021 14.8987 43.5733C14.8987 44.1256 15.3464 44.5733 15.8987 44.5733L15.8987 42.5733ZM23.8311 44.5733C24.3834 44.5733 24.8311 44.1255 24.8311 43.5733C24.8311 43.021 24.3834 42.5733 23.8311 42.5733L23.8311 44.5733ZM31.7635 42.5733C31.2112 42.5733 30.7635 43.021 30.7635 43.5733C30.7635 44.1255 31.2112 44.5733 31.7635 44.5733L31.7635 42.5733ZM39.696 44.5733C40.2482 44.5733 40.696 44.1255 40.696 43.5733C40.696 43.021 40.2482 42.5733 39.696 42.5733L39.696 44.5733ZM47.6284 42.5732C47.0761 42.5732 46.6284 43.021 46.6284 43.5732C46.6284 44.1255 47.0761 44.5732 47.6284 44.5732L47.6284 42.5732ZM55.5608 44.5732C56.1131 44.5732 56.5608 44.1255 56.5608 43.5732C56.5608 43.021 56.1131 42.5732 55.5608 42.5732L55.5608 44.5732ZM63.4933 42.5732C62.941 42.5732 62.4933 43.021 62.4933 43.5732C62.4933 44.1255 62.941 44.5732 63.4933 44.5732L63.4933 42.5732ZM71.4257 44.5732C71.978 44.5732 72.4257 44.1255 72.4257 43.5732C72.4257 43.021 71.978 42.5732 71.4257 42.5732L71.4257 44.5732ZM79.3581 42.5732C78.8058 42.5732 78.3581 43.0209 78.3581 43.5732C78.3581 44.1255 78.8058 44.5732 79.3581 44.5732L79.3581 42.5732ZM87.2906 44.5732C87.8429 44.5732 88.2906 44.1255 88.2906 43.5732C88.2906 43.0209 87.8429 42.5732 87.2906 42.5732L87.2906 44.5732ZM95.223 42.5732C94.6707 42.5732 94.223 43.0209 94.223 43.5732C94.223 44.1255 94.6707 44.5732 95.223 44.5732L95.223 42.5732ZM103.155 44.5732C103.708 44.5732 104.155 44.1255 104.155 43.5732C104.155 43.0209 103.708 42.5732 103.155 42.5732L103.155 44.5732ZM111.088 42.5732C110.536 42.5732 110.088 43.0209 110.088 43.5732C110.088 44.1255 110.536 44.5732 111.088 44.5732L111.088 42.5732ZM119.02 44.5732C119.573 44.5732 120.02 44.1255 120.02 43.5732C120.02 43.0209 119.573 42.5732 119.02 42.5732L119.02 44.5732ZM126.953 42.5732C126.4 42.5732 125.953 43.0209 125.953 43.5732C125.953 44.1255 126.4 44.5732 126.953 44.5732L126.953 42.5732ZM134.885 44.5732C135.437 44.5732 135.885 44.1255 135.885 43.5732C135.885 43.0209 135.437 42.5732 134.885 42.5732L134.885 44.5732ZM142.818 42.5732C142.265 42.5732 141.818 43.0209 141.818 43.5732C141.818 44.1255 142.265 44.5732 142.818 44.5732L142.818 42.5732ZM150.75 44.5732C151.302 44.5732 151.75 44.1255 151.75 43.5732C151.75 43.0209 151.302 42.5732 150.75 42.5732L150.75 44.5732ZM158.682 42.5732C158.13 42.5732 157.682 43.0209 157.682 43.5732C157.682 44.1255 158.13 44.5732 158.682 44.5732L158.682 42.5732ZM166.615 44.5732C167.167 44.5732 167.615 44.1255 167.615 43.5732C167.615 43.0209 167.167 42.5732 166.615 42.5732L166.615 44.5732ZM174.547 42.5732C173.995 42.5732 173.547 43.0209 173.547 43.5732C173.547 44.1255 173.995 44.5732 174.547 44.5732L174.547 42.5732ZM182.48 44.5732C183.032 44.5732 183.48 44.1255 183.48 43.5732C183.48 43.0209 183.032 42.5732 182.48 42.5732L182.48 44.5732ZM190.412 42.5732C189.86 42.5732 189.412 43.0209 189.412 43.5732C189.412 44.1255 189.86 44.5732 190.412 44.5732L190.412 42.5732ZM198.345 44.5732C198.897 44.5732 199.345 44.1255 199.345 43.5732C199.345 43.0209 198.897 42.5732 198.345 42.5732L198.345 44.5732ZM206.277 42.5732C205.725 42.5732 205.277 43.0209 205.277 43.5732C205.277 44.1254 205.725 44.5732 206.277 44.5732L206.277 42.5732ZM214.21 44.5732C214.762 44.5732 215.21 44.1254 215.21 43.5732C215.21 43.0209 214.762 42.5732 214.21 42.5732L214.21 44.5732ZM222.142 42.5732C221.59 42.5732 221.142 43.0209 221.142 43.5732C221.142 44.1254 221.59 44.5732 222.142 44.5732L222.142 42.5732ZM230.074 44.5731C230.627 44.5731 231.074 44.1254 231.074 43.5731C231.074 43.0209 230.627 42.5731 230.074 42.5731L230.074 44.5731ZM238.007 42.5731C237.455 42.5731 237.007 43.0209 237.007 43.5731C237.007 44.1254 237.455 44.5731 238.007 44.5731L238.007 42.5731ZM245.939 44.5731C246.492 44.5731 246.939 44.1254 246.939 43.5731C246.939 43.0209 246.492 42.5731 245.939 42.5731L245.939 44.5731ZM253.872 42.5731C253.319 42.5731 252.872 43.0209 252.872 43.5731C252.872 44.1254 253.319 44.5731 253.872 44.5731L253.872 42.5731ZM261.804 44.5731C262.356 44.5731 262.804 44.1254 262.804 43.5731C262.804 43.0208 262.356 42.5731 261.804 42.5731L261.804 44.5731ZM269.737 42.5731C269.184 42.5731 268.737 43.0208 268.737 43.5731C268.737 44.1254 269.184 44.5731 269.737 44.5731L269.737 42.5731ZM277.669 44.5731C278.221 44.5731 278.669 44.1254 278.669 43.5731C278.669 43.0208 278.221 42.5731 277.669 42.5731L277.669 44.5731ZM285.601 42.5731C285.049 42.5731 284.601 43.0208 284.601 43.5731C284.601 44.1254 285.049 44.5731 285.601 44.5731L285.601 42.5731ZM293.534 44.5731C294.086 44.5731 294.534 44.1254 294.534 43.5731C294.534 43.0208 294.086 42.5731 293.534 42.5731L293.534 44.5731ZM301.466 42.5731C300.914 42.5731 300.466 43.0208 300.466 43.5731C300.466 44.1254 300.914 44.5731 301.466 44.5731L301.466 42.5731ZM309.399 44.5731C309.951 44.5731 310.399 44.1254 310.399 43.5731C310.399 43.0208 309.951 42.5731 309.399 42.5731L309.399 44.5731ZM317.331 42.5731C316.779 42.5731 316.331 43.0208 316.331 43.5731C316.331 44.1254 316.779 44.5731 317.331 44.5731L317.331 42.5731ZM325.264 44.5731C325.816 44.5731 326.264 44.1254 326.264 43.5731C326.264 43.0208 325.816 42.5731 325.264 42.5731L325.264 44.5731ZM333.196 42.5731C332.644 42.5731 332.196 43.0208 332.196 43.5731C332.196 44.1254 332.644 44.5731 333.196 44.5731L333.196 42.5731ZM341.128 44.5731C341.681 44.5731 342.128 44.1254 342.128 43.5731C342.128 43.0208 341.681 42.5731 341.128 42.5731L341.128 44.5731ZM349.061 42.5731C348.509 42.5731 348.061 43.0208 348.061 43.5731C348.061 44.1254 348.509 44.5731 349.061 44.5731L349.061 42.5731ZM356.993 44.5731C357.546 44.5731 357.993 44.1254 357.993 43.5731C357.993 43.0208 357.546 42.5731 356.993 42.5731L356.993 44.5731ZM364.926 42.5731C364.373 42.5731 363.926 43.0208 363.926 43.5731C363.926 44.1254 364.373 44.5731 364.926 44.5731L364.926 42.5731ZM372.858 44.5731C373.41 44.5731 373.858 44.1254 373.858 43.5731C373.858 43.0208 373.41 42.5731 372.858 42.5731L372.858 44.5731ZM380.791 42.5731C380.238 42.5731 379.791 43.0208 379.791 43.5731C379.791 44.1254 380.238 44.5731 380.791 44.5731L380.791 42.5731ZM388.723 44.5731C389.275 44.5731 389.723 44.1253 389.723 43.5731C389.723 43.0208 389.275 42.5731 388.723 42.5731L388.723 44.5731ZM396.655 42.5731C396.103 42.5731 395.655 43.0208 395.655 43.5731C395.655 44.1253 396.103 44.5731 396.655 44.5731L396.655 42.5731ZM404.588 44.5731C405.14 44.5731 405.588 44.1253 405.588 43.5731C405.588 43.0208 405.14 42.5731 404.588 42.5731L404.588 44.5731ZM412.52 42.573C411.968 42.573 411.52 43.0208 411.52 43.5731C411.52 44.1253 411.968 44.573 412.52 44.573L412.52 42.573ZM420.453 44.573C421.005 44.573 421.453 44.1253 421.453 43.573C421.453 43.0208 421.005 42.573 420.453 42.573L420.453 44.573ZM428.385 42.573C427.833 42.573 427.385 43.0208 427.385 43.573C427.385 44.1253 427.833 44.573 428.385 44.573L428.385 42.573ZM436.318 44.573C436.87 44.573 437.318 44.1253 437.318 43.573C437.318 43.0208 436.87 42.573 436.318 42.573L436.318 44.573ZM444.25 42.573C443.698 42.573 443.25 43.0207 443.25 43.573C443.25 44.1253 443.698 44.573 444.25 44.573L444.25 42.573ZM452.182 44.573C452.735 44.573 453.182 44.1253 453.182 43.573C453.182 43.0207 452.735 42.573 452.182 42.573L452.182 44.573ZM460.115 42.573C459.563 42.573 459.115 43.0207 459.115 43.573C459.115 44.1253 459.563 44.573 460.115 44.573L460.115 42.573ZM468.047 44.573C468.6 44.573 469.047 44.1253 469.047 43.573C469.047 43.0207 468.6 42.573 468.047 42.573L468.047 44.573ZM475.98 42.573C475.427 42.573 474.98 43.0207 474.98 43.573C474.98 44.1253 475.427 44.573 475.98 44.573L475.98 42.573ZM483.912 44.573C484.465 44.573 484.912 44.1253 484.912 43.573C484.912 43.0207 484.465 42.573 483.912 42.573L483.912 44.573ZM491.845 42.573C491.292 42.573 490.845 43.0207 490.845 43.573C490.845 44.1253 491.292 44.573 491.845 44.573L491.845 42.573ZM499.777 44.573C500.329 44.573 500.777 44.1253 500.777 43.573C500.777 43.0207 500.329 42.573 499.777 42.573L499.777 44.573ZM507.71 42.573C507.157 42.573 506.71 43.0207 506.71 43.573C506.71 44.1253 507.157 44.573 507.71 44.573L507.71 42.573ZM515.642 44.573C516.194 44.573 516.642 44.1253 516.642 43.573C516.642 43.0207 516.194 42.573 515.642 42.573L515.642 44.573ZM523.574 42.573C523.022 42.573 522.574 43.0207 522.574 43.573C522.574 44.1253 523.022 44.573 523.574 44.573L523.574 42.573ZM531.507 44.573C532.059 44.573 532.507 44.1253 532.507 43.573C532.507 43.0207 532.059 42.573 531.507 42.573L531.507 44.573ZM539.439 42.573C538.887 42.573 538.439 43.0207 538.439 43.573C538.439 44.1253 538.887 44.573 539.439 44.573L539.439 42.573ZM547.372 44.573C547.924 44.573 548.372 44.1253 548.372 43.573C548.372 43.0207 547.924 42.573 547.372 42.573L547.372 44.573ZM555.304 42.573C554.752 42.573 554.304 43.0207 554.304 43.573C554.304 44.1253 554.752 44.573 555.304 44.573L555.304 42.573ZM563.237 44.573C563.789 44.573 564.237 44.1253 564.237 43.573C564.237 43.0207 563.789 42.573 563.237 42.573L563.237 44.573ZM571.169 42.573C570.617 42.573 570.169 43.0207 570.169 43.573C570.169 44.1252 570.617 44.573 571.169 44.573L571.169 42.573ZM579.101 44.573C579.654 44.573 580.101 44.1252 580.101 43.573C580.101 43.0207 579.654 42.573 579.101 42.573L579.101 44.573ZM587.034 42.573C586.482 42.573 586.034 43.0207 586.034 43.573C586.034 44.1252 586.482 44.573 587.034 44.573L587.034 42.573ZM592 39.9419C592 39.3896 591.552 38.9419 591 38.9419C590.448 38.9419 590 39.3896 590 39.9419L592 39.9419ZM590 32.6797C590 33.232 590.448 33.6797 591 33.6797C591.552 33.6797 592 33.232 592 32.6797L590 32.6797ZM592 25.4175C592 24.8653 591.552 24.4175 591 24.4175C590.448 24.4175 590 24.8653 590 25.4175L592 25.4175ZM590 18.1554C590 18.7077 590.448 19.1554 591 19.1554C591.552 19.1554 592 18.7077 592 18.1554L590 18.1554ZM592 10.8932C592 10.3409 591.552 9.89322 591 9.89322C590.448 9.89322 590 10.3409 590 10.8932L592 10.8932ZM590 3.63106C590 4.18334 590.448 4.63106 591 4.63106C591.552 4.63106 592 4.18334 592 3.63106L590 3.63106ZM5.00001 291C5.00001 290.182 5.00001 288.835 5.00001 287.013L3.00001 287.013C3.00001 288.835 3.00001 290.182 3.00001 291L5.00001 291ZM5.00001 278.749C5.00001 276.276 5.00001 273.496 5.00001 270.444L3.00001 270.444C3.00001 273.496 3.00001 276.276 3.00001 278.749L5.00001 278.749ZM5.00001 262.138C5.00001 259.521 5.00001 256.768 5.00001 253.893L3.00001 253.893C3.00001 256.768 3.00001 259.521 3.00001 262.138L5.00001 262.138ZM5.00001 245.647C5.00001 242.983 5.00001 240.239 5.00001 237.424L3.00001 237.424C3.00001 240.239 3.00001 242.983 3.00001 245.647L5.00001 245.647ZM5.00001 229.192C5.00001 226.493 5.00001 223.741 5.00001 220.946L3.00001 220.946C3.00001 223.741 3.00001 226.493 3.00001 229.192L5.00001 229.192ZM5.00001 212.684C5.00001 209.958 5.00001 207.198 5.00001 204.412L3.00001 204.412C3.00001 207.198 3.00001 209.958 3.00001 212.684L5.00001 212.684ZM5.00001 196.167C5.00001 193.437 5.00001 190.687 5.00001 187.924L3.00001 187.924C3.00001 190.687 3.00001 193.437 3.00001 196.167L5.00001 196.167ZM5.00001 179.667C5.00001 176.921 5.00001 174.167 5.00001 171.411L3.00001 171.411C3.00001 174.167 3.00001 176.921 3.00001 179.667L5.00001 179.667ZM5.00001 163.162C5.00001 160.404 5.00001 157.65 5.00001 154.904L3.00001 154.904C3.00001 157.65 3.00001 160.404 3.00001 163.162L5.00001 163.162ZM5.00001 146.651C5.00001 143.889 5.00001 141.142 5.00001 138.415L3.00001 138.415C3.00001 141.142 3.00001 143.889 3.00001 146.651L5.00001 146.651ZM5.00001 130.152C5.00001 127.366 5.00001 124.608 5.00001 121.884L3.00001 121.884C3.00001 124.608 3.00001 127.366 3.00001 130.152L5.00001 130.152ZM5.00001 113.629C5.00001 110.835 5.00001 108.087 5.00001 105.391L3.00001 105.391C3.00001 108.087 3.00001 110.835 3.00001 113.629L5.00001 113.629ZM5.00001 97.1689C5.00001 94.3432 5.00001 91.5905 5.00001 88.9207L3.00001 88.9207C3.00001 91.5905 3.00001 94.3432 3.00001 97.1689L5.00001 97.1689ZM5.00001 80.6599C5.00001 77.7835 5.00001 75.0326 5.00001 72.4227L3.00001 72.4227C3.00001 75.0326 3.00001 77.7834 3.00001 80.6599L5.00001 80.6599ZM5.00001 64.1417C5.00001 61.0654 5.00001 58.2795 5.00001 55.822L3.00001 55.822C3.00001 58.2795 3.00001 61.0654 3.00001 64.1417L5.00001 64.1417ZM5.00001 47.5534C5.00001 46.2616 5.00001 45.2666 5.00001 44.5945C5.00001 44.2584 5.00001 44.0032 5.00001 43.8318C5.00001 43.7462 5.00001 43.6815 5.00001 43.6383C5.00001 43.6168 5.00001 43.6004 5.00001 43.5896C5.00001 43.5843 5.00001 43.58 5.00001 43.5774C5.00001 43.5762 5.00001 43.5748 5.00001 43.5743C5.00001 43.574 5.00001 43.5737 5.00001 43.5735C5.00001 43.5735 5.00001 43.5734 5.00001 43.5734C5.00001 43.5734 5.00001 43.5734 5.00001 43.5733C5.00001 43.5733 5.00001 43.5733 5.00001 43.5733C5.00001 43.5733 5.00001 43.5733 4.00001 43.5733C3.00001 43.5733 3.00001 43.5733 3.00001 43.5733C3.00001 43.5733 3.00001 43.5733 3.00001 43.5733C3.00001 43.5733 3.00001 43.5735 3.00001 43.5735C3.00001 43.5735 3.00001 43.5741 3.00001 43.5743C3.00001 43.5752 3.00001 43.5758 3.00001 43.5774C3.00001 43.5802 3.00001 43.5841 3.00001 43.5896C3.00001 43.6005 3.00001 43.6166 3.00001 43.6383C3.00001 43.6816 3.00001 43.7462 3.00001 43.8318C3.00001 44.0031 3.00001 44.2585 3.00001 44.5945C3.00001 45.2666 3.00001 46.2616 3.00001 47.5534L5.00001 47.5534ZM4.00001 44.5733L7.96623 44.5733L7.96623 42.5733L4.00001 42.5733L4.00001 44.5733ZM15.8987 44.5733L23.8311 44.5733L23.8311 42.5733L15.8987 42.5733L15.8987 44.5733ZM31.7635 44.5733L39.696 44.5733L39.696 42.5733L31.7635 42.5733L31.7635 44.5733ZM47.6284 44.5732L55.5608 44.5732L55.5608 42.5732L47.6284 42.5732L47.6284 44.5732ZM63.4933 44.5732L71.4257 44.5732L71.4257 42.5732L63.4933 42.5732L63.4933 44.5732ZM79.3581 44.5732L87.2906 44.5732L87.2906 42.5732L79.3581 42.5732L79.3581 44.5732ZM95.223 44.5732L103.155 44.5732L103.155 42.5732L95.223 42.5732L95.223 44.5732ZM111.088 44.5732L119.02 44.5732L119.02 42.5732L111.088 42.5732L111.088 44.5732ZM126.953 44.5732L134.885 44.5732L134.885 42.5732L126.953 42.5732L126.953 44.5732ZM142.818 44.5732L150.75 44.5732L150.75 42.5732L142.818 42.5732L142.818 44.5732ZM158.682 44.5732L166.615 44.5732L166.615 42.5732L158.682 42.5732L158.682 44.5732ZM174.547 44.5732L182.48 44.5732L182.48 42.5732L174.547 42.5732L174.547 44.5732ZM190.412 44.5732L198.345 44.5732L198.345 42.5732L190.412 42.5732L190.412 44.5732ZM206.277 44.5732L214.21 44.5732L214.21 42.5732L206.277 42.5732L206.277 44.5732ZM222.142 44.5732L230.074 44.5731L230.074 42.5731L222.142 42.5732L222.142 44.5732ZM238.007 44.5731L245.939 44.5731L245.939 42.5731L238.007 42.5731L238.007 44.5731ZM253.872 44.5731L261.804 44.5731L261.804 42.5731L253.872 42.5731L253.872 44.5731ZM269.737 44.5731L277.669 44.5731L277.669 42.5731L269.737 42.5731L269.737 44.5731ZM285.601 44.5731L293.534 44.5731L293.534 42.5731L285.601 42.5731L285.601 44.5731ZM301.466 44.5731L309.399 44.5731L309.399 42.5731L301.466 42.5731L301.466 44.5731ZM317.331 44.5731L325.264 44.5731L325.264 42.5731L317.331 42.5731L317.331 44.5731ZM333.196 44.5731L341.128 44.5731L341.128 42.5731L333.196 42.5731L333.196 44.5731ZM349.061 44.5731L356.993 44.5731L356.993 42.5731L349.061 42.5731L349.061 44.5731ZM364.926 44.5731L372.858 44.5731L372.858 42.5731L364.926 42.5731L364.926 44.5731ZM380.791 44.5731L388.723 44.5731L388.723 42.5731L380.791 42.5731L380.791 44.5731ZM396.655 44.5731L404.588 44.5731L404.588 42.5731L396.655 42.5731L396.655 44.5731ZM412.52 44.573L420.453 44.573L420.453 42.573L412.52 42.573L412.52 44.573ZM428.385 44.573L436.318 44.573L436.318 42.573L428.385 42.573L428.385 44.573ZM444.25 44.573L452.182 44.573L452.182 42.573L444.25 42.573L444.25 44.573ZM460.115 44.573L468.047 44.573L468.047 42.573L460.115 42.573L460.115 44.573ZM475.98 44.573L483.912 44.573L483.912 42.573L475.98 42.573L475.98 44.573ZM491.845 44.573L499.777 44.573L499.777 42.573L491.845 42.573L491.845 44.573ZM507.71 44.573L515.642 44.573L515.642 42.573L507.71 42.573L507.71 44.573ZM523.574 44.573L531.507 44.573L531.507 42.573L523.574 42.573L523.574 44.573ZM539.439 44.573L547.372 44.573L547.372 42.573L539.439 42.573L539.439 44.573ZM555.304 44.573L563.237 44.573L563.237 42.573L555.304 42.573L555.304 44.573ZM571.169 44.573L579.101 44.573L579.101 42.573L571.169 42.573L571.169 44.573ZM587.034 44.573L591 44.573L591 42.573L587.034 42.573L587.034 44.573ZM592 43.573L592 39.9419L590 39.9419L590 43.573L592 43.573ZM592 32.6797L592 25.4175L590 25.4175L590 32.6797L592 32.6797ZM592 18.1554L592 10.8932L590 10.8932L590 18.1554L592 18.1554ZM592 3.63106L592 -2.57023e-05L590 -2.56149e-05L590 3.63106L592 3.63106Z" fill="#8FCDE8"/>
</g>
<g clip-path="url(#clip1_7151_8294)">
<path d="M575 43.573L575 42.573L575 43.573ZM20 43.5733L20 42.5733L20 43.5733ZM5.00001 286.891C5.00001 286.339 4.5523 285.891 4.00001 285.891C3.44773 285.891 3.00001 286.339 3.00001 286.891L5.00001 286.891ZM3.00001 278.639C3.00001 279.191 3.44773 279.639 4.00001 279.639C4.5523 279.639 5.00001 279.191 5.00001 278.639L3.00001 278.639ZM5.00001 270.389C5.00001 269.837 4.5523 269.389 4.00001 269.389C3.44773 269.389 3.00001 269.837 3.00001 270.389L5.00001 270.389ZM3.00001 262.097C3.00001 262.649 3.44773 263.097 4.00001 263.097C4.5523 263.097 5.00001 262.649 5.00001 262.097L3.00001 262.097ZM5.00001 253.854C5.00001 253.301 4.5523 252.854 4.00001 252.854C3.44773 252.854 3.00001 253.301 3.00001 253.854L5.00001 253.854ZM3.00001 245.585C3.00001 246.137 3.44773 246.585 4.00001 246.585C4.5523 246.585 5.00001 246.137 5.00001 245.585L3.00001 245.585ZM5.00001 237.311C5.00001 236.758 4.5523 236.311 4.00001 236.311C3.44773 236.311 3.00001 236.758 3.00001 237.311L5.00001 237.311ZM3.00001 229.037C3.00001 229.59 3.44773 230.037 4.00001 230.037C4.5523 230.037 5.00001 229.59 5.00001 229.037L3.00001 229.037ZM5.00001 220.765C5.00001 220.213 4.5523 219.765 4.00001 219.765C3.44773 219.765 3.00001 220.213 3.00001 220.765L5.00001 220.765ZM3.00001 212.492C3.00001 213.045 3.44773 213.492 4.00001 213.492C4.5523 213.492 5.00001 213.045 5.00001 212.492L3.00001 212.492ZM5.00001 204.219C5.00001 203.667 4.5523 203.219 4.00001 203.219C3.44773 203.219 3.00001 203.667 3.00001 204.219L5.00001 204.219ZM3.00001 195.945C3.00001 196.497 3.44773 196.945 4.00001 196.945C4.5523 196.945 5.00001 196.497 5.00001 195.945L3.00001 195.945ZM5.00001 187.67C5.00001 187.118 4.5523 186.67 4.00001 186.67C3.44773 186.67 3.00001 187.118 3.00001 187.67L5.00001 187.67ZM3.00001 179.397C3.00001 179.95 3.44773 180.397 4.00001 180.397C4.5523 180.397 5.00001 179.95 5.00001 179.397L3.00001 179.397ZM5.00001 171.128C5.00001 170.576 4.5523 170.128 4.00001 170.128C3.44773 170.128 3.00001 170.576 3.00001 171.128L5.00001 171.128ZM3.00001 162.86C3.00001 163.412 3.44773 163.86 4.00001 163.86C4.5523 163.86 5.00001 163.412 5.00001 162.86L3.00001 162.86ZM5.00001 154.588C5.00001 154.036 4.5523 153.588 4.00001 153.588C3.44773 153.588 3.00001 154.036 3.00001 154.588L5.00001 154.588ZM3.00001 146.314C3.00001 146.867 3.44773 147.314 4.00001 147.314C4.5523 147.314 5.00001 146.867 5.00001 146.314L3.00001 146.314ZM5.00001 138.041C5.00001 137.488 4.5523 137.041 4.00001 137.041C3.44773 137.041 3.00001 137.488 3.00001 138.041L5.00001 138.041ZM3.00001 129.768C3.00001 130.32 3.44773 130.768 4.00001 130.768C4.5523 130.768 5.00001 130.32 5.00001 129.768L3.00001 129.768ZM5.00001 121.497C5.00001 120.945 4.5523 120.497 4.00001 120.497C3.44773 120.497 3.00001 120.945 3.00001 121.497L5.00001 121.497ZM3.00001 113.227C3.00001 113.779 3.44773 114.227 4.00001 114.227C4.5523 114.227 5.00001 113.779 5.00001 113.227L3.00001 113.227ZM5.00001 104.956C5.00001 104.404 4.5523 103.956 4.00001 103.956C3.44773 103.956 3.00001 104.404 3.00001 104.956L5.00001 104.956ZM3.00001 96.6821C3.00001 97.2344 3.44773 97.6821 4.00001 97.6821C4.5523 97.6821 5.00001 97.2344 5.00001 96.6821L3.00001 96.6821ZM5.00001 88.4048C5.00001 87.8525 4.5523 87.4048 4.00001 87.4048C3.44773 87.4048 3.00001 87.8525 3.00001 88.4048L5.00001 88.4048ZM3.00001 80.1296C3.00001 80.6818 3.44773 81.1296 4.00001 81.1296C4.5523 81.1296 5.00001 80.6818 5.00001 80.1296L3.00001 80.1296ZM5.00001 71.8796C5.00001 71.3274 4.5523 70.8796 4.00001 70.8796C3.44773 70.8796 3.00001 71.3274 3.00001 71.8796L5.00001 71.8796ZM3.00001 63.6036C3.00001 64.1559 3.44773 64.6036 4.00001 64.6036C4.5523 64.6036 5.00001 64.1559 5.00001 63.6036L3.00001 63.6036ZM5.28511 56.5986C5.39235 56.0568 5.04009 55.5307 4.49832 55.4234C3.95654 55.3162 3.43041 55.6685 3.32317 56.2102L5.28511 56.5986ZM5.86603 50.0894C5.558 50.5478 5.67989 51.1691 6.13829 51.4772C6.5967 51.7852 7.21802 51.6633 7.52605 51.2049L5.86603 50.0894ZM11.6698 47.0812C12.1296 46.7753 12.2543 46.1545 11.9484 45.6947C11.6424 45.2349 11.0216 45.1102 10.5618 45.4162L11.6698 47.0812ZM16.6887 42.8937C16.1467 43.0001 15.7936 43.5257 15.9 44.0676C16.0064 44.6096 16.532 44.9627 17.0739 44.8563L16.6887 42.8937ZM23.9643 44.5733C24.5166 44.5733 24.9643 44.1255 24.9643 43.5733C24.9643 43.021 24.5166 42.5733 23.9643 42.5733L23.9643 44.5733ZM31.8929 42.5733C31.3406 42.5733 30.8929 43.021 30.8929 43.5733C30.8929 44.1255 31.3406 44.5733 31.8929 44.5733L31.8929 42.5733ZM39.8215 44.5733C40.3737 44.5733 40.8215 44.1255 40.8215 43.5733C40.8215 43.021 40.3737 42.5733 39.8215 42.5733L39.8215 44.5733ZM47.75 42.5732C47.1977 42.5732 46.75 43.021 46.75 43.5732C46.75 44.1255 47.1977 44.5732 47.75 44.5732L47.75 42.5732ZM55.6786 44.5732C56.2309 44.5732 56.6786 44.1255 56.6786 43.5732C56.6786 43.021 56.2309 42.5732 55.6786 42.5732L55.6786 44.5732ZM63.6072 42.5732C63.0549 42.5732 62.6072 43.021 62.6072 43.5732C62.6072 44.1255 63.0549 44.5732 63.6072 44.5732L63.6072 42.5732ZM71.5357 44.5732C72.088 44.5732 72.5357 44.1255 72.5357 43.5732C72.5357 43.021 72.088 42.5732 71.5357 42.5732L71.5357 44.5732ZM79.4643 42.5732C78.912 42.5732 78.4643 43.0209 78.4643 43.5732C78.4643 44.1255 78.912 44.5732 79.4643 44.5732L79.4643 42.5732ZM87.3929 44.5732C87.9452 44.5732 88.3929 44.1255 88.3929 43.5732C88.3929 43.0209 87.9452 42.5732 87.3929 42.5732L87.3929 44.5732ZM95.3215 42.5732C94.7692 42.5732 94.3215 43.0209 94.3215 43.5732C94.3215 44.1255 94.7692 44.5732 95.3215 44.5732L95.3215 42.5732ZM103.25 44.5732C103.802 44.5732 104.25 44.1255 104.25 43.5732C104.25 43.0209 103.802 42.5732 103.25 42.5732L103.25 44.5732ZM111.179 42.5732C110.626 42.5732 110.179 43.0209 110.179 43.5732C110.179 44.1255 110.626 44.5732 111.179 44.5732L111.179 42.5732ZM119.107 44.5732C119.659 44.5732 120.107 44.1255 120.107 43.5732C120.107 43.0209 119.659 42.5732 119.107 42.5732L119.107 44.5732ZM127.036 42.5732C126.483 42.5732 126.036 43.0209 126.036 43.5732C126.036 44.1255 126.483 44.5732 127.036 44.5732L127.036 42.5732ZM134.964 44.5732C135.517 44.5732 135.964 44.1255 135.964 43.5732C135.964 43.0209 135.517 42.5732 134.964 42.5732L134.964 44.5732ZM142.893 42.5732C142.341 42.5732 141.893 43.0209 141.893 43.5732C141.893 44.1255 142.341 44.5732 142.893 44.5732L142.893 42.5732ZM150.821 44.5732C151.374 44.5732 151.821 44.1255 151.821 43.5732C151.821 43.0209 151.374 42.5732 150.821 42.5732L150.821 44.5732ZM158.75 42.5732C158.198 42.5732 157.75 43.0209 157.75 43.5732C157.75 44.1255 158.198 44.5732 158.75 44.5732L158.75 42.5732ZM166.679 44.5732C167.231 44.5732 167.679 44.1255 167.679 43.5732C167.679 43.0209 167.231 42.5732 166.679 42.5732L166.679 44.5732ZM174.607 42.5732C174.055 42.5732 173.607 43.0209 173.607 43.5732C173.607 44.1255 174.055 44.5732 174.607 44.5732L174.607 42.5732ZM182.536 44.5732C183.088 44.5732 183.536 44.1255 183.536 43.5732C183.536 43.0209 183.088 42.5732 182.536 42.5732L182.536 44.5732ZM190.464 42.5732C189.912 42.5732 189.464 43.0209 189.464 43.5732C189.464 44.1255 189.912 44.5732 190.464 44.5732L190.464 42.5732ZM198.393 44.5732C198.945 44.5732 199.393 44.1255 199.393 43.5732C199.393 43.0209 198.945 42.5732 198.393 42.5732L198.393 44.5732ZM206.321 42.5732C205.769 42.5732 205.321 43.0209 205.321 43.5732C205.321 44.1254 205.769 44.5732 206.321 44.5732L206.321 42.5732ZM214.25 44.5732C214.802 44.5732 215.25 44.1254 215.25 43.5732C215.25 43.0209 214.802 42.5732 214.25 42.5732L214.25 44.5732ZM222.179 42.5732C221.626 42.5732 221.179 43.0209 221.179 43.5732C221.179 44.1254 221.626 44.5732 222.179 44.5732L222.179 42.5732ZM230.107 44.5731C230.659 44.5731 231.107 44.1254 231.107 43.5731C231.107 43.0209 230.659 42.5731 230.107 42.5731L230.107 44.5731ZM238.036 42.5731C237.483 42.5731 237.036 43.0209 237.036 43.5731C237.036 44.1254 237.483 44.5731 238.036 44.5731L238.036 42.5731ZM245.964 44.5731C246.517 44.5731 246.964 44.1254 246.964 43.5731C246.964 43.0209 246.517 42.5731 245.964 42.5731L245.964 44.5731ZM253.893 42.5731C253.341 42.5731 252.893 43.0209 252.893 43.5731C252.893 44.1254 253.341 44.5731 253.893 44.5731L253.893 42.5731ZM261.822 44.5731C262.374 44.5731 262.822 44.1254 262.822 43.5731C262.822 43.0208 262.374 42.5731 261.822 42.5731L261.822 44.5731ZM269.75 42.5731C269.198 42.5731 268.75 43.0208 268.75 43.5731C268.75 44.1254 269.198 44.5731 269.75 44.5731L269.75 42.5731ZM277.679 44.5731C278.231 44.5731 278.679 44.1254 278.679 43.5731C278.679 43.0208 278.231 42.5731 277.679 42.5731L277.679 44.5731ZM285.607 42.5731C285.055 42.5731 284.607 43.0208 284.607 43.5731C284.607 44.1254 285.055 44.5731 285.607 44.5731L285.607 42.5731ZM293.536 44.5731C294.088 44.5731 294.536 44.1254 294.536 43.5731C294.536 43.0208 294.088 42.5731 293.536 42.5731L293.536 44.5731ZM301.464 42.5731C300.912 42.5731 300.464 43.0208 300.464 43.5731C300.464 44.1254 300.912 44.5731 301.464 44.5731L301.464 42.5731ZM309.393 44.5731C309.945 44.5731 310.393 44.1254 310.393 43.5731C310.393 43.0208 309.945 42.5731 309.393 42.5731L309.393 44.5731ZM317.321 42.5731C316.769 42.5731 316.321 43.0208 316.321 43.5731C316.321 44.1254 316.769 44.5731 317.321 44.5731L317.321 42.5731ZM325.25 44.5731C325.802 44.5731 326.25 44.1254 326.25 43.5731C326.25 43.0208 325.802 42.5731 325.25 42.5731L325.25 44.5731ZM333.179 42.5731C332.626 42.5731 332.179 43.0208 332.179 43.5731C332.179 44.1254 332.626 44.5731 333.179 44.5731L333.179 42.5731ZM341.107 44.5731C341.659 44.5731 342.107 44.1254 342.107 43.5731C342.107 43.0208 341.659 42.5731 341.107 42.5731L341.107 44.5731ZM349.036 42.5731C348.483 42.5731 348.036 43.0208 348.036 43.5731C348.036 44.1254 348.483 44.5731 349.036 44.5731L349.036 42.5731ZM356.964 44.5731C357.516 44.5731 357.964 44.1254 357.964 43.5731C357.964 43.0208 357.516 42.5731 356.964 42.5731L356.964 44.5731ZM364.893 42.5731C364.34 42.5731 363.893 43.0208 363.893 43.5731C363.893 44.1254 364.34 44.5731 364.893 44.5731L364.893 42.5731ZM372.821 44.5731C373.374 44.5731 373.821 44.1254 373.821 43.5731C373.821 43.0208 373.374 42.5731 372.821 42.5731L372.821 44.5731ZM380.75 42.5731C380.198 42.5731 379.75 43.0208 379.75 43.5731C379.75 44.1254 380.198 44.5731 380.75 44.5731L380.75 42.5731ZM388.678 44.5731C389.231 44.5731 389.678 44.1253 389.678 43.5731C389.678 43.0208 389.231 42.5731 388.678 42.5731L388.678 44.5731ZM396.607 42.5731C396.055 42.5731 395.607 43.0208 395.607 43.5731C395.607 44.1253 396.055 44.5731 396.607 44.5731L396.607 42.5731ZM404.536 44.5731C405.088 44.5731 405.536 44.1253 405.536 43.5731C405.536 43.0208 405.088 42.5731 404.536 42.5731L404.536 44.5731ZM412.464 42.573C411.912 42.573 411.464 43.0208 411.464 43.5731C411.464 44.1253 411.912 44.573 412.464 44.573L412.464 42.573ZM420.393 44.573C420.945 44.573 421.393 44.1253 421.393 43.573C421.393 43.0208 420.945 42.573 420.393 42.573L420.393 44.573ZM428.321 42.573C427.769 42.573 427.321 43.0208 427.321 43.573C427.321 44.1253 427.769 44.573 428.321 44.573L428.321 42.573ZM436.25 44.573C436.802 44.573 437.25 44.1253 437.25 43.573C437.25 43.0208 436.802 42.573 436.25 42.573L436.25 44.573ZM444.178 42.573C443.626 42.573 443.178 43.0207 443.178 43.573C443.178 44.1253 443.626 44.573 444.178 44.573L444.178 42.573ZM452.107 44.573C452.659 44.573 453.107 44.1253 453.107 43.573C453.107 43.0207 452.659 42.573 452.107 42.573L452.107 44.573ZM460.035 42.573C459.483 42.573 459.035 43.0207 459.035 43.573C459.035 44.1253 459.483 44.573 460.035 44.573L460.035 42.573ZM467.964 44.573C468.516 44.573 468.964 44.1253 468.964 43.573C468.964 43.0207 468.516 42.573 467.964 42.573L467.964 44.573ZM475.893 42.573C475.34 42.573 474.893 43.0207 474.893 43.573C474.893 44.1253 475.34 44.573 475.893 44.573L475.893 42.573ZM483.821 44.573C484.373 44.573 484.821 44.1253 484.821 43.573C484.821 43.0207 484.373 42.573 483.821 42.573L483.821 44.573ZM491.75 42.573C491.197 42.573 490.75 43.0207 490.75 43.573C490.75 44.1253 491.197 44.573 491.75 44.573L491.75 42.573ZM499.678 44.573C500.231 44.573 500.678 44.1253 500.678 43.573C500.678 43.0207 500.231 42.573 499.678 42.573L499.678 44.573ZM507.607 42.573C507.055 42.573 506.607 43.0207 506.607 43.573C506.607 44.1253 507.055 44.573 507.607 44.573L507.607 42.573ZM515.535 44.573C516.088 44.573 516.535 44.1253 516.535 43.573C516.535 43.0207 516.088 42.573 515.535 42.573L515.535 44.573ZM523.464 42.573C522.912 42.573 522.464 43.0207 522.464 43.573C522.464 44.1253 522.912 44.573 523.464 44.573L523.464 42.573ZM531.393 44.573C531.945 44.573 532.393 44.1253 532.393 43.573C532.393 43.0207 531.945 42.573 531.393 42.573L531.393 44.573ZM539.321 42.573C538.769 42.573 538.321 43.0207 538.321 43.573C538.321 44.1253 538.769 44.573 539.321 44.573L539.321 42.573ZM547.25 44.573C547.802 44.573 548.25 44.1253 548.25 43.573C548.25 43.0207 547.802 42.573 547.25 42.573L547.25 44.573ZM555.178 42.573C554.626 42.573 554.178 43.0207 554.178 43.573C554.178 44.1253 554.626 44.573 555.178 44.573L555.178 42.573ZM563.107 44.573C563.659 44.573 564.107 44.1253 564.107 43.573C564.107 43.0207 563.659 42.573 563.107 42.573L563.107 44.573ZM571.035 42.573C570.483 42.573 570.035 43.0207 570.035 43.573C570.035 44.1252 570.483 44.573 571.035 44.573L571.035 42.573ZM578.317 44.2494C578.858 44.1422 579.211 43.6161 579.104 43.0743C578.996 42.5326 578.47 42.1802 577.929 42.2874L578.317 44.2494ZM583.334 40.047C582.875 40.3543 582.752 40.9754 583.059 41.4343C583.366 41.8933 583.987 42.0162 584.446 41.709L583.334 40.047ZM589.136 37.0191C589.443 36.5602 589.32 35.9391 588.861 35.6318C588.402 35.3246 587.781 35.4476 587.474 35.9065L589.136 37.0191ZM589.714 30.5015C589.607 31.0433 589.96 31.5694 590.501 31.6765C591.043 31.7837 591.569 31.4314 591.676 30.8896L589.714 30.5015ZM592 24.1263C592 23.5741 591.552 23.1263 591 23.1263C590.448 23.1263 590 23.5741 590 24.1263L592 24.1263ZM590 17.2331C590 17.7854 590.448 18.2331 591 18.2331C591.552 18.2331 592 17.7854 592 17.2331L590 17.2331ZM592 10.3398C592 9.78756 591.552 9.33984 591 9.33984C590.448 9.33984 590 9.78756 590 10.3398L592 10.3398ZM590 3.4466C590 3.99888 590.448 4.4466 591 4.4466C591.552 4.4466 592 3.99888 592 3.4466L590 3.4466ZM5.00001 291C5.00001 290.164 5.00001 288.775 5.00001 286.891L3.00001 286.891C3.00001 288.775 3.00001 290.164 3.00001 291L5.00001 291ZM5.00001 278.639C5.00001 276.179 5.00001 273.417 5.00001 270.389L3.00001 270.389C3.00001 273.417 3.00001 276.179 3.00001 278.639L5.00001 278.639ZM5.00001 262.097C5.00001 259.48 5.00001 256.728 5.00001 253.854L3.00001 253.854C3.00001 256.728 3.00001 259.48 3.00001 262.097L5.00001 262.097ZM5.00001 245.585C5.00001 242.905 5.00001 240.143 5.00001 237.311L3.00001 237.311C3.00001 240.143 3.00001 242.905 3.00001 245.585L5.00001 245.585ZM5.00001 229.037C5.00001 226.329 5.00001 223.569 5.00001 220.765L3.00001 220.765C3.00001 223.569 3.00001 226.329 3.00001 229.037L5.00001 229.037ZM5.00001 212.492C5.00001 209.766 5.00001 207.006 5.00001 204.219L3.00001 204.219C3.00001 207.006 3.00001 209.766 3.00001 212.492L5.00001 212.492ZM5.00001 195.945C5.00001 193.204 5.00001 190.444 5.00001 187.67L3.00001 187.67C3.00001 190.444 3.00001 193.204 3.00001 195.945L5.00001 195.945ZM5.00001 179.397C5.00001 176.647 5.00001 173.889 5.00001 171.128L3.00001 171.128C3.00001 173.889 3.00001 176.647 3.00001 179.397L5.00001 179.397ZM5.00001 162.86C5.00001 160.098 5.00001 157.339 5.00001 154.588L3.00001 154.588C3.00001 157.339 3.00001 160.098 3.00001 162.86L5.00001 162.86ZM5.00001 146.314C5.00001 143.54 5.00001 140.78 5.00001 138.041L3.00001 138.041C3.00001 140.78 3.00001 143.54 3.00001 146.314L5.00001 146.314ZM5.00001 129.768C5.00001 126.981 5.00001 124.222 5.00001 121.497L3.00001 121.497C3.00001 124.222 3.00001 126.981 3.00001 129.768L5.00001 129.768ZM5.00001 113.227C5.00001 110.421 5.00001 107.662 5.00001 104.956L3.00001 104.956C3.00001 107.662 3.00001 110.421 3.00001 113.227L5.00001 113.227ZM5.00001 96.6821C5.00001 93.845 5.00001 91.0826 5.00001 88.4048L3.00001 88.4048C3.00001 91.0826 3.00001 93.845 3.00001 96.6821L5.00001 96.6821ZM5.00001 80.1296C5.00001 77.2458 5.00001 74.4906 5.00001 71.8796L3.00001 71.8796C3.00001 74.4906 3.00001 77.2458 3.00001 80.1296L5.00001 80.1296ZM5.00001 63.6036C5.00001 62.1778 5.00001 60.8162 5.00001 59.5228L3.00001 59.5228C3.00001 60.8162 3.00001 62.1778 3.00001 63.6036L5.00001 63.6036ZM5.00001 59.5228C5.00001 58.5205 5.09819 57.5429 5.28511 56.5986L3.32317 56.2102C3.11105 57.2819 3.00001 58.3896 3.00001 59.5228L5.00001 59.5228ZM7.52605 51.2049C8.62204 49.5739 10.032 48.171 11.6698 47.0812L10.5618 45.4162C8.70623 46.6509 7.10853 48.2404 5.86603 50.0894L7.52605 51.2049ZM17.0739 44.8563C18.0195 44.6707 18.9978 44.5733 20 44.5733L20 42.5733C18.8679 42.5733 17.7606 42.6833 16.6887 42.8937L17.0739 44.8563ZM20 44.5733L23.9643 44.5733L23.9643 42.5733L20 42.5733L20 44.5733ZM31.8929 44.5733L39.8215 44.5733L39.8215 42.5733L31.8929 42.5733L31.8929 44.5733ZM47.75 44.5732L55.6786 44.5732L55.6786 42.5732L47.75 42.5732L47.75 44.5732ZM63.6072 44.5732L71.5357 44.5732L71.5357 42.5732L63.6072 42.5732L63.6072 44.5732ZM79.4643 44.5732L87.3929 44.5732L87.3929 42.5732L79.4643 42.5732L79.4643 44.5732ZM95.3215 44.5732L103.25 44.5732L103.25 42.5732L95.3215 42.5732L95.3215 44.5732ZM111.179 44.5732L119.107 44.5732L119.107 42.5732L111.179 42.5732L111.179 44.5732ZM127.036 44.5732L134.964 44.5732L134.964 42.5732L127.036 42.5732L127.036 44.5732ZM142.893 44.5732L150.821 44.5732L150.821 42.5732L142.893 42.5732L142.893 44.5732ZM158.75 44.5732L166.679 44.5732L166.679 42.5732L158.75 42.5732L158.75 44.5732ZM174.607 44.5732L182.536 44.5732L182.536 42.5732L174.607 42.5732L174.607 44.5732ZM190.464 44.5732L198.393 44.5732L198.393 42.5732L190.464 42.5732L190.464 44.5732ZM206.321 44.5732L214.25 44.5732L214.25 42.5732L206.321 42.5732L206.321 44.5732ZM222.179 44.5732L230.107 44.5731L230.107 42.5731L222.179 42.5732L222.179 44.5732ZM238.036 44.5731L245.964 44.5731L245.964 42.5731L238.036 42.5731L238.036 44.5731ZM253.893 44.5731L261.822 44.5731L261.822 42.5731L253.893 42.5731L253.893 44.5731ZM269.75 44.5731L277.679 44.5731L277.679 42.5731L269.75 42.5731L269.75 44.5731ZM285.607 44.5731L293.536 44.5731L293.536 42.5731L285.607 42.5731L285.607 44.5731ZM301.464 44.5731L309.393 44.5731L309.393 42.5731L301.464 42.5731L301.464 44.5731ZM317.321 44.5731L325.25 44.5731L325.25 42.5731L317.321 42.5731L317.321 44.5731ZM333.179 44.5731L341.107 44.5731L341.107 42.5731L333.179 42.5731L333.179 44.5731ZM349.036 44.5731L356.964 44.5731L356.964 42.5731L349.036 42.5731L349.036 44.5731ZM364.893 44.5731L372.821 44.5731L372.821 42.5731L364.893 42.5731L364.893 44.5731ZM380.75 44.5731L388.678 44.5731L388.678 42.5731L380.75 42.5731L380.75 44.5731ZM396.607 44.5731L404.536 44.5731L404.536 42.5731L396.607 42.5731L396.607 44.5731ZM412.464 44.573L420.393 44.573L420.393 42.573L412.464 42.573L412.464 44.573ZM428.321 44.573L436.25 44.573L436.25 42.573L428.321 42.573L428.321 44.573ZM444.178 44.573L452.107 44.573L452.107 42.573L444.178 42.573L444.178 44.573ZM460.035 44.573L467.964 44.573L467.964 42.573L460.035 42.573L460.035 44.573ZM475.893 44.573L483.821 44.573L483.821 42.573L475.893 42.573L475.893 44.573ZM491.75 44.573L499.678 44.573L499.678 42.573L491.75 42.573L491.75 44.573ZM507.607 44.573L515.535 44.573L515.535 42.573L507.607 42.573L507.607 44.573ZM523.464 44.573L531.393 44.573L531.393 42.573L523.464 42.573L523.464 44.573ZM539.321 44.573L547.25 44.573L547.25 42.573L539.321 42.573L539.321 44.573ZM555.178 44.573L563.107 44.573L563.107 42.573L555.178 42.573L555.178 44.573ZM571.035 44.573L575 44.573L575 42.573L571.035 42.573L571.035 44.573ZM575 44.573C576.134 44.573 577.243 44.4618 578.317 44.2494L577.929 42.2874C576.982 42.4746 576.003 42.573 575 42.573L575 44.573ZM584.446 41.709C586.3 40.4681 587.895 38.8726 589.136 37.0191L587.474 35.9065C586.379 37.5427 584.97 38.9516 583.334 40.047L584.446 41.709ZM591.676 30.8896C591.889 29.8161 592 28.707 592 27.573L590 27.573C590 28.576 589.902 29.5551 589.714 30.5015L591.676 30.8896ZM592 27.573L592 24.1263L590 24.1263L590 27.573L592 27.573ZM592 17.2331L592 10.3398L590 10.3398L590 17.2331L592 17.2331ZM592 3.4466L592 -2.57023e-05L590 -2.56149e-05L590 3.4466L592 3.4466Z" fill="#5199B5"/>
</g>
<defs>
<clipPath id="clip0_7151_8294">
<rect width="589" height="212" fill="white" transform="translate(2 79)"/>
</clipPath>
<clipPath id="clip1_7151_8294">
<rect width="597" height="79" fill="white"/>
</clipPath>
</defs>
</svg>
