<svg width="267" height="191" viewBox="0 0 267 191" fill="none" xmlns="http://www.w3.org/2000/svg">
<path d="M2.60474 78.48C2.49427 78.49 2.38738 78.5243 2.29178 78.5806C2.19617 78.6368 2.11422 78.7135 2.05183 78.8053C1.98944 78.897 1.94816 79.0014 1.93096 79.111C1.91375 79.2205 1.92106 79.3326 1.95234 79.439C3.12694 83.1168 6.79634 92.319 8.50574 95.7714C6.79634 96.0262 4.32114 99.1006 5.14574 101.56C5.97034 104.02 8.53514 102.693 9.81054 100.383C11.2343 97.8028 10.2879 96.7948 9.27014 94.384C7.22614 89.5414 5.35014 84.801 3.71354 80.0536C5.17138 80.3065 6.54311 80.919 7.70452 81.8357C8.86593 82.7524 9.78034 83.9444 10.3649 85.3036C10.5945 85.8412 11.1055 85.6886 10.9725 85.1314C10.4739 83.2728 9.39169 81.6234 7.8853 80.426C6.37891 79.2286 4.5279 78.5465 2.60474 78.48ZM9.19594 98.178C9.01301 99.3189 8.44362 100.362 7.58314 101.133C5.84294 102.687 5.94654 99.3974 7.70354 97.6236C8.96074 96.3622 9.24774 97.1252 9.19594 98.1822V98.178Z" fill="#FC4040"/>
<path d="M126.915 23.5639C129.368 21.8251 128.812 19.4619 128.722 16.7697C128.593 12.8791 128.416 8.99406 128.257 5.11046C131.349 3.76969 134.541 2.67385 137.804 1.83306C138.186 5.79226 138.784 10.5313 138.784 14.2427C136.474 13.9137 133.629 16.4085 134.226 18.0829C134.867 19.8875 137.56 19.1217 138.724 18.1879C140.764 16.5499 140.296 14.3939 140.187 12.0685C140.037 8.86667 139.604 5.67887 139.302 2.49247C139.162 1.09247 139.144 0.207664 138.23 0.112464C136.601 -0.0499358 129.981 2.47566 128.241 3.32266C126.5 4.16966 126.612 3.97366 126.741 5.68446C127.062 9.94886 127.326 14.2329 127.364 18.5743C124.364 17.8253 120.244 21.6095 122.184 23.8243C123.339 25.1403 125.446 24.6069 126.915 23.5639ZM137.773 17.2121C136.793 17.9121 135.463 18.2551 135.523 17.5579C135.523 16.6059 137.241 15.5447 138.351 15.5405C139.205 15.5377 138.683 16.5597 137.773 17.2121ZM123.938 21.1321C126.479 18.5673 128.715 20.4881 126.318 22.2647C124.088 23.9083 121.906 23.1803 123.938 21.1265V21.1321Z" fill="#FC4040"/>
<path d="M229.153 32.1503C232.243 32.0635 232.793 30.7713 233.54 28.3563C235.09 23.2953 236.62 18.2329 238.167 13.1789C240.469 17.2123 240.398 19.9255 239.973 24.1717C239.927 24.6435 240.385 24.9207 240.641 24.3663C242.223 20.9433 241.12 13.6143 238.331 11.1167C237.754 10.5987 237.277 10.9529 237.049 11.6039C235.846 15.0577 232.989 24.9291 232.341 27.9657C231.444 27.5656 230.463 27.39 229.483 27.4542C228.503 27.5184 227.554 27.8203 226.717 28.3339C224.421 29.8151 226.612 32.2203 229.153 32.1503ZM231.568 29.6009C231.13 30.1757 230.496 30.5696 229.787 30.7077C229.077 30.8458 228.342 30.7185 227.721 30.3499C225.467 28.8281 232.315 27.8145 231.568 29.6009Z" fill="#FC4040"/>
<path d="M138.787 169.825C137.333 170.578 133.43 175.145 132.727 176.38C132.464 176.843 133.171 177.347 133.538 177.002C135.682 174.994 137.655 172.811 139.439 170.478C139.695 170.142 139.16 169.631 138.787 169.825Z" fill="#FC4040"/>
<path d="M159.549 175.149C159.082 171.729 158.273 168.366 157.135 165.108C156.886 164.607 156.123 164.56 156.123 165.153C156.596 168.58 157.438 171.947 158.635 175.193C158.836 175.658 159.585 175.681 159.549 175.149Z" fill="#FC4040"/>
<path d="M148.986 173.013C151.472 174.834 154.102 176.449 156.851 177.842C156.908 177.871 156.97 177.888 157.034 177.893C157.098 177.898 157.162 177.89 157.223 177.87C157.284 177.85 157.34 177.819 157.389 177.777C157.437 177.735 157.477 177.684 157.506 177.627C157.894 176.864 156.848 177.009 149.795 171.677C148.961 171.049 148.186 172.421 148.986 173.013Z" fill="#FC4040"/>
<path d="M252.887 170.289C252.016 169.967 243.598 171.671 242.216 171.976C241.691 172.093 241.871 172.956 242.388 172.892C243.715 172.737 252.369 171.835 252.954 171.393C253.284 171.085 253.374 170.432 252.887 170.289Z" fill="#FC4040"/>
<path d="M242.442 168.43C245.028 166.157 247.417 163.669 249.582 160.992C250.142 160.303 249.147 159.379 248.561 160.054C246.386 162.565 243.874 165.161 241.85 167.724C241.547 168.107 242.019 168.795 242.442 168.43Z" fill="#FC4040"/>
<path d="M130.283 162.341C129.789 166.09 129.204 171.554 129.121 175.306C129.109 175.866 129.872 175.8 130.028 175.351C130.934 171.089 131.336 166.735 131.228 162.379C131.213 162.267 131.159 162.164 131.075 162.088C130.992 162.012 130.884 161.968 130.772 161.963C130.659 161.959 130.548 161.994 130.459 162.063C130.369 162.132 130.307 162.23 130.283 162.341Z" fill="#FC4040"/>
<path d="M29.352 173.806C29.4407 173.779 29.5183 173.724 29.5734 173.649C29.6285 173.574 29.6582 173.483 29.6582 173.391C29.6582 173.298 29.6285 173.207 29.5734 173.132C29.5183 173.058 29.4407 173.002 29.352 172.975C27.9128 172.39 19.9342 171.911 17.7138 171.73C15.142 171.52 15.1868 173.095 17.4338 173.23C19.6808 173.364 27.77 174.19 29.352 173.806Z" fill="#FC4040"/>
<path d="M23.9595 162.297C21.8903 160.033 21.0811 161.785 22.5273 163.144C24.5815 165.077 26.7418 166.894 28.9981 168.587C29.4489 168.925 29.9641 168.184 29.5833 167.838C27.5799 166.017 25.6899 164.19 23.9595 162.297Z" fill="#FC4040"/>
<path d="M249.002 188.226C173.822 188.731 98.1011 188.395 23.8619 188.076C23.0219 188.076 22.8497 189.343 23.7219 189.352C95.1849 189.983 178.233 191.825 249.027 189.352C249.669 189.329 249.669 188.222 249.002 188.226Z" fill="#FC4040"/>
<path d="M24.7627 56.2291C31.4673 62.0097 45.4071 66.6661 50.2581 73.6549C50.6907 74.2793 50.2581 74.6111 49.8087 74.1729C49.2417 73.6129 48.6761 73.0403 48.0993 72.4929C46.6447 74.8477 43.1419 79.0463 40.4805 84.4909C45.1747 95.2219 68.1207 98.8437 79.3305 97.3807C75.3195 83.6061 86.0505 83.8931 83.1693 72.3725C83.0489 71.8867 83.5067 71.6235 83.6719 72.1107C85.9833 78.9147 82.3531 82.3839 80.1103 88.0231C86.6791 96.2257 93.1807 97.6733 111.216 102.428C111.656 99.8034 113.001 97.4158 115.017 95.6783C110.727 94.9293 98.9473 86.9801 95.3479 82.8109C91.7485 78.6417 89.2887 64.3407 79.3529 57.9455C76.9155 62.4451 67.3129 57.1965 64.9413 52.2167C50.1685 48.0923 47.6933 49.3971 38.6955 46.1505C29.6977 42.9039 23.6385 37.1513 16.6273 29.1055C15.1279 31.4225 10.9433 33.4623 9.12891 33.8151C11.6405 41.7867 17.5191 49.9823 24.7627 56.2291Z" fill="#FC4040"/>
<path d="M256.57 62.9018C251.81 54.3072 224.459 43.0904 212.74 46.2166C208.9 53.715 200.967 55.8906 198.372 52.6132C195.08 54.4052 183.802 63.3288 177.372 73.4074C178.315 75.079 179.053 76.8588 179.568 78.7078C179.708 79.4582 179.322 79.5408 179.043 78.9038C175.518 70.8082 170.568 63.411 164.429 57.0638C161.741 59.383 158.517 60.9941 155.049 61.751C157.583 69.0618 164.18 92.7568 173.66 95.9446C182.597 98.949 191.919 88.9628 196.388 83.9466C195.51 80.3683 193.986 76.9806 191.89 73.9506C191.484 73.3654 191.95 72.8852 192.467 73.5012C198.187 80.3122 198.87 90.3432 198.39 98.7418C208.394 103.99 228.01 103.45 240.743 98.8916C240.354 91.2056 237.496 80.5642 235.021 77.0628C229.779 76.0693 224.741 74.2064 220.114 71.551C219.477 71.1842 219.964 70.6676 220.444 70.8986C227.024 74.0752 232.194 75.8336 239.46 75.968C240.383 78.383 244.485 99.8366 245.189 105.872C249.226 106.482 253.346 106.227 257.277 105.123C257.919 101.752 261.331 71.495 256.57 62.9018Z" fill="#FC4040"/>
<path d="M79.6146 45.5799C79.2856 45.4931 78.9762 45.7297 79.427 46.0517C79.6307 46.2331 79.8899 46.3401 80.1623 46.3551C80.4346 46.3701 80.704 46.2922 80.9264 46.1343C81.5032 45.5743 81.4864 43.8327 81.3688 43.0445C81.3086 42.6399 80.8088 42.7225 80.8214 43.1957C80.8632 44.0116 80.7409 44.8276 80.4616 45.5953C80.1844 45.8347 79.8624 45.6443 79.6146 45.5799Z" fill="#113362"/>
<path d="M83.0865 44.7466C83.5205 44.9048 84.1953 43.9976 83.8355 43.2472C83.4757 42.4968 82.1177 44.3952 83.0865 44.7466Z" fill="#113362"/>
<path d="M77.7919 42.1383C77.5777 42.8901 78.7355 43.5635 79.0365 42.1383C79.2843 40.9693 78.1055 41.0379 77.7919 42.1383Z" fill="#113362"/>
<path d="M85.3132 42.2958C85.4406 42.5758 86.0131 42.566 85.7555 41.8226C85.6242 41.4358 85.3901 41.092 85.0784 40.8279C84.7667 40.5638 84.3891 40.3893 83.9859 40.3232C83.5057 40.3232 83.3293 40.9224 83.9117 41.1254C84.5093 41.3257 85.0096 41.7435 85.3132 42.2958Z" fill="#113362"/>
<path d="M79.9309 38.7339C79.511 38.5237 79.0458 38.4198 78.5764 38.4316C78.1069 38.4433 77.6476 38.5702 77.2387 38.8011C76.8411 39.0811 76.9741 39.4451 77.3885 39.3331C78.1363 39.1405 78.9266 39.1985 79.6383 39.4983C80.2529 39.6999 80.4097 39.0629 79.9309 38.7339Z" fill="#113362"/>
<path d="M76.3322 45.1752C74.3624 47.6462 76.2342 51.2302 79.7664 48.8334C80.6904 48.2076 80.3432 47.936 79.3758 47.6644C77.8078 47.2234 77.63 46.7082 77.0588 45.4146C76.8614 44.9778 76.7508 44.6488 76.3322 45.1752ZM79.1588 48.3546C77.5096 49.5236 75.7246 48.181 76.5786 46.1048C76.715 46.7047 77.0384 47.2458 77.5021 47.6501C77.9658 48.0544 78.5459 48.3011 79.1588 48.3546Z" fill="#113362"/>
<path d="M66.7022 52.5605C66.3564 52.8615 66.7778 53.2353 67.1754 53.0337C69.6772 51.7625 71.1192 46.4649 71.4118 43.7125C71.4118 43.3821 71.3222 42.9621 70.8938 43.0601C70.4757 43.195 70.0357 43.2487 69.5974 43.2183C68.098 42.9173 68.0294 39.5783 69.799 39.1835C70.161 39.0752 70.5512 39.115 70.8839 39.2944C71.2165 39.4737 71.4643 39.7777 71.5728 40.1397C71.6512 40.4029 71.8878 40.4197 72.1468 40.3301C74.5646 39.5461 76.946 36.0797 77.485 33.4015C79.9224 37.3215 85.486 38.9581 87.4586 37.9459C86.5892 42.4455 83.5162 51.2459 78.2956 52.4485C77.2976 52.6114 76.2737 52.4475 75.3764 51.9813C74.479 51.5151 73.7563 50.7715 73.3158 49.8613C73.0638 49.4105 72.627 49.6779 72.8216 50.1609C73.163 51.0264 73.7312 51.784 74.4666 52.3541C75.2019 52.9242 76.0773 53.2856 77.0006 53.4005C77.0608 54.6157 77.0258 55.9975 77.1742 57.1497C77.1805 57.1956 77.1959 57.2398 77.2195 57.2797C77.243 57.3196 77.2743 57.3545 77.3114 57.3822C77.3485 57.4099 77.3907 57.43 77.4357 57.4413C77.4806 57.4526 77.5274 57.4548 77.5732 57.4479C78.0282 57.3807 77.8364 56.8081 77.9834 55.9275C80.0685 56.9945 81.9994 58.339 83.7234 59.9245C91.7776 59.9245 97.0612 51.0667 94.1702 42.7227C93.0502 39.4831 94.6714 36.5767 96.1302 33.4323C98.3898 28.5771 95.3812 21.2887 86.7502 22.3723C83.309 22.8049 80.04 25.3767 77.9176 22.2323C74.1138 16.6001 68.0322 19.8831 64.416 27.3661C61.6916 32.9997 56.3618 32.5321 49.6362 31.6025C40.4046 30.3271 33.4382 34.7749 32.209 41.4249C42.0552 48.7595 55.5596 46.6749 67.1306 52.1181C66.9994 52.2764 66.8561 52.4243 66.7022 52.5605Z" fill="#113362"/>
<path d="M192.088 40.6233C192.493 41.8315 195.087 40.5043 194.787 39.9709C194.488 39.4375 193.693 40.3615 192.906 40.3237C192.636 38.9517 193.046 37.3837 192.732 37.2801C191.93 37.0113 191.93 40.2341 192.088 40.6233Z" fill="#113362"/>
<path d="M190.137 38.1408C190.333 38.3368 191.211 38.5314 190.85 37.347C190.431 35.9736 189.036 37.0404 190.137 38.1408Z" fill="#113362"/>
<path d="M195.184 35.6063C194.904 34.8083 194.074 34.8559 194.127 35.6511C194.224 37.1281 195.694 37.0399 195.184 35.6063Z" fill="#113362"/>
<path d="M189.305 33.8523C188.98 33.984 188.695 34.1964 188.475 34.4694C188.256 34.7423 188.11 35.0667 188.052 35.4119C187.872 36.0867 188.411 36.4983 188.63 35.7787C188.838 35.2394 189.25 34.8036 189.776 34.5649C190.231 34.3507 189.776 33.7319 189.305 33.8523Z" fill="#113362"/>
<path d="M193.059 32.4726C192.481 32.8772 192.779 33.4988 193.381 33.223C193.676 33.0842 193.997 33.0067 194.323 32.9952C194.649 32.9836 194.974 33.0383 195.278 33.1558C195.915 33.3434 196.028 32.8758 195.676 32.586C195.298 32.3133 194.849 32.1572 194.384 32.137C193.919 32.1168 193.458 32.2335 193.059 32.4726Z" fill="#113362"/>
<path d="M198.717 42.3029C198.949 41.6856 199.044 41.0252 198.996 40.3674C198.948 39.7096 198.757 39.0702 198.437 38.4935C198.157 37.8873 197.896 37.7445 197.626 38.4935C197.503 39.0916 197.233 39.6497 196.84 40.1171C196.448 40.5845 195.944 40.9465 195.376 41.1703C193.632 41.7653 197.501 44.1579 198.717 42.3029ZM198.064 39.3629C198.323 40.139 198.323 40.978 198.064 41.7541C197.696 42.3547 196.563 42.1741 195.964 41.7541C196.518 41.6212 197.017 41.3202 197.393 40.8923C197.769 40.4644 198.004 39.9307 198.064 39.3643V39.3629Z" fill="#113362"/>
<path d="M177.834 29.8402C182.994 33.175 191.825 30.3358 196.295 28.2736C197.107 30.8463 198.643 33.1307 200.719 34.8536C201.671 35.5858 201.319 34.0584 202.849 33.2114C204.978 32.034 205.61 36.7604 203.68 37.4338C202.345 37.9 207.224 44.8538 210.325 47.2114C210.769 47.5488 211.082 47.0014 210.662 46.6276C207.985 44.2948 205.846 41.4088 204.393 38.1688C206.088 37.3512 206.223 33.9842 204.851 32.6346C206.786 17.6378 200.029 18.5226 198.394 21.6572C191.414 16.5948 189.164 19.0392 190.414 21.9036C181.506 18.3868 180.172 22.8346 183.89 24.8282C174.616 22.8668 174.107 27.4322 177.834 29.8402Z" fill="#113362"/>
<path d="M203.419 41.5203C203.622 41.1157 203.202 40.8203 202.954 41.1983C201.761 43.0421 200.703 45.1183 198.501 45.9667C192.436 48.2935 187.352 36.3501 186.239 32.1473C186.066 31.4879 185.528 31.8169 185.625 32.2677C186.707 37.2685 191.429 48.1339 197.805 47.0769C198.653 48.9443 199.369 50.8689 199.948 52.8365C199.977 52.917 200.035 52.9839 200.11 53.0242C200.186 53.0646 200.274 53.0756 200.357 53.055C200.44 53.0345 200.512 52.9839 200.56 52.913C200.608 52.8421 200.628 52.756 200.616 52.6713C200.083 50.6979 199.434 48.7574 198.674 46.8599C200.927 46.0003 202.353 43.6609 203.419 41.5203Z" fill="#113362"/>
<path d="M255.128 111.583C254.379 111.583 254.197 112.058 254.791 112.296C256.42 112.807 257.913 113.68 259.158 114.848C260.403 116.016 261.369 117.45 261.983 119.044C262.221 119.604 262.845 119.548 262.732 118.932C262.081 115.325 257.611 111.587 255.128 111.583Z" fill="#113362"/>
<path d="M245.699 108.929C244.676 114.614 242.805 114.718 241.762 116.555C241.723 116.629 241.712 116.715 241.733 116.796C241.753 116.877 241.803 116.948 241.873 116.995C241.943 117.042 242.027 117.061 242.11 117.049C242.193 117.037 242.269 116.994 242.322 116.93C243.442 115.43 246.102 114.296 246.507 109.003C246.547 108.531 245.78 108.485 245.699 108.929Z" fill="#113362"/>
<path d="M248.973 111.568C248.089 111.652 248.097 112.253 248.719 112.318C250.858 112.545 257.457 115.517 256.456 119.276C256.339 119.72 256.84 119.892 257.095 119.359C258.908 115.554 251.666 111.315 248.973 111.568Z" fill="#113362"/>
<path d="M163.21 56.1148C163.258 56.196 163.333 56.258 163.422 56.29C163.511 56.322 163.608 56.3219 163.697 56.2899C163.786 56.2579 163.861 56.196 163.909 56.1147C163.957 56.0334 163.975 55.9379 163.961 55.8446C163.136 52.4776 164.151 48.0662 162.026 45.7072C161.675 45.3166 161.186 45.6176 161.466 46.0824C163.567 49.5684 161.988 53.018 163.21 56.1148Z" fill="#113362"/>
<path d="M265.904 111.125C265.01 110.1 263.89 109.296 262.634 108.776C261.377 108.256 260.017 108.033 258.66 108.127C258.202 108.17 258.269 108.876 258.72 108.92C261.241 108.913 263.664 109.896 265.468 111.657C265.852 111.981 266.167 111.485 265.904 111.125Z" fill="#113362"/>
<path d="M153.687 52.5601C154.047 52.8009 154.558 52.2983 154.228 51.9763C152.955 50.8583 151.948 49.4701 151.281 47.913C150.614 46.356 150.304 44.6696 150.372 42.9771C150.372 42.4521 149.764 42.3989 149.683 42.9099C149.409 44.7306 149.637 46.5916 150.342 48.2922C151.048 49.9928 152.205 51.4685 153.687 52.5601Z" fill="#113362"/>
<path d="M257.309 110.076C256.786 109.988 256.559 110.762 257.091 110.886C260.092 111.601 262.862 113.07 265.138 115.152C265.529 115.505 265.887 115.002 265.536 114.575C263.362 112.214 260.471 110.632 257.309 110.076Z" fill="#113362"/>
<path d="M151.375 53.3107C149.752 51.5456 148.706 49.3272 148.376 46.9519C148.364 46.8693 148.32 46.7947 148.254 46.7436C148.188 46.6926 148.105 46.6689 148.022 46.6775C147.939 46.6862 147.862 46.7265 147.808 46.7901C147.754 46.8537 147.726 46.9357 147.731 47.0191C147.829 52.3139 151.769 54.6043 152.771 56.1975C153.468 57.3623 154.092 58.5696 154.639 59.8123C154.854 60.2743 155.53 59.8795 155.322 59.4217C153.405 55.2273 154.205 56.4495 151.375 53.3107Z" fill="#113362"/>
<path d="M153.635 40.6003C153.705 40.0837 153.098 39.9549 152.961 40.4505C152.457 42.3152 152.445 44.2788 152.928 46.1493C153.41 48.0197 154.37 49.7329 155.713 51.1213C155.79 51.1766 155.884 51.2042 155.979 51.1995C156.073 51.1948 156.164 51.1581 156.235 51.0954C156.306 51.0327 156.354 50.9477 156.371 50.8543C156.388 50.7608 156.373 50.6645 156.328 50.5809C155.202 49.2005 154.38 47.5979 153.916 45.878C153.452 44.1581 153.356 42.3596 153.635 40.6003Z" fill="#113362"/>
<path d="M156.628 40.8773C156.628 40.3453 156.019 40.1283 155.877 41.0355C155.415 44.0644 156.083 47.1574 157.752 49.7267C158.375 50.4757 158.893 49.8751 158.652 49.4271C157.086 46.8645 156.377 43.8699 156.628 40.8773Z" fill="#113362"/>
<path d="M122.56 101.033C122.059 100.905 121.811 101.639 122.291 101.782C125.864 102.749 129.023 104.855 131.289 107.781C131.569 108.103 131.957 107.921 131.725 107.501C129.562 104.298 126.302 101.997 122.56 101.033Z" fill="#113362"/>
<path d="M116.56 97.4711C120.584 98.3559 125.218 98.9775 129.098 97.2233C129.594 96.9993 129.399 96.4379 128.918 96.6003C124.427 98.1207 121.135 97.3479 116.665 96.6535C116.133 96.5709 116.06 97.3605 116.56 97.4711Z" fill="#113362"/>
<path d="M131.67 101.116C128.673 100.773 125.714 100.157 122.829 99.2777C122.419 99.1531 122.163 99.8377 122.574 100.028C125.489 101.047 128.54 101.626 131.625 101.746C132.074 101.721 132.129 101.168 131.67 101.116Z" fill="#113362"/>
<path d="M116.84 102.217C121.726 102.556 124.531 105.418 127.219 108.914C127.535 109.325 127.962 109.054 127.683 108.592C125.459 104.868 121.383 101.226 116.803 101.422C116.285 101.44 116.342 102.182 116.84 102.217Z" fill="#113362"/>
<path d="M7.86871 25.0007C7.96111 25.3983 8.65131 25.5607 8.61771 24.6255C8.53791 22.3771 3.99771 16.7043 2.86651 12.9649C2.71811 12.4777 2.19031 12.6135 2.28971 13.1161C3.25151 18.0007 6.87751 20.7601 7.86871 25.0007Z" fill="#113362"/>
<path d="M8.04166 10.5691C8.00526 10.0735 7.45506 10.0217 7.44106 10.5691C7.35974 14.6397 8.17915 18.6779 9.84066 22.3949C10.0227 22.8051 10.7185 22.5349 10.5911 22.1149C9.15806 18.4186 8.29833 14.5251 8.04166 10.5691Z" fill="#113362"/>
<path d="M4.53922 27.7708C3.04329 26.5718 1.75161 25.1383 0.714417 23.526C0.441417 23.1634 -0.276784 23.302 0.113816 23.9082C4.34882 30.4882 5.89022 28.3098 8.44522 31.7146C8.71542 32.0744 9.37622 31.7146 9.12842 31.2946C7.76622 28.979 6.20522 28.9104 4.53922 27.7708Z" fill="#113362"/>
<path d="M113.523 108.598C113.146 109.256 113.917 109.497 114.223 108.83C115.247 106.576 115.369 103.465 114.35 102.21C113.737 101.452 112.985 102.12 113.465 102.554C114.692 103.666 114.126 107.546 113.523 108.598Z" fill="#113362"/>
<path d="M11.8353 12.8206C11.8647 12.0702 11.4335 11.7398 11.1353 12.8206C10.788 15.6596 10.9224 18.5369 11.5329 21.3312C11.5726 21.4184 11.6409 21.4893 11.7264 21.5323C11.812 21.5753 11.9097 21.5878 12.0033 21.5677C12.0969 21.5476 12.1808 21.4962 12.2412 21.4218C12.3015 21.3475 12.3347 21.2548 12.3351 21.159C11.9373 18.3982 11.7701 15.6091 11.8353 12.8206Z" fill="#113362"/>
<path d="M13.8672 15.5561C13.9232 14.6181 13.345 15.0073 13.275 15.5561C12.7485 19.4987 13.2416 23.5105 14.7072 27.2083C14.871 27.6171 15.536 27.3343 15.4184 26.9283C14.1151 23.2869 13.5867 19.4134 13.8672 15.5561Z" fill="#113362"/>
<path d="M41.8125 166.48C44.0431 168.767 46.6222 170.686 49.4537 172.164C68.2011 163.428 75.1745 151.604 79.9289 140.055C75.8787 139.215 62.9511 133.239 60.3289 131.058C59.2915 141.121 53.7503 152.773 41.8125 166.48Z" fill="#113362"/>
<path d="M114.184 167.23C106.13 143.1 101.731 131.347 96.022 123.175C90.3647 115.309 82.9087 108.91 74.2758 104.512C73.9398 104.33 74.0588 103.694 74.8834 104.069C76.9904 105.028 79.0078 106.199 81.0168 107.354C80.7323 104.411 80.1827 101.499 79.3746 98.6554C78.3106 98.7828 77.2228 98.8136 76.2106 98.8794C67.9875 99.448 59.7434 98.1272 52.1096 95.0182C47.5148 93.1982 42.234 90.7216 40.239 85.9756C37.1422 92.5556 35.5014 100.893 40.239 109.97C50.8944 130.382 78.3106 137.101 83.9946 140.94C89.6786 144.778 92.242 156.139 104.6 170.935C107.6 170.6 112.28 169.045 114.184 167.23Z" fill="#113362"/>
<path d="M113.981 169.039C113.742 168.686 112.924 168.507 113.561 169.788C118.709 178.525 127.13 181.811 128.364 182.941C130.447 184.847 128.504 185.461 126.73 185.498C120.633 185.609 119.367 183.132 114.852 180.421C110.512 177.817 105.909 179.98 105.569 176.237C105.568 174.761 105.855 173.298 106.416 171.932C106.567 171.438 106.014 171.185 105.763 171.662C104.824 173.454 104.023 175.978 105.013 177.909C106.26 180.341 109.738 179.271 113.202 180.699C118.069 182.705 119.464 186.547 126.549 186.562C129.143 186.562 131.721 185.281 129.317 182.529C127.77 180.75 120.598 178.757 113.981 169.039Z" fill="#113362"/>
<path d="M54.1805 182.962C50.7281 180.184 48.9543 177.452 48.9767 172.937C48.9767 172.377 48.3327 172.336 48.2767 172.854C48.1154 174.38 48.2762 175.923 48.7489 177.382C49.2216 178.842 49.9956 180.186 51.0207 181.328C52.7399 183.277 56.0145 185.077 55.5875 185.948C55.1605 186.819 52.8029 186.711 52.0189 186.556C47.9925 185.758 46.1571 181.072 42.8475 178.397C41.3999 177.228 38.8099 176.498 38.2513 174.52C37.5065 171.887 40.3051 170.118 42.0747 168.867C42.1439 168.811 42.1899 168.731 42.2039 168.644C42.218 168.556 42.1989 168.466 42.1506 168.391C42.1022 168.317 42.0279 168.262 41.942 168.239C41.8562 168.216 41.7648 168.226 41.6855 168.266C39.8345 169.038 38.3317 170.463 37.4631 172.27C36.2031 175.576 39.0297 177.131 40.9799 178.314C45.5761 181.101 46.4819 186.321 51.8607 187.523C53.0199 187.782 56.0803 187.763 56.5619 186.533C57.1989 184.895 55.2067 183.788 54.1805 182.962Z" fill="#113362"/>
<path d="M183.801 167.52C184.163 167.881 184.45 168.309 184.646 168.78C184.842 169.252 184.943 169.758 184.943 170.268C184.943 170.779 184.842 171.285 184.646 171.756C184.45 172.228 184.163 172.656 183.801 173.017C182.241 174.547 178.492 175.91 175.837 178.663C173.205 181.391 171.847 185.586 165.399 185.493C160.631 185.426 161.732 183.08 163.359 181.834C167.11 178.964 171.07 176.141 173.708 168.495C173.988 167.692 173.428 167.632 173.116 168.276C170.006 174.618 168.44 177.037 162.999 180.935C160.554 182.686 159.499 186.431 165.624 186.423C173.866 186.413 173.133 181.04 179.969 176.675C181.869 175.464 184.629 174.221 185.451 172.311C185.836 171.415 185.925 170.42 185.707 169.469C185.488 168.519 184.973 167.663 184.236 167.025C183.833 166.68 183.462 167.18 183.801 167.52Z" fill="#113362"/>
<path d="M229.791 168.625C229.266 168.499 229.168 169.121 229.686 169.255C231.506 169.728 233.847 171.617 233.54 173.004C233.233 174.392 230.914 175.995 229.932 176.836C225.529 180.616 222.621 186.43 216.736 186.584C214.996 186.631 210.069 185.744 213.271 184.14C215.22 183.24 216.964 181.95 218.394 180.35C219.824 178.749 220.911 176.872 221.587 174.834C221.727 174.369 221.227 174.325 221.01 174.767C219.45 178.482 216.574 181.491 212.933 183.217C208.217 185.877 213.734 187.697 217.058 187.485C223.625 187.052 226.803 180.65 231.215 177.032C232.497 175.981 234.776 174.372 234.492 172.45C234.185 170.371 231.671 169.079 229.791 168.625Z" fill="#113362"/>
<path d="M198.956 100.08C192.208 103.147 172.296 113.928 167.456 122.013C163.623 128.424 170.456 155.473 172.863 166.346C176.864 166.486 180.869 166.175 184.801 165.42C186.198 159.829 186.807 154.069 186.608 148.308C184.059 144.559 182.906 140.99 184.598 136.527C186.852 130.583 196.037 119.096 200.345 113.949C200.691 113.538 201.167 113.949 200.863 114.369C196.125 120.735 188.512 130.026 185.813 136.947C183.699 142.369 186.57 147.22 190.312 151.128C200.133 161.381 213.866 170.774 219.977 173.743C223.303 171.815 226.408 169.529 229.238 166.927C227.348 163.455 216.565 149.875 209.606 140.779C240.98 121.599 240.028 109.195 239.968 100.392C230.421 104.302 208.141 105.659 198.956 100.08Z" fill="#113362"/>
<path d="M47.3111 72.0566C44.0421 67.8566 31.7291 62.7662 28.8871 60.6816C28.0779 67.7376 22.3505 67.2322 25.1379 75.6784C26.3979 79.4864 31.0319 83.0354 40.1347 82.8996C41.3877 80.5238 45.2209 75.1464 47.3111 72.0566Z" fill="#113362"/>
</svg>
