<svg width="161" height="160" viewBox="0 0 161 160" fill="none" xmlns="http://www.w3.org/2000/svg">
<g clip-path="url(#clip0_18_2022)">
<rect x="0.5" y="-40" width="160" height="250" fill="#EFEFF0"/>
<path opacity="0.15" d="M58.4773 123.772C58.4773 124.122 59.0283 124.468 60.0987 124.791C61.1692 125.114 62.7382 125.408 64.7162 125.655C66.6942 125.903 69.0424 126.099 71.6268 126.232C74.2111 126.366 76.981 126.435 79.7783 126.435C82.5756 126.435 85.3455 126.366 87.9298 126.232C90.5142 126.099 92.8624 125.903 94.8404 125.655C96.8184 125.408 98.3874 125.114 99.4579 124.791C100.528 124.468 101.079 124.122 101.079 123.772C101.079 123.423 100.528 123.076 99.4579 122.753C98.3874 122.43 96.8184 122.137 94.8404 121.89C92.8624 121.642 90.5142 121.446 87.9298 121.312C85.3455 121.178 82.5756 121.11 79.7783 121.11C76.981 121.11 74.2111 121.178 71.6268 121.312C69.0424 121.446 66.6942 121.642 64.7162 121.89C62.7382 122.137 61.1692 122.43 60.0987 122.753C59.0283 123.076 58.4773 123.423 58.4773 123.772Z" fill="#212122"/>
<path d="M100.19 52.9492C100.146 47.5647 97.9755 42.4159 94.1522 38.6242C90.329 34.8324 85.1624 32.7049 79.7777 32.7049C74.393 32.7049 69.2264 34.8324 65.4031 38.6242C61.5798 42.4159 59.4096 47.5647 59.365 52.9492V75.1378H68.2396V52.9492C68.2396 49.8893 69.4551 46.9548 71.6188 44.7911C73.7825 42.6274 76.7171 41.4118 79.777 41.4118C82.8369 41.4118 85.7715 42.6274 87.9352 44.7911C90.0988 46.9548 91.3144 49.8893 91.3144 52.9492V75.1378H100.189L100.19 52.9492Z" fill="#9D9FA2"/>
<path d="M79.7784 38.749C84.3685 38.7506 88.8353 40.2349 92.5135 42.9809C96.1917 45.7269 98.8843 49.5876 100.19 53.988V52.9492C100.146 47.5647 97.9755 42.4159 94.1522 38.6242C90.329 34.8324 85.1624 32.7049 79.7777 32.7049C74.393 32.7049 69.2264 34.8324 65.4031 38.6242C61.5798 42.4159 59.4096 47.5647 59.365 52.9492V53.988C60.6711 49.5874 63.364 45.7265 67.0424 42.9805C70.7209 40.2345 75.188 38.7503 79.7784 38.749Z" fill="#EFEFF0"/>
<path d="M100.19 52.9492C100.146 47.5647 97.9755 42.4159 94.1522 38.6242C90.329 34.8324 85.1624 32.7049 79.7777 32.7049C74.393 32.7049 69.2264 34.8324 65.4031 38.6242C61.5798 42.4159 59.4096 47.5647 59.365 52.9492V75.1378H68.2396V52.9492C68.2396 49.8893 69.4551 46.9548 71.6188 44.7911C73.7825 42.6274 76.7171 41.4118 79.777 41.4118C82.8369 41.4118 85.7715 42.6274 87.9352 44.7911C90.0988 46.9548 91.3144 49.8893 91.3144 52.9492V75.1378H100.189L100.19 52.9492Z" stroke="#212122" stroke-width="1.4" stroke-linecap="round" stroke-linejoin="round"/>
<path d="M50.4905 91.9997C50.4905 95.8458 51.248 99.6543 52.7199 103.208C54.1918 106.761 56.3491 109.99 59.0687 112.709C61.7884 115.429 65.0171 117.586 68.5704 119.058C72.1238 120.53 75.9323 121.288 79.7785 121.288C83.6246 121.288 87.4331 120.53 90.9865 119.058C94.5399 117.586 97.7686 115.429 100.488 112.709C103.208 109.99 105.365 106.761 106.837 103.208C108.309 99.6543 109.066 95.8458 109.066 91.9997C109.066 88.1535 108.309 84.345 106.837 80.7916C105.365 77.2383 103.208 74.0096 100.488 71.2899C97.7686 68.5703 94.5399 66.4129 90.9865 64.9411C87.4331 63.4692 83.6246 62.7117 79.7785 62.7117C75.9323 62.7117 72.1238 63.4692 68.5704 64.9411C65.0171 66.4129 61.7884 68.5703 59.0687 71.2899C56.3491 74.0096 54.1918 77.2383 52.7199 80.7916C51.248 84.345 50.4905 88.1535 50.4905 91.9997Z" fill="#D7D8D9"/>
<path d="M79.7784 113.3C72.7075 113.296 65.8772 110.732 60.55 106.082C55.2228 101.433 51.7589 95.0119 50.7984 88.0066C50.1932 92.1655 50.4902 96.406 51.6692 100.44C52.8481 104.474 54.8814 108.207 57.6309 111.386C60.3805 114.564 63.7818 117.114 67.6041 118.861C71.4263 120.609 75.5798 121.513 79.7826 121.513C83.9853 121.513 88.1388 120.609 91.9611 118.861C95.7833 117.114 99.1847 114.564 101.934 111.386C104.684 108.207 106.717 104.474 107.896 100.44C109.075 96.406 109.372 92.1655 108.767 88.0066C107.805 95.0131 104.34 101.435 99.0113 106.084C93.6825 110.734 86.8505 113.297 79.7784 113.3Z" fill="#9D9FA2"/>
<path d="M79.7782 70.7C86.8489 70.705 93.6789 73.2692 99.006 77.9187C104.333 82.5682 107.797 88.9887 108.758 95.9938C109.363 91.8348 109.066 87.5944 107.887 83.5603C106.708 79.5263 104.675 75.7933 101.926 72.6148C99.1761 69.4362 95.7747 66.8866 91.9525 65.1391C88.1303 63.3916 83.9768 62.4872 79.774 62.4872C75.5713 62.4872 71.4177 63.3916 67.5955 65.1391C63.7733 66.8866 60.3719 69.4362 57.6224 72.6148C54.8729 75.7933 52.8396 79.5263 51.6606 83.5603C50.4817 87.5944 50.1847 91.8348 50.7898 95.9938C51.7505 88.987 55.2157 82.565 60.5447 77.9152C65.8736 73.2655 72.7059 70.7024 79.7782 70.7Z" fill="#FAFAFA"/>
<path d="M50.4905 91.9997C50.4905 95.8458 51.248 99.6543 52.7199 103.208C54.1918 106.761 56.3491 109.99 59.0687 112.709C61.7884 115.429 65.0171 117.586 68.5704 119.058C72.1238 120.53 75.9323 121.288 79.7785 121.288C83.6246 121.288 87.4331 120.53 90.9865 119.058C94.5399 117.586 97.7686 115.429 100.488 112.709C103.208 109.99 105.365 106.761 106.837 103.208C108.309 99.6543 109.066 95.8458 109.066 91.9997C109.066 88.1535 108.309 84.345 106.837 80.7916C105.365 77.2383 103.208 74.0096 100.488 71.2899C97.7686 68.5703 94.5399 66.4129 90.9865 64.9411C87.4331 63.4692 83.6246 62.7117 79.7785 62.7117C75.9323 62.7117 72.1238 63.4692 68.5704 64.9411C65.0171 66.4129 61.7884 68.5703 59.0687 71.2899C56.3491 74.0096 54.1918 77.2383 52.7199 80.7916C51.248 84.345 50.4905 88.1535 50.4905 91.9997V91.9997Z" stroke="#212122" stroke-width="1.4" stroke-linecap="round" stroke-linejoin="round"/>
<path d="M84.2168 90.2449C84.2204 89.4876 84.03 88.7419 83.664 88.0788C83.2979 87.4158 82.7682 86.8575 82.1254 86.4571C81.4825 86.0566 80.7479 85.8273 79.9914 85.791C79.2349 85.7548 78.4817 85.9127 77.8035 86.2498C77.1253 86.5869 76.5446 87.092 76.1168 87.7169C75.6889 88.3419 75.4281 89.0659 75.3592 89.8201C75.2903 90.5744 75.4156 91.3337 75.7231 92.0258C76.0306 92.718 76.5101 93.3199 77.116 93.7743V99.0943C77.116 99.7998 77.3962 100.476 77.8951 100.975C78.3939 101.474 79.0705 101.754 79.776 101.754C80.4814 101.754 81.158 101.474 81.6569 100.975C82.1557 100.476 82.436 99.7998 82.436 99.0943V93.7743C82.9866 93.3648 83.4342 92.8326 83.7433 92.22C84.0524 91.6073 84.2145 90.9311 84.2168 90.2449Z" fill="#9D9FA2" stroke="#212122" stroke-width="1.4" stroke-linecap="round" stroke-linejoin="round"/>
</g>
<defs>
<clipPath id="clip0_18_2022">
<rect width="160" height="160" fill="white" transform="translate(0.5)"/>
</clipPath>
</defs>
</svg>
