<svg width="122" height="112" viewBox="0 0 122 112" fill="none" xmlns="http://www.w3.org/2000/svg">
<path d="M88.0681 39.4823C87.9691 39.8011 87.8978 40.1279 87.8549 40.4589C87.8325 40.7245 88.2236 40.7418 88.2991 40.5121C88.3846 40.2091 88.4498 39.9008 88.4943 39.5892C88.5044 39.5341 88.4932 39.4773 88.463 39.4302C88.4327 39.3831 88.3856 39.3493 88.3313 39.3357C88.277 39.3221 88.2196 39.3297 88.1707 39.3569C88.1218 39.3841 88.0851 39.429 88.0681 39.4823Z" fill="#5D4212"/>
<path d="M88.0681 38.9857C88.4413 38.8577 88.4944 39.1099 88.5296 39.1777C88.5487 39.2102 88.5759 39.2372 88.6086 39.2559C88.6414 39.2747 88.6784 39.2845 88.7161 39.2845C88.7538 39.2845 88.7909 39.2747 88.8236 39.2559C88.8563 39.2372 88.8836 39.2102 88.9027 39.1777C88.9479 39.0666 88.9492 38.9424 88.9063 38.8303C88.8634 38.7183 88.7795 38.6267 88.6716 38.5742C88.5567 38.5248 88.4329 38.4993 88.3078 38.4993C88.1827 38.4993 88.0589 38.5248 87.944 38.5742C87.8911 38.5921 87.8473 38.6298 87.8217 38.6794C87.7962 38.729 87.7909 38.7866 87.807 38.84C87.8231 38.8934 87.8594 38.9385 87.9081 38.9657C87.9568 38.9929 88.0142 39 88.0681 38.9857Z" fill="#5D4212"/>
<path d="M72.6052 47.9686C80.6826 55.9219 88.0861 50.8269 88.7786 50.6496C89.6106 51.3241 93.4833 51.6614 93.3412 49.0496C93.3412 49.0496 95.153 50.0429 95.7021 50.8416C98.2109 54.4947 98.3261 63.5885 98.2768 64.8134C98.2378 65.7734 99.1601 69.5898 99.2887 70.743C99.3917 71.6666 99.4615 72.7981 98.7735 73.4771C98.0138 74.1306 97.0845 74.5554 96.0932 74.7021C94.405 75.0899 92.6605 75.1681 90.9444 74.9331C89.1863 74.6534 86.9124 73.8502 85.9024 72.288C85.4526 71.5699 85.1866 70.7521 85.1277 69.9068C85.0689 69.0615 85.2191 68.2147 85.5652 67.4413C86.0411 66.2902 86.3807 65.0873 86.577 63.8573C86.7794 62.4838 86.4767 61.0835 85.7252 59.9162C85.7252 59.9162 89.2624 58.6867 88.8138 58.2298C88.6032 58.0141 87.5709 58.9382 85.8698 59.0464C84.769 59.1162 73.7796 55.904 70.8855 49.9033C70.8477 48.3769 72.6052 47.9686 72.6052 47.9686Z" fill="#BC8A40"/>
<path d="M70.0841 48.7502C69.2567 48.8245 68.4282 48.6203 67.7302 48.1699C67.0321 47.7196 66.5046 47.0489 66.2313 46.2644C66.2144 46.2106 66.1787 46.1646 66.1308 46.1348C66.0829 46.105 66.0259 46.0933 65.9701 46.1019C65.9143 46.1105 65.8634 46.1387 65.8267 46.1816C65.79 46.2244 65.7698 46.279 65.7699 46.3355C65.743 48.4129 68.4367 49.3761 70.0841 49.2116C70.3689 49.1828 70.3862 48.7367 70.0841 48.7502Z" fill="#5D4212"/>
<path d="M68.6462 46.9761C68.1254 46.868 67.6484 46.6079 67.2756 46.2286C66.9027 45.8494 66.6507 45.368 66.5515 44.8455C66.5169 44.5614 66.0395 44.4545 66.0363 44.7745C66.0273 46.7098 67.8827 47.3134 68.5393 47.4375C68.8081 47.4714 68.9316 47.0401 68.6462 46.9761Z" fill="#5D4212"/>
<path d="M66.3382 43.4951C67.2566 44.7456 71.5862 48.1568 72.605 43.6365C72.6607 43.3888 72.1788 43.2461 72.1078 43.5123C71.1138 47.241 67.4242 44.0634 66.6927 43.2109C66.5378 43.0291 66.1801 43.28 66.3382 43.4951Z" fill="#5D4212"/>
<path d="M72.6052 47.936C72.7048 47.7594 72.7658 47.5637 72.7841 47.3618C72.8024 47.1599 72.7777 46.9564 72.7114 46.7648C72.6052 46.5517 72.2468 46.6765 72.2858 46.871C72.3422 47.1459 72.311 47.4314 72.1969 47.6877C72.0836 47.9661 72.4798 48.199 72.6052 47.936Z" fill="#5D4212"/>
<path d="M87.3757 50.6668C89.1875 49.639 85.6189 49.7247 82.5469 49.1046C79.0631 48.3109 75.9081 46.4638 73.5107 43.8143C73.7899 44.4272 73.9344 45.0929 73.9344 45.7663C73.9344 46.4398 73.7899 47.1055 73.5107 47.7183C74.4531 48.8122 75.5907 49.7211 76.8656 50.3987C79.5114 51.6966 84.4304 52.3385 87.3757 50.6668Z" fill="#BC8A40"/>
<path d="M65.859 40.4769C66.4804 42.7489 69.9057 42.2158 70.3326 41.5418C70.3558 41.4971 70.3676 41.4473 70.3668 41.3969C70.366 41.3465 70.3527 41.297 70.3281 41.253C70.3035 41.2091 70.2683 41.1719 70.2257 41.1449C70.1832 41.1179 70.1345 41.1019 70.0842 41.0983C69.6407 41.0599 67.4058 41.9662 66.4625 40.3879C66.3031 40.1217 65.8231 40.1038 65.859 40.4769Z" fill="#5D4212"/>
<path d="M65.7699 38.8608C66.2953 39.6711 69.1951 41.5143 70.2614 39.305C70.4239 38.969 69.7999 38.8787 69.6214 39.1277C68.8585 40.1933 66.8131 39.4317 66.1238 38.5946C65.9644 38.4 65.6303 38.6464 65.7699 38.8608Z" fill="#5D4212"/>
<path d="M65.2555 37.3874C65.8971 37.891 66.6616 38.2142 67.4699 38.3234C68.2782 38.4327 69.101 38.3241 69.8532 38.0089C69.9099 37.9738 69.9536 37.9212 69.9777 37.8591C70.0019 37.7969 70.0052 37.7286 69.9871 37.6645C69.9691 37.6003 69.9306 37.5438 69.8776 37.5034C69.8246 37.463 69.7599 37.4409 69.6932 37.4405C68.2852 37.824 66.7832 37.646 65.5038 36.9439C65.2913 36.8185 65.059 37.2287 65.2555 37.3874Z" fill="#5D4212"/>
<path d="M76.9546 65.3139C76.7415 63.5565 74.5514 56.4135 73.6701 54.8218C73.6362 54.7653 73.583 54.7231 73.5203 54.7028C73.4576 54.6825 73.3898 54.6856 73.3292 54.7115C73.2686 54.7375 73.2195 54.7844 73.1909 54.8437C73.1623 54.9031 73.1561 54.9707 73.1735 55.0343C73.5748 56.7898 75.8186 63.6979 76.4752 65.3319C76.2269 65.8439 75.3232 65.7575 75.1082 65.6154C75.1261 65.5623 71.6906 55.8874 69.7821 51.1821C69.6957 50.9683 69.3738 51.0579 69.4448 51.2711C71.0525 56.0672 74.6109 65.7043 74.6288 65.7402C74.8778 66.1485 75.9959 66.7341 77.0436 65.5623C77.1146 65.4912 77.0436 65.385 76.9546 65.3139Z" fill="#5D4212"/>
<path d="M79.4575 15.7108C79.0567 12.3242 77.6729 9.1292 75.4771 6.52005C73.2812 3.91089 70.3694 2.00185 67.1011 1.02854C60.1763 -1.08346 52.2812 1.24422 47.8371 7.01126C41.4665 15.282 42.9731 28.841 52.9679 33.7127C56.6779 35.5839 60.8821 36.2421 64.9865 35.5943C65.0463 35.838 65.142 36.0714 65.2707 36.2868C65.3987 36.5153 65.8025 36.3585 65.6969 36.1095C65.5535 35.7722 65.542 35.3972 65.4127 35.0618C65.3987 35.0207 65.373 34.9846 65.3388 34.9579C65.3046 34.9311 65.2633 34.9149 65.2201 34.9112C65.1768 34.9075 65.1334 34.9164 65.0951 34.9369C65.0568 34.9574 65.0253 34.9886 65.0044 35.0266C61.4328 35.5257 57.7927 35.0406 54.4764 33.6237C51.438 32.4209 48.8716 30.265 47.1625 27.4797C44.0015 22.2433 44.1276 15.3197 46.9315 9.95718C48.5885 6.9034 51.1402 4.42974 54.244 2.86836C57.3478 1.30697 60.855 0.732634 64.2947 1.22246C70.6863 2.1415 76.3465 6.70918 78.1423 12.9754C79.3077 17.0303 78.9866 21.3681 77.2367 25.2071C75.4447 28.9549 71.9004 32.5786 67.9516 34.0129C67.9006 34.031 67.8544 34.0606 67.8165 34.0993C67.7786 34.138 67.7501 34.1848 67.733 34.2362C67.7159 34.2876 67.7107 34.3422 67.7179 34.3959C67.7251 34.4495 67.7444 34.5009 67.7743 34.546C67.9019 35.1545 68.1047 35.7449 68.3779 36.3034C68.4071 36.348 68.4511 36.3809 68.5023 36.3961C68.5534 36.4114 68.6082 36.408 68.6571 36.3867C68.706 36.3654 68.7458 36.3275 68.7694 36.2797C68.793 36.2319 68.799 36.1773 68.7862 36.1255C68.7145 35.7889 68.431 34.7591 68.3951 34.5812C71.9791 33.321 75.0038 30.3764 77.0236 27.2135C79.1118 23.7646 79.9698 19.7099 79.4575 15.7108Z" fill="#5D4212"/>
<path d="M73.83 11.1655C72.2768 8.60319 70.005 6.55372 67.2969 5.27174C64.6175 3.95855 61.556 3.64973 58.6684 4.40134C48.9404 6.63494 44.2345 17.6954 49.0281 25.6167C51.4786 29.666 58.1897 33.6545 65.2905 32.2215C68.2562 31.6231 70.6172 29.9175 72.5865 27.6052C74.5461 25.3808 75.6964 22.5593 75.8505 19.5988C75.9772 16.6542 75.2773 13.7329 73.83 11.1655ZM73.3685 25.2263C71.7781 27.8348 69.3867 29.8589 66.5513 30.9965C61.7468 32.8116 54.9122 31.6698 50.6082 26.4692C48.866 24.2668 47.9263 21.5365 47.9439 18.7284C47.9638 15.983 48.7863 13.3033 50.3101 11.0196C51.8339 8.73577 53.9925 6.94759 56.5199 5.87526C58.9877 4.86406 61.9893 4.34246 64.5973 5.04326C67.3122 5.82286 69.7541 7.34812 71.6457 9.44582C75.341 13.5783 76.3164 20.4871 73.3685 25.2263Z" fill="#5D4212"/>
<path d="M61.1364 26.167C60.8549 26.178 60.5856 26.2845 60.3728 26.4691C60.2753 26.5795 60.21 26.7146 60.1841 26.8596C60.1581 27.0046 60.1725 27.1539 60.2257 27.2913C60.2789 27.4287 60.3688 27.5488 60.4856 27.6386C60.6024 27.7283 60.7416 27.7843 60.888 27.8003C61.0031 27.8364 61.1245 27.8472 61.2441 27.832C61.3637 27.8167 61.4786 27.7758 61.5809 27.712C61.6832 27.6482 61.7705 27.563 61.8367 27.4622C61.903 27.3615 61.9467 27.2477 61.9648 27.1285C61.9829 27.0093 61.9751 26.8876 61.9417 26.7717C61.9084 26.6558 61.8504 26.5486 61.7717 26.4572C61.693 26.3659 61.5955 26.2927 61.4858 26.2426C61.3761 26.1925 61.2569 26.1667 61.1364 26.167Z" fill="#BC8A40"/>
<path d="M121.8 66.0064C121.8 62.8992 120.291 11.0771 120.291 11.0771C120.301 11.0396 120.303 11.0003 120.296 10.9619C120.29 10.9236 120.275 10.8871 120.253 10.855C120.231 10.8229 120.203 10.7959 120.169 10.7759C120.136 10.7559 120.099 10.7434 120.06 10.7392C118.887 10.5171 94.2109 10.7929 89.0979 11.4317C89.0436 11.398 88.9814 11.3793 88.9175 11.3776C88.8536 11.3759 88.7905 11.3911 88.7345 11.4219C88.6784 11.4526 88.6316 11.4977 88.5988 11.5525C88.5659 11.6073 88.5482 11.6699 88.5475 11.7337C88.5123 14.9651 88.3139 29.4566 88.6544 30.9075C88.6677 30.9537 88.6956 30.9943 88.734 31.0232C88.7724 31.0521 88.8192 31.0677 88.8672 31.0677C88.9152 31.0677 88.962 31.0521 89.0004 31.0232C89.0388 30.9943 89.0667 30.9537 89.08 30.9075C89.4448 29.4848 89.4 15.1635 89.2931 12.0179C94.335 11.911 118.516 11.5565 119.776 11.4317C119.598 15.2486 120.859 64.3373 121.09 65.8816C117.947 65.8643 104.779 65.2557 101.436 65.7043C101.011 65.7613 101.135 66.4346 101.543 66.432C103.372 66.4237 118.302 66.7341 121.516 66.4147C121.587 66.361 121.8 66.112 121.8 66.0064Z" fill="#5D4212"/>
<path d="M85.2099 7.22426C85.2066 7.12179 85.1644 7.02443 85.0919 6.95193C85.0194 6.87943 84.922 6.83722 84.8195 6.83386C82.6883 6.8601 80.5584 6.97594 78.4285 6.97594C78.1085 6.97594 78.1251 7.42714 78.4285 7.47258C80.4207 7.69584 82.4286 7.74338 84.4291 7.61466C84.3581 12.5503 84.1533 34.8499 84.5002 37.5827C84.552 37.991 85.1555 38.0089 85.1568 37.5827C85.1658 34.8307 85.192 12.302 85.2099 7.22426Z" fill="#5D4212"/>
<path d="M81.3751 84.2566C78.4446 84.1095 42.7435 83.9552 40.0094 84.0614C40.0631 81.5584 38.394 12.9766 38.1988 7.20641C40.3671 7.30194 42.5394 7.23069 44.6967 6.99329C44.9444 6.95425 44.8919 6.51649 44.6436 6.54977C43.5083 6.70145 39.0507 6.38977 38.0926 6.58497C38.0567 6.55719 38.0137 6.54004 37.9686 6.53545C37.9234 6.53087 37.8779 6.53904 37.8372 6.55904C37.7965 6.57904 37.7622 6.61007 37.7382 6.64859C37.7142 6.68711 37.7015 6.73159 37.7015 6.77697C37.7015 6.79489 39.1441 81.3242 39.3707 84.217C39.3722 84.2641 39.3842 84.3102 39.4057 84.3522C39.4271 84.3941 39.4576 84.4308 39.4949 84.4596C39.5322 84.4884 39.5754 84.5086 39.6214 84.5187C39.6674 84.5289 39.7151 84.5288 39.7611 84.5184C39.779 84.5363 79.7067 85.0515 81.3931 84.9267C81.4742 84.9141 81.548 84.8723 81.6006 84.8092C81.6532 84.7461 81.681 84.6659 81.6788 84.5838C81.6766 84.5017 81.6446 84.4232 81.5887 84.3629C81.5328 84.3027 81.4569 84.2649 81.3751 84.2566Z" fill="#5D4212"/>
<path d="M34.1841 66.1485C34.0061 51.4285 33.3674 13.8106 32.9412 9.76452C32.9528 9.72603 32.9564 9.68558 32.9518 9.64565C32.9473 9.60571 32.9347 9.56711 32.9147 9.53221C32.8948 9.49731 32.868 9.46682 32.8359 9.44262C32.8038 9.41841 32.7671 9.40098 32.7281 9.3914C31.5601 9.15204 6.16167 9.27172 0.845191 9.83428C0.786906 9.83805 0.732294 9.86406 0.692634 9.90693C0.652973 9.94981 0.631293 10.0063 0.632071 10.0647C0.594149 10.0452 0.551965 10.0355 0.50935 10.0365C0.466735 10.0375 0.425036 10.0491 0.388038 10.0702C0.35104 10.0914 0.319913 10.1215 0.297482 10.1577C0.275052 10.194 0.262027 10.2352 0.259591 10.2778C-0.0296888 14.4461 0.432391 63.4797 1.04039 66.9114C1.04923 66.9837 1.08551 67.0499 1.14173 67.0962C1.19794 67.1425 1.2698 67.1655 1.34247 67.1604C1.36076 67.2183 1.39582 67.2694 1.44322 67.3074C1.49062 67.3453 1.54822 67.3683 1.60871 67.3735C3.02887 67.4618 31.6311 66.7597 33.7956 66.8762C33.8486 66.8787 33.9014 66.8667 33.9482 66.8416C33.995 66.8166 34.0342 66.7793 34.0615 66.7337C34.0889 66.6882 34.1034 66.6361 34.1036 66.583C34.1038 66.5299 34.0895 66.4777 34.0625 66.432C34.106 66.3998 34.1402 66.3565 34.1615 66.3067C34.1829 66.2569 34.1907 66.2023 34.1841 66.1485ZM1.71559 66.8052C1.69767 63.7159 0.755591 10.3136 0.755591 10.3136C2.18535 10.3136 31.2785 10.2951 32.3569 10.1216C32.3569 13.6365 33.3169 62.1536 33.4039 66.169C33.3873 66.1837 4.39591 66.361 1.71559 66.8052Z" fill="#5D4212"/>
<path d="M45.6907 50.8979C49.3316 50.8448 66.4632 50.9555 67.2792 50.7558C67.3387 50.7384 67.3909 50.7022 67.4281 50.6526C67.4653 50.603 67.4854 50.5426 67.4854 50.4806C67.4854 50.4186 67.4653 50.3583 67.4281 50.3087C67.3909 50.2591 67.3387 50.2228 67.2792 50.2054C66.5188 49.9642 49.3291 50.2227 45.6907 50.4186C45.3886 50.432 45.3892 50.9024 45.6907 50.8979Z" fill="#5D4212"/>
<path d="M63.4262 45.0034C62.6639 44.7884 48.6025 45.0213 45.6553 45.1813C45.5842 42.6604 45.8319 31.4796 45.5663 30.1618C45.5489 30.1023 45.5127 30.05 45.4631 30.0129C45.4135 29.9757 45.3531 29.9556 45.2911 29.9556C45.2291 29.9556 45.1688 29.9757 45.1192 30.0129C45.0695 30.05 45.0333 30.1023 45.0159 30.1618C44.6767 31.4418 45.0338 42.6604 45.1759 45.1813C45.1759 45.2345 45.1932 45.6786 45.4063 45.6607C48.4425 45.5717 62.6454 45.7138 63.4262 45.5538C63.4828 45.5334 63.5318 45.4961 63.5664 45.4468C63.601 45.3976 63.6196 45.3388 63.6196 45.2786C63.6196 45.2184 63.601 45.1597 63.5664 45.1104C63.5318 45.0612 63.4828 45.0238 63.4262 45.0034Z" fill="#BC8A40"/>
<path d="M78.6769 43.9207C78.65 41.8087 78.8516 32.4564 78.6058 31.2628C78.5884 31.2033 78.5522 31.151 78.5026 31.1138C78.453 31.0766 78.3926 31.0565 78.3306 31.0565C78.2686 31.0565 78.2083 31.0766 78.1587 31.1138C78.1091 31.151 78.0728 31.2033 78.0554 31.2628C77.7354 32.4525 78.0734 41.8081 78.1975 43.9207C78.2161 44.2241 78.6807 44.2407 78.6769 43.9207Z" fill="#BC8A40"/>
<path d="M45.6905 56.5261C49.4896 56.7597 65.8403 56.8864 67.5632 56.7924C67.9357 56.7719 68.0784 56.1479 67.6515 56.082C66.0387 55.8324 49.5433 55.8688 45.6905 56.064C45.6322 56.0684 45.5777 56.0946 45.538 56.1375C45.4982 56.1803 45.4761 56.2366 45.4761 56.2951C45.4761 56.3535 45.4982 56.4099 45.538 56.4527C45.5777 56.4956 45.6322 56.5218 45.6905 56.5261Z" fill="#5D4212"/>
<path d="M45.7973 63.7869C49.6872 63.7159 68.1487 63.714 69.1253 63.6096C69.4626 63.5732 69.5861 63.0797 69.2143 62.9882C68.3778 62.7821 49.7583 63.0772 45.7973 63.3434C45.7406 63.3465 45.6871 63.3712 45.648 63.4124C45.609 63.4537 45.5872 63.5083 45.5872 63.5652C45.5872 63.622 45.609 63.6767 45.648 63.7179C45.6871 63.7592 45.7406 63.7839 45.7973 63.7869Z" fill="#5D4212"/>
<path d="M45.7973 70.7462C51.6213 70.7283 79.174 71.1545 80.5052 70.7993C80.5647 70.7819 80.617 70.7457 80.6541 70.6961C80.6913 70.6465 80.7114 70.5861 80.7114 70.5241C80.7114 70.4621 80.6913 70.4018 80.6541 70.3522C80.617 70.3026 80.5647 70.2663 80.5052 70.2489C79.1528 69.9801 51.6252 70.1606 45.7973 70.3027C45.7406 70.3057 45.6871 70.3304 45.648 70.3717C45.609 70.4129 45.5872 70.4676 45.5872 70.5245C45.5872 70.5813 45.609 70.636 45.648 70.6772C45.6871 70.7185 45.7406 70.7432 45.7973 70.7462Z" fill="#5D4212"/>
<path d="M46.259 77.5463C52.0152 77.6704 79.1205 77.9347 80.5233 77.7415C80.9137 77.6877 80.7717 77.1552 80.4344 77.12C79.0501 76.976 51.9403 77.1021 46.2584 77.1021C46.2292 77.1021 46.2003 77.1079 46.1734 77.1191C46.1465 77.1303 46.122 77.1467 46.1014 77.1674C46.0808 77.188 46.0645 77.2125 46.0534 77.2395C46.0423 77.2665 46.0366 77.2953 46.0366 77.3245C46.0367 77.3537 46.0424 77.3825 46.0536 77.4095C46.0648 77.4364 46.0812 77.4608 46.1019 77.4814C46.1225 77.502 46.147 77.5184 46.174 77.5295C46.201 77.5406 46.2299 77.5463 46.259 77.5463Z" fill="#5D4212"/>
<path d="M21.8653 19.0125C21.3834 18.9524 21.1946 19.6749 19.4512 19.6161C17.0883 19.5367 14.0995 17.8881 12.5981 20.1844C12.2525 20.7224 12.0963 21.3603 12.1543 21.9971C12.2122 22.6339 12.481 23.2331 12.9181 23.6999C12.8807 23.7115 12.8481 23.7352 12.8257 23.7673C12.8032 23.7994 12.792 23.838 12.7939 23.8772C12.7766 25.298 12.7901 26.8269 13.6259 28.0314C13.9701 28.5183 14.4376 28.9048 14.9805 29.1513C15.5234 29.3979 16.1221 29.4955 16.7152 29.4343C19.6278 29.2039 20.3542 26.6292 20.2659 23.5399C22.216 22.2426 22.7376 19.122 21.8653 19.0125ZM19.327 26.8244C19.1144 27.3723 18.7519 27.8493 18.281 28.201C17.8101 28.5526 17.2497 28.7646 16.664 28.8129C13.7533 29.1437 13.272 26.1319 13.2016 23.9489C14.2493 24.6945 17.2138 25.1738 19.6656 23.8957C19.5754 24.8711 19.7008 25.8484 19.327 26.8244Z" fill="#5D4212"/>
<path d="M109.017 19.0125C108.535 18.9524 108.347 19.6749 106.603 19.6161C104.24 19.5367 101.251 17.8881 99.7501 20.1844C99.4045 20.7224 99.2483 21.3603 99.3063 21.9971C99.3642 22.6339 99.633 23.2331 100.07 23.6999C100.041 23.6877 100.009 23.6828 99.9776 23.6858C99.946 23.6888 99.9158 23.6996 99.8894 23.7171C99.863 23.7347 99.8414 23.7585 99.8265 23.7864C99.8116 23.8143 99.8038 23.8455 99.8038 23.8772C99.7865 25.298 99.8 26.8269 100.636 28.0314C100.98 28.5183 101.448 28.9048 101.99 29.1513C102.533 29.3979 103.132 29.4955 103.725 29.4343C106.638 29.2039 107.757 26.2029 107.294 23.6289C107.603 23.4312 107.889 23.1989 108.146 22.9364C109.346 21.6961 109.857 19.1175 109.017 19.0125ZM106.337 26.8244C106.125 27.3726 105.762 27.85 105.291 28.2017C104.82 28.5534 104.26 28.7652 103.674 28.8129C100.746 29.1444 100.238 26.098 100.194 23.8951C100.196 23.8644 100.19 23.8336 100.176 23.8061C101.008 24.9249 105.058 25.3863 106.656 23.9482C106.693 24.9175 106.585 25.8868 106.337 26.8244Z" fill="#5D4212"/>
<path d="M107.455 30.126C105.45 29.3815 103.246 29.3686 101.232 30.0897C99.2186 30.8108 97.5239 32.2196 96.4471 34.0678C96.3038 34.3155 96.6781 34.5292 96.8381 34.2982C97.3151 33.5994 97.8889 32.9719 98.5425 32.4345C102.11 34.2809 104.17 40.832 104.188 41.0272C102.484 41.0803 100.777 41.1244 99.075 41.2403C99.032 41.2429 98.9917 41.2618 98.9622 41.2932C98.9328 41.3245 98.9164 41.3659 98.9164 41.4089C98.9164 41.4519 98.9328 41.4933 98.9622 41.5247C98.9917 41.556 99.032 41.5749 99.075 41.5776C103.693 41.6569 108.341 41.5065 112.958 41.4355C113.044 41.437 113.128 41.4071 113.193 41.3515C113.258 41.2958 113.301 41.2183 113.313 41.1334C113.356 41.0996 113.392 41.0565 113.416 41.0074C113.441 40.9582 113.454 40.9042 113.455 40.8492C113.722 36.288 110.374 31.2505 107.455 30.126ZM108.627 31.8131C107.564 32.9157 106.624 34.13 105.822 35.4348C105.391 34.2396 104.875 33.0767 104.278 31.9552C104.646 31.4098 105.055 30.8933 105.502 30.4102C107.72 30.7475 108.237 31.44 108.627 31.8131ZM98.9693 32.1145C99.9555 31.38 101.078 30.8489 102.271 30.5523C102.707 31.0977 103.214 31.5814 103.78 31.9904C103.514 33.3932 102.875 34.5644 102.662 35.9494C102.449 35.6652 100.815 32.647 98.9693 32.1145ZM108.946 32.1145C112.302 35.7363 112.586 38.7897 112.692 40.7251C110.029 40.8492 107.366 40.9203 104.703 41.0092C104.916 39.3401 106.443 34.4582 108.946 32.1145Z" fill="#BC8A40"/>
<path d="M117.398 45.0036C117.575 42.7847 116.944 21.5693 116.953 16.8289C116.953 16.7578 116.811 16.4365 116.669 16.4205C112.733 15.9796 94.7972 16.7578 92.7556 16.8999C92.6136 16.8999 92.4356 17.2199 92.4356 17.2903C92.4094 19.8298 92.3851 31.0644 92.5598 32.2215C92.5772 32.2757 92.6113 32.3231 92.6573 32.3567C92.7033 32.3902 92.7588 32.4083 92.8158 32.4083C92.8728 32.4083 92.9282 32.3902 92.9743 32.3567C93.0203 32.3231 93.0544 32.2757 93.0718 32.2215C93.2638 31.0458 93.1249 19.9335 92.9297 17.4682C94.7403 17.6986 112.335 17.0599 116.24 16.9357C116.276 21.6404 116.719 42.6957 116.897 44.9677C111.092 45.4797 105.234 45.385 99.4251 45.4292C99.3714 45.4333 99.3213 45.4576 99.2847 45.4971C99.2482 45.5366 99.2278 45.5885 99.2278 45.6423C99.2278 45.6961 99.2482 45.748 99.2847 45.7875C99.3213 45.827 99.3714 45.8513 99.4251 45.8554C105.337 45.8375 111.284 46.0154 117.196 45.5533C117.255 45.5434 117.309 45.5181 117.355 45.4801C117.401 45.4421 117.436 45.3927 117.456 45.3369C117.477 45.2811 117.482 45.2209 117.472 45.1624C117.461 45.1038 117.436 45.049 117.398 45.0036Z" fill="#BC8A40"/>
<path d="M100.798 51.0931C103.619 51.2025 116.158 51.3894 117.433 51.1462C117.788 51.0822 117.681 50.5625 117.344 50.5427C115.959 50.4621 103.52 50.3859 100.78 50.6137C100.72 50.6209 100.665 50.6504 100.625 50.6963C100.586 50.7422 100.566 50.8013 100.568 50.8617C100.57 50.9221 100.595 50.9794 100.638 51.0223C100.68 51.0652 100.737 51.0904 100.798 51.0931Z" fill="#5D4212"/>
<path d="M100.603 55.232C103.551 55.4784 116.795 55.9206 118.018 55.4444C118.249 55.3555 118.321 54.9638 118.018 54.8947C117.378 54.7481 103.549 54.8588 100.603 54.8768C100.372 54.8569 100.372 55.2102 100.603 55.232Z" fill="#5D4212"/>
<path d="M101.792 60.1651C104.562 60.192 115.673 60.5197 118.427 60.272C118.853 60.2336 118.871 59.5725 118.427 59.5795C115.656 59.6237 104.555 59.4074 101.792 59.6858C101.507 59.712 101.49 60.16 101.792 60.1651Z" fill="#5D4212"/>
<path d="M4.84001 51.0931C9.10049 51.417 29.3635 51.2141 30.0854 50.9011C30.1329 50.873 30.171 50.8314 30.195 50.7817C30.2189 50.7319 30.2277 50.6762 30.2201 50.6215C30.2125 50.5668 30.1889 50.5156 30.1523 50.4743C30.1157 50.4329 30.0678 50.4033 30.0144 50.3891C29.2336 50.2099 9.06529 50.7616 4.84001 50.7437C4.79939 50.7515 4.76277 50.7732 4.73643 50.8051C4.71009 50.837 4.69568 50.877 4.69568 50.9184C4.69568 50.9598 4.71009 50.9998 4.73643 51.0317C4.76277 51.0636 4.79939 51.0853 4.84001 51.0931Z" fill="#5D4212"/>
<path d="M5.0352 56.4192C9.18944 56.4192 28.1341 56.8787 29.9434 56.6675C30.3696 56.6182 30.3869 55.9718 29.9434 55.9757C25.7885 56.0109 9.18944 55.7094 5.0352 55.9578C4.75104 55.993 4.73312 56.4192 5.0352 56.4192Z" fill="#5D4212"/>
<path d="M5.0352 61.3902C9.18944 61.3902 28.1168 61.442 29.9434 61.2308C30.3696 61.1809 30.3869 60.5345 29.9434 60.5383C25.7885 60.5735 9.18944 60.6804 5.0352 60.9287C4.75104 60.9646 4.73312 61.3902 5.0352 61.3902Z" fill="#5D4212"/>
<path d="M29.7833 15.5328C29.7834 15.4963 29.776 15.4602 29.7615 15.4266C29.747 15.3931 29.7258 15.3629 29.6991 15.3379C29.6725 15.313 29.641 15.2938 29.6066 15.2815C29.5722 15.2692 29.5356 15.2641 29.4992 15.2666C29.464 15.2666 8.12319 15.657 3.88127 15.888C3.8483 15.8894 3.81597 15.8976 3.78624 15.9119C3.75652 15.9262 3.73004 15.9465 3.70841 15.9714C3.68678 15.9963 3.67047 16.0254 3.66046 16.0568C3.65046 16.0883 3.64698 16.1214 3.65023 16.1543C3.63231 16.1901 3.84223 40.8404 4.36063 45.714C4.36332 45.7714 4.38616 45.826 4.42514 45.8683C4.46411 45.9105 4.51673 45.9377 4.57375 45.945C4.6016 45.9779 4.63733 46.0033 4.67761 46.0187C4.71789 46.0342 4.76141 46.0392 4.80415 46.0333C8.97631 45.856 29.5171 45.8381 29.5529 45.8202C29.6258 45.827 29.6984 45.8047 29.7548 45.7582C29.8113 45.7116 29.8471 45.6447 29.8544 45.5719C30.0086 44.3968 29.8281 18.9959 29.7833 15.5328ZM4.85791 45.3946C4.80415 40.601 4.66207 21.232 4.34591 16.3674C8.44703 16.3853 25.064 16.1364 29.2361 15.9412C29.0057 24.3744 29.0589 44.0276 29.3072 45.2877C25.3449 45.1636 9.03199 45.2167 4.85791 45.3946Z" fill="#BC8A40"/>
<path d="M24.9366 39.8721C24.4431 37.7191 25.0748 35.5617 22.6646 32.6286C21.9394 31.7128 21.0125 30.9769 19.9563 30.478C18.9001 29.9791 17.7429 29.7308 16.575 29.7524C11.1779 29.9598 7.32507 35.4689 7.82235 40.6324C7.82235 40.6682 7.89403 40.9319 8.03547 40.9524C10.5462 41.314 20.9635 41.3863 23.4454 40.9166C23.8012 40.8494 23.6943 40.3092 23.3564 40.2951C22.0969 40.2446 18.1724 40.5441 17.4806 40.5614C17.9772 39.017 18.3324 36.1588 21.0844 32.1639C24.4931 35.3953 23.7577 38.921 24.2441 40.0468C24.4303 40.4807 25.0428 40.3348 24.9366 39.8721ZM12.5801 31.8132C13.428 31.256 14.3741 30.865 15.3679 30.6612C15.5826 31.2898 15.9205 31.8692 16.3619 32.3655C16.1487 33.1642 15.9535 34.265 15.7404 34.9927C15.0474 33.627 13.9416 32.5145 12.5801 31.8132ZM8.26395 40.459C8.53019 37.9732 9.45307 34.3873 12.1519 32.1146C16.6435 36.0026 16.9097 40.5626 16.9097 40.5831C16.5199 40.601 10.7516 40.3879 8.26395 40.459ZM18.3324 35.3281C17.7455 34.345 17.2918 33.2883 16.9833 32.1857C17.2123 31.6702 17.3734 31.1272 17.4627 30.5703C18.655 30.7194 19.7875 31.1784 20.7471 31.9015C19.9478 33.0554 18.918 34.0321 18.3324 35.3281Z" fill="#BC8A40"/>
<path d="M66.3915 11.6807C65.0411 8.07046 59.6184 8.16902 57.7457 10.8103C57.3195 11.2545 56.8593 13.3665 56.9464 13.7223C57.0744 14.2343 58.3006 14.5236 58.4913 14.1306C58.7085 13.5408 58.9633 12.9655 59.2542 12.4084C60.5592 10.4058 63.2779 10.5127 64.314 12.0001C65.066 13.0791 64.6513 14.1306 63.8884 15.0893C62.874 16.1031 61.6536 16.8314 60.5681 18.5863C59.5032 20.3085 58.8318 22.8551 59.8404 24.7469C60.1732 25.3709 61.74 25.1373 61.58 24.2676C61.2964 22.7233 60.9822 21.1642 61.7931 19.7236C62.4011 18.6426 63.4884 17.9233 64.4209 17.1495C66.0875 15.7645 67.2222 13.9009 66.3915 11.6807Z" fill="#BC8A40"/>
<path d="M98.9693 48.7322C94.4599 45.3011 99.0417 42.5843 97.6023 38.8608C97.343 38.1124 96.938 37.4227 96.4107 36.8317C95.8835 36.2406 95.2444 35.7598 94.5303 35.417C93.6413 35.0464 92.7729 34.8307 92.0983 34.0851C91.6594 33.4775 91.1259 32.9442 90.5181 32.5056C90.0887 32.2578 89.5986 32.1348 89.103 32.1504C88.6074 32.166 88.126 32.3196 87.713 32.5939C86.5329 33.4982 86.3383 35.8464 87.7668 37.3696C87.7309 37.3875 86.3076 39.7818 85.5473 40.8851C84.6557 42.1786 85.9735 42.5715 86.0087 42.5894C85.6145 45.4131 87.0807 46.9459 88.8849 47.0279C89.009 47.8797 89.0199 48.7507 89.1338 49.6019C89.1671 49.8509 89.5818 49.9757 89.6305 49.673C89.7303 48.7847 89.652 47.8855 89.4001 47.0279C89.9708 46.9882 90.5129 46.7635 90.9444 46.3879C91.1574 47.6098 91.8231 48.7067 92.8087 49.4598C94.2621 50.5638 97.8858 50.9869 99.1447 49.3709C99.2529 49.1936 99.0225 48.768 98.9693 48.7322ZM91.6561 41.9501C91.5883 41.916 91.5117 41.9039 91.4367 41.9153C91.3618 41.9267 91.2922 41.961 91.2376 42.0136C91.183 42.0662 91.1461 42.1345 91.132 42.209C91.1179 42.2835 91.1272 42.3605 91.1588 42.4294C90.8496 43.4466 90.7233 44.5106 90.7857 45.5719C90.4273 46.0038 89.9273 46.2944 89.3746 46.392C88.8219 46.4895 88.2526 46.3876 87.7681 46.1043C87.4589 45.9334 87.1928 45.6943 86.9897 45.4052C86.7867 45.1161 86.6521 44.7846 86.5962 44.4358C86.9137 44.5072 87.2456 44.477 87.545 44.3495C87.8443 44.2221 88.0961 44.0038 88.2647 43.7254C88.288 43.6803 88.2948 43.6285 88.2841 43.5788C88.2733 43.5292 88.2456 43.4848 88.2058 43.4533C88.1659 43.4219 88.1163 43.4052 88.0655 43.4063C88.0148 43.4074 87.9659 43.4261 87.9274 43.4592C87.7544 43.6591 87.5329 43.8111 87.2842 43.9007C87.0355 43.9904 86.768 44.0147 86.5073 43.9712C86.4362 43.4387 86.4541 42.871 86.4183 42.3206C86.4183 42.2138 86.1527 42.1779 85.8506 41.8086C85.6202 41.5245 87.9812 37.6192 87.9812 37.6192C88.3589 37.8987 88.7913 38.0953 89.2502 38.1962C89.7091 38.2972 90.1841 38.3001 90.6442 38.2048C91.0845 38.6496 91.3753 39.2205 91.4762 39.8381C91.5008 39.9222 91.5573 39.9933 91.6335 40.0365C91.7097 40.0796 91.7998 40.0913 91.8845 40.0691C93.6253 39.376 93.1485 42.7437 91.6561 41.9501Z" fill="#5D4212"/>
<path d="M103.603 107.532C103.567 106.183 100.193 88.4718 98.7562 74.0308C98.735 73.8184 98.3824 73.8708 98.383 74.084C98.401 79.6942 102.555 105.916 102.857 107.212C102.431 108.579 100.617 108.082 99.3238 107.621C98.383 104.478 93.359 89.778 92.8266 88.2516C92.8618 88.1096 94.3779 82.42 95.3648 79.7832C95.5107 79.394 94.8093 79.1067 94.6902 79.499C92.4598 86.8545 86.737 105.668 85.441 107.958C85.423 107.958 82.8131 109.13 81.9082 107.372C82.4406 104.513 86.2992 79.1553 86.8963 73.5163C86.9283 73.2136 86.472 73.2321 86.4349 73.5163C85.6957 79.236 81.3149 104.476 81.2509 107.301C81.2495 107.387 81.2814 107.469 81.3398 107.532C80.9136 107.71 74.4336 109.236 74.4336 110.834C74.4332 110.919 74.4609 111.001 74.5123 111.069C74.5637 111.136 74.6359 111.184 74.7178 111.207C78.2107 111.69 81.7424 111.833 85.263 111.633C85.4051 111.615 86.735 108.828 85.903 108.369C87.8026 104.179 91.9395 91.3608 92.5251 89.284C92.9155 90.491 97.425 104.268 98.3658 107.162C98.3306 107.162 91.6272 108.526 92.1347 109.931C92.3331 110.48 92.8982 110.571 93.4307 110.641C94.4432 110.78 100.535 110.952 102.556 110.925C102.796 110.883 103.018 110.772 103.196 110.605C103.8 109.67 103.904 107.798 103.603 107.532Z" fill="#5D4212"/>
</svg>
