<svg width="16" height="14" viewBox="0 0 16 14" fill="none" xmlns="http://www.w3.org/2000/svg">
<path d="M2.8667 9.40002H14.0667" stroke="#747578" stroke-linecap="round" stroke-linejoin="round"/>
<path d="M2.8667 11.2667H14.0667" stroke="#747578" stroke-linecap="round" stroke-linejoin="round"/>
<path d="M2.3999 3.33333C2.3999 3.63975 2.46026 3.94317 2.57752 4.22626C2.69478 4.50935 2.86665 4.76658 3.08332 4.98325C3.29999 5.19992 3.55721 5.37179 3.84031 5.48905C4.1234 5.60631 4.42682 5.66667 4.73324 5.66667C5.03965 5.66667 5.34307 5.60631 5.62616 5.48905C5.90926 5.37179 6.16648 5.19992 6.38315 4.98325C6.59982 4.76658 6.77169 4.50935 6.88895 4.22626C7.00622 3.94317 7.06657 3.63975 7.06657 3.33333C7.06657 3.02692 7.00622 2.7235 6.88895 2.44041C6.77169 2.15731 6.59982 1.90009 6.38315 1.68342C6.16648 1.46675 5.90926 1.29488 5.62616 1.17761C5.34307 1.06035 5.03965 1 4.73324 1C4.42682 1 4.1234 1.06035 3.84031 1.17761C3.55721 1.29488 3.29999 1.46675 3.08332 1.68342C2.86665 1.90009 2.69478 2.15731 2.57752 2.44041C2.46026 2.7235 2.3999 3.02692 2.3999 3.33333V3.33333Z" stroke="#747578" stroke-linecap="round" stroke-linejoin="round"/>
<path d="M8.93311 3.33333C8.93311 3.63975 8.99346 3.94317 9.11072 4.22626C9.22798 4.50935 9.39985 4.76658 9.61652 4.98325C9.83319 5.19992 10.0904 5.37179 10.3735 5.48905C10.6566 5.60631 10.96 5.66667 11.2664 5.66667C11.5729 5.66667 11.8763 5.60631 12.1594 5.48905C12.4425 5.37179 12.6997 5.19992 12.9164 4.98325C13.133 4.76658 13.3049 4.50935 13.4222 4.22626C13.5394 3.94317 13.5998 3.63975 13.5998 3.33333C13.5998 3.02692 13.5394 2.7235 13.4222 2.44041C13.3049 2.15731 13.133 1.90009 12.9164 1.68342C12.6997 1.46675 12.4425 1.29488 12.1594 1.17761C11.8763 1.06035 11.5729 1 11.2664 1C10.96 1 10.6566 1.06035 10.3735 1.17761C10.0904 1.29488 9.83319 1.46675 9.61652 1.68342C9.39985 1.90009 9.22798 2.15731 9.11072 2.44041C8.99346 2.7235 8.93311 3.02692 8.93311 3.33333V3.33333Z" stroke="#747578" stroke-linecap="round" stroke-linejoin="round"/>
<path d="M7.06689 3.37755C7.06689 3.13001 7.16523 2.89261 7.34026 2.71758C7.5153 2.54255 7.75269 2.44421 8.00023 2.44421C8.24776 2.44421 8.48516 2.54255 8.66019 2.71758C8.83523 2.89261 8.93356 3.13001 8.93356 3.37755" stroke="#747578" stroke-linecap="round" stroke-linejoin="round"/>
<path d="M15.0001 3.33337H13.6001" stroke="#747578" stroke-linecap="round" stroke-linejoin="round"/>
<path d="M2.4 3.33337H1" stroke="#747578" stroke-linecap="round" stroke-linejoin="round"/>
<path d="M15 13.1333H2.86667C2.3716 13.1333 1.8968 12.9367 1.54673 12.5866C1.19667 12.2365 1 11.7617 1 11.2667V9.39999C1 8.90492 1.19667 8.43013 1.54673 8.08006C1.8968 7.72999 2.3716 7.53333 2.86667 7.53333H15" stroke="#747578" stroke-linecap="round" stroke-linejoin="round"/>
</svg>
