<svg width="65" height="66" viewBox="0 0 65 66" fill="none" xmlns="http://www.w3.org/2000/svg">
<path d="M0.5 33C0.5 41.4869 3.87142 49.6263 9.87258 55.6274C15.8737 61.6286 24.0131 65 32.5 65C40.9869 65 49.1263 61.6286 55.1274 55.6274C61.1286 49.6263 64.5 41.4869 64.5 33C64.5 24.5131 61.1286 16.3737 55.1274 10.3726C49.1263 4.37142 40.9869 1 32.5 1C24.0131 1 15.8737 4.37142 9.87258 10.3726C3.87142 16.3737 0.5 24.5131 0.5 33Z" fill="#D8EBF5" stroke="#B4DBEE" stroke-width="0.8"/>
<path opacity="0.15" d="M18.3081 57.5231C18.3081 57.7043 18.5699 57.8837 19.0784 58.0512C19.587 58.2186 20.3325 58.3707 21.2722 58.4989C22.2119 58.627 23.3275 58.7287 24.5553 58.798C25.7832 58.8674 27.0991 58.9031 28.4281 58.9031C29.7571 58.9031 31.073 58.8674 32.3009 58.798C33.5287 58.7287 34.6443 58.627 35.584 58.4989C36.5238 58.3707 37.2692 58.2186 37.7778 58.0512C38.2863 57.8837 38.5481 57.7043 38.5481 57.5231C38.5481 57.3418 38.2863 57.1624 37.7778 56.995C37.2692 56.8275 36.5238 56.6754 35.584 56.5473C34.6443 56.4191 33.5287 56.3175 32.3009 56.2481C31.073 56.1788 29.7571 56.1431 28.4281 56.1431C27.0991 56.1431 25.7832 56.1788 24.5553 56.2481C23.3275 56.3175 22.2119 56.4191 21.2722 56.5473C20.3325 56.6754 19.587 56.8275 19.0784 56.995C18.5699 57.1624 18.3081 57.3418 18.3081 57.5231Z" fill="#212122"/>
<path d="M13.6945 11.6846H35.9121L44.7993 20.5718V50.7182C44.7994 50.8641 44.7707 51.0085 44.715 51.1434C44.6592 51.2782 44.5775 51.4007 44.4743 51.5039C44.3712 51.6071 44.2488 51.6889 44.114 51.7448C43.9792 51.8006 43.8348 51.8294 43.6889 51.8294H13.6945C13.5483 51.8298 13.4034 51.8014 13.2683 51.7457C13.1331 51.6901 13.0102 51.6083 12.9067 51.505C12.8032 51.4018 12.721 51.2792 12.665 51.1442C12.6089 51.0091 12.5801 50.8644 12.5801 50.7182V12.7982C12.5798 12.6518 12.6084 12.5068 12.6643 12.3715C12.7202 12.2362 12.8023 12.1132 12.9058 12.0098C13.0094 11.9063 13.1324 11.8243 13.2677 11.7685C13.403 11.7127 13.5481 11.6842 13.6945 11.6846Z" fill="white"/>
<path d="M43.6889 49.2321H13.6945C13.5482 49.2325 13.4033 49.2041 13.2681 49.1484C13.1328 49.0927 13.0099 49.0108 12.9064 48.9075C12.8029 48.8042 12.7207 48.6815 12.6647 48.5463C12.6087 48.4112 12.58 48.2664 12.5801 48.1201V50.7177C12.5801 51.0124 12.6972 51.2951 12.9055 51.5035C13.1139 51.7118 13.3966 51.8289 13.6913 51.8289H43.6889C43.8348 51.8289 43.9792 51.8002 44.114 51.7443C44.2488 51.6885 44.3712 51.6066 44.4743 51.5034C44.5775 51.4002 44.6592 51.2777 44.715 51.1429C44.7707 51.0081 44.7994 50.8636 44.7993 50.7177V48.1201C44.7995 48.2661 44.7709 48.4106 44.7152 48.5455C44.6595 48.6804 44.5777 48.803 44.4746 48.9063C44.3715 49.0096 44.249 49.0915 44.1142 49.1474C43.9794 49.2033 43.8348 49.2321 43.6889 49.2321Z" fill="#EFEFF0"/>
<path d="M13.6945 11.6846H35.9121L44.7993 20.5718V50.7182C44.7994 50.8641 44.7707 51.0085 44.715 51.1434C44.6592 51.2782 44.5775 51.4007 44.4743 51.5039C44.3712 51.6071 44.2488 51.6889 44.114 51.7448C43.9792 51.8006 43.8348 51.8294 43.6889 51.8294H13.6945C13.5483 51.8298 13.4034 51.8014 13.2683 51.7457C13.1331 51.6901 13.0102 51.6083 12.9067 51.505C12.8032 51.4018 12.721 51.2792 12.665 51.1442C12.6089 51.0091 12.5801 50.8644 12.5801 50.7182V12.7982C12.5798 12.6518 12.6084 12.5068 12.6643 12.3715C12.7202 12.2362 12.8023 12.1132 12.9058 12.0098C13.0094 11.9063 13.1324 11.8243 13.2677 11.7685C13.403 11.7127 13.5481 11.6842 13.6945 11.6846Z" stroke="#212122" stroke-width="0.8" stroke-linecap="round" stroke-linejoin="round"/>
<path d="M44.7993 20.5718L35.9121 11.6846V19.4606C35.9121 19.7553 36.0292 20.0379 36.2376 20.2463C36.446 20.4547 36.7286 20.5718 37.0233 20.5718H44.7993Z" fill="#D8EBF5" stroke="#212122" stroke-width="0.8" stroke-linecap="round" stroke-linejoin="round"/>
<path d="M18.5454 19.9648H30.7654" stroke="#747578" stroke-width="0.8" stroke-linecap="round" stroke-linejoin="round"/>
<path d="M18.5454 25.1494H30.7654" stroke="#747578" stroke-width="0.8" stroke-linecap="round" stroke-linejoin="round"/>
<path d="M18.5454 30.439H39.263" stroke="#747578" stroke-width="0.8" stroke-linecap="round" stroke-linejoin="round"/>
<path d="M18.5454 35.499H39.263" stroke="#747578" stroke-width="0.8" stroke-linecap="round" stroke-linejoin="round"/>
<path d="M18.5454 40.7896H39.263" stroke="#747578" stroke-width="0.8" stroke-linecap="round" stroke-linejoin="round"/>
<path d="M18.5454 45.8496H39.263" stroke="#747578" stroke-width="0.8" stroke-linecap="round" stroke-linejoin="round"/>
<path d="M47.2168 28.4761L49.1922 26.5007L54.1312 31.4397L52.1558 33.4151L47.2168 28.4761Z" fill="#EFEFF0" stroke="#212122" stroke-width="0.8" stroke-linecap="round" stroke-linejoin="round"/>
<path d="M49.6864 11.1886C51.4447 12.9469 52.6421 15.1872 53.1272 17.6261C53.6123 20.065 53.3633 22.5929 52.4117 24.8903C51.4601 27.1876 49.8486 29.1512 47.781 30.5327C45.7134 31.9142 43.2826 32.6516 40.7959 32.6516C38.3093 32.6516 35.8785 31.9142 33.8109 30.5327C31.7433 29.1512 30.1318 27.1876 29.1802 24.8903C28.2286 22.5929 27.9796 20.065 28.4647 17.6261C28.9498 15.1872 30.1472 12.9469 31.9056 11.1886C34.2635 8.83088 37.4615 7.50635 40.7959 7.50635C44.1304 7.50635 47.3284 8.83088 49.6864 11.1886Z" fill="#EFEFF0" stroke="#212122" stroke-width="0.8" stroke-linecap="round" stroke-linejoin="round"/>
<path d="M47.22 13.6583C48.4898 14.9282 49.3545 16.5461 49.7048 18.3074C50.0551 20.0687 49.8753 21.8944 49.188 23.5535C48.5007 25.2126 47.3369 26.6306 45.8437 27.6283C44.3506 28.626 42.5951 29.1585 40.7992 29.1585C39.0034 29.1585 37.2479 28.626 35.7547 27.6283C34.2616 26.6306 33.0978 25.2126 32.4105 23.5535C31.7232 21.8944 31.5434 20.0687 31.8937 18.3074C32.2439 16.5461 33.1087 14.9282 34.3784 13.6583C35.2216 12.815 36.2226 12.1461 37.3243 11.6898C38.426 11.2334 39.6068 10.9985 40.7992 10.9985C41.9917 10.9985 43.1725 11.2334 44.2742 11.6898C45.3759 12.1461 46.3769 12.815 47.22 13.6583Z" fill="#D8EBF5"/>
<path d="M46.08 27.4654C44.7225 28.4365 43.1237 29.0147 41.4591 29.1364C39.7945 29.2582 38.1286 28.9188 36.6443 28.1557C35.16 27.3925 33.9147 26.235 33.0453 24.8103C32.1758 23.3856 31.7158 21.7489 31.7158 20.0798C31.7158 18.4108 32.1758 16.7741 33.0453 15.3494C33.9147 13.9247 35.16 12.7672 36.6443 12.004C38.1286 11.2408 39.7945 10.9015 41.4591 11.0232C43.1237 11.145 44.7225 11.7232 46.08 12.6942V27.4654Z" stroke="#212122" stroke-width="0.8" stroke-linecap="round" stroke-linejoin="round"/>
<path d="M46.08 27.4654C44.7225 28.4365 43.1237 29.0147 41.4591 29.1364C39.7945 29.2582 38.1286 28.9188 36.6443 28.1557C35.16 27.3925 33.9147 26.235 33.0453 24.8103C32.1758 23.3856 31.7158 21.7489 31.7158 20.0798C31.7158 18.4108 32.1758 16.7741 33.0453 15.3494C33.9147 13.9247 35.16 12.7672 36.6443 12.004C38.1286 11.2408 39.7945 10.9015 41.4591 11.0232C43.1237 11.145 44.7225 11.7232 46.08 12.6942V27.4654Z" fill="#D8EBF5"/>
<path d="M34.3754 26.4999C32.6725 24.7965 31.716 22.4865 31.7163 20.0779C31.7166 17.6694 32.6737 15.3596 34.377 13.6567C36.0803 11.9538 38.3904 10.9973 40.799 10.9976C43.2075 10.9979 45.5173 11.9549 47.2202 13.6583L34.3754 26.4999Z" fill="white"/>
<path d="M47.22 13.6583C48.4898 14.9282 49.3545 16.5461 49.7048 18.3074C50.0551 20.0687 49.8753 21.8944 49.188 23.5535C48.5007 25.2126 47.3369 26.6306 45.8437 27.6283C44.3506 28.626 42.5951 29.1585 40.7992 29.1585C39.0034 29.1585 37.2479 28.626 35.7547 27.6283C34.2616 26.6306 33.0978 25.2126 32.4105 23.5535C31.7232 21.8944 31.5434 20.0687 31.8937 18.3074C32.2439 16.5461 33.1087 14.9282 34.3784 13.6583C35.2216 12.815 36.2226 12.1461 37.3243 11.6898C38.426 11.2334 39.6068 10.9985 40.7992 10.9985C41.9917 10.9985 43.1725 11.2334 44.2742 11.6898C45.3759 12.1461 46.3769 12.815 47.22 13.6583V13.6583Z" stroke="#212122" stroke-width="0.8" stroke-linecap="round" stroke-linejoin="round"/>
<path d="M46.08 27.4654C44.7225 28.4365 43.1237 29.0147 41.4591 29.1364C39.7945 29.2582 38.1286 28.9188 36.6443 28.1557C35.16 27.3925 33.9147 26.235 33.0453 24.8103C32.1758 23.3856 31.7158 21.7489 31.7158 20.0798C31.7158 18.4108 32.1758 16.7741 33.0453 15.3494C33.9147 13.9247 35.16 12.7672 36.6443 12.004C38.1286 11.2408 39.7945 10.9015 41.4591 11.0232C43.1237 11.145 44.7225 11.7232 46.08 12.6942V27.4654Z" stroke="#212122" stroke-width="0.8" stroke-linecap="round" stroke-linejoin="round"/>
<path d="M62.5274 37.8599C63.0274 38.3882 63.3016 39.0907 63.2918 39.818C63.282 40.5453 62.9889 41.2401 62.4748 41.7547C61.9608 42.2693 61.2663 42.5631 60.539 42.5736C59.8117 42.5842 59.1089 42.3106 58.5802 41.8111L52.2138 35.4447C52.0768 35.3079 51.9681 35.1454 51.894 34.9665C51.8199 34.7877 51.7817 34.596 51.7817 34.4023C51.7817 34.2087 51.8199 34.017 51.894 33.8382C51.9681 33.6593 52.0768 33.4968 52.2138 33.3599L54.0802 31.4935C54.217 31.3566 54.3795 31.2479 54.5584 31.1738C54.7372 31.0997 54.9289 31.0615 55.1226 31.0615C55.3162 31.0615 55.5079 31.0997 55.6867 31.1738C55.8656 31.2479 56.0281 31.3566 56.165 31.4935L62.5274 37.8599Z" fill="#8B662B"/>
<path d="M62.5281 37.8593L56.1617 31.4929C55.8851 31.2167 55.5102 31.0615 55.1193 31.0615C54.7284 31.0615 54.3535 31.2167 54.0769 31.4929L53.1401 32.4265L62.5281 41.8113C62.7876 41.5518 62.9935 41.2437 63.1339 40.9047C63.2744 40.5656 63.3467 40.2023 63.3467 39.8353C63.3467 39.4683 63.2744 39.1049 63.1339 38.7659C62.9935 38.4268 62.7876 38.1188 62.5281 37.8593Z" fill="#BC8A40"/>
<path d="M62.5274 37.8599C63.0274 38.3882 63.3016 39.0907 63.2918 39.818C63.282 40.5453 62.9889 41.2401 62.4748 41.7547C61.9608 42.2693 61.2663 42.5631 60.539 42.5736C59.8117 42.5842 59.1089 42.3106 58.5802 41.8111L52.2138 35.4447C52.0768 35.3079 51.9681 35.1454 51.894 34.9665C51.8199 34.7877 51.7817 34.596 51.7817 34.4023C51.7817 34.2087 51.8199 34.017 51.894 33.8382C51.9681 33.6593 52.0768 33.4968 52.2138 33.3599L54.0802 31.4935C54.217 31.3566 54.3795 31.2479 54.5584 31.1738C54.7372 31.0997 54.9289 31.0615 55.1226 31.0615C55.3162 31.0615 55.5079 31.0997 55.6867 31.1738C55.8656 31.2479 56.0281 31.3566 56.165 31.4935L62.5274 37.8599Z" stroke="#212122" stroke-width="0.8" stroke-linecap="round" stroke-linejoin="round"/>
</svg>
