<svg width="16" height="16" viewBox="0 0 16 16" fill="none" xmlns="http://www.w3.org/2000/svg">
<path d="M7.09438 2.04808C7.20862 2.17488 7.34822 2.27627 7.50414 2.34567C7.66007 2.41507 7.82884 2.45093 7.99951 2.45093C8.17018 2.45093 8.33895 2.41507 8.49487 2.34567C8.6508 2.27627 8.7904 2.17488 8.90463 2.04808L9.49352 1.40192C9.6623 1.21513 9.88475 1.08515 10.1303 1.02982C10.3759 0.974489 10.6326 0.996521 10.8652 1.09289C11.0978 1.18926 11.2948 1.35524 11.4293 1.56806C11.5638 1.78088 11.6291 2.0301 11.6163 2.28152L11.5721 3.15303C11.5635 3.32304 11.5907 3.49296 11.6518 3.65183C11.7129 3.81071 11.8066 3.95502 11.9269 4.07548C12.0472 4.19594 12.1914 4.28986 12.3502 4.35121C12.5089 4.41255 12.6788 4.43996 12.8488 4.43166L13.7203 4.38746C13.9716 4.37507 14.2205 4.44069 14.4331 4.57533C14.6456 4.70996 14.8112 4.90702 14.9073 5.13949C15.0035 5.37196 15.0254 5.62848 14.97 5.87387C14.9146 6.11927 14.7847 6.34153 14.5981 6.51021L13.9494 7.09537C13.8228 7.20976 13.7215 7.34945 13.6523 7.50541C13.583 7.66138 13.5472 7.83014 13.5472 8.0008C13.5472 8.17147 13.583 8.34023 13.6523 8.49619C13.7215 8.65215 13.8228 8.79185 13.9494 8.90624L14.5981 9.4914C14.7849 9.66017 14.9149 9.88262 14.9702 10.1282C15.0255 10.3738 15.0035 10.6305 14.9071 10.8631C14.8107 11.0956 14.6448 11.2927 14.4319 11.4272C14.2191 11.5616 13.9699 11.6269 13.7185 11.6141L12.847 11.5699C12.6766 11.5612 12.5063 11.5883 12.347 11.6495C12.1878 11.7107 12.0431 11.8047 11.9225 11.9253C11.8018 12.046 11.7079 12.1906 11.6467 12.3499C11.5854 12.5091 11.5583 12.6794 11.5671 12.8498L11.6113 13.7213C11.6224 13.9715 11.5563 14.219 11.4219 14.4303C11.2875 14.6415 11.0913 14.8063 10.8599 14.9022C10.6286 14.998 10.3734 15.0204 10.1289 14.9662C9.88445 14.9119 9.66261 14.7838 9.49352 14.5991L8.90775 13.951C8.79341 13.8244 8.65377 13.7232 8.49786 13.6539C8.34195 13.5846 8.17323 13.5488 8.00262 13.5488C7.83201 13.5488 7.66329 13.5846 7.50738 13.6539C7.35147 13.7232 7.21183 13.8244 7.09749 13.951L6.50923 14.5991C6.34041 14.7846 6.11847 14.9136 5.87367 14.9684C5.62888 15.0233 5.37313 15.0012 5.14129 14.9054C4.90946 14.8096 4.71282 14.6446 4.57819 14.4329C4.44356 14.2212 4.37748 13.9732 4.38897 13.7226L4.43379 12.8511C4.44255 12.6807 4.41545 12.5104 4.35423 12.3511C4.29301 12.1918 4.19904 12.0472 4.0784 11.9266C3.95776 11.8059 3.81313 11.712 3.65388 11.6508C3.49463 11.5895 3.3243 11.5624 3.15391 11.5712L2.2824 11.6154C2.03109 11.6285 1.78187 11.5635 1.56897 11.4293C1.35607 11.2951 1.18992 11.0984 1.09334 10.866C0.996757 10.6336 0.974472 10.377 1.02955 10.1314C1.08462 9.88588 1.21435 9.66339 1.40093 9.49451L2.04896 8.90935C2.17561 8.79496 2.27685 8.65527 2.34614 8.4993C2.41543 8.34334 2.45124 8.17458 2.45124 8.00392C2.45124 7.83325 2.41543 7.66449 2.34614 7.50853C2.27685 7.35256 2.17561 7.21287 2.04896 7.09848L1.40093 6.51021C1.21496 6.34151 1.08562 6.11949 1.0306 5.87451C0.975585 5.62952 0.997569 5.37352 1.09355 5.1415C1.18953 4.90948 1.35483 4.71276 1.56684 4.57824C1.77886 4.44372 2.02724 4.37796 2.27804 4.38995L3.14955 4.43415C3.32026 4.44312 3.49095 4.41609 3.65053 4.3548C3.81011 4.29352 3.95502 4.19935 4.07584 4.07841C4.19666 3.95748 4.29068 3.81248 4.35182 3.65284C4.41295 3.4932 4.43981 3.32248 4.43067 3.15178L4.38897 2.27965C4.3772 2.02895 4.44308 1.78072 4.57761 1.56884C4.71214 1.35695 4.90877 1.19174 5.14067 1.09574C5.37256 0.999744 5.62843 0.977634 5.87336 1.03243C6.11829 1.08722 6.34034 1.21625 6.50923 1.40192L7.09438 2.04808Z" stroke="#555658" stroke-width="1.25" stroke-linecap="round" stroke-linejoin="round"/>
<path d="M5.19824 8.00113C5.19824 8.74407 5.49338 9.45659 6.01872 9.98193C6.54406 10.5073 7.25658 10.8024 7.99952 10.8024C8.74247 10.8024 9.45499 10.5073 9.98033 9.98193C10.5057 9.45659 10.8008 8.74407 10.8008 8.00113C10.8008 7.25818 10.5057 6.54566 9.98033 6.02032C9.45499 5.49498 8.74247 5.19984 7.99952 5.19984C7.25658 5.19984 6.54406 5.49498 6.01872 6.02032C5.49338 6.54566 5.19824 7.25818 5.19824 8.00113V8.00113Z" stroke="#555658" stroke-width="1.25" stroke-linecap="round" stroke-linejoin="round"/>
</svg>
