<svg width="16" height="16" viewBox="0 0 16 16" fill="none" xmlns="http://www.w3.org/2000/svg">
<path d="M3.62142 13.7927L2.20742 12.3787C2.11457 12.2858 2.00434 12.2121 1.88302 12.1618C1.76169 12.1115 1.63165 12.0856 1.50032 12.0856C1.36899 12.0855 1.23893 12.1114 1.11759 12.1616C0.996239 12.2118 0.885973 12.2855 0.793085 12.3783C0.605488 12.5658 0.500063 12.8202 0.5 13.0854C0.499969 13.2168 0.525806 13.3468 0.576037 13.4682C0.626267 13.5895 0.699907 13.6998 0.792751 13.7927L2.20742 15.2073C2.39501 15.3948 2.64941 15.5001 2.91465 15.5001C3.17989 15.5 3.43424 15.3946 3.62175 15.207C3.80926 15.0194 3.91457 14.765 3.9145 14.4998C3.91444 14.2345 3.80901 13.9802 3.62142 13.7927V13.7927Z" stroke="#747578" stroke-linecap="round" stroke-linejoin="round"/>
<path d="M2.20752 12.3787C2.20752 12.3787 10.2562 2.20867 11.2322 1.23201C11.7061 0.790408 12.3329 0.549997 12.9806 0.561425C13.6283 0.572852 14.2462 0.835225 14.7043 1.29327C15.1623 1.75131 15.4247 2.36926 15.4361 3.01693C15.4475 3.6646 15.2071 4.29142 14.7655 4.76534C13.7915 5.74401 3.62152 13.7927 3.62152 13.7927L2.20752 12.3787Z" stroke="#747578" stroke-linecap="round" stroke-linejoin="round"/>
<path d="M7.29002 10.876L5.12402 8.70996" stroke="#747578" stroke-linecap="round" stroke-linejoin="round"/>
<path d="M3.70801 10.4873L5.51267 12.292" stroke="#747578" stroke-linecap="round" stroke-linejoin="round"/>
<path d="M13.5 15.5C14.6046 15.5 15.5 14.6046 15.5 13.5C15.5 12.3954 14.6046 11.5 13.5 11.5C12.3954 11.5 11.5 12.3954 11.5 13.5C11.5 14.6046 12.3954 15.5 13.5 15.5Z" stroke="#747578" stroke-linecap="round" stroke-linejoin="round"/>
</svg>
