<svg width="65" height="50" viewBox="0 0 65 50" fill="none" xmlns="http://www.w3.org/2000/svg">
<path d="M6.63647 10C6.63647 12.1217 7.47933 14.1566 8.97962 15.6569C10.4799 17.1571 12.5147 18 14.6365 18C16.7582 18 18.793 17.1571 20.2933 15.6569C21.7936 14.1566 22.6365 12.1217 22.6365 10C22.6365 7.87827 21.7936 5.84344 20.2933 4.34315C18.793 2.84286 16.7582 2 14.6365 2C12.5147 2 10.4799 2.84286 8.97962 4.34315C7.47933 5.84344 6.63647 7.87827 6.63647 10V10Z" stroke="#747578" stroke-width="4" stroke-linecap="round" stroke-linejoin="round"/>
<path d="M21.2711 24C19.4631 22.8003 17.3636 22.1133 15.1961 22.0121C13.0286 21.9109 10.8742 22.3993 8.96226 23.4253C7.05031 24.4513 5.45233 25.9766 4.3384 27.8387C3.22448 29.7008 2.6363 31.8301 2.63647 34" stroke="#747578" stroke-width="4" stroke-linecap="round" stroke-linejoin="round"/>
<path d="M60.6364 34C60.6365 31.8301 60.0484 29.7008 58.9344 27.8387C57.8205 25.9766 56.2225 24.4513 54.3106 23.4253C52.3986 22.3993 50.2443 21.9109 48.0768 22.0121C45.9093 22.1133 43.8098 22.8003 42.0017 24" stroke="#747578" stroke-width="4" stroke-linecap="round" stroke-linejoin="round"/>
<path d="M40.6365 10C40.6365 12.1217 41.4793 14.1566 42.9796 15.6569C44.4799 17.1571 46.5147 18 48.6365 18C50.7582 18 52.793 17.1571 54.2933 15.6569C55.7936 14.1566 56.6365 12.1217 56.6365 10C56.6365 7.87827 55.7936 5.84344 54.2933 4.34315C52.793 2.84286 50.7582 2 48.6365 2C46.5147 2 44.4799 2.84286 42.9796 4.34315C41.4793 5.84344 40.6365 7.87827 40.6365 10V10Z" stroke="#747578" stroke-width="4" stroke-linecap="round" stroke-linejoin="round"/>
<path d="M40.6365 10C40.6365 10 40.6365 20 34.6365 20" stroke="#747578" stroke-width="4" stroke-linecap="round" stroke-linejoin="round"/>
<path d="M56.6365 10C56.6365 10 56.6365 20 62.6365 20" stroke="#747578" stroke-width="4" stroke-linecap="round" stroke-linejoin="round"/>
<path d="M24.6365 34C24.6365 35.5913 25.2686 37.1174 26.3938 38.2426C27.5191 39.3679 29.0452 40 30.6365 40C32.2278 40 33.7539 39.3679 34.8791 38.2426C36.0043 37.1174 36.6365 35.5913 36.6365 34C36.6365 32.4087 36.0043 30.8826 34.8791 29.7574C33.7539 28.6321 32.2278 28 30.6365 28C29.0452 28 27.5191 28.6321 26.3938 29.7574C25.2686 30.8826 24.6365 32.4087 24.6365 34V34Z" stroke="#747578" stroke-width="4" stroke-linecap="round" stroke-linejoin="round"/>
<path d="M41.0284 48.0001C39.975 46.1766 38.4602 44.6625 36.6363 43.6098C34.8124 42.5571 32.7436 42.0029 30.6377 42.0029C28.5319 42.0029 26.463 42.5571 24.6392 43.6098C22.8153 44.6625 21.3005 46.1766 20.2471 48.0001" stroke="#747578" stroke-width="4" stroke-linecap="round" stroke-linejoin="round"/>
</svg>
