<svg width="122" height="122" viewBox="0 0 122 122" fill="none" xmlns="http://www.w3.org/2000/svg">
<path d="M77.3398 39.4174C82.879 41.7508 97.2528 46.0465 103.463 42.6897C108.514 39.9537 100.839 35.699 97.5747 34.5681C97.1434 34.419 96.8253 35.0615 97.2611 35.2081C99.1306 35.8481 107.278 39.4571 103.273 41.9966C97.3725 45.7623 80.3696 40.4452 74.7126 37.3111C73.2099 36.4932 68.4406 33.1947 70.3146 31.0487C71.6323 29.5191 78.2506 30.1303 80.0726 30.3959C80.3926 30.4433 80.4867 29.9601 80.1674 29.907C77.8736 29.5403 69.5434 28.3614 69.311 31.9147C69.0787 35.4679 74.6678 38.2923 77.3398 39.4174Z" fill="#1E4C5C"/>
<path d="M80.5635 33.0436C81.2419 31.9799 82.6883 28.9642 83.448 28.5444C85.3156 27.5878 87.456 27.3045 89.5082 27.7425C91.633 28.1085 93.7578 29.0013 94.8784 30.2762C95.4416 30.9239 95.3616 31.6356 94.5648 31.9441C92.0317 32.9265 85.7904 31.6625 84.3613 29.6279C83.8301 28.8682 82.8419 30.0477 85.9869 31.5613C88.0349 32.5444 93.423 33.9466 95.4307 32.3293C95.505 33.8596 95.8026 35.4013 95.6438 36.9188C95.2982 40.3185 83.4269 37.2266 81.0096 34.7466C80.8022 34.5284 80.4464 34.8682 80.6256 35.1025C82.6653 37.7578 90.7978 39.633 93.9894 39.0225C95.121 38.8042 96.4118 38.0394 96.369 37.0199C96.2787 34.8439 96.625 30.6839 94.9142 29.3444C93.3209 28.1265 91.4501 27.3234 89.4698 27.0071C87.663 26.7153 83.9242 26.8637 82.7126 28.3773C81.6512 29.7489 80.7961 31.2683 80.1744 32.8874C80.0963 33.1178 80.4413 33.2343 80.5635 33.0436Z" fill="#1E4C5C"/>
<path d="M75.3155 43.2721C75.3462 42.0823 75.6502 41.1479 76.7548 40.5796C77.2028 40.3453 76.8508 39.7137 76.399 39.8993C74.2742 40.7812 74.6198 42.9911 74.4867 44.0957C74.2646 46.0292 71.8044 45.3386 71.5548 48.0369C71.5172 48.6517 71.6256 49.2668 71.8712 49.8318C72.1168 50.3967 72.4927 50.8955 72.968 51.2874C73.1747 51.4737 73.5523 51.2874 73.398 50.9905C72.7395 49.8109 71.5657 47.6388 73.366 46.5393C74.7312 45.7041 75.254 45.6637 75.3155 43.2721Z" fill="#1E4C5C"/>
<path d="M93.7738 45.1966C93.8021 45.1094 93.7972 45.0148 93.76 44.9309C93.7229 44.8471 93.656 44.78 93.5724 44.7424C93.4887 44.7049 93.3941 44.6996 93.3068 44.7275C93.2194 44.7555 93.1455 44.8147 93.0992 44.8939C92.0134 47.4159 90.4883 49.7251 88.5949 51.7137C86.4701 53.8123 83.5702 53.4295 82.3907 50.1579C82.3738 50.089 82.3306 50.0295 82.2703 49.992C82.2101 49.9545 82.1376 49.942 82.0684 49.9572C81.9991 49.9724 81.9385 50.0141 81.8995 50.0733C81.8604 50.1326 81.8461 50.2047 81.8595 50.2743C81.8915 52.2929 84.0797 54.1041 86.4675 53.7163C86.4328 54.9719 86.5886 56.2256 86.9296 57.4347C87.0781 57.7694 87.679 57.6267 87.6202 57.2702C87.2987 56.0576 87.1479 54.806 87.1722 53.5518C89.8 52.6436 92.8176 47.6503 93.7738 45.1966Z" fill="#1E4C5C"/>
<path d="M78.5238 54.3377C80.0348 45.5486 81.8659 44.9227 80.6217 44.3358C79.5222 43.8366 79.4057 42.4984 79.8096 41.468C79.9376 41.1435 79.3788 41.0532 79.2464 41.3457C78.6352 42.6737 78.9065 44.4478 80.2236 45.0635C79.0972 48.3569 78.2211 51.1435 77.9235 54.1732C77.9075 54.5188 78.4752 54.6206 78.5238 54.3377Z" fill="#1E4C5C"/>
<path d="M101.858 59.3361C101.385 57.2119 103.34 54.5559 99.7334 52.888C98.9737 52.5373 97.7571 52.312 97.6086 51.2944C97.4704 50.1898 98.3766 49.2068 98.5494 48.1392C98.6374 47.6292 98.6216 47.1067 98.5029 46.603C98.3843 46.0992 98.1652 45.6245 97.8588 45.2074C97.815 45.1563 97.7539 45.1229 97.6872 45.1136C97.6205 45.1043 97.5527 45.1197 97.4965 45.1569C97.4403 45.194 97.3996 45.2504 97.3821 45.3155C97.3645 45.3805 97.3713 45.4498 97.4012 45.5101C98.6979 48.1181 96.87 49.3399 96.8176 51.0077C96.7004 53.9185 101.189 52.7709 101.146 56.1117C101.146 57.5037 100.472 59.2407 101.449 60.5156C102.576 61.9876 105.486 62.6404 105.592 64.7012C105.656 65.848 104.976 66.746 104.317 67.6119C104.264 67.6946 104.242 67.7938 104.256 67.8913C104.269 67.9888 104.318 68.0781 104.392 68.1427C104.467 68.2073 104.562 68.2429 104.66 68.243C104.759 68.2431 104.854 68.2076 104.928 68.1431C106.235 66.9105 107.053 64.7754 105.991 63.1338C104.928 61.4922 102.216 60.9297 101.858 59.3361Z" fill="#1E4C5C"/>
<path d="M91.0704 45.1754C91.0108 44.6442 90.1033 44.8938 90.1616 46.0253C90.2044 46.8592 91.208 46.3972 91.0704 45.1754Z" fill="#1E4C5C"/>
<path d="M83.8192 47.7302C83.7486 48.2897 83.8883 48.8555 84.2113 49.3178C84.5342 49.78 85.0174 50.1059 85.567 50.232C85.96 50.264 86.0982 49.8973 85.8435 49.7379C85.1587 49.2899 84.5584 48.7498 84.7011 47.7776C84.7045 47.7195 84.6964 47.6614 84.6772 47.6065C84.6581 47.5515 84.6282 47.501 84.5895 47.4576C84.5507 47.4142 84.5038 47.379 84.4513 47.3538C84.3989 47.3286 84.342 47.3141 84.2839 47.3109C84.2258 47.3078 84.1677 47.3162 84.1129 47.3356C84.0581 47.355 84.0076 47.3851 83.9644 47.424C83.9213 47.463 83.8862 47.5101 83.8613 47.5626C83.8363 47.6152 83.822 47.6722 83.8192 47.7302Z" fill="#1E4C5C"/>
<path d="M87.0224 48.0593C86.8669 48.8081 89.9069 49.2017 89.3648 47.5287C89.2047 46.99 89.0788 46.4417 88.9878 45.8871C88.8944 45.3982 87.8697 45.7348 88.8445 47.9159C87.7872 48.0721 87.1433 47.4801 87.0224 48.0593Z" fill="#1E4C5C"/>
<path d="M86.5072 43.8743C86.4061 43.2631 85.3866 43.6989 85.6419 44.936C85.7744 45.5581 86.664 44.8304 86.5072 43.8743Z" fill="#1E4C5C"/>
<path d="M116.635 84.4394C116.114 84.8325 115.461 85.0076 114.813 84.9277C114.473 84.9277 114.429 85.544 114.755 85.6317C116.779 86.1629 118.505 84.0643 117.809 83.592C117.342 83.272 117.298 83.9344 116.635 84.4394Z" fill="#1E4C5C"/>
<path d="M75.56 86.2801C74.6 86.4241 72.232 87.7675 71.5498 88.8619C68.2403 88.172 64.113 85.1915 61.6381 82.6468C61.4358 82.4452 61.0698 82.7531 61.2541 82.9931C63.3789 85.7547 67.825 88.634 71.1978 89.5684C70.1622 92.2238 70.9962 93.0161 71.1446 92.2884C72.1386 87.5076 74.0714 88.4312 75.7603 86.6468C75.7873 86.6117 75.8034 86.5695 75.8068 86.5254C75.8102 86.4813 75.8008 86.4371 75.7795 86.3983C75.7583 86.3594 75.7263 86.3276 75.6873 86.3066C75.6483 86.2856 75.6041 86.2764 75.56 86.2801Z" fill="#1E4C5C"/>
<path d="M76.2076 91.7373C78.2793 91.9069 81.8172 88.7364 80.4572 88.9809C79.3948 89.1729 78.1468 91.1428 76.2505 91.0154C75.7354 90.9126 75.2135 90.8469 74.6889 90.8189C74.184 90.8503 74.6416 91.6093 76.2076 91.7373Z" fill="#1E4C5C"/>
<path d="M115.897 88.1572C115.488 88.1156 115.308 88.8157 113.849 88.7421C113.318 88.7421 113.318 89.2733 113.764 89.4218C114.454 89.6554 116.021 89.2625 116.149 88.6097C116.184 88.4228 116.109 88.1789 115.897 88.1572Z" fill="#1E4C5C"/>
<path d="M115.068 83.8129C115.539 83.8339 116.009 83.7571 116.449 83.5873C116.888 83.4176 117.288 83.1585 117.622 82.8266C117.957 82.4946 118.218 82.0969 118.391 81.6586C118.564 81.2203 118.645 80.7509 118.627 80.2801C118.627 80.0733 118.271 80.0785 118.133 80.2218C117.746 80.6205 117.857 82.7287 114.978 83.1857C114.606 83.2388 114.728 83.7975 115.068 83.8129Z" fill="#1E4C5C"/>
<path d="M79.416 97.0493C78.0474 97.26 76.6498 97.1796 75.3145 96.8135C73.9791 96.4474 72.7359 95.8037 71.6662 94.9245C69.2816 93.0282 63.2688 93.9473 54.3926 87.1005C50.8336 84.3543 53.5753 81.4167 54.7702 78.4689C54.7892 78.4112 54.7871 78.3487 54.7642 78.2924C54.7413 78.2362 54.6992 78.1899 54.6454 78.1618C54.5916 78.1337 54.5295 78.1257 54.4703 78.1392C54.4111 78.1526 54.3586 78.1867 54.3222 78.2353C51.6662 81.9268 50.4227 85.2151 54.582 88.2833C62.5916 94.2001 68.1801 93.4564 70.8092 95.1882C72.9814 96.6327 76.4073 98.7473 79.4249 97.5204C79.6496 97.4532 79.6771 97.0065 79.416 97.0493Z" fill="#1E4C5C"/>
<path d="M116.152 86.3518C115.651 86.7232 115.038 86.9108 114.415 86.883C113.719 86.7979 113.839 87.4462 114.325 87.5998C114.7 87.6953 115.095 87.6901 115.468 87.5847C115.841 87.4793 116.179 87.2774 116.45 86.9994C117.086 86.2718 116.566 85.921 116.152 86.3518Z" fill="#1E4C5C"/>
<path d="M80.3139 94.5265C78.0515 94.9745 77.8332 95.2484 75.2944 94.5265C74.9808 94.4413 74.694 94.8925 75.0185 95.0577C76.4579 95.8487 79.0819 96.0177 80.5104 95.1217C80.5805 95.0891 80.6362 95.0318 80.667 94.9608C80.6977 94.8899 80.7013 94.8101 80.677 94.7366C80.6528 94.6632 80.6024 94.6012 80.5354 94.5624C80.4685 94.5237 80.3896 94.5109 80.3139 94.5265Z" fill="#1E4C5C"/>
<path d="M81.647 91.3763C80.9776 91.4851 80.76 92.2723 78.575 92.8906C77.3904 93.2298 76.1155 92.9642 74.927 92.8099C74.8658 92.8134 74.8074 92.8366 74.7604 92.8758C74.7134 92.9151 74.6803 92.9685 74.6659 93.028C74.6516 93.0876 74.6567 93.1502 74.6807 93.2066C74.7047 93.263 74.7462 93.3101 74.799 93.3411C79.1933 95.1056 83.0589 91.144 81.647 91.3763Z" fill="#1E4C5C"/>
<path d="M64.0285 82.7076C64.1104 82.7491 64.2042 82.7613 64.294 82.7419C64.3839 82.7226 64.4643 82.6729 64.5219 82.6013C65.7277 80.5457 66.8592 78.4529 68.0067 76.3658C68.2403 75.9409 67.6138 75.5159 67.3744 75.9409C66.6525 77.2369 64.6659 80.6577 64.1878 81.8474C60.6275 80.1226 57.3253 77.9095 54.3766 75.2721C56.8944 71.3732 62.8067 60.3671 66.9974 58.0305C67.4595 57.7745 67.1459 56.9994 66.6678 57.2625C62.3389 59.5946 55.3226 72.2839 53.9837 74.7063C53.5997 75.402 53.5997 75.5082 54.1379 76.0657C56.3478 78.3626 61.4768 81.4557 64.0285 82.7076Z" fill="#1E4C5C"/>
<path d="M69.8762 96.3376C68.6338 104.577 66.9065 112.736 64.703 120.772C64.6282 121.028 65.0378 121.255 65.1754 120.968C66.769 117.659 70.4445 100.252 70.4874 96.4381C70.499 96.3578 70.4786 96.2762 70.4307 96.2107C70.3828 96.1453 70.3111 96.1012 70.231 96.0881C70.151 96.0749 70.069 96.0937 70.0026 96.1404C69.9363 96.187 69.8909 96.2578 69.8762 96.3376Z" fill="#1E4C5C"/>
<path d="M99.4787 107.959C99.4179 107.703 98.9475 107.774 98.9475 108.061C99.0429 110.35 101.422 117.504 103.574 120.357C104.105 121.085 104.769 121.095 104.18 120.049C102.047 116.262 100.464 112.192 99.4787 107.959Z" fill="#1E4C5C"/>
<path d="M102.108 65.6516C100.109 61.1108 99.3302 62.369 99.5849 62.7415C102.166 66.497 104.366 73.896 105.369 78.3632C105.486 78.8944 106.309 78.6653 106.192 78.129C105.244 73.8458 103.876 69.6665 102.108 65.6516Z" fill="#1E4C5C"/>
<path d="M90.696 56.1495C90.1534 55.9893 89.5995 55.8703 89.039 55.7936C88.5392 55.7187 88.4336 55.7936 88.406 56.2128C88.3301 59.267 88.091 62.315 87.6899 65.3437C84.4438 63.1235 79.6848 58.7837 77.4595 55.2957C76.9974 54.5738 76.806 54.4938 76.5404 54.5047C74.1872 54.5949 74.591 55.4647 74.9468 55.3917C75.4832 55.277 76.0292 55.2127 76.5776 55.1997C78.824 58.8592 83.8915 63.7303 87.4294 66.2077C87.8812 66.5277 88.1571 66.5047 88.2736 65.8621C88.8569 62.7763 89.1098 59.6371 89.0281 56.4976C89.5515 56.5656 90.0698 56.6684 90.5795 56.8055C90.6624 56.812 90.7447 56.7874 90.8104 56.7365C90.8762 56.6857 90.9207 56.6121 90.9352 56.5303C90.9497 56.4484 90.9333 56.3641 90.8891 56.2937C90.8449 56.2233 90.776 56.1719 90.696 56.1495Z" fill="#1E4C5C"/>
<path d="M97.7686 60.1226C96.7843 57.9287 96.0572 57.6791 95.0012 57.1901C93.9452 56.7012 91.0332 55.448 91.6809 56.2871C96.3606 62.2896 98.23 70.6288 98.9263 79.3911C99.3841 79.4029 99.8413 79.353 100.286 79.2426C100.69 76.2276 100.99 67.3047 97.7686 60.1226Z" fill="#1E4C5C"/>
<path d="M64.607 83.9082C65.5081 84.8821 66.5908 85.6706 67.7942 86.2295C67.9593 85.2202 68.166 79.8551 68.2672 77.5184C67.1624 79.7124 65.9406 81.8454 64.607 83.9082Z" fill="#1E4C5C"/>
<path d="M69.0051 95.5089C67.4121 95.0526 61.3564 94.0753 59.4441 92.5764C59.5081 95.3969 59.1094 98.7543 60.246 99.9601C61.3827 101.166 67.3692 100.63 68.2672 100.6C68.3996 99.5921 68.936 96.1886 69.0051 95.5089Z" fill="#1E4C5C"/>
<path d="M70.6889 54.792C69.2393 55.0877 68.1289 55.368 68.2832 56.4336C69.8761 67.519 69.3827 78.1744 68.6813 86.8163C69.1024 87.0667 69.5619 87.2462 70.0413 87.3475C73.9933 80.097 74.6678 65.5114 73.6157 54.7715C73.4621 53.1958 72.136 54.5008 70.6889 54.792Z" fill="#1E4C5C"/>
<path d="M66.854 55.7034C67.0236 54.1098 70.2108 54.0036 71.9907 52.7594C69.7756 52.6903 60.3472 52.1962 59.2425 53.7687C58.1379 55.3412 58.5385 63.0212 58.5385 64.9687C59.88 62.1886 64.0393 56.9681 66.854 55.7034Z" fill="#1E4C5C"/>
<path d="M111.509 78.6711C111.061 78.9489 96.5622 80.1259 93.3916 81.4116C92.9238 81.5979 77.2387 76.9316 77.1907 77.2843C77.1427 77.6369 76.5372 86.9943 76.4099 89.8622C79.2995 89.4142 79.6444 86.9252 81.4192 88.2052C84.8393 90.6705 81.7692 96.5553 81.0153 97.9051C80.2614 99.2548 77.0364 98.9246 75.4806 98.3671C75.4806 98.8235 73.919 104.661 74.5206 104.959C75.1222 105.257 88.8624 108.385 89.3936 108.082C89.9248 107.78 100.866 105.214 104.532 105.463C105.122 105.506 112.393 95.7534 112.696 95.1268C112.999 94.5003 113.955 92.0299 114.534 90.3467C114.391 90.4427 114.229 90.5063 114.059 90.533C113.889 90.5598 113.715 90.549 113.549 90.5014C113.384 90.4538 113.231 90.3707 113.101 90.2577C112.971 90.1447 112.867 90.0047 112.797 89.8475C112.398 89.1435 113.779 83.5691 114.156 82.8715C114.924 81.443 115.75 81.9959 117.275 80.8875C117.944 79.2043 121.901 69.6171 121.8 69.2663C121.699 68.9156 111.963 78.3915 111.509 78.6711ZM89.583 106.546C89.5299 106.866 88.9935 106.77 89.0518 106.467C90.2678 98.019 91.5536 88.5406 92.982 83.7963C92.9961 83.7469 93.0293 83.7051 93.0741 83.6801C93.119 83.6552 93.172 83.649 93.2214 83.6631C93.2708 83.6772 93.3126 83.7104 93.3375 83.7552C93.3625 83.8001 93.3686 83.8531 93.3545 83.9025C92.2121 90.9572 90.9718 98.1732 89.583 106.546ZM111.451 80.2379C110.192 87.0097 107.77 93.6446 105.337 102.743C105.258 103.041 104.761 102.861 104.838 102.579C106.886 94.771 108.758 87.8494 110.918 80.1316C110.932 80.0612 110.974 79.9992 111.033 79.9594C111.093 79.9195 111.166 79.905 111.237 79.9191C111.307 79.9332 111.369 79.9747 111.409 80.0345C111.449 80.0943 111.463 80.1674 111.449 80.2379H111.451Z" fill="#5199B5"/>
<path d="M14.088 31.7578C13.8435 31.7617 13.3385 31.7898 13.448 32.1457C14.3299 35.1364 15.334 38.0893 16.2793 41.0532C15.5568 42.2647 13.1433 47.8097 13.0499 48.0753C12.8163 48.7153 13.1401 48.7153 13.5811 48.7338C17.512 48.9201 21.1292 49.1748 25.0646 49.2388C25.1497 51.4148 24.9692 53.7009 25.1235 54.4068C25.2348 54.9009 25.9254 54.7524 26.0316 54.3485C26.2285 52.658 26.3173 50.9566 26.2972 49.2548C27.6675 49.2548 37.3564 49.4775 37.8928 49.1434C38.4291 48.8093 45.878 41.7437 45.5593 41.0749C44.2793 38.3447 41.039 33.7789 39.1856 31.2586C38.8617 30.8228 16.712 31.7207 14.088 31.7578ZM37.4908 48.4369C30.3785 48.5009 21.6252 48.4369 13.9446 48.0861C14.534 46.7633 16.7011 42.1898 16.9878 40.8938C17.078 40.4797 14.5712 33.1658 14.3587 32.5015C15.6176 32.5015 37.3315 32.1668 38.6652 31.9332C40.9436 35.1204 43.0044 38.6045 44.8688 41.1703L37.4908 48.4369Z" fill="#5199B5"/>
<path d="M26.2569 5.34821C26.2569 6.41061 25.8582 12.1527 26.3421 12.9117C26.3836 12.9739 26.4405 13.0243 26.5071 13.0581C26.5738 13.0919 26.648 13.108 26.7227 13.1049C26.7974 13.1017 26.87 13.0794 26.9336 13.0401C26.9972 13.0008 27.0496 12.9458 27.0857 12.8804C27.5267 12.2481 27.4838 6.59621 27.5158 5.44357C29.6726 4.94437 29.9005 0.684532 27.096 0.907892C24.5251 1.13061 23.9517 4.54053 26.2569 5.34821Z" fill="#5199B5"/>
<path d="M35.3558 37.3296C34.1078 37.3629 21.8909 37.5856 20.5949 37.8608C20.4861 37.8863 20.3897 37.9489 20.3223 38.038C20.2548 38.127 20.2207 38.2368 20.2257 38.3484C20.2307 38.46 20.2746 38.5663 20.3497 38.649C20.4248 38.7316 20.5265 38.7854 20.6371 38.801C22.5065 39.1146 32.6416 38.6205 35.2547 38.5302C36.0253 38.5091 36.1366 37.3091 35.3558 37.3296Z" fill="#5199B5"/>
<path d="M34.7235 42.632C33.7834 42.3504 22.6768 42.4778 21.4448 42.632C21.3407 42.6684 21.2504 42.7363 21.1865 42.8262C21.1227 42.9162 21.0884 43.0238 21.0884 43.1341C21.0884 43.2444 21.1227 43.352 21.1865 43.4419C21.2504 43.5319 21.3407 43.5998 21.4448 43.6362C22.0342 43.7155 33.5286 44.0131 34.7235 43.6362C34.816 43.5889 34.8937 43.517 34.9479 43.4284C35.0021 43.3398 35.0308 43.238 35.0308 43.1341C35.0308 43.0302 35.0021 42.9284 34.9479 42.8398C34.8937 42.7512 34.816 42.6793 34.7235 42.632Z" fill="#5199B5"/>
<path d="M48.8105 55.5863C35.0077 54.7594 21.0781 55.2573 7.24638 54.6941C7.24638 54.6941 1.82302 58.168 1.25982 58.513C0.107816 59.2349 -0.217944 59.2682 0.853416 60.241C1.40638 60.7421 6.0515 64.792 7.30462 65.7379C7.45374 65.8499 23.0749 65.3821 24.8067 65.3661C24.8067 67.0768 24.5993 68.9834 24.7056 69.615C24.7805 70.0829 25.9753 70.184 25.9753 69.4672C26.0706 68.104 26.092 66.7367 26.0393 65.3712C28.015 65.3712 47.7693 65.4877 48.3056 65.3712C48.7043 65.2963 48.7094 64.9565 48.5552 64.6967C48.0931 63.8998 45.5702 61.3181 44.7312 60.4842C46.1117 59.0979 47.3865 57.6214 48.8739 56.3197C49.1555 56.0803 49.2624 55.6131 48.8105 55.5863ZM40.0675 62.6083C35.1753 62.8003 15.9734 63.1395 11.384 62.2576C11.0493 62.1885 10.991 61.6176 11.384 61.6176C19.8032 61.5702 30.968 61.905 39.9395 61.5645C40.5667 61.5408 40.7421 62.5821 40.0675 62.6083ZM40.8323 59.464C31 59.5402 20.1168 60.104 10.3965 59.5171C9.97662 59.5171 10.04 58.8131 10.4336 58.8054C19.8825 58.6134 30.984 58.3805 40.7472 58.3645C41.4537 58.3645 41.544 59.4582 40.8323 59.464Z" fill="#5199B5"/>
<path d="M33.032 74.4643C29.256 74.2499 15.503 73.3219 14.4413 74.0976C14.4039 74.1276 14.3737 74.1656 14.353 74.2088C14.3323 74.252 14.3215 74.2993 14.3215 74.3472C14.3215 74.3951 14.3323 74.4424 14.353 74.4856C14.3737 74.5288 14.4039 74.5668 14.4413 74.5968C14.5846 74.687 30.4029 75.9408 32.9469 75.3008C33.288 75.2182 33.3955 74.4848 33.032 74.4643Z" fill="#5199B5"/>
<path d="M11.208 31.2324C16.3171 29.2337 20.8387 27.2721 25.9594 25.2881C25.9114 26.3933 25.6394 29.3361 25.9914 30.3716C26.1136 30.7434 26.6314 30.6481 26.767 30.3716C27.0166 29.7956 27.4838 25.4212 27.1331 24.858C28.424 24.3588 38.952 20.6621 39.1427 20.2583C39.9242 20.4337 43.297 13.8839 43.5517 13.2522C43.6317 13.0449 43.727 12.7844 43.4237 12.6519C41.2246 11.7066 39.0205 10.7818 36.8157 9.84741C36.7843 9.84741 12.3504 20.8209 10.3638 21.6234C10.2467 21.6708 10.4221 24.0292 10.5603 26.5156C10.696 28.8721 10.7779 31.4007 11.208 31.2324ZM14.0074 24.6775C18.5597 22.0535 29.4858 17.6817 34.8931 15.5255C36.8899 14.7287 37.2355 15.6535 36.625 16.0567C34.0592 17.6874 17.9754 24.0881 14.3581 25.4845C14.2511 25.531 14.13 25.5331 14.0214 25.4903C13.9128 25.4476 13.8257 25.3634 13.7792 25.2564C13.7327 25.1494 13.7306 25.0282 13.7734 24.9197C13.8162 24.8111 13.9003 24.724 14.0074 24.6775Z" fill="#5199B5"/>
<path d="M35.5683 70.9694C34.6819 71.1422 13.2963 70.3153 10.8157 70.2417C10.6141 70.2417 10.5872 70.4215 10.465 70.5175C10.0246 70.8375 10.513 76.9335 10.545 77.6139C10.5403 77.7175 10.5758 77.819 10.6441 77.8971C10.7125 77.9752 10.8083 78.0239 10.9117 78.0331C13.2483 78.4209 35.4198 79.0212 35.919 78.7979C36.5776 78.506 40.3645 75.2446 40.3274 74.6871C40.2902 74.1297 36.104 70.8644 35.5683 70.9694ZM35.7859 78.3095C35.3136 78.3095 12.3453 77.5454 11.2835 77.2471C11.0776 75.1788 10.9921 73.1002 11.0275 71.0219C17.7098 71.139 28.6038 71.4699 35.4614 71.7073C35.8595 71.8187 39.0678 74.4055 39.583 74.7243L35.7859 78.3095Z" fill="#5199B5"/>
<path d="M24.392 80.4503C23.8371 90.7799 23.903 109.064 23.6694 120.373C23.6694 121.053 24.7638 121.101 24.8752 120.421C25.247 118.121 25.7712 84.5809 25.5658 80.4983C25.5293 79.8449 24.4278 79.786 24.392 80.4503Z" fill="#5199B5"/>
</svg>
