<svg width="204" height="204" viewBox="0 0 204 204" fill="none" xmlns="http://www.w3.org/2000/svg">
<path d="M121.375 193.859C120.823 193.859 120.375 193.411 120.375 192.859V133.609C120.375 133.056 120.823 132.609 121.375 132.609H192.875C193.427 132.609 193.875 133.056 193.875 133.609V192.859C193.875 193.411 193.427 193.859 192.875 193.859H121.375Z" stroke="white" stroke-width="19.25" stroke-linecap="round" stroke-linejoin="round"/>
<path d="M11.125 132.609C10.5727 132.609 10.125 132.161 10.125 131.609L10.125 72.3586C10.125 71.8064 10.5727 71.3586 11.125 71.3586H82.625C83.1773 71.3586 83.625 71.8064 83.625 72.3586V131.609C83.625 132.161 83.1773 132.609 82.625 132.609H11.125Z" stroke="white" stroke-width="19.25" stroke-linecap="round" stroke-linejoin="round"/>
<path d="M121.375 71.3586C120.823 71.3586 120.375 70.9109 120.375 70.3586V11.1086C120.375 10.5564 120.823 10.1086 121.375 10.1086L192.875 10.1086C193.427 10.1086 193.875 10.5564 193.875 11.1086V70.3586C193.875 70.9109 193.427 71.3586 192.875 71.3586H121.375Z" stroke="white" stroke-width="19.25" stroke-linecap="round" stroke-linejoin="round"/>
<path d="M89.75 102L151 101.984" stroke="white" stroke-width="19.25" stroke-linecap="round" stroke-linejoin="round"/>
<path d="M151 77.5V126.5" stroke="white" stroke-width="19.25" stroke-linecap="round" stroke-linejoin="round"/>
</svg>
