<svg width="267" height="202" viewBox="0 0 267 202" fill="none" xmlns="http://www.w3.org/2000/svg">
<path d="M192.354 39.008C191.374 39.288 159.763 61.8686 157.148 63.8524C154.533 65.8362 149.386 72.8432 150.056 73.483C151.092 74.4742 159.951 71.2668 161.137 70.5794C162.322 69.892 195.358 46.5652 196.977 45.4466C198.595 44.328 193.341 38.7294 192.354 39.008Z" fill="#FC4040"/>
<path d="M134.052 111.35C120.044 112.154 107.213 100.99 87.1982 94.7266C78.7982 96.1896 62.8844 95.3804 60.5982 90.1948C30.6774 94.6272 5.43819 113.575 1.51819 126.315C-2.23801 138.505 15.1262 162.596 23.4604 170.465C27.1396 149.542 32.2552 127.263 40.3822 107.605C40.7938 106.608 41.7136 107.219 41.4014 108.182C32.4975 135.604 26.1898 163.801 22.5616 192.403C38.3816 201.757 88.7816 203.941 105.111 199.939C105.244 193.036 106.219 169.863 107.117 151.933C100.102 151.373 93.1034 150.556 86.1608 149.413C85.052 149.231 85.5406 148.06 86.627 148.205C99.6834 149.958 126.107 153.028 141.367 148.848C150.747 146.277 170.003 136.388 185.327 89.7678C180.895 86.4428 173.358 83.5728 165.934 82.7678C163.907 88.61 140.944 110.954 134.052 111.35Z" fill="#FC4040"/>
<path d="M126.517 12.7328C134.145 18.0738 140.987 24.4584 146.841 31.7C147.769 32.8018 148.801 31.9352 149.501 31.035C158.805 19.0118 163.781 11.9558 176.219 1.635C177.199 0.825798 176.09 -0.358602 175.044 0.374998C166.519 6.3306 153.413 18.8816 147.817 27.7464C141.839 21.2695 135.01 15.6331 127.517 10.9912C126.082 10.1148 125.124 11.806 126.517 12.7328Z" fill="#FC4040"/>
<path d="M134.895 11.414C137.31 11.694 154.841 10.9534 157.575 10.9044C158.938 10.8792 159.039 8.70081 157.653 8.75401C154.894 8.85901 137.213 9.26781 134.735 9.70741C133.72 9.88661 133.986 11.3062 134.895 11.414Z" fill="#FC4040"/>
<path d="M129.11 64.7288C127.894 64.18 126.894 65.8362 128.003 66.5236C134.206 70.3896 140.131 74.685 145.734 79.3784C147.425 80.791 149.505 78.1002 147.834 76.675C142.183 71.8349 135.881 67.8134 129.11 64.7288Z" fill="#FC4040"/>
<path d="M165.16 36.4922C165.22 31.2716 164.711 25.6758 164.683 20.423C164.683 19.093 162.832 19.3156 162.843 20.6442C162.889 26.2078 162.936 31.7672 162.983 37.3224C158.806 37.3224 139.956 37.8334 135.655 38.6412C135.202 33.8658 134.984 29.0526 134.282 24.3024C134.246 24.1143 134.142 23.946 133.99 23.8298C133.838 23.7137 133.648 23.6578 133.457 23.6728C133.266 23.6879 133.088 23.773 132.956 23.9116C132.824 24.0503 132.747 24.2328 132.742 24.4242C132.964 29.089 133.162 33.8546 133.519 38.5194C133.709 41.0016 133.717 40.8364 136.166 40.6586C144.644 40.0412 153.277 39.5386 161.776 39.4616C164.229 39.4378 165.124 39.6058 165.16 36.4922Z" fill="#FC4040"/>
<path d="M154.621 55.5644C149.932 55.6246 144.821 55.6974 140.159 56.228C135.294 56.788 135.637 57.1968 135.981 61.5816C136.06 62.7346 136.208 63.8818 136.423 65.0172C136.449 65.2299 136.552 65.4259 136.712 65.5681C136.872 65.7102 137.079 65.7887 137.294 65.7887C137.508 65.7887 137.715 65.7102 137.875 65.5681C138.035 65.4259 138.138 65.2299 138.164 65.0172C138.164 64.2192 137.776 58.7998 137.884 58.6668C137.991 58.5338 152.712 57.5006 154.285 57.3928C155.64 57.299 155.972 55.5462 154.621 55.5644Z" fill="#FC4040"/>
<path d="M138.928 77.0068C138.881 76.7945 138.758 76.6066 138.582 76.478C138.407 76.3495 138.191 76.2891 137.974 76.3081C137.757 76.3272 137.555 76.4242 137.404 76.5813C137.254 76.7384 137.165 76.9449 137.156 77.1622C137.218 80.0644 137.428 82.9616 137.787 85.8422C137.767 86.1147 137.855 86.3841 138.033 86.5915C138.211 86.7988 138.464 86.9271 138.736 86.9482C138.876 86.9594 149.602 86.6836 157.446 85.9416C159.452 85.7526 158.233 83.9564 157.058 84.0474C151.517 84.4674 145.312 84.69 139.749 84.8552C139.527 82.1602 139.338 79.5898 138.928 77.0068Z" fill="#FC4040"/>
<path d="M91.3214 51.5296C88.618 51.3644 87.0108 54.6992 88.4626 54.9988C89.2158 55.1542 89.4594 53.2698 91.1996 53.281C91.4318 53.2972 91.661 53.2204 91.8366 53.0676C92.0123 52.9148 92.12 52.6985 92.1362 52.4662C92.1523 52.234 92.0755 52.0048 91.9227 51.8292C91.7699 51.6535 91.5536 51.5458 91.3214 51.5296Z" fill="#113362"/>
<path d="M95.0997 48.5378C94.6965 47.7258 93.9797 48.3866 94.1687 49.158C95.3573 53.9054 96.7055 56.55 97.7149 61.8252C98.2581 64.6616 95.6667 62.9326 95.5869 65.1502C95.5359 66.7932 95.3694 68.4306 95.0885 70.0502C93.9647 69.8529 92.9368 69.2922 92.1625 68.4542C91.6641 67.8004 90.8003 68.3884 91.2105 69.2634C91.5785 69.9439 92.105 70.5257 92.7454 70.9597C93.3858 71.3937 94.1213 71.6671 94.8897 71.7568C93.9923 78.8968 90.2193 79.3056 84.1839 78.0568C83.0751 77.8286 81.9649 77.4338 80.7483 77.27C80.1603 77.1916 78.6483 78.3788 82.5991 79.4862C82.5991 81.4042 83.0191 91.1902 83.5637 92.985C83.7947 93.7382 84.9833 93.6486 84.9161 92.796C84.5661 88.3622 84.4275 84.2182 84.3561 79.8852C96.3961 82.3464 96.2029 74.9768 97.1661 65.5352C99.6483 65.1796 99.7603 63.1258 99.3823 61.1574C98.5354 56.7756 97.0945 52.53 95.0997 48.5378Z" fill="#113362"/>
<path d="M61.0237 28.2252C57.8037 16.5772 45.3311 4.52041 28.5437 13.276C11.7563 22.0316 13.9837 45.5922 23.0137 55.5644C28.6865 61.8266 34.0961 69.2172 33.2645 74.9572C32.4329 80.6972 41.2683 75.7104 36.6665 56.9042C32.9887 41.8766 44.9993 29.3774 54.3961 35.2616C56.119 32.5016 58.3716 30.1101 61.0237 28.2252Z" fill="#113362"/>
<path d="M77.779 55.9522C80.2864 57.4404 95.8712 44.867 94.9122 41.9774C87.2122 18.7976 58.5766 24.8092 53.986 41.3894C48.8354 59.994 64.1696 74.5862 65.1454 74.4588C66.5636 74.2726 71.0254 71.411 72.6816 65.8362C73.411 66.2631 74.2409 66.4882 75.0861 66.4882C75.9312 66.4882 76.7612 66.2631 77.4906 65.8362C78.4426 65.2944 77.7552 64.2136 76.7486 64.5762C74.2958 65.4512 71.6512 63.4674 71.9172 59.2352C71.9232 58.5532 72.1094 57.8849 72.4568 57.2981C72.8043 56.7112 73.3007 56.2266 73.8957 55.8933C74.4908 55.5601 75.1633 55.39 75.8453 55.4003C76.5272 55.4107 77.1943 55.6011 77.779 55.9522Z" fill="#113362"/>
<path d="M64.3585 76.619C63.4494 80.8135 62.963 85.0885 62.9067 89.38C62.9242 89.5578 63.0042 89.7236 63.1325 89.848C63.2608 89.9723 63.4291 90.0471 63.6073 90.059C63.7856 90.0709 63.9623 90.0192 64.106 89.9131C64.2497 89.807 64.3511 89.6533 64.3921 89.4794C65.2405 85.3956 65.3721 80.9912 66.1211 76.7464C66.2989 75.7328 64.5489 75.6334 64.3585 76.619Z" fill="#113362"/>
<path d="M92.9801 57.18C92.3417 54.9596 90.2389 54.863 91.0635 57.9892C91.8139 60.82 93.6535 59.5152 92.9801 57.18Z" fill="#113362"/>
<path d="M161.425 56.8818C162.092 56.2098 167.025 55.8262 167.398 55.7072C168.248 55.4272 168.052 54.177 167.342 53.9012C165.913 53.3412 161.868 54.1448 160.516 54.8812C159.164 55.6176 158.937 58.0858 157.734 60.6772C157.117 62.0072 156.289 63.2308 155.75 64.5888C155.489 65.251 156.288 65.7088 156.859 65.2538C159.585 63.1062 161.391 56.9154 161.425 56.8818Z" fill="#113362"/>
<path d="M158.111 68.485C157.925 68.4758 157.741 68.5329 157.593 68.6463C157.445 68.7596 157.342 68.9218 157.302 69.104C157.262 69.2862 157.288 69.4767 157.376 69.6414C157.463 69.8062 157.606 69.9347 157.779 70.004C167.424 73.5376 166.831 79.9678 168.174 81.4952C168.464 81.8256 170.361 82.5312 169.892 79.8152C168.945 74.3356 163.707 68.926 158.111 68.485Z" fill="#113362"/>
<path d="M177.859 62.0128C181.609 71.152 181.793 73.4074 181.55 83.2928C181.522 84.4016 183.184 84.8468 183.478 83.7128C185.181 77.1496 183.186 66.6328 179.255 61.0944C178.676 60.2768 177.514 61.1714 177.859 62.0128Z" fill="#113362"/>
<path d="M171.721 64.9276C171.501 67.4112 169.933 67.3916 168.396 67.8536C166.475 68.4304 167.564 68.961 168.396 69.1612C169.035 69.3416 169.71 69.3582 170.358 69.2093C171.005 69.0605 171.605 68.7511 172.102 68.3096C172.599 67.8681 172.976 67.3087 173.2 66.683C173.424 66.0572 173.486 65.3852 173.382 64.7288C173.15 63.634 171.814 63.865 171.721 64.9276Z" fill="#113362"/>
<path d="M240.505 30.3742C242.633 30.2566 242.011 26.9974 239.906 27.1164C224.692 27.9788 209.218 27.0604 194.47 27.9816C192.79 28.0852 193.086 30.629 194.61 30.8068C203.404 31.8316 231.917 30.86 240.505 30.3742Z" fill="#113362"/>
<path d="M265.239 10.0504C247.112 9.45121 208.889 9.63041 192.044 11.4028C190.669 11.5428 190.293 14.0726 191.945 14.0628C211.227 13.9424 243.015 12.6502 265.55 13.3628C267.7 13.4328 267.346 10.1204 265.239 10.0504Z" fill="#113362"/>
<path d="M262.991 56.417C241.036 58.237 214.723 55.9704 194.716 58.3896C193.131 58.5814 193.528 61.2792 195.158 61.1896C213.021 60.1214 239.485 60.8886 263.079 59.7714C265.207 59.6636 265.151 56.2378 262.991 56.417Z" fill="#113362"/>
<path d="M237.712 71.9766C227.449 71.3634 204.734 71.4306 196.132 71.8534C194.525 71.9332 194.293 74.6436 195.966 74.7458C208.777 75.5326 222.762 75.492 237.522 75.1896C239.264 75.1546 239.629 72.09 237.712 71.9766Z" fill="#113362"/>
</svg>
